  0
SECTION
  2
HEADER
  9
$ACADVER
  1
AC1014
  9
$ACADMAINTVER
 70
     9
  9
$DWGCODEPAGE
  3
ANSI_1252
  9
$INSBASE
 10
0.0
 20
0.0
 30
0.0
  9
$EXTMIN
 10
0.0
 20
0.0
 30
0.0
  9
$EXTMAX
 10
96.062992126
 20
48.031496063
 30
0.0
  9
$LIMMIN
 10
0.0
 20
0.0
  9
$LIMMAX
 10
96.062992126
 20
48.031496063
  9
$ORTHOMODE
 70
     0
  9
$REGENMODE
 70
     1
  9
$FILLMODE
 70
     1
  9
$QTEXTMODE
 70
     0
  9
$MIRRTEXT
 70
     1
  9
$DRAGMODE
 70
     2
  9
$LTSCALE
 40
1.0
  9
$OSMODE
 70
    37
  9
$ATTMODE
 70
     1
  9
$TEXTSIZE
 40
0.1377952756
  9
$TRACEWID
 40
0.05
  9
$TEXTSTYLE
  7
STANDARD
  9
$CLAYER
  8
0
  9
$CELTYPE
  6
BYLAYER
  9
$CECOLOR
 62
   256
  9
$CELTSCALE
 40
1.0
  9
$DELOBJ
 70
     1
  9
$DISPSILH
 70
     0
  9
$DIMSCALE
 40
1.0
  9
$DIMASZ
 40
0.13
  9
$DIMEXO
 40
0.0393700787
  9
$DIMDLI
 40
0.38
  9
$DIMRND
 40
0.0
  9
$DIMDLE
 40
0.0
  9
$DIMEXE
 40
0.0393700787
  9
$DIMTP
 40
0.0
  9
$DIMTM
 40
0.0
  9
$DIMTXT
 40
0.1805555556
  9
$DIMCEN
 40
0.09
  9
$DIMTSZ
 40
0.0
  9
$DIMTOL
 70
     0
  9
$DIMLIM
 70
     0
  9
$DIMTIH
 70
     1
  9
$DIMTOH
 70
     1
  9
$DIMSE1
 70
     0
  9
$DIMSE2
 70
     0
  9
$DIMTAD
 70
     1
  9
$DIMZIN
 70
     0
  9
$DIMBLK
  1

  9
$DIMASO
 70
     1
  9
$DIMSHO
 70
     1
  9
$DIMPOST
  1

  9
$DIMAPOST
  1

  9
$DIMALT
 70
     0
  9
$DIMALTD
 70
     2
  9
$DIMALTF
 40
25.4
  9
$DIMLFAC
 40
1.0
  9
$DIMTOFL
 70
     0
  9
$DIMTVP
 40
0.0
  9
$DIMTIX
 70
     0
  9
$DIMSOXD
 70
     0
  9
$DIMSAH
 70
     0
  9
$DIMBLK1
  1

  9
$DIMBLK2
  1

  9
$DIMSTYLE
  2
STANDARD
  9
$DIMCLRD
 70
     0
  9
$DIMCLRE
 70
     0
  9
$DIMCLRT
 70
     0
  9
$DIMTFAC
 40
1.0
  9
$DIMGAP
 40
0.06
  9
$DIMJUST
 70
     0
  9
$DIMSD1
 70
     0
  9
$DIMSD2
 70
     0
  9
$DIMTOLJ
 70
     1
  9
$DIMTZIN
 70
     0
  9
$DIMALTZ
 70
     0
  9
$DIMALTTZ
 70
     0
  9
$DIMFIT
 70
     3
  9
$DIMUPT
 70
     0
  9
$DIMUNIT
 70
     2
  9
$DIMDEC
 70
     2
  9
$DIMTDEC
 70
     2
  9
$DIMALTU
 70
     2
  9
$DIMALTTD
 70
     2
  9
$DIMTXSTY
  7
STANDARD
  9
$DIMAUNIT
 70
     0
  9
$LUNITS
 70
     2
  9
$LUPREC
 70
     2
  9
$SKETCHINC
 40
0.1
  9
$FILLETRAD
 40
0.5
  9
$AUNITS
 70
     0
  9
$AUPREC
 70
     2
  9
$MENU
  1
.
  9
$ELEVATION
 40
0.0
  9
$PELEVATION
 40
0.0
  9
$THICKNESS
 40
0.0
  9
$LIMCHECK
 70
     0
  9
$CHAMFERA
 40
0.0
  9
$CHAMFERB
 40
0.0
  9
$CHAMFERC
 40
0.0
  9
$CHAMFERD
 40
0.0
  9
$SKPOLY
 70
     0
  9
$TDCREATE
 40
2457697.513000625
  9
$TDUPDATE
 40
2457697.513001169
  9
$TDINDWG
 40
0.0000000116
  9
$TDUSRTIMER
 40
0.0000000116
  9
$USRTIMER
 70
     1
  9
$ANGBASE
 50
0.0
  9
$ANGDIR
 70
     0
  9
$PDMODE
 70
     0
  9
$PDSIZE
 40
-1.0
  9
$PLINEWID
 40
0.0
  9
$COORDS
 70
     1
  9
$SPLFRAME
 70
     0
  9
$SPLINETYPE
 70
     6
  9
$SPLINESEGS
 70
     8
  9
$ATTDIA
 70
     0
  9
$ATTREQ
 70
     1
  9
$HANDLING
 70
     1
  9
$HANDSEED
  5
3B0
  9
$SURFTAB1
 70
     6
  9
$SURFTAB2
 70
     6
  9
$SURFTYPE
 70
     6
  9
$SURFU
 70
     6
  9
$SURFV
 70
     6
  9
$UCSNAME
  2

  9
$UCSORG
 10
0.0
 20
0.0
 30
0.0
  9
$UCSXDIR
 10
1.0
 20
0.0
 30
0.0
  9
$UCSYDIR
 10
0.0
 20
1.0
 30
0.0
  9
$PUCSNAME
  2

  9
$PUCSORG
 10
0.0
 20
0.0
 30
0.0
  9
$PUCSXDIR
 10
1.0
 20
0.0
 30
0.0
  9
$PUCSYDIR
 10
0.0
 20
1.0
 30
0.0
  9
$USERI1
 70
     0
  9
$USERI2
 70
     0
  9
$USERI3
 70
     0
  9
$USERI4
 70
     0
  9
$USERI5
 70
     0
  9
$USERR1
 40
0.0
  9
$USERR2
 40
0.0
  9
$USERR3
 40
0.0
  9
$USERR4
 40
0.0
  9
$USERR5
 40
0.0
  9
$WORLDVIEW
 70
     1
  9
$SHADEDGE
 70
     3
  9
$SHADEDIF
 70
    70
  9
$TILEMODE
 70
     1
  9
$MAXACTVP
 70
    64
  9
$PINSBASE
 10
0.0
 20
0.0
 30
0.0
  9
$PLIMCHECK
 70
     0
  9
$PEXTMIN
 10
1.0000000000E+20
 20
1.0000000000E+20
 30
1.0000000000E+20
  9
$PEXTMAX
 10
-1.0000000000E+20
 20
-1.0000000000E+20
 30
-1.0000000000E+20
  9
$PLIMMIN
 10
0.0
 20
0.0
  9
$PLIMMAX
 10
12.0
 20
9.0
  9
$UNITMODE
 70
     0
  9
$VISRETAIN
 70
     1
  9
$PLINEGEN
 70
     0
  9
$PSLTSCALE
 70
     1
  9
$TREEDEPTH
 70
  3020
  9
$PICKSTYLE
 70
     1
  9
$CMLSTYLE
  2
STANDARD
  9
$CMLJUST
 70
     0
  9
$CMLSCALE
 40
1.0
  9
$PROXYGRAPHICS
 70
     1
  9
$MEASUREMENT
 70
     0
  0
ENDSEC
  0
SECTION
  2
CLASSES
  0
CLASS
  1
ACDBDICTIONARYWDFLT
  2
AcDbDictionaryWithDefault
  3
ObjectDBX Classes
 90
        0
280
     0
281
     0
  0
CLASS
  1
VISUALSTYLE
  2
AcDbVisualStyle
  3
ObjectDBX Classes
 90
     4095
280
     0
281
     0
  0
CLASS
  1
MATERIAL
  2
AcDbMaterial
  3
ObjectDBX Classes
 90
     1153
280
     0
281
     0
  0
CLASS
  1
SCALE
  2
AcDbScale
  3
ObjectDBX Classes
 90
     1153
280
     0
281
     0
  0
CLASS
  1
TABLESTYLE
  2
AcDbTableStyle
  3
ObjectDBX Classes
 90
     4095
280
     0
281
     0
  0
CLASS
  1
MLEADERSTYLE
  2
AcDbMLeaderStyle
  3
ACDB_MLEADERSTYLE_CLASS
 90
     4095
280
     0
281
     0
  0
CLASS
  1
SUN
  2
AcDbSun
  3
SCENEOE
 90
     1153
280
     0
281
     0
  0
CLASS
  1
XRECORD
  2
AcDbXrecord
  3
ObjectDBX Classes
 90
        0
280
     0
281
     0
  0
CLASS
  1
LWPOLYLINE
  2
AcDbPolyline
  3
ObjectDBX Classes
 90
        0
280
     0
281
     1
  0
CLASS
  1
HATCH
  2
AcDbHatch
  3
ObjectDBX Classes
 90
        0
280
     0
281
     1
  0
ENDSEC
  0
SECTION
  2
TABLES
  0
TABLE
  2
VPORT
  5
8
330
0
100
AcDbSymbolTable
 70
     1
  0
VPORT
  5
29
330
8
100
AcDbSymbolTableRecord
100
AcDbViewportTableRecord
  2
*ACTIVE
 70
     0
 10
0.0
 20
0.0
 11
1.0
 21
1.0
 12
48.031496063
 22
24.0157480315
 13
0.0
 23
0.0
 14
0.5
 24
0.5
 15
0.5
 25
0.5
 16
0.0
 26
0.0
 36
1.0
 17
0.0
 27
0.0
 37
0.0
 40
48.031496063
 41
2.0
 42
50.0
 43
0.0
 44
0.0
 50
0.0
 51
0.0
 71
     0
 72
  2000
 73
     1
 74
     3
 75
     0
 76
     0
 77
     0
 78
     0
  0
ENDTAB
  0
TABLE
  2
LTYPE
  5
5
330
0
100
AcDbSymbolTable
 70
     6
  0
LTYPE
  5
14
330
5
100
AcDbSymbolTableRecord
100
AcDbLinetypeTableRecord
  2
BYBLOCK
 70
     0
  3

 72
    65
 73
     0
 40
0.0
  0
LTYPE
  5
15
330
5
100
AcDbSymbolTableRecord
100
AcDbLinetypeTableRecord
  2
BYLAYER
 70
     0
  3

 72
    65
 73
     0
 40
0.0
  0
LTYPE
  5
16
330
5
100
AcDbSymbolTableRecord
100
AcDbLinetypeTableRecord
  2
CONTINUOUS
 70
     0
  3
Solid line
 72
    65
 73
     0
 40
0.0
  0
LTYPE
  5
6E
330
5
100
AcDbSymbolTableRecord
100
AcDbLinetypeTableRecord
  2
HIDDEN
 70
     0
  3
Hidden __ __ __ __ __ __ __ __ __ __ __ __ __ __
 72
    65
 73
     2
 40
0.075
 49
0.05
 74
     0
 49
-0.025
 74
     0
  0
LTYPE
  5
6F
330
5
100
AcDbSymbolTableRecord
100
AcDbLinetypeTableRecord
  2
PHANTOM
 70
     0
  3
Phantom ______  __  __  ______  __  __  ______
 72
    65
 73
     6
 40
0.5
 49
0.25
 74
     0
 49
-0.05
 74
     0
 49
0.05
 74
     0
 49
-0.05
 74
     0
 49
0.05
 74
     0
 49
-0.05
 74
     0
  0
LTYPE
  5
70
330
5
100
AcDbSymbolTableRecord
100
AcDbLinetypeTableRecord
  2
CENTER
 70
     0
  3
Center ____ _ ____ _ ____ _ ____ _ ____ _ ____
 72
    65
 73
     4
 40
0.4
 49
0.25
 74
     0
 49
-0.05
 74
     0
 49
0.05
 74
     0
 49
-0.05
 74
     0
  0
LTYPE
  5
71
330
5
100
AcDbSymbolTableRecord
100
AcDbLinetypeTableRecord
  2
CENTERX2
 70
     0
  3
Center (2x) ________  __  ________  __  _____
 72
    65
 73
     4
 40
0.8
 49
0.5
 74
     0
 49
-0.1
 74
     0
 49
0.1
 74
     0
 49
-0.1
 74
     0
  0
LTYPE
  5
72
330
5
100
AcDbSymbolTableRecord
100
AcDbLinetypeTableRecord
  2
DOT2
 70
     0
  3
Dot (.5x) ........................................
 72
    65
 73
     2
 40
0.025
 49
0.0
 74
     0
 49
-0.025
 74
     0
  0
ENDTAB
  0
TABLE
  2
LAYER
  5
2
330
0
100
AcDbSymbolTable
 70
     6
  0
LAYER
  5
10
330
2
100
AcDbSymbolTableRecord
100
AcDbLayerTableRecord
  2
0
 70
     0
 62
     7
  6
CONTINUOUS
  0
LAYER
  5
73
330
2
100
AcDbSymbolTableRecord
100
AcDbLayerTableRecord
  2
BOX_STOCK
 70
     0
 62
     1
  6
CONTINUOUS
  0
LAYER
  5
74
330
2
100
AcDbSymbolTableRecord
100
AcDbLayerTableRecord
  2
HOLES
 70
     0
 62
    30
  6
CONTINUOUS
  0
LAYER
  5
75
330
2
100
AcDbSymbolTableRecord
100
AcDbLayerTableRecord
  2
POCKETS
 70
     0
 62
   171
  6
CONTINUOUS
  0
LAYER
  5
76
330
2
100
AcDbSymbolTableRecord
100
AcDbLayerTableRecord
  2
PROFILES_OUTSIDE
 70
     0
 62
     6
  6
CONTINUOUS
  0
LAYER
  5
77
330
2
100
AcDbSymbolTableRecord
100
AcDbLayerTableRecord
  2
PROFILES_INSIDE
 70
     0
 62
     4
  6
CONTINUOUS
  0
ENDTAB
  0
TABLE
  2
STYLE
  5
3
330
0
100
AcDbSymbolTable
 70
     1
  0
STYLE
  5
11
330
3
100
AcDbSymbolTableRecord
100
AcDbTextStyleTableRecord
  2
STANDARD
 70
     0
 40
0.0
 41
1.0
 50
0.0
 71
     0
 42
0.1377952756
  3
txt
  4

  0
ENDTAB
  0
TABLE
  2
VIEW
  5
6
330
0
100
AcDbSymbolTable
 70
     0
  0
ENDTAB
  0
TABLE
  2
UCS
  5
7
330
0
100
AcDbSymbolTable
 70
     0
  0
ENDTAB
  0
TABLE
  2
APPID
  5
9
330
0
100
AcDbSymbolTable
 70
     1
  0
APPID
  5
12
330
9
100
AcDbSymbolTableRecord
100
AcDbRegAppTableRecord
  2
ACAD
 70
     0
  0
ENDTAB
  0
TABLE
  2
DIMSTYLE
  5
A
330
0
100
AcDbSymbolTable
 70
     1
  0
DIMSTYLE
105
27
330
A
100
AcDbSymbolTableRecord
100
AcDbDimStyleTableRecord
  2
STANDARD
 70
     0
  3

  4

  5

  6

  7

 40
1.0
 41
0.18
 42
0.0625
 43
0.38
 44
0.18
 45
0.0
 46
0.0
 47
0.0
 48
0.0
140
0.18
141
0.09
142
0.0
143
25.4
144
1.0
145
0.0
146
1.0
147
0.09
 71
     0
 72
     0
 73
     1
 74
     1
 75
     0
 76
     0
 77
     0
 78
     0
170
     0
171
     2
172
     0
173
     0
174
     0
175
     0
176
     0
177
     0
178
     0
270
     2
271
     4
272
     4
273
     2
274
     2
340
11
275
     0
280
     0
281
     0
282
     0
283
     1
284
     0
285
     0
286
     0
287
     3
288
     0
  0
ENDTAB
  0
TABLE
  2
BLOCK_RECORD
  5
1
330
0
100
AcDbSymbolTable
 70
     1
  0
BLOCK_RECORD
  5
1F
330
1
100
AcDbSymbolTableRecord
100
AcDbBlockTableRecord
  2
*MODEL_SPACE
  0
BLOCK_RECORD
  5
1B
330
1
100
AcDbSymbolTableRecord
100
AcDbBlockTableRecord
  2
*PAPER_SPACE
  0
BLOCK_RECORD
  5
23
330
1
100
AcDbSymbolTableRecord
100
AcDbBlockTableRecord
  2
*PAPER_SPACE0
  0
ENDTAB
  0
ENDSEC
  0
SECTION
  2
BLOCKS
  0
BLOCK
  5
20
330
1F
100
AcDbEntity
  8
0
100
AcDbBlockBegin
  2
*MODEL_SPACE
 70
     0
 10
0.0
 20
0.0
 30
0.0
  3
*MODEL_SPACE
  1

  0
ENDBLK
  5
21
330
1F
100
AcDbEntity
  8
0
100
AcDbBlockEnd
  0
BLOCK
  5
1C
330
1B
100
AcDbEntity
 67
     1
  8
0
100
AcDbBlockBegin
  2
*PAPER_SPACE
 70
     0
 10
0.0
 20
0.0
 30
0.0
  3
*PAPER_SPACE
  1

  0
ENDBLK
  5
1D
330
1B
100
AcDbEntity
 67
     1
  8
0
100
AcDbBlockEnd
  0
BLOCK
  5
24
330
23
100
AcDbEntity
  8
0
100
AcDbBlockBegin
  2
*PAPER_SPACE0
 70
     0
 10
0.0
 20
0.0
 30
0.0
  3
*PAPER_SPACE0
  1

  0
ENDBLK
  5
25
330
23
100
AcDbEntity
  8
0
100
AcDbBlockEnd
  0
ENDSEC
  0
SECTION
  2
ENTITIES
  0
LINE
  5
78
330
1F
100
AcDbEntity
  8
0
  6
CONTINUOUS
 62
     7
100
AcDbLine
 10
36.8317808977
 20
6.9670814954
 30
0.0
 11
36.8475291958
 21
6.7210187379
 31
0.0
  0
LINE
  5
79
330
1F
100
AcDbEntity
  8
0
  6
CONTINUOUS
 62
     7
100
AcDbLine
 10
36.8475291958
 20
6.7210187379
 30
0.0
 11
37.2325611212
 21
6.7210187379
 31
0.0
  0
ARC
  5
7A
330
1F
100
AcDbEntity
  8
0
  6
CONTINUOUS
 62
     7
100
AcDbCircle
 10
37.2325605599
 20
6.6816486324
 30
0.0
 40
0.0393700787401583
100
AcDbArc
 50
64.7125991044
 51
90.0
  0
ARC
  5
7B
330
1F
100
AcDbEntity
  8
0
  6
CONTINUOUS
 62
     7
100
AcDbCircle
 10
37.3308996362
 20
6.8898050142
 30
0.0
 40
0.1908464566929128
100
AcDbArc
 50
244.7125991044
 51
72.4587608814
  0
ARC
  5
7C
330
1F
100
AcDbEntity
  8
0
  6
CONTINUOUS
 62
     7
100
AcDbCircle
 10
37.4002850968
 20
7.1093165424
 30
0.0
 40
0.0393700787401588
100
AcDbArc
 50
180.0
 51
252.4587608814
  0
LINE
  5
7D
330
1F
100
AcDbEntity
  8
0
  6
CONTINUOUS
 62
     7
100
AcDbLine
 10
37.3609152651
 20
7.2132234519
 30
0.0
 11
37.3609152651
 21
7.1093165989
 31
0.0
  0
LINE
  5
7E
330
1F
100
AcDbEntity
  8
0
  6
CONTINUOUS
 62
     7
100
AcDbLine
 10
39.2448725948
 20
7.2132234519
 30
0.0
 11
37.3609152651
 21
7.2132234519
 31
0.0
  0
ARC
  5
7F
330
1F
100
AcDbEntity
  8
0
  6
CONTINUOUS
 62
     7
100
AcDbCircle
 10
39.244871711
 20
7.0223769789
 30
0.0
 40
0.1908464566929169
100
AcDbArc
 50
0.0
 51
90.0
  0
LINE
  5
80
330
1F
100
AcDbEntity
  8
0
  6
CONTINUOUS
 62
     7
100
AcDbLine
 10
39.4357177502
 20
5.3652301334
 30
0.0
 11
39.4357177502
 21
7.0223771233
 31
0.0
  0
ARC
  5
81
330
1F
100
AcDbEntity
  8
0
  6
CONTINUOUS
 62
     7
100
AcDbCircle
 10
39.6265646244
 20
5.3652299219
 30
0.0
 40
0.1908464566929133
100
AcDbArc
 50
180.0
 51
270.0
  0
LINE
  5
82
330
1F
100
AcDbEntity
  8
0
  6
CONTINUOUS
 62
     7
100
AcDbLine
 10
40.0165274673
 20
5.1743832181
 30
0.0
 11
39.6265629055
 21
5.1743832181
 31
0.0
  0
ARC
  5
83
330
1F
100
AcDbEntity
  8
0
  6
CONTINUOUS
 62
     7
100
AcDbCircle
 10
40.0165252543
 20
5.3652299219
 30
0.0
 40
0.190846456692924
100
AcDbArc
 50
270.0
 51
0.0
  0
LINE
  5
84
330
1F
100
AcDbEntity
  8
0
  6
CONTINUOUS
 62
     7
100
AcDbLine
 10
40.207370276
 20
7.0223771233
 30
0.0
 11
40.207370276
 21
5.3652301334
 31
0.0
  0
ARC
  5
85
330
1F
100
AcDbEntity
  8
0
  6
CONTINUOUS
 62
     7
100
AcDbCircle
 10
40.3982181677
 20
7.0223769789
 30
0.0
 40
0.1908464566929116
100
AcDbArc
 50
90.0
 51
180.0
  0
LINE
  5
86
330
1F
100
AcDbEntity
  8
0
  6
CONTINUOUS
 62
     7
100
AcDbLine
 10
42.2821751076
 20
7.2132234519
 30
0.0
 11
40.3982177779
 21
7.2132234519
 31
0.0
  0
LINE
  5
87
330
1F
100
AcDbEntity
  8
0
  6
CONTINUOUS
 62
     7
100
AcDbLine
 10
42.2821751076
 20
7.1093165989
 30
0.0
 11
42.2821751076
 21
7.2132234519
 31
0.0
  0
ARC
  5
88
330
1F
100
AcDbEntity
  8
0
  6
CONTINUOUS
 62
     7
100
AcDbCircle
 10
42.2428047819
 20
7.1093165424
 30
0.0
 40
0.0393700787401627
100
AcDbArc
 50
287.5412391186
 51
0.0
  0
ARC
  5
89
330
1F
100
AcDbEntity
  8
0
  6
CONTINUOUS
 62
     7
100
AcDbCircle
 10
42.3121902424
 20
6.8898050142
 30
0.0
 40
0.1908464566929158
100
AcDbArc
 50
107.5412391186
 51
295.2874008956
  0
ARC
  5
8A
330
1F
100
AcDbEntity
  8
0
  6
CONTINUOUS
 62
     7
100
AcDbCircle
 10
42.4105293188
 20
6.6816486324
 30
0.0
 40
0.0393700787401574
100
AcDbArc
 50
90.0
 51
115.2874008956
  0
LINE
  5
8B
330
1F
100
AcDbEntity
  8
0
  6
CONTINUOUS
 62
     7
100
AcDbLine
 10
42.4105315982
 20
6.7210187379
 30
0.0
 11
42.7955588303
 21
6.7210187379
 31
0.0
  0
LINE
  5
8C
330
1F
100
AcDbEntity
  8
0
  6
CONTINUOUS
 62
     7
100
AcDbLine
 10
42.7955588303
 20
6.7210187379
 30
0.0
 11
42.811309475
 21
6.9670814954
 31
0.0
  0
LINE
  5
8D
330
1F
100
AcDbEntity
  8
0
  6
CONTINUOUS
 62
     7
100
AcDbLine
 10
42.811309475
 20
6.9670814954
 30
0.0
 11
43.2270589123
 21
6.9670814954
 31
0.0
  0
ARC
  5
8E
330
1F
100
AcDbEntity
  8
0
  6
CONTINUOUS
 62
     7
100
AcDbCircle
 10
43.2270567504
 20
6.9277116246
 30
0.0
 40
0.0393700787401574
100
AcDbArc
 50
0.0
 51
90.0
  0
LINE
  5
8F
330
1F
100
AcDbEntity
  8
0
  6
CONTINUOUS
 62
     7
100
AcDbLine
 10
43.2664261375
 20
6.4651130008
 30
0.0
 11
43.2664261375
 21
6.9277113369
 31
0.0
  0
ARC
  5
90
330
1F
100
AcDbEntity
  8
0
  6
CONTINUOUS
 62
     7
100
AcDbCircle
 10
43.0302063567
 20
6.4651131994
 30
0.0
 40
0.236220472440948
100
AcDbArc
 50
270.0
 51
0.0
  0
LINE
  5
91
330
1F
100
AcDbEntity
  8
0
  6
CONTINUOUS
 62
     7
100
AcDbLine
 10
40.9435908911
 20
6.2288926363
 30
0.0
 11
43.030204013
 21
6.2288926363
 31
0.0
  0
ARC
  5
92
330
1F
100
AcDbEntity
  8
0
  6
CONTINUOUS
 62
     7
100
AcDbCircle
 10
40.9435921834
 20
5.9926722545
 30
0.0
 40
0.236220472440948
100
AcDbArc
 50
90.0
 51
180.0
  0
LINE
  5
93
330
1F
100
AcDbEntity
  8
0
  6
CONTINUOUS
 62
     7
100
AcDbLine
 10
40.7073734599
 20
5.1743832181
 30
0.0
 11
40.7073734599
 21
5.9926722718
 31
0.0
  0
ARC
  5
94
330
1F
100
AcDbEntity
  8
0
  6
CONTINUOUS
 62
     7
100
AcDbCircle
 10
40.207371711
 20
5.1743834652
 30
0.0
 40
0.4999999999999952
100
AcDbArc
 50
300.0
 51
0.0
  0
ARC
  5
95
330
1F
100
AcDbEntity
  8
0
  6
CONTINUOUS
 62
     7
100
AcDbCircle
 10
40.707371711
 20
4.3083580614
 30
0.0
 40
0.5000000000000002
100
AcDbArc
 50
120.0
 51
180.0
  0
LINE
  5
96
330
1F
100
AcDbEntity
  8
0
  6
CONTINUOUS
 62
     7
100
AcDbLine
 10
40.207370276
 20
4.1924154686
 30
0.0
 11
40.207370276
 21
4.3083579425
 31
0.0
  0
ARC
  5
97
330
1F
100
AcDbEntity
  8
0
  6
CONTINUOUS
 62
     7
100
AcDbCircle
 10
40.707371711
 20
4.1924153553
 30
0.0
 40
0.500000000000001
100
AcDbArc
 50
180.0
 51
240.0
  0
ARC
  5
98
330
1F
100
AcDbEntity
  8
0
  6
CONTINUOUS
 62
     7
100
AcDbCircle
 10
40.207371711
 20
3.3263899515
 30
0.0
 40
0.4999999999999952
100
AcDbArc
 50
0.0
 51
60.0
  0
LINE
  5
99
330
1F
100
AcDbEntity
  8
0
  6
CONTINUOUS
 62
     7
100
AcDbLine
 10
40.7073734599
 20
2.5081011392
 30
0.0
 11
40.7073734599
 21
3.3263898996
 31
0.0
  0
ARC
  5
9A
330
1F
100
AcDbEntity
  8
0
  6
CONTINUOUS
 62
     7
100
AcDbCircle
 10
40.9435921834
 20
2.5081011622
 30
0.0
 40
0.236220472440948
100
AcDbArc
 50
180.0
 51
270.0
  0
LINE
  5
9B
330
1F
100
AcDbEntity
  8
0
  6
CONTINUOUS
 62
     7
100
AcDbLine
 10
43.030204013
 20
2.2718806281
 30
0.0
 11
40.9435908911
 21
2.2718806281
 31
0.0
  0
ARC
  5
9C
330
1F
100
AcDbEntity
  8
0
  6
CONTINUOUS
 62
     7
100
AcDbCircle
 10
43.0302063567
 20
2.0356602173
 30
0.0
 40
0.236220472440948
100
AcDbArc
 50
0.0
 51
90.0
  0
LINE
  5
9D
330
1F
100
AcDbEntity
  8
0
  6
CONTINUOUS
 62
     7
100
AcDbLine
 10
43.2664261375
 20
1.5730617809
 30
0.0
 11
43.2664261375
 21
2.0356602636
 31
0.0
  0
ARC
  5
9E
330
1F
100
AcDbEntity
  8
0
  6
CONTINUOUS
 62
     7
100
AcDbCircle
 10
43.2270567504
 20
1.5730617922
 30
0.0
 40
0.0393700787401619
100
AcDbArc
 50
270.0
 51
0.0
  0
LINE
  5
9F
330
1F
100
AcDbEntity
  8
0
  6
CONTINUOUS
 62
     7
100
AcDbLine
 10
43.2270589123
 20
1.533691769
 30
0.0
 11
42.811309475
 21
1.533691769
 31
0.0
  0
LINE
  5
A0
330
1F
100
AcDbEntity
  8
0
  6
CONTINUOUS
 62
     7
100
AcDbLine
 10
42.811309475
 20
1.533691769
 30
0.0
 11
42.7955588303
 21
1.7797546732
 31
0.0
  0
LINE
  5
A1
330
1F
100
AcDbEntity
  8
0
  6
CONTINUOUS
 62
     7
100
AcDbLine
 10
42.7955588303
 20
1.7797546732
 30
0.0
 11
42.4105315982
 21
1.7797546732
 31
0.0
  0
ARC
  5
A2
330
1F
100
AcDbEntity
  8
0
  6
CONTINUOUS
 62
     7
100
AcDbCircle
 10
42.4105293188
 20
1.8191247843
 30
0.0
 40
0.0393700787401608
100
AcDbArc
 50
244.7125991044
 51
270.0
  0
ARC
  5
A3
330
1F
100
AcDbEntity
  8
0
  6
CONTINUOUS
 62
     7
100
AcDbCircle
 10
42.3121902424
 20
1.6109684026
 30
0.0
 40
0.1908464566929121
100
AcDbArc
 50
64.7125991044
 51
252.4587608814
  0
ARC
  5
A4
330
1F
100
AcDbEntity
  8
0
  6
CONTINUOUS
 62
     7
100
AcDbCircle
 10
42.2428047819
 20
1.3914568743
 30
0.0
 40
0.0393700787401556
100
AcDbArc
 50
0.0
 51
72.4587608814
  0
LINE
  5
A5
330
1F
100
AcDbEntity
  8
0
  6
CONTINUOUS
 62
     7
100
AcDbLine
 10
42.2821751076
 20
1.2875499591
 30
0.0
 11
42.2821751076
 21
1.3914568121
 31
0.0
  0
LINE
  5
A6
330
1F
100
AcDbEntity
  8
0
  6
CONTINUOUS
 62
     7
100
AcDbLine
 10
40.3982177779
 20
1.2875499591
 30
0.0
 11
42.2821751076
 21
1.2875499591
 31
0.0
  0
ARC
  5
A7
330
1F
100
AcDbEntity
  8
0
  6
CONTINUOUS
 62
     7
100
AcDbCircle
 10
40.3982181677
 20
1.4783964378
 30
0.0
 40
0.1908464566929091
100
AcDbArc
 50
180.0
 51
270.0
  0
LINE
  5
A8
330
1F
100
AcDbEntity
  8
0
  6
CONTINUOUS
 62
     7
100
AcDbLine
 10
40.207370276
 20
3.135543571
 30
0.0
 11
40.207370276
 21
1.4783964345
 31
0.0
  0
ARC
  5
A9
330
1F
100
AcDbEntity
  8
0
  6
CONTINUOUS
 62
     7
100
AcDbCircle
 10
40.0165252543
 20
3.1355434948
 30
0.0
 40
0.190846456692924
100
AcDbArc
 50
0.0
 51
90.0
  0
LINE
  5
AA
330
1F
100
AcDbEntity
  8
0
  6
CONTINUOUS
 62
     7
100
AcDbLine
 10
39.6265629055
 20
3.3263898996
 30
0.0
 11
40.0165274673
 21
3.3263898996
 31
0.0
  0
ARC
  5
AB
330
1F
100
AcDbEntity
  8
0
  6
CONTINUOUS
 62
     7
100
AcDbCircle
 10
39.6265646244
 20
3.1355434948
 30
0.0
 40
0.1908464566929133
100
AcDbArc
 50
90.0
 51
180.0
  0
LINE
  5
AC
330
1F
100
AcDbEntity
  8
0
  6
CONTINUOUS
 62
     7
100
AcDbLine
 10
39.4357177502
 20
1.4783964345
 30
0.0
 11
39.4357177502
 21
3.135543571
 31
0.0
  0
ARC
  5
AD
330
1F
100
AcDbEntity
  8
0
  6
CONTINUOUS
 62
     7
100
AcDbCircle
 10
39.244871711
 20
1.4783964378
 30
0.0
 40
0.1908464566929169
100
AcDbArc
 50
270.0
 51
0.0
  0
LINE
  5
AE
330
1F
100
AcDbEntity
  8
0
  6
CONTINUOUS
 62
     7
100
AcDbLine
 10
37.3609152651
 20
1.2875499591
 30
0.0
 11
39.2448725948
 21
1.2875499591
 31
0.0
  0
LINE
  5
AF
330
1F
100
AcDbEntity
  8
0
  6
CONTINUOUS
 62
     7
100
AcDbLine
 10
37.3609152651
 20
1.3914568121
 30
0.0
 11
37.3609152651
 21
1.2875499591
 31
0.0
  0
ARC
  5
B0
330
1F
100
AcDbEntity
  8
0
  6
CONTINUOUS
 62
     7
100
AcDbCircle
 10
37.4002850968
 20
1.3914568743
 30
0.0
 40
0.0393700787401594
100
AcDbArc
 50
107.5412391186
 51
180.0
  0
ARC
  5
B1
330
1F
100
AcDbEntity
  8
0
  6
CONTINUOUS
 62
     7
100
AcDbCircle
 10
37.3308996362
 20
1.6109684026
 30
0.0
 40
0.1908464566929142
100
AcDbArc
 50
287.5412391186
 51
115.2874008956
  0
ARC
  5
B2
330
1F
100
AcDbEntity
  8
0
  6
CONTINUOUS
 62
     7
100
AcDbCircle
 10
37.2325605599
 20
1.8191247843
 30
0.0
 40
0.0393700787401574
100
AcDbArc
 50
270.0
 51
295.2874008956
  0
LINE
  5
B3
330
1F
100
AcDbEntity
  8
0
  6
CONTINUOUS
 62
     7
100
AcDbLine
 10
37.2325611212
 20
1.7797546732
 30
0.0
 11
36.8475291958
 21
1.7797546732
 31
0.0
  0
LINE
  5
B4
330
1F
100
AcDbEntity
  8
0
  6
CONTINUOUS
 62
     7
100
AcDbLine
 10
36.8475291958
 20
1.7797546732
 30
0.0
 11
36.8317808977
 21
1.533691769
 31
0.0
  0
LINE
  5
B5
330
1F
100
AcDbEntity
  8
0
  6
CONTINUOUS
 62
     7
100
AcDbLine
 10
36.8317808977
 20
1.533691769
 30
0.0
 11
36.4160338071
 21
1.533691769
 31
0.0
  0
ARC
  5
B6
330
1F
100
AcDbEntity
  8
0
  6
CONTINUOUS
 62
     7
100
AcDbCircle
 10
36.4160331283
 20
1.5730617922
 30
0.0
 40
0.0393700787401574
100
AcDbArc
 50
180.0
 51
270.0
  0
LINE
  5
B7
330
1F
100
AcDbEntity
  8
0
  6
CONTINUOUS
 62
     7
100
AcDbLine
 10
36.3766618886
 20
2.0356602636
 30
0.0
 11
36.3766618886
 21
1.5730617809
 31
0.0
  0
ARC
  5
B8
330
1F
100
AcDbEntity
  8
0
  6
CONTINUOUS
 62
     7
100
AcDbCircle
 10
36.612883522
 20
2.0356602173
 30
0.0
 40
0.2362204724409409
100
AcDbArc
 50
90.0
 51
180.0
  0
LINE
  5
B9
330
1F
100
AcDbEntity
  8
0
  6
CONTINUOUS
 62
     7
100
AcDbLine
 10
38.699497135
 20
2.2718806281
 30
0.0
 11
36.6128840131
 21
2.2718806281
 31
0.0
  0
ARC
  5
BA
330
1F
100
AcDbEntity
  8
0
  6
CONTINUOUS
 62
     7
100
AcDbCircle
 10
38.6994976952
 20
2.5081011622
 30
0.0
 40
0.236220472440948
100
AcDbArc
 50
270.0
 51
0.0
  0
LINE
  5
BB
330
1F
100
AcDbEntity
  8
0
  6
CONTINUOUS
 62
     7
100
AcDbLine
 10
38.9357192595
 20
3.3263898996
 30
0.0
 11
38.9357192595
 21
2.5081011392
 31
0.0
  0
ARC
  5
BC
330
1F
100
AcDbEntity
  8
0
  6
CONTINUOUS
 62
     7
100
AcDbCircle
 10
39.4357181677
 20
3.3263899515
 30
0.0
 40
0.5000000000000071
100
AcDbArc
 50
120.0
 51
180.0
  0
ARC
  5
BD
330
1F
100
AcDbEntity
  8
0
  6
CONTINUOUS
 62
     7
100
AcDbCircle
 10
38.9357181677
 20
4.1924153553
 30
0.0
 40
0.5
100
AcDbArc
 50
300.0
 51
0.0
  0
LINE
  5
BE
330
1F
100
AcDbEntity
  8
0
  6
CONTINUOUS
 62
     7
100
AcDbLine
 10
39.4357177502
 20
4.3083579425
 30
0.0
 11
39.4357177502
 21
4.1924154686
 31
0.0
  0
ARC
  5
BF
330
1F
100
AcDbEntity
  8
0
  6
CONTINUOUS
 62
     7
100
AcDbCircle
 10
38.9357181677
 20
4.3083580614
 30
0.0
 40
0.5
100
AcDbArc
 50
0.0
 51
60.0
  0
ARC
  5
C0
330
1F
100
AcDbEntity
  8
0
  6
CONTINUOUS
 62
     7
100
AcDbCircle
 10
39.4357181677
 20
5.1743834652
 30
0.0
 40
0.5000000000000071
100
AcDbArc
 50
180.0
 51
240.0
  0
LINE
  5
C1
330
1F
100
AcDbEntity
  8
0
  6
CONTINUOUS
 62
     7
100
AcDbLine
 10
38.9357192595
 20
5.9926722718
 30
0.0
 11
38.9357192595
 21
5.1743832181
 31
0.0
  0
ARC
  5
C2
330
1F
100
AcDbEntity
  8
0
  6
CONTINUOUS
 62
     7
100
AcDbCircle
 10
38.6994976952
 20
5.9926722545
 30
0.0
 40
0.2362204724409454
100
AcDbArc
 50
0.0
 51
90.0
  0
LINE
  5
C3
330
1F
100
AcDbEntity
  8
0
  6
CONTINUOUS
 62
     7
100
AcDbLine
 10
36.6128840131
 20
6.2288926363
 30
0.0
 11
38.699497135
 21
6.2288926363
 31
0.0
  0
ARC
  5
C4
330
1F
100
AcDbEntity
  8
0
  6
CONTINUOUS
 62
     7
100
AcDbCircle
 10
36.612883522
 20
6.4651131994
 30
0.0
 40
0.236220472440948
100
AcDbArc
 50
180.0
 51
270.0
  0
LINE
  5
C5
330
1F
100
AcDbEntity
  8
0
  6
CONTINUOUS
 62
     7
100
AcDbLine
 10
36.3766618886
 20
6.9277113369
 30
0.0
 11
36.3766618886
 21
6.4651130008
 31
0.0
  0
ARC
  5
C6
330
1F
100
AcDbEntity
  8
0
  6
CONTINUOUS
 62
     7
100
AcDbCircle
 10
36.4160331283
 20
6.9277116246
 30
0.0
 40
0.0393700787401627
100
AcDbArc
 50
90.0
 51
180.0
  0
LINE
  5
C7
330
1F
100
AcDbEntity
  8
0
  6
CONTINUOUS
 62
     7
100
AcDbLine
 10
36.4160338071
 20
6.9670814954
 30
0.0
 11
36.8317808977
 21
6.9670814954
 31
0.0
  0
LINE
  5
C8
330
1F
100
AcDbEntity
  8
0
  6
CONTINUOUS
 62
     7
100
AcDbLine
 10
42.811309475
 20
9.0281050996
 30
0.0
 11
42.7955588303
 21
9.2741684437
 31
0.0
  0
LINE
  5
C9
330
1F
100
AcDbEntity
  8
0
  6
CONTINUOUS
 62
     7
100
AcDbLine
 10
42.7955588303
 20
9.2741684437
 30
0.0
 11
42.4105315982
 21
9.2741684437
 31
0.0
  0
ARC
  5
CA
330
1F
100
AcDbEntity
  8
0
  6
CONTINUOUS
 62
     7
100
AcDbCircle
 10
42.4105293188
 20
9.3135383962
 30
0.0
 40
0.039370078740158
100
AcDbArc
 50
244.7125991044
 51
270.0
  0
ARC
  5
CB
330
1F
100
AcDbEntity
  8
0
  6
CONTINUOUS
 62
     7
100
AcDbCircle
 10
42.3121902424
 20
9.1053820145
 30
0.0
 40
0.190846456692914
100
AcDbArc
 50
64.7125991044
 51
252.4587608814
  0
ARC
  5
CC
330
1F
100
AcDbEntity
  8
0
  6
CONTINUOUS
 62
     7
100
AcDbCircle
 10
42.2428047819
 20
8.8858704862
 30
0.0
 40
0.0393700787401545
100
AcDbArc
 50
0.0
 51
72.4587608814
  0
LINE
  5
CD
330
1F
100
AcDbEntity
  8
0
  6
CONTINUOUS
 62
     7
100
AcDbLine
 10
42.2821751076
 20
8.7819637297
 30
0.0
 11
42.2821751076
 21
8.8858705827
 31
0.0
  0
LINE
  5
CE
330
1F
100
AcDbEntity
  8
0
  6
CONTINUOUS
 62
     7
100
AcDbLine
 10
40.3982177779
 20
8.7819637297
 30
0.0
 11
42.2821751076
 21
8.7819637297
 31
0.0
  0
ARC
  5
CF
330
1F
100
AcDbEntity
  8
0
  6
CONTINUOUS
 62
     7
100
AcDbCircle
 10
40.3982181677
 20
8.9728100498
 30
0.0
 40
0.1908464566929169
100
AcDbArc
 50
180.0
 51
270.0
  0
LINE
  5
D0
330
1F
100
AcDbEntity
  8
0
  6
CONTINUOUS
 62
     7
100
AcDbLine
 10
40.207370276
 20
10.6299570482
 30
0.0
 11
40.207370276
 21
8.9728100584
 31
0.0
  0
ARC
  5
D1
330
1F
100
AcDbEntity
  8
0
  6
CONTINUOUS
 62
     7
100
AcDbCircle
 10
40.0165252543
 20
10.6299571068
 30
0.0
 40
0.1908464566929133
100
AcDbArc
 50
0.0
 51
90.0
  0
LINE
  5
D2
330
1F
100
AcDbEntity
  8
0
  6
CONTINUOUS
 62
     7
100
AcDbLine
 10
39.6265629055
 20
10.8208033769
 30
0.0
 11
40.0165274673
 21
10.8208033769
 31
0.0
  0
ARC
  5
D3
330
1F
100
AcDbEntity
  8
0
  6
CONTINUOUS
 62
     7
100
AcDbCircle
 10
39.6265646244
 20
10.6299571068
 30
0.0
 40
0.1908464566929169
100
AcDbArc
 50
90.0
 51
180.0
  0
LINE
  5
D4
330
1F
100
AcDbEntity
  8
0
  6
CONTINUOUS
 62
     7
100
AcDbLine
 10
39.4357177502
 20
8.9728100584
 30
0.0
 11
39.4357177502
 21
10.6299570482
 31
0.0
  0
ARC
  5
D5
330
1F
100
AcDbEntity
  8
0
  6
CONTINUOUS
 62
     7
100
AcDbCircle
 10
39.244871711
 20
8.9728100498
 30
0.0
 40
0.1908464566929133
100
AcDbArc
 50
270.0
 51
0.0
  0
LINE
  5
D6
330
1F
100
AcDbEntity
  8
0
  6
CONTINUOUS
 62
     7
100
AcDbLine
 10
37.3609152651
 20
8.7819637297
 30
0.0
 11
39.2448725948
 21
8.7819637297
 31
0.0
  0
LINE
  5
D7
330
1F
100
AcDbEntity
  8
0
  6
CONTINUOUS
 62
     7
100
AcDbLine
 10
37.3609152651
 20
8.8858705827
 30
0.0
 11
37.3609152651
 21
8.7819637297
 31
0.0
  0
ARC
  5
D8
330
1F
100
AcDbEntity
  8
0
  6
CONTINUOUS
 62
     7
100
AcDbCircle
 10
37.4002850968
 20
8.8858704862
 30
0.0
 40
0.0393700787401627
100
AcDbArc
 50
107.5412391186
 51
180.0
  0
ARC
  5
D9
330
1F
100
AcDbEntity
  8
0
  6
CONTINUOUS
 62
     7
100
AcDbCircle
 10
37.3308996362
 20
9.1053820145
 30
0.0
 40
0.1908464566929142
100
AcDbArc
 50
287.5412391186
 51
115.2874008956
  0
ARC
  5
DA
330
1F
100
AcDbEntity
  8
0
  6
CONTINUOUS
 62
     7
100
AcDbCircle
 10
37.2325605599
 20
9.3135383962
 30
0.0
 40
0.0393700787401594
100
AcDbArc
 50
270.0
 51
295.2874008956
  0
LINE
  5
DB
330
1F
100
AcDbEntity
  8
0
  6
CONTINUOUS
 62
     7
100
AcDbLine
 10
37.2325611212
 20
9.2741684437
 30
0.0
 11
36.8475291958
 21
9.2741684437
 31
0.0
  0
LINE
  5
DC
330
1F
100
AcDbEntity
  8
0
  6
CONTINUOUS
 62
     7
100
AcDbLine
 10
36.8475291958
 20
9.2741684437
 30
0.0
 11
36.8317808977
 21
9.0281050996
 31
0.0
  0
LINE
  5
DD
330
1F
100
AcDbEntity
  8
0
  6
CONTINUOUS
 62
     7
100
AcDbLine
 10
36.8317808977
 20
9.0281050996
 30
0.0
 11
36.4160338071
 21
9.0281050996
 31
0.0
  0
ARC
  5
DE
330
1F
100
AcDbEntity
  8
0
  6
CONTINUOUS
 62
     7
100
AcDbCircle
 10
36.4160331283
 20
9.0674754041
 30
0.0
 40
0.0393700787401627
100
AcDbArc
 50
180.0
 51
270.0
  0
LINE
  5
DF
330
1F
100
AcDbEntity
  8
0
  6
CONTINUOUS
 62
     7
100
AcDbLine
 10
36.3766618886
 20
9.5300735941
 30
0.0
 11
36.3766618886
 21
9.0674752581
 31
0.0
  0
ARC
  5
E0
330
1F
100
AcDbEntity
  8
0
  6
CONTINUOUS
 62
     7
100
AcDbCircle
 10
36.612883522
 20
9.5300738293
 30
0.0
 40
0.2362204724409462
100
AcDbArc
 50
90.0
 51
180.0
  0
LINE
  5
E1
330
1F
100
AcDbEntity
  8
0
  6
CONTINUOUS
 62
     7
100
AcDbLine
 10
38.699497135
 20
9.7662945453
 30
0.0
 11
36.6128840131
 21
9.7662945453
 31
0.0
  0
ARC
  5
E2
330
1F
100
AcDbEntity
  8
0
  6
CONTINUOUS
 62
     7
100
AcDbCircle
 10
38.6994976952
 20
10.0025147742
 30
0.0
 40
0.236220472440948
100
AcDbArc
 50
270.0
 51
0.0
  0
LINE
  5
E3
330
1F
100
AcDbEntity
  8
0
  6
CONTINUOUS
 62
     7
100
AcDbLine
 10
38.9357192595
 20
10.8208033769
 30
0.0
 11
38.9357192595
 21
10.0025149098
 31
0.0
  0
ARC
  5
E4
330
1F
100
AcDbEntity
  8
0
  6
CONTINUOUS
 62
     7
100
AcDbCircle
 10
39.4357181677
 20
10.8208035635
 30
0.0
 40
0.4999999999999974
100
AcDbArc
 50
120.0
 51
180.0
  0
ARC
  5
E5
330
1F
100
AcDbEntity
  8
0
  6
CONTINUOUS
 62
     7
100
AcDbCircle
 10
38.9357181677
 20
11.6868289672
 30
0.0
 40
0.4999999999999995
100
AcDbArc
 50
300.0
 51
0.0
  0
LINE
  5
E6
330
1F
100
AcDbEntity
  8
0
  6
CONTINUOUS
 62
     7
100
AcDbLine
 10
39.4357177502
 20
11.8027711264
 30
0.0
 11
39.4357177502
 21
11.6868295324
 31
0.0
  0
ARC
  5
E7
330
1F
100
AcDbEntity
  8
0
  6
CONTINUOUS
 62
     7
100
AcDbCircle
 10
38.9357181677
 20
11.8027716734
 30
0.0
 40
0.4999999999999944
100
AcDbArc
 50
0.0
 51
60.0
  0
ARC
  5
E8
330
1F
100
AcDbEntity
  8
0
  6
CONTINUOUS
 62
     7
100
AcDbCircle
 10
39.4357181677
 20
12.6687970772
 30
0.0
 40
0.4999999999999995
100
AcDbArc
 50
180.0
 51
240.0
  0
LINE
  5
E9
330
1F
100
AcDbEntity
  8
0
  6
CONTINUOUS
 62
     7
100
AcDbLine
 10
38.9357192595
 20
13.4870857491
 30
0.0
 11
38.9357192595
 21
12.668797282
 31
0.0
  0
ARC
  5
EA
330
1F
100
AcDbEntity
  8
0
  6
CONTINUOUS
 62
     7
100
AcDbCircle
 10
38.6994976952
 20
13.4870858664
 30
0.0
 40
0.236220472440948
100
AcDbArc
 50
0.0
 51
90.0
  0
LINE
  5
EB
330
1F
100
AcDbEntity
  8
0
  6
CONTINUOUS
 62
     7
100
AcDbLine
 10
36.6128840131
 20
13.7233067002
 30
0.0
 11
38.699497135
 21
13.7233067002
 31
0.0
  0
ARC
  5
EC
330
1F
100
AcDbEntity
  8
0
  6
CONTINUOUS
 62
     7
100
AcDbCircle
 10
36.612883522
 20
13.9595268113
 30
0.0
 40
0.2362204724409445
100
AcDbArc
 50
180.0
 51
270.0
  0
LINE
  5
ED
330
1F
100
AcDbEntity
  8
0
  6
CONTINUOUS
 62
     7
100
AcDbLine
 10
36.3766618886
 20
14.4221254007
 30
0.0
 11
36.3766618886
 21
13.9595264781
 31
0.0
  0
ARC
  5
EE
330
1F
100
AcDbEntity
  8
0
  6
CONTINUOUS
 62
     7
100
AcDbCircle
 10
36.4160331283
 20
14.4221252365
 30
0.0
 40
0.0393700787401574
100
AcDbArc
 50
90.0
 51
180.0
  0
LINE
  5
EF
330
1F
100
AcDbEntity
  8
0
  6
CONTINUOUS
 62
     7
100
AcDbLine
 10
36.4160338071
 20
14.4614949726
 30
0.0
 11
36.8317808977
 21
14.4614949726
 31
0.0
  0
LINE
  5
F0
330
1F
100
AcDbEntity
  8
0
  6
CONTINUOUS
 62
     7
100
AcDbLine
 10
36.8317808977
 20
14.4614949726
 30
0.0
 11
36.8475291958
 21
14.2154322151
 31
0.0
  0
LINE
  5
F1
330
1F
100
AcDbEntity
  8
0
  6
CONTINUOUS
 62
     7
100
AcDbLine
 10
36.8475291958
 20
14.2154322151
 30
0.0
 11
37.2325611212
 21
14.2154322151
 31
0.0
  0
ARC
  5
F2
330
1F
100
AcDbEntity
  8
0
  6
CONTINUOUS
 62
     7
100
AcDbCircle
 10
37.2325605599
 20
14.1760622444
 30
0.0
 40
0.0393700787401594
100
AcDbArc
 50
64.7125991044
 51
90.0
  0
ARC
  5
F3
330
1F
100
AcDbEntity
  8
0
  6
CONTINUOUS
 62
     7
100
AcDbCircle
 10
37.3308996362
 20
14.3842186261
 30
0.0
 40
0.1908464566929145
100
AcDbArc
 50
244.7125991044
 51
72.4587608814
  0
ARC
  5
F4
330
1F
100
AcDbEntity
  8
0
  6
CONTINUOUS
 62
     7
100
AcDbCircle
 10
37.4002850968
 20
14.6037301544
 30
0.0
 40
0.0393700787401627
100
AcDbArc
 50
180.0
 51
252.4587608814
  0
LINE
  5
F5
330
1F
100
AcDbEntity
  8
0
  6
CONTINUOUS
 62
     7
100
AcDbLine
 10
37.3609152651
 20
14.7076375158
 30
0.0
 11
37.3609152651
 21
14.6037306628
 31
0.0
  0
LINE
  5
F6
330
1F
100
AcDbEntity
  8
0
  6
CONTINUOUS
 62
     7
100
AcDbLine
 10
39.2448725948
 20
14.7076375158
 30
0.0
 11
37.3609152651
 21
14.7076375158
 31
0.0
  0
ARC
  5
F7
330
1F
100
AcDbEntity
  8
0
  6
CONTINUOUS
 62
     7
100
AcDbCircle
 10
39.244871711
 20
14.5167905908
 30
0.0
 40
0.1908464566929133
100
AcDbArc
 50
0.0
 51
90.0
  0
LINE
  5
F8
330
1F
100
AcDbEntity
  8
0
  6
CONTINUOUS
 62
     7
100
AcDbLine
 10
39.4357177502
 20
12.8596436107
 30
0.0
 11
39.4357177502
 21
14.5167900138
 31
0.0
  0
ARC
  5
F9
330
1F
100
AcDbEntity
  8
0
  6
CONTINUOUS
 62
     7
100
AcDbCircle
 10
39.6265646244
 20
12.8596435338
 30
0.0
 40
0.1908464566929169
100
AcDbArc
 50
180.0
 51
270.0
  0
LINE
  5
FA
330
1F
100
AcDbEntity
  8
0
  6
CONTINUOUS
 62
     7
100
AcDbLine
 10
40.0165274673
 20
12.668797282
 30
0.0
 11
39.6265629055
 21
12.668797282
 31
0.0
  0
ARC
  5
FB
330
1F
100
AcDbEntity
  8
0
  6
CONTINUOUS
 62
     7
100
AcDbCircle
 10
40.0165252543
 20
12.8596435338
 30
0.0
 40
0.1908464566929116
100
AcDbArc
 50
270.0
 51
0.0
  0
LINE
  5
FC
330
1F
100
AcDbEntity
  8
0
  6
CONTINUOUS
 62
     7
100
AcDbLine
 10
40.207370276
 20
14.5167900138
 30
0.0
 11
40.207370276
 21
12.8596436107
 31
0.0
  0
ARC
  5
FD
330
1F
100
AcDbEntity
  8
0
  6
CONTINUOUS
 62
     7
100
AcDbCircle
 10
40.3982181677
 20
14.5167905908
 30
0.0
 40
0.1908464566929133
100
AcDbArc
 50
90.0
 51
180.0
  0
LINE
  5
FE
330
1F
100
AcDbEntity
  8
0
  6
CONTINUOUS
 62
     7
100
AcDbLine
 10
42.2821751076
 20
14.7076375158
 30
0.0
 11
40.3982177779
 21
14.7076375158
 31
0.0
  0
LINE
  5
FF
330
1F
100
AcDbEntity
  8
0
  6
CONTINUOUS
 62
     7
100
AcDbLine
 10
42.2821751076
 20
14.6037306628
 30
0.0
 11
42.2821751076
 21
14.7076375158
 31
0.0
  0
ARC
  5
100
330
1F
100
AcDbEntity
  8
0
  6
CONTINUOUS
 62
     7
100
AcDbCircle
 10
42.2428047819
 20
14.6037301544
 30
0.0
 40
0.0393700787401579
100
AcDbArc
 50
287.5412391186
 51
0.0
  0
ARC
  5
101
330
1F
100
AcDbEntity
  8
0
  6
CONTINUOUS
 62
     7
100
AcDbCircle
 10
42.3121902424
 20
14.3842186261
 30
0.0
 40
0.1908464566929158
100
AcDbArc
 50
107.5412391186
 51
295.2874008956
  0
ARC
  5
102
330
1F
100
AcDbEntity
  8
0
  6
CONTINUOUS
 62
     7
100
AcDbCircle
 10
42.4105293188
 20
14.1760622444
 30
0.0
 40
0.0393700787401574
100
AcDbArc
 50
90.0
 51
115.2874008956
  0
LINE
  5
103
330
1F
100
AcDbEntity
  8
0
  6
CONTINUOUS
 62
     7
100
AcDbLine
 10
42.4105315982
 20
14.2154322151
 30
0.0
 11
42.7955588303
 21
14.2154322151
 31
0.0
  0
LINE
  5
104
330
1F
100
AcDbEntity
  8
0
  6
CONTINUOUS
 62
     7
100
AcDbLine
 10
42.7955588303
 20
14.2154322151
 30
0.0
 11
42.811309475
 21
14.4614949726
 31
0.0
  0
LINE
  5
105
330
1F
100
AcDbEntity
  8
0
  6
CONTINUOUS
 62
     7
100
AcDbLine
 10
42.811309475
 20
14.4614949726
 30
0.0
 11
43.2270589123
 21
14.4614949726
 31
0.0
  0
ARC
  5
106
330
1F
100
AcDbEntity
  8
0
  6
CONTINUOUS
 62
     7
100
AcDbCircle
 10
43.2270567504
 20
14.4221252365
 30
0.0
 40
0.0393700787401627
100
AcDbArc
 50
0.0
 51
90.0
  0
LINE
  5
107
330
1F
100
AcDbEntity
  8
0
  6
CONTINUOUS
 62
     7
100
AcDbLine
 10
43.2664261375
 20
13.9595264781
 30
0.0
 11
43.2664261375
 21
14.4221254007
 31
0.0
  0
ARC
  5
108
330
1F
100
AcDbEntity
  8
0
  6
CONTINUOUS
 62
     7
100
AcDbCircle
 10
43.0302063567
 20
13.9595268113
 30
0.0
 40
0.236220472440948
100
AcDbArc
 50
270.0
 51
0.0
  0
LINE
  5
109
330
1F
100
AcDbEntity
  8
0
  6
CONTINUOUS
 62
     7
100
AcDbLine
 10
40.9435908911
 20
13.7233067002
 30
0.0
 11
43.030204013
 21
13.7233067002
 31
0.0
  0
ARC
  5
10A
330
1F
100
AcDbEntity
  8
0
  6
CONTINUOUS
 62
     7
100
AcDbCircle
 10
40.9435921834
 20
13.4870858664
 30
0.0
 40
0.236220472440948
100
AcDbArc
 50
90.0
 51
180.0
  0
LINE
  5
10B
330
1F
100
AcDbEntity
  8
0
  6
CONTINUOUS
 62
     7
100
AcDbLine
 10
40.7073734599
 20
12.668797282
 30
0.0
 11
40.7073734599
 21
13.4870857491
 31
0.0
  0
ARC
  5
10C
330
1F
100
AcDbEntity
  8
0
  6
CONTINUOUS
 62
     7
100
AcDbCircle
 10
40.207371711
 20
12.6687970772
 30
0.0
 40
0.5000000000000071
100
AcDbArc
 50
300.0
 51
0.0
  0
ARC
  5
10D
330
1F
100
AcDbEntity
  8
0
  6
CONTINUOUS
 62
     7
100
AcDbCircle
 10
40.707371711
 20
11.8027716734
 30
0.0
 40
0.5
100
AcDbArc
 50
120.0
 51
180.0
  0
LINE
  5
10E
330
1F
100
AcDbEntity
  8
0
  6
CONTINUOUS
 62
     7
100
AcDbLine
 10
40.207370276
 20
11.6868295324
 30
0.0
 11
40.207370276
 21
11.8027711264
 31
0.0
  0
ARC
  5
10F
330
1F
100
AcDbEntity
  8
0
  6
CONTINUOUS
 62
     7
100
AcDbCircle
 10
40.707371711
 20
11.6868289672
 30
0.0
 40
0.5
100
AcDbArc
 50
180.0
 51
240.0
  0
ARC
  5
110
330
1F
100
AcDbEntity
  8
0
  6
CONTINUOUS
 62
     7
100
AcDbCircle
 10
40.207371711
 20
10.8208035635
 30
0.0
 40
0.500000000000003
100
AcDbArc
 50
0.0
 51
60.0
  0
LINE
  5
111
330
1F
100
AcDbEntity
  8
0
  6
CONTINUOUS
 62
     7
100
AcDbLine
 10
40.7073734599
 20
10.0025149098
 30
0.0
 11
40.7073734599
 21
10.8208033769
 31
0.0
  0
ARC
  5
112
330
1F
100
AcDbEntity
  8
0
  6
CONTINUOUS
 62
     7
100
AcDbCircle
 10
40.9435921834
 20
10.0025147742
 30
0.0
 40
0.236220472440948
100
AcDbArc
 50
180.0
 51
270.0
  0
LINE
  5
113
330
1F
100
AcDbEntity
  8
0
  6
CONTINUOUS
 62
     7
100
AcDbLine
 10
43.030204013
 20
9.7662945453
 30
0.0
 11
40.9435908911
 21
9.7662945453
 31
0.0
  0
ARC
  5
114
330
1F
100
AcDbEntity
  8
0
  6
CONTINUOUS
 62
     7
100
AcDbCircle
 10
43.0302063567
 20
9.5300738293
 30
0.0
 40
0.236220472440948
100
AcDbArc
 50
0.0
 51
90.0
  0
LINE
  5
115
330
1F
100
AcDbEntity
  8
0
  6
CONTINUOUS
 62
     7
100
AcDbLine
 10
43.2664261375
 20
9.0674752581
 30
0.0
 11
43.2664261375
 21
9.5300735941
 31
0.0
  0
ARC
  5
116
330
1F
100
AcDbEntity
  8
0
  6
CONTINUOUS
 62
     7
100
AcDbCircle
 10
43.2270567504
 20
9.0674754041
 30
0.0
 40
0.0393700787401627
100
AcDbArc
 50
270.0
 51
0.0
  0
LINE
  5
117
330
1F
100
AcDbEntity
  8
0
  6
CONTINUOUS
 62
     7
100
AcDbLine
 10
43.2270589123
 20
9.0281050996
 30
0.0
 11
42.811309475
 21
9.0281050996
 31
0.0
  0
LINE
  5
118
330
1F
100
AcDbEntity
  8
0
  6
CONTINUOUS
 62
     7
100
AcDbLine
 10
29.3865060528
 20
10.3055470358
 30
0.0
 11
29.3865060528
 21
9.457660404
 31
0.0
  0
LINE
  5
119
330
1F
100
AcDbEntity
  8
0
  6
CONTINUOUS
 62
     7
100
AcDbLine
 10
29.3865060528
 20
10.3055470358
 30
0.0
 11
34.807764386
 21
10.3055470358
 31
0.0
  0
LINE
  5
11A
330
1F
100
AcDbEntity
  8
0
  6
CONTINUOUS
 62
     7
100
AcDbLine
 10
34.807764386
 20
9.457660404
 30
0.0
 11
34.807764386
 21
10.3055470358
 31
0.0
  0
LINE
  5
11B
330
1F
100
AcDbEntity
  8
0
  6
CONTINUOUS
 62
     7
100
AcDbLine
 10
29.3865060528
 20
9.457660404
 30
0.0
 11
34.807764386
 21
9.457660404
 31
0.0
  0
LINE
  5
11C
330
1F
100
AcDbEntity
  8
0
  6
CONTINUOUS
 62
     7
100
AcDbLine
 10
29.3865060528
 20
15.8619436478
 30
0.0
 11
34.807764386
 21
15.8619436478
 31
0.0
  0
LINE
  5
11D
330
1F
100
AcDbEntity
  8
0
  6
CONTINUOUS
 62
     7
100
AcDbLine
 10
34.807764386
 20
10.8895904222
 30
0.0
 11
29.3865060528
 21
10.8895904222
 31
0.0
  0
LINE
  5
11E
330
1F
100
AcDbEntity
  8
0
  6
CONTINUOUS
 62
     7
100
AcDbLine
 10
29.3865060528
 20
15.8619436478
 30
0.0
 11
29.3865060528
 21
10.8895904222
 31
0.0
  0
LINE
  5
11F
330
1F
100
AcDbEntity
  8
0
  6
CONTINUOUS
 62
     7
100
AcDbLine
 10
34.807764386
 20
10.8895904222
 30
0.0
 11
34.807764386
 21
15.8619436478
 31
0.0
  0
LINE
  5
120
330
1F
100
AcDbEntity
  8
0
  6
CONTINUOUS
 62
     7
100
AcDbLine
 10
34.807764386
 20
16.0587950271
 30
0.0
 11
29.3865060528
 21
16.0587950271
 31
0.0
  0
LINE
  5
121
330
1F
100
AcDbEntity
  8
0
  6
CONTINUOUS
 62
     7
100
AcDbLine
 10
29.3865060528
 20
16.0587950271
 30
0.0
 11
29.3865060528
 21
15.8619436478
 31
0.0
  0
LINE
  5
122
330
1F
100
AcDbEntity
  8
0
  6
CONTINUOUS
 62
     7
100
AcDbLine
 10
34.807764386
 20
15.8619436478
 30
0.0
 11
34.807764386
 21
16.0587950271
 31
0.0
  0
LINE
  5
123
330
1F
100
AcDbEntity
  8
0
  6
CONTINUOUS
 62
     7
100
AcDbLine
 10
29.3865060528
 20
10.3055470358
 30
0.0
 11
29.3865060528
 21
10.8895904222
 31
0.0
  0
LINE
  5
124
330
1F
100
AcDbEntity
  8
0
  6
CONTINUOUS
 62
     7
100
AcDbLine
 10
34.807764386
 20
10.8895904222
 30
0.0
 11
34.807764386
 21
10.3055470358
 31
0.0
  0
LINE
  5
125
330
1F
100
AcDbEntity
  8
0
  6
CONTINUOUS
 62
     7
100
AcDbLine
 10
29.3865060528
 20
1.2876287182
 30
0.0
 11
34.807764386
 21
1.2876287182
 31
0.0
  0
LINE
  5
126
330
1F
100
AcDbEntity
  8
0
  6
CONTINUOUS
 62
     7
100
AcDbLine
 10
29.3865060528
 20
2.13551535
 30
0.0
 11
29.3865060528
 21
1.2876287182
 31
0.0
  0
LINE
  5
127
330
1F
100
AcDbEntity
  8
0
  6
CONTINUOUS
 62
     7
100
AcDbLine
 10
34.807764386
 20
2.13551535
 30
0.0
 11
29.3865060528
 21
2.13551535
 31
0.0
  0
LINE
  5
128
330
1F
100
AcDbEntity
  8
0
  6
CONTINUOUS
 62
     7
100
AcDbLine
 10
34.807764386
 20
1.2876287182
 30
0.0
 11
34.807764386
 21
2.13551535
 31
0.0
  0
LINE
  5
129
330
1F
100
AcDbEntity
  8
0
  6
CONTINUOUS
 62
     7
100
AcDbLine
 10
29.3865060528
 20
7.6919126954
 30
0.0
 11
34.807764386
 21
7.6919126954
 31
0.0
  0
LINE
  5
12A
330
1F
100
AcDbEntity
  8
0
  6
CONTINUOUS
 62
     7
100
AcDbLine
 10
29.3865060528
 20
2.7195585898
 30
0.0
 11
34.807764386
 21
2.7195585898
 31
0.0
  0
LINE
  5
12B
330
1F
100
AcDbEntity
  8
0
  6
CONTINUOUS
 62
     7
100
AcDbLine
 10
29.3865060528
 20
7.6919126954
 30
0.0
 11
29.3865060528
 21
2.7195585898
 31
0.0
  0
LINE
  5
12C
330
1F
100
AcDbEntity
  8
0
  6
CONTINUOUS
 62
     7
100
AcDbLine
 10
34.807764386
 20
2.7195585898
 30
0.0
 11
34.807764386
 21
7.6919126954
 31
0.0
  0
LINE
  5
12D
330
1F
100
AcDbEntity
  8
0
  6
CONTINUOUS
 62
     7
100
AcDbLine
 10
34.807764386
 20
7.8887629014
 30
0.0
 11
29.3865060528
 21
7.8887629014
 31
0.0
  0
LINE
  5
12E
330
1F
100
AcDbEntity
  8
0
  6
CONTINUOUS
 62
     7
100
AcDbLine
 10
29.3865060528
 20
7.8887629014
 30
0.0
 11
29.3865060528
 21
7.6919126954
 31
0.0
  0
LINE
  5
12F
330
1F
100
AcDbEntity
  8
0
  6
CONTINUOUS
 62
     7
100
AcDbLine
 10
34.807764386
 20
7.6919126954
 30
0.0
 11
34.807764386
 21
7.8887629014
 31
0.0
  0
LINE
  5
130
330
1F
100
AcDbEntity
  8
0
  6
CONTINUOUS
 62
     7
100
AcDbLine
 10
29.3865060528
 20
2.13551535
 30
0.0
 11
29.3865060528
 21
2.7195585898
 31
0.0
  0
LINE
  5
131
330
1F
100
AcDbEntity
  8
0
  6
CONTINUOUS
 62
     7
100
AcDbLine
 10
34.807764386
 20
2.7195585898
 30
0.0
 11
34.807764386
 21
2.13551535
 31
0.0
  0
ARC
  5
132
330
1F
100
AcDbEntity
  8
0
  6
CONTINUOUS
 62
     7
100
AcDbCircle
 10
19.8243372981
 20
10.5299426293
 30
0.0
 40
0.1908464566929138
100
AcDbArc
 50
322.9805873519
 51
355.2874052658
  0
ARC
  5
133
330
1F
100
AcDbEntity
  8
0
  6
CONTINUOUS
 62
     7
100
AcDbCircle
 10
20.0537755523
 20
10.5110285943
 30
0.0
 40
0.0393700787401603
100
AcDbArc
 50
150.0
 51
175.2874052658
  0
LINE
  5
134
330
1F
100
AcDbEntity
  8
0
  6
CONTINUOUS
 62
     7
100
AcDbLine
 10
20.14801843
 20
10.7530019201
 30
0.0
 11
20.0196807125
 21
10.5307141413
 31
0.0
  0
ARC
  5
135
330
1F
100
AcDbEntity
  8
0
  6
CONTINUOUS
 62
     7
100
AcDbCircle
 10
20.1821143977
 20
10.7333169599
 30
0.0
 40
0.039370596346451
100
AcDbArc
 50
124.7126323726
 51
150.0
  0
ARC
  5
136
330
1F
100
AcDbEntity
  8
0
  6
CONTINUOUS
 62
     7
100
AcDbCircle
 10
20.0510148167
 20
10.9225596384
 30
0.0
 40
0.1908464566929156
100
AcDbArc
 50
304.7126323726
 51
132.4587640698
  0
ARC
  5
137
330
1F
100
AcDbEntity
  8
0
  6
CONTINUOUS
 62
     7
100
AcDbCircle
 10
19.8956049776
 20
11.0924049654
 30
0.0
 40
0.0393700787401586
100
AcDbArc
 50
240.0000165352
 51
312.4587640698
  0
LINE
  5
138
330
1F
100
AcDbEntity
  8
0
  6
CONTINUOUS
 62
     7
100
AcDbLine
 10
19.6960838108
 20
11.1621373537
 30
0.0
 11
19.8759208799
 21
11.0583091132
 31
0.0
  0
ARC
  5
139
330
1F
100
AcDbEntity
  8
0
  6
CONTINUOUS
 62
     7
100
AcDbCircle
 10
19.7157693114
 20
11.1962330665
 30
0.0
 40
0.0393700932603677
100
AcDbArc
 50
167.541242307
 51
240.0000165352
  0
ARC
  5
13A
330
1F
100
AcDbEntity
  8
0
  6
CONTINUOUS
 62
     7
100
AcDbCircle
 10
19.4909740184
 20
11.2458992466
 30
0.0
 40
0.1908464421727027
100
AcDbArc
 50
347.541242307
 51
175.2873791369
  0
ARC
  5
13B
330
1F
100
AcDbEntity
  8
0
  6
CONTINUOUS
 62
     7
100
AcDbCircle
 10
19.2615358224
 20
11.2648133822
 30
0.0
 40
0.0393700581817867
100
AcDbArc
 50
330.0
 51
355.2873791369
  0
LINE
  5
13C
330
1F
100
AcDbEntity
  8
0
  6
CONTINUOUS
 62
     7
100
AcDbLine
 10
19.1672932261
 20
11.0228396562
 30
0.0
 11
19.2956309435
 21
11.2451286083
 31
0.0
  0
ARC
  5
13D
330
1F
100
AcDbEntity
  8
0
  6
CONTINUOUS
 62
     7
100
AcDbCircle
 10
19.1331973091
 20
11.0425245567
 30
0.0
 40
0.0393700787401553
100
AcDbArc
 50
304.7126034747
 51
330.0
  0
ARC
  5
13E
330
1F
100
AcDbEntity
  8
0
  6
CONTINUOUS
 62
     7
100
AcDbCircle
 10
19.2642964999
 20
10.8532822375
 30
0.0
 40
0.1908464566929169
100
AcDbArc
 50
124.7126034747
 51
157.0193871307
  0
LINE
  5
13F
330
1F
100
AcDbEntity
  8
0
  6
CONTINUOUS
 62
     7
100
AcDbLine
 10
19.0885963218
 20
10.9277925409
 30
0.0
 11
16.5547723661
 21
12.3906958547
 31
0.0
  0
ARC
  5
140
330
1F
100
AcDbEntity
  8
0
  6
CONTINUOUS
 62
     7
100
AcDbCircle
 10
16.4023945585
 20
12.5056021912
 30
0.0
 40
0.1908464566929138
100
AcDbArc
 50
322.9805873519
 51
355.2874052658
  0
ARC
  5
141
330
1F
100
AcDbEntity
  8
0
  6
CONTINUOUS
 62
     7
100
AcDbCircle
 10
16.6318328126
 20
12.4866881562
 30
0.0
 40
0.0393700787401566
100
AcDbArc
 50
150.0
 51
175.2874052658
  0
LINE
  5
142
330
1F
100
AcDbEntity
  8
0
  6
CONTINUOUS
 62
     7
100
AcDbLine
 10
16.7260758805
 20
12.7286624038
 30
0.0
 11
16.5977369898
 21
12.5063734517
 31
0.0
  0
ARC
  5
143
330
1F
100
AcDbEntity
  8
0
  6
CONTINUOUS
 62
     7
100
AcDbCircle
 10
16.7601716581
 20
12.7089765218
 30
0.0
 40
0.0393705963464451
100
AcDbArc
 50
124.7126323726
 51
150.0
  0
ARC
  5
144
330
1F
100
AcDbEntity
  8
0
  6
CONTINUOUS
 62
     7
100
AcDbCircle
 10
16.6290720771
 20
12.8982192003
 30
0.0
 40
0.1908464566929143
100
AcDbArc
 50
304.7126323726
 51
132.4587640698
  0
ARC
  5
145
330
1F
100
AcDbEntity
  8
0
  6
CONTINUOUS
 62
     7
100
AcDbCircle
 10
16.473662238
 20
13.0680645273
 30
0.0
 40
0.0393700787401584
100
AcDbArc
 50
240.0000165352
 51
312.4587640698
  0
LINE
  5
146
330
1F
100
AcDbEntity
  8
0
  6
CONTINUOUS
 62
     7
100
AcDbLine
 10
16.2741412613
 20
13.1377966641
 30
0.0
 11
16.4539771572
 21
13.0339695968
 31
0.0
  0
ARC
  5
147
330
1F
100
AcDbEntity
  8
0
  6
CONTINUOUS
 62
     7
100
AcDbCircle
 10
16.2938265718
 20
13.1718926284
 30
0.0
 40
0.0393700932603673
100
AcDbArc
 50
167.541242307
 51
240.0000165352
  0
ARC
  5
148
330
1F
100
AcDbEntity
  8
0
  6
CONTINUOUS
 62
     7
100
AcDbCircle
 10
16.0690312788
 20
13.2215588085
 30
0.0
 40
0.1908464421727027
100
AcDbArc
 50
347.541242307
 51
175.2873791369
  0
ARC
  5
149
330
1F
100
AcDbEntity
  8
0
  6
CONTINUOUS
 62
     7
100
AcDbCircle
 10
15.8395930827
 20
13.2404729441
 30
0.0
 40
0.0393700581817832
100
AcDbArc
 50
330.0
 51
355.2873791369
  0
LINE
  5
14A
330
1F
100
AcDbEntity
  8
0
  6
CONTINUOUS
 62
     7
100
AcDbLine
 10
15.7453495033
 20
12.9984989666
 30
0.0
 11
15.8736883941
 21
13.2207879187
 31
0.0
  0
ARC
  5
14B
330
1F
100
AcDbEntity
  8
0
  6
CONTINUOUS
 62
     7
100
AcDbCircle
 10
15.7112545695
 20
13.0181841186
 30
0.0
 40
0.0393700787401598
100
AcDbArc
 50
304.7126034747
 51
330.0
  0
ARC
  5
14C
330
1F
100
AcDbEntity
  8
0
  6
CONTINUOUS
 62
     7
100
AcDbCircle
 10
15.8423537602
 20
12.8289417994
 30
0.0
 40
0.1908464566929153
100
AcDbArc
 50
124.7126034747
 51
157.0193871307
  0
LINE
  5
14D
330
1F
100
AcDbEntity
  8
0
  6
CONTINUOUS
 62
     7
100
AcDbLine
 10
15.6666537724
 20
12.9034518513
 30
0.0
 11
15.4421167396
 21
13.0330884337
 31
0.0
  0
ARC
  5
14E
330
1F
100
AcDbEntity
  8
0
  6
CONTINUOUS
 62
     7
100
AcDbCircle
 10
15.4618012648
 20
13.0671841181
 30
0.0
 40
0.0393700787401566
100
AcDbArc
 50
167.5412391186
 51
240.0
  0
ARC
  5
14F
330
1F
100
AcDbEntity
  8
0
  6
CONTINUOUS
 62
     7
100
AcDbCircle
 10
15.2370059746
 20
13.1168503107
 30
0.0
 40
0.1908464566929161
100
AcDbArc
 50
347.5412391186
 51
175.2874008956
  0
ARC
  5
150
330
1F
100
AcDbEntity
  8
0
  6
CONTINUOUS
 62
     7
100
AcDbCircle
 10
15.0075677219
 20
13.1357643632
 30
0.0
 40
0.0393700787401537
100
AcDbArc
 50
330.0
 51
355.2874008956
  0
LINE
  5
151
330
1F
100
AcDbEntity
  8
0
  6
CONTINUOUS
 62
     7
100
AcDbLine
 10
15.041662699
 20
13.1160796883
 30
0.0
 11
14.9066323656
 21
12.8821983368
 31
0.0
  0
ARC
  5
152
330
1F
100
AcDbEntity
  8
0
  6
CONTINUOUS
 62
     7
100
AcDbCircle
 10
14.8725363533
 20
12.9018831722
 30
0.0
 40
0.0393700787401578
100
AcDbArc
 50
304.7125991044
 51
330.0
  0
ARC
  5
153
330
1F
100
AcDbEntity
  8
0
  6
CONTINUOUS
 62
     7
100
AcDbCircle
 10
15.0036355297
 20
12.7126408431
 30
0.0
 40
0.1908464566929151
100
AcDbArc
 50
124.7125991044
 51
312.4587608814
  0
ARC
  5
154
330
1F
100
AcDbEntity
  8
0
  6
CONTINUOUS
 62
     7
100
AcDbCircle
 10
15.1590453593
 20
12.5427955074
 30
0.0
 40
0.0393700787401584
100
AcDbArc
 50
60.0
 51
132.4587608814
  0
LINE
  5
155
330
1F
100
AcDbEntity
  8
0
  6
CONTINUOUS
 62
     7
100
AcDbLine
 10
15.1787299156
 20
12.5768911437
 30
0.0
 11
19.3298120953
 21
10.1802622964
 31
0.0
  0
LINE
  5
156
330
1F
100
AcDbEntity
  8
0
  6
CONTINUOUS
 62
     7
100
AcDbLine
 10
19.3298120953
 20
10.1802622964
 30
0.0
 11
19.3298120953
 21
6.1745227578
 31
0.0
  0
LINE
  5
157
330
1F
100
AcDbEntity
  8
0
  6
CONTINUOUS
 62
     7
100
AcDbLine
 10
19.3298120953
 20
6.1745227578
 30
0.0
 11
15.1787299156
 21
3.7778939105
 31
0.0
  0
ARC
  5
158
330
1F
100
AcDbEntity
  8
0
  6
CONTINUOUS
 62
     7
100
AcDbCircle
 10
15.1590453593
 20
3.8119894942
 30
0.0
 40
0.0393700787401596
100
AcDbArc
 50
227.5412391186
 51
300.0
  0
ARC
  5
159
330
1F
100
AcDbEntity
  8
0
  6
CONTINUOUS
 62
     7
100
AcDbCircle
 10
15.0036355297
 20
3.6421441586
 30
0.0
 40
0.1908464566929121
100
AcDbArc
 50
47.5412391186
 51
235.2874008956
  0
ARC
  5
15A
330
1F
100
AcDbEntity
  8
0
  6
CONTINUOUS
 62
     7
100
AcDbCircle
 10
14.8725363533
 20
3.4529018294
 30
0.0
 40
0.0393700787401593
100
AcDbArc
 50
30.0
 51
55.2874008956
  0
LINE
  5
15B
330
1F
100
AcDbEntity
  8
0
  6
CONTINUOUS
 62
     7
100
AcDbLine
 10
14.9066323656
 20
3.4725870107
 30
0.0
 11
15.041662699
 21
3.2387056592
 31
0.0
  0
ARC
  5
15C
330
1F
100
AcDbEntity
  8
0
  6
CONTINUOUS
 62
     7
100
AcDbCircle
 10
15.0075677219
 20
3.2190206384
 30
0.0
 40
0.0393700787401575
100
AcDbArc
 50
4.7125991044
 51
30.0
  0
ARC
  5
15D
330
1F
100
AcDbEntity
  8
0
  6
CONTINUOUS
 62
     7
100
AcDbCircle
 10
15.2370059746
 20
3.2379346909
 30
0.0
 40
0.1908464566929161
100
AcDbArc
 50
184.7125991044
 51
12.4587608814
  0
ARC
  5
15E
330
1F
100
AcDbEntity
  8
0
  6
CONTINUOUS
 62
     7
100
AcDbCircle
 10
15.4618012648
 20
3.2876008836
 30
0.0
 40
0.039370078740156
100
AcDbArc
 50
120.0
 51
192.4587608814
  0
LINE
  5
15F
330
1F
100
AcDbEntity
  8
0
  6
CONTINUOUS
 62
     7
100
AcDbLine
 10
15.4421167396
 20
3.3216963272
 30
0.0
 11
15.6666537724
 21
3.4513329096
 31
0.0
  0
ARC
  5
160
330
1F
100
AcDbEntity
  8
0
  6
CONTINUOUS
 62
     7
100
AcDbCircle
 10
15.8423537894
 20
3.5258431216
 30
0.0
 40
0.1908464421727027
100
AcDbArc
 50
202.9805868151
 51
235.2873791369
  0
ARC
  5
161
330
1F
100
AcDbEntity
  8
0
  6
CONTINUOUS
 62
     7
100
AcDbCircle
 10
15.7112545695
 20
3.336600883
 30
0.0
 40
0.0393700581817896
100
AcDbArc
 50
30.0
 51
55.2873791369
  0
LINE
  5
162
330
1F
100
AcDbEntity
  8
0
  6
CONTINUOUS
 62
     7
100
AcDbLine
 10
15.8736883941
 20
3.1339971355
 30
0.0
 11
15.7453495033
 21
3.3562857943
 31
0.0
  0
ARC
  5
163
330
1F
100
AcDbEntity
  8
0
  6
CONTINUOUS
 62
     7
100
AcDbCircle
 10
15.8395930827
 20
3.1143120575
 30
0.0
 40
0.0393700787401573
100
AcDbArc
 50
4.7126034747
 51
30.0
  0
ARC
  5
164
330
1F
100
AcDbEntity
  8
0
  6
CONTINUOUS
 62
     7
100
AcDbCircle
 10
16.069031334
 20
3.1332261276
 30
0.0
 40
0.1908464566929172
100
AcDbArc
 50
184.7126034747
 51
12.4587640698
  0
ARC
  5
165
330
1F
100
AcDbEntity
  8
0
  6
CONTINUOUS
 62
     7
100
AcDbCircle
 10
16.2938266214
 20
3.1828923327
 30
0.0
 40
0.0393700787401579
100
AcDbArc
 50
120.0000165352
 51
192.4587640698
  0
LINE
  5
166
330
1F
100
AcDbEntity
  8
0
  6
CONTINUOUS
 62
     7
100
AcDbLine
 10
16.4539771572
 20
3.320816044
 30
0.0
 11
16.2741412613
 21
3.2169878034
 31
0.0
  0
ARC
  5
167
330
1F
100
AcDbEntity
  8
0
  6
CONTINUOUS
 62
     7
100
AcDbCircle
 10
16.4736622277
 20
3.2867205376
 30
0.0
 40
0.0393700787401594
100
AcDbArc
 50
47.541242307
 51
120.0000165352
  0
ARC
  5
168
330
1F
100
AcDbEntity
  8
0
  6
CONTINUOUS
 62
     7
100
AcDbCircle
 10
16.6290720479
 20
3.4565658819
 30
0.0
 40
0.1908464566929158
100
AcDbArc
 50
227.541242307
 51
55.2874052658
  0
ARC
  5
169
330
1F
100
AcDbEntity
  8
0
  6
CONTINUOUS
 62
     7
100
AcDbCircle
 10
16.7601712098
 20
3.645808221
 30
0.0
 40
0.0393700787401587
100
AcDbArc
 50
210.0
 51
235.2874052658
  0
LINE
  5
16A
330
1F
100
AcDbEntity
  8
0
  6
CONTINUOUS
 62
     7
100
AcDbLine
 10
16.5977369898
 20
3.8484118958
 30
0.0
 11
16.7260758805
 21
3.6261232371
 31
0.0
  0
ARC
  5
16B
330
1F
100
AcDbEntity
  8
0
  6
CONTINUOUS
 62
     7
100
AcDbCircle
 10
16.6318332609
 20
3.8680971043
 30
0.0
 40
0.0393705963464503
100
AcDbArc
 50
184.7126323726
 51
210.0
  0
ARC
  5
16C
330
1F
100
AcDbEntity
  8
0
  6
CONTINUOUS
 62
     7
100
AcDbCircle
 10
16.4023945033
 20
3.849182876
 30
0.0
 40
0.1908464566929132
100
AcDbArc
 50
4.7126323726
 51
37.0193871307
  0
LINE
  5
16D
330
1F
100
AcDbEntity
  8
0
  6
CONTINUOUS
 62
     7
100
AcDbLine
 10
16.5547723661
 20
3.9640886129
 30
0.0
 11
19.0885963218
 21
5.4269925133
 31
0.0
  0
ARC
  5
16E
330
1F
100
AcDbEntity
  8
0
  6
CONTINUOUS
 62
     7
100
AcDbCircle
 10
19.2642965291
 20
5.5015026835
 30
0.0
 40
0.1908464421727041
100
AcDbArc
 50
202.9805868151
 51
235.2873791369
  0
ARC
  5
16F
330
1F
100
AcDbEntity
  8
0
  6
CONTINUOUS
 62
     7
100
AcDbCircle
 10
19.1331973091
 20
5.3122604449
 30
0.0
 40
0.0393700581817867
100
AcDbArc
 50
30.0
 51
55.2873791369
  0
LINE
  5
170
330
1F
100
AcDbEntity
  8
0
  6
CONTINUOUS
 62
     7
100
AcDbLine
 10
19.2956309435
 20
5.1096564458
 30
0.0
 11
19.1672932261
 21
5.3319453979
 31
0.0
  0
ARC
  5
171
330
1F
100
AcDbEntity
  8
0
  6
CONTINUOUS
 62
     7
100
AcDbCircle
 10
19.2615358224
 20
5.0899716194
 30
0.0
 40
0.0393700787401558
100
AcDbArc
 50
4.7126034747
 51
30.0
  0
ARC
  5
172
330
1F
100
AcDbEntity
  8
0
  6
CONTINUOUS
 62
     7
100
AcDbCircle
 10
19.4909740736
 20
5.1088856894
 30
0.0
 40
0.1908464566929134
100
AcDbArc
 50
184.7126034747
 51
12.4587640698
  0
ARC
  5
173
330
1F
100
AcDbEntity
  8
0
  6
CONTINUOUS
 62
     7
100
AcDbCircle
 10
19.7157693611
 20
5.1585518946
 30
0.0
 40
0.0393700787401612
100
AcDbArc
 50
120.0000165352
 51
192.4587640698
  0
LINE
  5
174
330
1F
100
AcDbEntity
  8
0
  6
CONTINUOUS
 62
     7
100
AcDbLine
 10
19.8759208799
 20
5.2964753544
 30
0.0
 11
19.6960838108
 21
5.1926471138
 31
0.0
  0
ARC
  5
175
330
1F
100
AcDbEntity
  8
0
  6
CONTINUOUS
 62
     7
100
AcDbCircle
 10
19.8956049673
 20
5.2623800995
 30
0.0
 40
0.0393700787401561
100
AcDbArc
 50
47.541242307
 51
120.0000165352
  0
ARC
  5
176
330
1F
100
AcDbEntity
  8
0
  6
CONTINUOUS
 62
     7
100
AcDbCircle
 10
20.0510147875
 20
5.4322254438
 30
0.0
 40
0.1908464566929151
100
AcDbArc
 50
227.541242307
 51
55.2874052658
  0
ARC
  5
177
330
1F
100
AcDbEntity
  8
0
  6
CONTINUOUS
 62
     7
100
AcDbCircle
 10
20.1821139494
 20
5.6214677829
 30
0.0
 40
0.0393700787401582
100
AcDbArc
 50
210.0
 51
235.2874052658
  0
LINE
  5
178
330
1F
100
AcDbEntity
  8
0
  6
CONTINUOUS
 62
     7
100
AcDbLine
 10
20.0196807125
 20
5.8240714995
 30
0.0
 11
20.14801843
 21
5.6017825474
 31
0.0
  0
ARC
  5
179
330
1F
100
AcDbEntity
  8
0
  6
CONTINUOUS
 62
     7
100
AcDbCircle
 10
20.0537760005
 20
5.8437566661
 30
0.0
 40
0.0393705963464503
100
AcDbArc
 50
184.7126323726
 51
210.0
  0
ARC
  5
17A
330
1F
100
AcDbEntity
  8
0
  6
CONTINUOUS
 62
     7
100
AcDbCircle
 10
19.824337243
 20
5.8248424378
 30
0.0
 40
0.1908464566929133
100
AcDbArc
 50
4.7126323726
 51
37.0193871307
  0
LINE
  5
17B
330
1F
100
AcDbEntity
  8
0
  6
CONTINUOUS
 62
     7
100
AcDbLine
 10
19.9767160889
 20
5.9397485099
 30
0.0
 11
20.6306001618
 21
6.3172688421
 31
0.0
  0
LINE
  5
17C
330
1F
100
AcDbEntity
  8
0
  6
CONTINUOUS
 62
     7
100
AcDbLine
 10
20.6306001618
 20
6.3172688421
 30
0.0
 11
20.6306001618
 21
5.641723526
 31
0.0
  0
ARC
  5
17D
330
1F
100
AcDbEntity
  8
0
  6
CONTINUOUS
 62
     7
100
AcDbCircle
 10
19.2526473015
 20
5.6417236334
 30
0.0
 40
1.377952755905512
100
AcDbArc
 50
300.0
 51
0.0
  0
LINE
  5
17E
330
1F
100
AcDbEntity
  8
0
  6
CONTINUOUS
 62
     7
100
AcDbLine
 10
19.9416244409
 20
4.4483816316
 30
0.0
 11
15.54971603
 21
1.9127126305
 31
0.0
  0
ARC
  5
17F
330
1F
100
AcDbEntity
  8
0
  6
CONTINUOUS
 62
     7
100
AcDbCircle
 10
14.860739992
 20
3.106054766
 30
0.0
 40
1.377952755905512
100
AcDbArc
 50
240.0
 51
300.0
  0
LINE
  5
180
330
1F
100
AcDbEntity
  8
0
  6
CONTINUOUS
 62
     7
100
AcDbLine
 10
14.1717634149
 20
1.9127126305
 30
0.0
 11
9.7798561772
 21
4.4483816316
 31
0.0
  0
ARC
  5
181
330
1F
100
AcDbEntity
  8
0
  6
CONTINUOUS
 62
     7
100
AcDbCircle
 10
10.4688326825
 20
5.6417236334
 30
0.0
 40
1.377952755905513
100
AcDbArc
 50
180.0
 51
240.0
  0
LINE
  5
182
330
1F
100
AcDbEntity
  8
0
  6
CONTINUOUS
 62
     7
100
AcDbLine
 10
9.0908798697
 20
5.641723526
 30
0.0
 11
9.0908798697
 21
10.7130609415
 31
0.0
  0
ARC
  5
183
330
1F
100
AcDbEntity
  8
0
  6
CONTINUOUS
 62
     7
100
AcDbCircle
 10
10.4688326825
 20
10.7130613682
 30
0.0
 40
1.377952755905513
100
AcDbArc
 50
120.0
 51
180.0
  0
LINE
  5
184
330
1F
100
AcDbEntity
  8
0
  6
CONTINUOUS
 62
     7
100
AcDbLine
 10
9.7798561772
 20
11.9064034226
 30
0.0
 11
14.1717634149
 21
14.442071837
 31
0.0
  0
ARC
  5
185
330
1F
100
AcDbEntity
  8
0
  6
CONTINUOUS
 62
     7
100
AcDbCircle
 10
14.860739992
 20
13.2487302356
 30
0.0
 40
1.377952755905511
100
AcDbArc
 50
60.0
 51
120.0
  0
LINE
  5
186
330
1F
100
AcDbEntity
  8
0
  6
CONTINUOUS
 62
     7
100
AcDbLine
 10
15.54971603
 20
14.442071837
 30
0.0
 11
19.9416244409
 21
11.9064034226
 31
0.0
  0
ARC
  5
187
330
1F
100
AcDbEntity
  8
0
  6
CONTINUOUS
 62
     7
100
AcDbCircle
 10
19.2526473015
 20
10.7130613682
 30
0.0
 40
1.37795275590551
100
AcDbArc
 50
0.0
 51
60.0
  0
LINE
  5
188
330
1F
100
AcDbEntity
  8
0
  6
CONTINUOUS
 62
     7
100
AcDbLine
 10
20.6306001618
 20
10.7130609415
 30
0.0
 11
20.6306001618
 21
10.0375162121
 31
0.0
  0
LINE
  5
189
330
1F
100
AcDbEntity
  8
0
  6
CONTINUOUS
 62
     7
100
AcDbLine
 10
20.6306001618
 20
10.0375162121
 30
0.0
 11
19.9767160889
 21
10.4150365443
 31
0.0
  0
ARC
  5
18A
330
1F
100
AcDbEntity
  8
0
  6
CONTINUOUS
 62
     7
100
AcDbCircle
 10
12.892236055
 20
4.6971775551
 30
0.0
 40
0.9842519685039388
100
AcDbArc
 50
240.0
 51
0.0
  0
LINE
  5
18B
330
1F
100
AcDbEntity
  8
0
  6
CONTINUOUS
 62
     7
100
AcDbLine
 10
13.8764881059
 20
4.6971776375
 30
0.0
 11
13.8764881059
 21
11.6576080033
 31
0.0
  0
ARC
  5
18C
330
1F
100
AcDbEntity
  8
0
  6
CONTINUOUS
 62
     7
100
AcDbCircle
 10
12.892236055
 20
11.6576074465
 30
0.0
 40
0.9842519685039388
100
AcDbArc
 50
0.0
 51
120.0
  0
LINE
  5
18D
330
1F
100
AcDbEntity
  8
0
  6
CONTINUOUS
 62
     7
100
AcDbLine
 10
12.4001103878
 20
12.5099943165
 30
0.0
 11
10.7641083804
 21
11.565448428
 31
0.0
  0
ARC
  5
18E
330
1F
100
AcDbEntity
  8
0
  6
CONTINUOUS
 62
     7
100
AcDbCircle
 10
11.6499350447
 20
10.0311516015
 30
0.0
 40
1.771653543307089
100
AcDbArc
 50
120.0
 51
180.0
  0
LINE
  5
18F
330
1F
100
AcDbEntity
  8
0
  6
CONTINUOUS
 62
     7
100
AcDbLine
 10
9.8782812802
 20
10.0311521256
 30
0.0
 11
9.8782812802
 21
6.3236335152
 31
0.0
  0
ARC
  5
190
330
1F
100
AcDbEntity
  8
0
  6
CONTINUOUS
 62
     7
100
AcDbCircle
 10
11.6499350447
 20
6.3236334002
 30
0.0
 40
1.771653543307089
100
AcDbArc
 50
180.0
 51
240.0
  0
LINE
  5
191
330
1F
100
AcDbEntity
  8
0
  6
CONTINUOUS
 62
     7
100
AcDbLine
 10
10.7641083804
 20
4.7893363329
 30
0.0
 11
12.4001103878
 21
3.8447904444
 31
0.0
  0
LINE
  5
192
330
1F
100
AcDbEntity
  8
0
  6
CONTINUOUS
 62
     7
100
AcDbLine
 10
20.8274503678
 20
7.0391837558
 30
0.0
 11
19.8431981646
 21
6.470925627
 31
0.0
  0
LINE
  5
193
330
1F
100
AcDbEntity
  8
0
  6
CONTINUOUS
 62
     7
100
AcDbLine
 10
19.8431981646
 20
6.470925627
 30
0.0
 11
19.8431981646
 21
9.8838588405
 31
0.0
  0
LINE
  5
194
330
1F
100
AcDbEntity
  8
0
  6
CONTINUOUS
 62
     7
100
AcDbLine
 10
19.8431981646
 20
9.8838588405
 30
0.0
 11
20.8274503678
 21
9.3156007117
 31
0.0
  0
LINE
  5
195
330
1F
100
AcDbEntity
  8
0
  6
CONTINUOUS
 62
     7
100
AcDbLine
 10
20.8274503678
 20
7.0391837558
 30
0.0
 11
20.8274503678
 21
9.3156007117
 31
0.0
  0
ARC
  5
196
330
1F
100
AcDbEntity
  8
0
  6
CONTINUOUS
 62
     7
100
AcDbCircle
 10
19.2526473015
 20
5.6417236334
 30
0.0
 40
1.574803149606298
100
AcDbArc
 50
300.0
 51
0.0
  0
LINE
  5
197
330
1F
100
AcDbEntity
  8
0
  6
CONTINUOUS
 62
     7
100
AcDbLine
 10
15.6481411329
 20
1.7422352799
 30
0.0
 11
20.0400495439
 21
4.2779041343
 31
0.0
  0
ARC
  5
198
330
1F
100
AcDbEntity
  8
0
  6
CONTINUOUS
 62
     7
100
AcDbCircle
 10
14.860739992
 20
3.106054766
 30
0.0
 40
1.5748031496063
100
AcDbArc
 50
240.0
 51
300.0
  0
LINE
  5
199
330
1F
100
AcDbEntity
  8
0
  6
CONTINUOUS
 62
     7
100
AcDbLine
 10
9.6814310742
 20
4.2779041343
 30
0.0
 11
14.0733383119
 21
1.7422352799
 31
0.0
  0
ARC
  5
19A
330
1F
100
AcDbEntity
  8
0
  6
CONTINUOUS
 62
     7
100
AcDbCircle
 10
10.4688326825
 20
5.6417236334
 30
0.0
 40
1.574803149606298
100
AcDbArc
 50
180.0
 51
240.0
  0
LINE
  5
19B
330
1F
100
AcDbEntity
  8
0
  6
CONTINUOUS
 62
     7
100
AcDbLine
 10
8.8940296637
 20
10.7130609415
 30
0.0
 11
8.8940296637
 21
5.641723526
 31
0.0
  0
ARC
  5
19C
330
1F
100
AcDbEntity
  8
0
  6
CONTINUOUS
 62
     7
100
AcDbCircle
 10
10.4688326825
 20
10.7130613682
 30
0.0
 40
1.5748031496063
100
AcDbArc
 50
120.0
 51
180.0
  0
ARC
  5
19D
330
1F
100
AcDbEntity
  8
0
  6
CONTINUOUS
 62
     7
100
AcDbCircle
 10
14.860739992
 20
13.2487302356
 30
0.0
 40
1.5748031496063
100
AcDbArc
 50
60.0
 51
120.0
  0
LINE
  5
19E
330
1F
100
AcDbEntity
  8
0
  6
CONTINUOUS
 62
     7
100
AcDbLine
 10
20.0400495439
 20
12.0768809199
 30
0.0
 11
15.6481411329
 21
14.6125493343
 31
0.0
  0
ARC
  5
19F
330
1F
100
AcDbEntity
  8
0
  6
CONTINUOUS
 62
     7
100
AcDbCircle
 10
19.2526473015
 20
10.7130613682
 30
0.0
 40
1.574803149606297
100
AcDbArc
 50
0.0
 51
60.0
  0
LINE
  5
1A0
330
1F
100
AcDbEntity
  8
0
  6
CONTINUOUS
 62
     7
100
AcDbLine
 10
14.0733383119
 20
14.6125493343
 30
0.0
 11
9.6814310742
 21
12.0768809199
 31
0.0
  0
LINE
  5
1A1
330
1F
100
AcDbEntity
  8
0
  6
CONTINUOUS
 62
     7
100
AcDbLine
 10
20.8274503678
 20
6.4309207025
 30
0.0
 11
20.6306001618
 21
6.3172688421
 31
0.0
  0
LINE
  5
1A2
330
1F
100
AcDbEntity
  8
0
  6
CONTINUOUS
 62
     7
100
AcDbLine
 10
20.6306001618
 20
10.0375162121
 30
0.0
 11
20.8274503678
 21
9.9238643517
 31
0.0
  0
LINE
  5
1A3
330
1F
100
AcDbEntity
  8
0
  6
CONTINUOUS
 62
     7
100
AcDbLine
 10
20.8274503678
 20
5.641723526
 30
0.0
 11
20.8274503678
 21
6.4309207025
 31
0.0
  0
LINE
  5
1A4
330
1F
100
AcDbEntity
  8
0
  6
CONTINUOUS
 62
     7
100
AcDbLine
 10
20.8274503678
 20
9.9238643517
 30
0.0
 11
20.8274503678
 21
10.7130609415
 31
0.0
  0
ARC
  5
1A5
330
1F
100
AcDbEntity
  8
0
  6
CONTINUOUS
 62
     7
100
AcDbCircle
 10
11.6499350447
 20
6.3236334002
 30
0.0
 40
1.574803149606299
100
AcDbArc
 50
180.0
 51
240.0
  0
LINE
  5
1A6
330
1F
100
AcDbEntity
  8
0
  6
CONTINUOUS
 62
     7
100
AcDbLine
 10
10.8625334834
 20
4.9598138302
 30
0.0
 11
12.4985354908
 21
4.0152676483
 31
0.0
  0
ARC
  5
1A7
330
1F
100
AcDbEntity
  8
0
  6
CONTINUOUS
 62
     7
100
AcDbCircle
 10
12.892236055
 20
4.6971775551
 30
0.0
 40
0.78740157480315
100
AcDbArc
 50
240.0
 51
0.0
  0
ARC
  5
1A8
330
1F
100
AcDbEntity
  8
0
  6
CONTINUOUS
 62
     7
100
AcDbCircle
 10
11.6499350447
 20
10.0311516015
 30
0.0
 40
1.574803149606302
100
AcDbArc
 50
120.0
 51
180.0
  0
LINE
  5
1A9
330
1F
100
AcDbEntity
  8
0
  6
CONTINUOUS
 62
     7
100
AcDbLine
 10
10.0751314862
 20
10.0311521256
 30
0.0
 11
10.0751314862
 21
6.3236335152
 31
0.0
  0
ARC
  5
1AA
330
1F
100
AcDbEntity
  8
0
  6
CONTINUOUS
 62
     7
100
AcDbCircle
 10
12.892236055
 20
11.6576074465
 30
0.0
 40
0.78740157480315
100
AcDbArc
 50
0.0
 51
120.0
  0
LINE
  5
1AB
330
1F
100
AcDbEntity
  8
0
  6
CONTINUOUS
 62
     7
100
AcDbLine
 10
13.6796378999
 20
4.6971776375
 30
0.0
 11
13.6796378999
 21
11.6576080033
 31
0.0
  0
LINE
  5
1AC
330
1F
100
AcDbEntity
  8
0
  6
CONTINUOUS
 62
     7
100
AcDbLine
 10
12.4985354908
 20
12.3395168192
 30
0.0
 11
10.8625334834
 21
11.3949709307
 31
0.0
  0
ARC
  5
1AD
330
1F
100
AcDbEntity
  8
0
  6
CONTINUOUS
 62
     7
100
AcDbCircle
 10
19.5995419555
 20
5.7751762327
 30
0.0
 40
0.0393700787401582
100
AcDbArc
 50
300.0000165352
 51
12.4587640698
  0
LINE
  5
1AE
330
1F
100
AcDbEntity
  8
0
  6
CONTINUOUS
 62
     7
100
AcDbLine
 10
19.619226672
 20
5.7410808316
 30
0.0
 11
19.4393919494
 21
5.637252591
 31
0.0
  0
ARC
  5
1AF
330
1F
100
AcDbEntity
  8
0
  6
CONTINUOUS
 62
     7
100
AcDbCircle
 10
19.4197063492
 20
5.6713480278
 30
0.0
 40
0.0393700787401611
100
AcDbArc
 50
227.541242307
 51
300.0000165352
  0
ARC
  5
1B0
330
1F
100
AcDbEntity
  8
0
  6
CONTINUOUS
 62
     7
100
AcDbCircle
 10
16.1775992159
 20
3.7995166708
 30
0.0
 40
0.0393700787401594
100
AcDbArc
 50
300.0000165352
 51
12.4587640698
  0
LINE
  5
1B1
330
1F
100
AcDbEntity
  8
0
  6
CONTINUOUS
 62
     7
100
AcDbLine
 10
16.1972841225
 20
3.7654212279
 30
0.0
 11
16.0174482267
 21
3.6615929873
 31
0.0
  0
ARC
  5
1B2
330
1F
100
AcDbEntity
  8
0
  6
CONTINUOUS
 62
     7
100
AcDbCircle
 10
15.9977636096
 20
3.6956884659
 30
0.0
 40
0.0393700787401576
100
AcDbArc
 50
227.541242307
 51
300.0000165352
  0
ARC
  5
1B3
330
1F
100
AcDbEntity
  8
0
  6
CONTINUOUS
 62
     7
100
AcDbCircle
 10
15.9977635993
 20
12.6590964724
 30
0.0
 40
0.039370078740157
100
AcDbArc
 50
60.0000165352
 51
132.4587640698
  0
LINE
  5
1B4
330
1F
100
AcDbEntity
  8
0
  6
CONTINUOUS
 62
     7
100
AcDbLine
 10
16.0174482267
 20
12.6931917735
 30
0.0
 11
16.1972841225
 21
12.589363533
 31
0.0
  0
ARC
  5
1B5
330
1F
100
AcDbEntity
  8
0
  6
CONTINUOUS
 62
     7
100
AcDbCircle
 10
16.1775992655
 20
12.5552683713
 30
0.0
 40
0.0393700787401626
100
AcDbArc
 50
347.541242307
 51
60.0000165352
  0
ARC
  5
1B6
330
1F
100
AcDbEntity
  8
0
  6
CONTINUOUS
 62
     7
100
AcDbCircle
 10
19.419706339
 20
10.6834369105
 30
0.0
 40
0.0393700787401568
100
AcDbArc
 50
60.0000165352
 51
132.4587640698
  0
LINE
  5
1B7
330
1F
100
AcDbEntity
  8
0
  6
CONTINUOUS
 62
     7
100
AcDbLine
 10
19.4393919494
 20
10.7175324632
 30
0.0
 11
19.619226672
 21
10.6137042226
 31
0.0
  0
ARC
  5
1B8
330
1F
100
AcDbEntity
  8
0
  6
CONTINUOUS
 62
     7
100
AcDbCircle
 10
19.5995420052
 20
10.5796088095
 30
0.0
 40
0.0393700787401583
100
AcDbArc
 50
347.541242307
 51
60.0000165352
  0
ARC
  5
1B9
330
1F
100
AcDbEntity
  8
0
  6
CONTINUOUS
 62
     7
100
AcDbCircle
 10
19.824337243
 20
5.8248424378
 30
0.0
 40
0.1908464566929124
100
AcDbArc
 50
37.0193871307
 51
192.4587640698
  0
LINE
  5
1BA
330
1F
100
AcDbEntity
  8
0
  6
CONTINUOUS
 62
     7
100
AcDbLine
 10
20.8274503678
 20
7.0391837558
 30
0.0
 11
20.8274503678
 21
6.4309207025
 31
0.0
  0
LINE
  5
1BB
330
1F
100
AcDbEntity
  8
0
  6
CONTINUOUS
 62
     7
100
AcDbLine
 10
20.8274503678
 20
9.9238643517
 30
0.0
 11
20.8274503678
 21
9.3156007117
 31
0.0
  0
ARC
  5
1BC
330
1F
100
AcDbEntity
  8
0
  6
CONTINUOUS
 62
     7
100
AcDbCircle
 10
19.8243372981
 20
10.5299426293
 30
0.0
 40
0.1908464566929144
100
AcDbArc
 50
167.541242307
 51
322.9805873519
  0
ARC
  5
1BD
330
1F
100
AcDbEntity
  8
0
  6
CONTINUOUS
 62
     7
100
AcDbCircle
 10
19.2642965291
 20
5.5015026835
 30
0.0
 40
0.1908464566929109
100
AcDbArc
 50
47.541242307
 51
202.9805868151
  0
ARC
  5
1BE
330
1F
100
AcDbEntity
  8
0
  6
CONTINUOUS
 62
     7
100
AcDbCircle
 10
19.2642964999
 20
10.8532822375
 30
0.0
 40
0.1908464566929169
100
AcDbArc
 50
157.0193871307
 51
312.4587640698
  0
ARC
  5
1BF
330
1F
100
AcDbEntity
  8
0
  6
CONTINUOUS
 62
     7
100
AcDbCircle
 10
16.4023945033
 20
3.849182876
 30
0.0
 40
0.1908464566929147
100
AcDbArc
 50
37.0193871307
 51
192.4587640698
  0
ARC
  5
1C0
330
1F
100
AcDbEntity
  8
0
  6
CONTINUOUS
 62
     7
100
AcDbCircle
 10
16.4023945585
 20
12.5056021912
 30
0.0
 40
0.190846456692914
100
AcDbArc
 50
167.541242307
 51
322.9805873519
  0
ARC
  5
1C1
330
1F
100
AcDbEntity
  8
0
  6
CONTINUOUS
 62
     7
100
AcDbCircle
 10
15.8423537894
 20
3.5258431216
 30
0.0
 40
0.1908464566929154
100
AcDbArc
 50
47.541242307
 51
202.9805868151
  0
ARC
  5
1C2
330
1F
100
AcDbEntity
  8
0
  6
CONTINUOUS
 62
     7
100
AcDbCircle
 10
15.8423537602
 20
12.8289417994
 30
0.0
 40
0.1908464566929143
100
AcDbArc
 50
157.0193871307
 51
312.4587640698
  0
ARC
  5
1C3
330
1F
100
AcDbEntity
  8
0
  6
CONTINUOUS
 62
     7
100
AcDbCircle
 10
2.1457836406
 20
13.7033367468
 30
0.0
 40
0.7874015748031504
100
AcDbArc
 50
60.0
 51
180.0
  0
LINE
  5
1C4
330
1F
100
AcDbEntity
  8
0
  6
CONTINUOUS
 62
     7
100
AcDbLine
 10
2.5394844719
 20
14.3852467868
 30
0.0
 11
6.5377301639
 21
12.0768586268
 31
0.0
  0
ARC
  5
1C5
330
1F
100
AcDbEntity
  8
0
  6
CONTINUOUS
 62
     7
100
AcDbCircle
 10
5.7503287455
 20
10.7130386379
 30
0.0
 40
1.574803149606302
100
AcDbArc
 50
0.0
 51
60.0
  0
LINE
  5
1C6
330
1F
100
AcDbEntity
  8
0
  6
CONTINUOUS
 62
     7
100
AcDbLine
 10
7.3251321611
 20
10.7130386484
 30
0.0
 11
7.3251321611
 21
9.923841472
 31
0.0
  0
LINE
  5
1C7
330
1F
100
AcDbEntity
  8
0
  6
CONTINUOUS
 62
     7
100
AcDbLine
 10
6.4743574026
 20
10.4150365443
 30
0.0
 11
7.3251321611
 21
9.923841472
 31
0.0
  0
ARC
  5
1C8
330
1F
100
AcDbEntity
  8
0
  6
CONTINUOUS
 62
     7
100
AcDbCircle
 10
6.321979372
 20
10.5299426293
 30
0.0
 40
0.1908464566929113
100
AcDbArc
 50
322.9805873519
 51
355.2874052658
  0
ARC
  5
1C9
330
1F
100
AcDbEntity
  8
0
  6
CONTINUOUS
 62
     7
100
AcDbCircle
 10
6.5514176261
 20
10.5110285943
 30
0.0
 40
0.0393700787401594
100
AcDbArc
 50
150.0
 51
175.2874052658
  0
LINE
  5
1CA
330
1F
100
AcDbEntity
  8
0
  6
CONTINUOUS
 62
     7
100
AcDbLine
 10
6.6456603304
 20
10.7530019201
 30
0.0
 11
6.5173220263
 21
10.5307141413
 31
0.0
  0
ARC
  5
1CB
330
1F
100
AcDbEntity
  8
0
  6
CONTINUOUS
 62
     7
100
AcDbCircle
 10
6.6797564715
 20
10.7333169599
 30
0.0
 40
0.0393705963464502
100
AcDbArc
 50
124.7126323726
 51
150.0
  0
ARC
  5
1CC
330
1F
100
AcDbEntity
  8
0
  6
CONTINUOUS
 62
     7
100
AcDbCircle
 10
6.5486568905
 20
10.9225596384
 30
0.0
 40
0.1908464566929138
100
AcDbArc
 50
304.7126323726
 51
132.4587640698
  0
ARC
  5
1CD
330
1F
100
AcDbEntity
  8
0
  6
CONTINUOUS
 62
     7
100
AcDbCircle
 10
6.3932470515
 20
11.0924049654
 30
0.0
 40
0.0393700787401601
100
AcDbArc
 50
240.0000165352
 51
312.4587640698
  0
LINE
  5
1CE
330
1F
100
AcDbEntity
  8
0
  6
CONTINUOUS
 62
     7
100
AcDbLine
 10
6.1937262978
 20
11.1621373537
 30
0.0
 11
6.3735621937
 21
11.0583091132
 31
0.0
  0
ARC
  5
1CF
330
1F
100
AcDbEntity
  8
0
  6
CONTINUOUS
 62
     7
100
AcDbCircle
 10
6.2134113852
 20
11.1962330665
 30
0.0
 40
0.0393700932603673
100
AcDbArc
 50
167.541242307
 51
240.0000165352
  0
ARC
  5
1D0
330
1F
100
AcDbEntity
  8
0
  6
CONTINUOUS
 62
     7
100
AcDbCircle
 10
5.9886160923
 20
11.2458992466
 30
0.0
 40
0.1908464421727027
100
AcDbArc
 50
347.541242307
 51
175.2873791369
  0
ARC
  5
1D1
330
1F
100
AcDbEntity
  8
0
  6
CONTINUOUS
 62
     7
100
AcDbCircle
 10
5.7591778962
 20
11.2648133822
 30
0.0
 40
0.0393700581817878
100
AcDbArc
 50
330.0
 51
355.2873791369
  0
LINE
  5
1D2
330
1F
100
AcDbEntity
  8
0
  6
CONTINUOUS
 62
     7
100
AcDbLine
 10
5.6649351265
 20
11.0228396562
 30
0.0
 11
5.7932734305
 21
11.2451286083
 31
0.0
  0
ARC
  5
1D3
330
1F
100
AcDbEntity
  8
0
  6
CONTINUOUS
 62
     7
100
AcDbCircle
 10
5.6308393829
 20
11.0425245567
 30
0.0
 40
0.0393700787401585
100
AcDbArc
 50
304.7126034747
 51
330.0
  0
ARC
  5
1D4
330
1F
100
AcDbEntity
  8
0
  6
CONTINUOUS
 62
     7
100
AcDbCircle
 10
5.7619385737
 20
10.8532822375
 30
0.0
 40
0.1908464566929117
100
AcDbArc
 50
124.7126034747
 51
157.0193871307
  0
LINE
  5
1D5
330
1F
100
AcDbEntity
  8
0
  6
CONTINUOUS
 62
     7
100
AcDbLine
 10
3.0474842701
 20
12.3935423284
 30
0.0
 11
5.5862382222
 21
10.9277925409
 31
0.0
  0
ARC
  5
1D6
330
1F
100
AcDbEntity
  8
0
  6
CONTINUOUS
 62
     7
100
AcDbCircle
 10
2.8951064247
 20
12.5084486479
 30
0.0
 40
0.1908464566929123
100
AcDbArc
 50
322.9805873519
 51
355.2874052658
  0
ARC
  5
1D7
330
1F
100
AcDbEntity
  8
0
  6
CONTINUOUS
 62
     7
100
AcDbCircle
 10
3.1245446789
 20
12.4895346128
 30
0.0
 40
0.0393700787401584
100
AcDbArc
 50
150.0
 51
175.2874052658
  0
LINE
  5
1D8
330
1F
100
AcDbEntity
  8
0
  6
CONTINUOUS
 62
     7
100
AcDbLine
 10
3.2187874912
 20
12.7315077042
 30
0.0
 11
3.0904491871
 21
12.5092199255
 31
0.0
  0
ARC
  5
1D9
330
1F
100
AcDbEntity
  8
0
  6
CONTINUOUS
 62
     7
100
AcDbCircle
 10
3.2528835243
 20
12.7118229785
 30
0.0
 40
0.0393705963464497
100
AcDbArc
 50
124.7126323726
 51
150.0
  0
ARC
  5
1DA
330
1F
100
AcDbEntity
  8
0
  6
CONTINUOUS
 62
     7
100
AcDbCircle
 10
3.1217839433
 20
12.901065657
 30
0.0
 40
0.1908464566929141
100
AcDbArc
 50
304.7126323726
 51
132.4587640698
  0
ARC
  5
1DB
330
1F
100
AcDbEntity
  8
0
  6
CONTINUOUS
 62
     7
100
AcDbCircle
 10
2.9663741042
 20
13.070910984
 30
0.0
 40
0.0393700787401568
100
AcDbArc
 50
240.0000165352
 51
312.4587640698
  0
LINE
  5
1DC
330
1F
100
AcDbEntity
  8
0
  6
CONTINUOUS
 62
     7
100
AcDbLine
 10
2.7668534587
 20
13.1406431379
 30
0.0
 11
2.9466890612
 21
13.0368160706
 31
0.0
  0
ARC
  5
1DD
330
1F
100
AcDbEntity
  8
0
  6
CONTINUOUS
 62
     7
100
AcDbCircle
 10
2.786538438
 20
13.1747390851
 30
0.0
 40
0.0393700932603661
100
AcDbArc
 50
167.541242307
 51
240.0000165352
  0
ARC
  5
1DE
330
1F
100
AcDbEntity
  8
0
  6
CONTINUOUS
 62
     7
100
AcDbCircle
 10
2.561743145
 20
13.2244052652
 30
0.0
 40
0.1908464421727082
100
AcDbArc
 50
347.541242307
 51
175.2873791369
  0
ARC
  5
1DF
330
1F
100
AcDbEntity
  8
0
  6
CONTINUOUS
 62
     7
100
AcDbCircle
 10
2.3323049489
 20
13.2433194008
 30
0.0
 40
0.0393700581817869
100
AcDbArc
 50
330.0
 51
355.2873791369
  0
LINE
  5
1E0
330
1F
100
AcDbEntity
  8
0
  6
CONTINUOUS
 62
     7
100
AcDbLine
 10
2.238061994
 20
13.0013454404
 30
0.0
 11
2.3664004447
 21
13.2236343925
 31
0.0
  0
ARC
  5
1E1
330
1F
100
AcDbEntity
  8
0
  6
CONTINUOUS
 62
     7
100
AcDbCircle
 10
2.2039664357
 20
13.0210305753
 30
0.0
 40
0.0393700787401581
100
AcDbArc
 50
304.7126034747
 51
330.0
  0
ARC
  5
1E2
330
1F
100
AcDbEntity
  8
0
  6
CONTINUOUS
 62
     7
100
AcDbCircle
 10
2.3350656265
 20
12.8317882561
 30
0.0
 40
0.190846456692912
100
AcDbArc
 50
124.7126034747
 51
157.0193871307
  0
LINE
  5
1E3
330
1F
100
AcDbEntity
  8
0
  6
CONTINUOUS
 62
     7
100
AcDbLine
 10
1.3583820628
 20
13.3687458895
 30
0.0
 11
2.1593653831
 21
12.906298325
 31
0.0
  0
LINE
  5
1E4
330
1F
100
AcDbEntity
  8
0
  6
CONTINUOUS
 62
     7
100
AcDbLine
 10
1.3583820628
 20
13.3687458895
 30
0.0
 11
1.3583820628
 21
13.7033367976
 31
0.0
  0
LINE
  5
1E5
330
1F
100
AcDbEntity
  8
0
  6
CONTINUOUS
 62
     7
100
AcDbLine
 10
1.3583820628
 20
3.594302218
 30
0.0
 11
5.8274545824
 21
6.1745227578
 31
0.0
  0
LINE
  5
1E6
330
1F
100
AcDbEntity
  8
0
  6
CONTINUOUS
 62
     7
100
AcDbLine
 10
1.3583820628
 20
3.594302218
 30
0.0
 11
1.3583820628
 21
12.7604828362
 31
0.0
  0
LINE
  5
1E7
330
1F
100
AcDbEntity
  8
0
  6
CONTINUOUS
 62
     7
100
AcDbLine
 10
5.8274545824
 20
10.1802622964
 30
0.0
 11
1.3583820628
 21
12.7604828362
 31
0.0
  0
LINE
  5
1E8
330
1F
100
AcDbEntity
  8
0
  6
CONTINUOUS
 62
     7
100
AcDbLine
 10
5.8274545824
 20
6.1745227578
 30
0.0
 11
5.8274545824
 21
10.1802622964
 31
0.0
  0
ARC
  5
1E9
330
1F
100
AcDbEntity
  8
0
  6
CONTINUOUS
 62
     7
100
AcDbCircle
 10
5.7503287455
 20
5.6417463637
 30
0.0
 40
1.574803149606301
100
AcDbArc
 50
300.0
 51
0.0
  0
LINE
  5
1EA
330
1F
100
AcDbEntity
  8
0
  6
CONTINUOUS
 62
     7
100
AcDbLine
 10
6.5377301639
 20
4.2779267207
 30
0.0
 11
2.5394844719
 21
1.9695385608
 31
0.0
  0
ARC
  5
1EB
330
1F
100
AcDbEntity
  8
0
  6
CONTINUOUS
 62
     7
100
AcDbCircle
 10
2.3350656557
 20
3.5229966649
 30
0.0
 40
0.1908464421727046
100
AcDbArc
 50
202.9805868151
 51
235.2873791369
  0
ARC
  5
1EC
330
1F
100
AcDbEntity
  8
0
  6
CONTINUOUS
 62
     7
100
AcDbCircle
 10
2.2039664357
 20
3.3337544263
 30
0.0
 40
0.039370058181788
100
AcDbArc
 50
30.0
 51
55.2873791369
  0
LINE
  5
1ED
330
1F
100
AcDbEntity
  8
0
  6
CONTINUOUS
 62
     7
100
AcDbLine
 10
2.3664004447
 20
3.1311506617
 30
0.0
 11
2.2380618473
 21
3.3534393205
 31
0.0
  0
ARC
  5
1EE
330
1F
100
AcDbEntity
  8
0
  6
CONTINUOUS
 62
     7
100
AcDbCircle
 10
2.3323049489
 20
3.1114656008
 30
0.0
 40
0.0393700787401566
100
AcDbArc
 50
4.7126034747
 51
30.0
  0
ARC
  5
1EF
330
1F
100
AcDbEntity
  8
0
  6
CONTINUOUS
 62
     7
100
AcDbCircle
 10
2.5617432002
 20
3.1303796709
 30
0.0
 40
0.1908464566929146
100
AcDbArc
 50
184.7126034747
 51
12.4587640698
  0
ARC
  5
1F0
330
1F
100
AcDbEntity
  8
0
  6
CONTINUOUS
 62
     7
100
AcDbCircle
 10
2.7865384876
 20
3.180045876
 30
0.0
 40
0.0393700787401604
100
AcDbArc
 50
120.0000165352
 51
192.4587640698
  0
LINE
  5
1F1
330
1F
100
AcDbEntity
  8
0
  6
CONTINUOUS
 62
     7
100
AcDbLine
 10
2.9466890612
 20
3.3179695702
 30
0.0
 11
2.7668534587
 21
3.2141413297
 31
0.0
  0
ARC
  5
1F2
330
1F
100
AcDbEntity
  8
0
  6
CONTINUOUS
 62
     7
100
AcDbCircle
 10
2.9663740939
 20
3.2838740809
 30
0.0
 40
0.0393700787401614
100
AcDbArc
 50
47.541242307
 51
120.0000165352
  0
ARC
  5
1F3
330
1F
100
AcDbEntity
  8
0
  6
CONTINUOUS
 62
     7
100
AcDbCircle
 10
3.1217839141
 20
3.4537194252
 30
0.0
 40
0.1908464566929139
100
AcDbArc
 50
227.541242307
 51
55.2874052658
  0
ARC
  5
1F4
330
1F
100
AcDbEntity
  8
0
  6
CONTINUOUS
 62
     7
100
AcDbCircle
 10
3.252883076
 20
3.6429617644
 30
0.0
 40
0.0393700787401577
100
AcDbArc
 50
210.0
 51
235.2874052658
  0
LINE
  5
1F5
330
1F
100
AcDbEntity
  8
0
  6
CONTINUOUS
 62
     7
100
AcDbLine
 10
3.0904491871
 20
3.8455654221
 30
0.0
 11
3.2187874912
 21
3.6232767633
 31
0.0
  0
ARC
  5
1F6
330
1F
100
AcDbEntity
  8
0
  6
CONTINUOUS
 62
     7
100
AcDbCircle
 10
3.1245451271
 20
3.8652506476
 30
0.0
 40
0.0393705963464517
100
AcDbArc
 50
184.7126323726
 51
210.0
  0
ARC
  5
1F7
330
1F
100
AcDbEntity
  8
0
  6
CONTINUOUS
 62
     7
100
AcDbCircle
 10
2.8951063696
 20
3.8463364193
 30
0.0
 40
0.1908464566929133
100
AcDbArc
 50
4.7126323726
 51
37.0193871307
  0
LINE
  5
1F8
330
1F
100
AcDbEntity
  8
0
  6
CONTINUOUS
 62
     7
100
AcDbLine
 10
5.5862382222
 20
5.4269925133
 30
0.0
 11
3.0474842701
 21
3.9612421391
 31
0.0
  0
ARC
  5
1F9
330
1F
100
AcDbEntity
  8
0
  6
CONTINUOUS
 62
     7
100
AcDbCircle
 10
5.7619386029
 20
5.5015026835
 30
0.0
 40
0.1908464421727058
100
AcDbArc
 50
202.9805868151
 51
235.2873791369
  0
ARC
  5
1FA
330
1F
100
AcDbEntity
  8
0
  6
CONTINUOUS
 62
     7
100
AcDbCircle
 10
5.6308393829
 20
5.3122604449
 30
0.0
 40
0.0393700581817867
100
AcDbArc
 50
30.0
 51
55.2873791369
  0
LINE
  5
1FB
330
1F
100
AcDbEntity
  8
0
  6
CONTINUOUS
 62
     7
100
AcDbLine
 10
5.7932734305
 20
5.1096564458
 30
0.0
 11
5.6649351265
 21
5.3319453979
 31
0.0
  0
ARC
  5
1FC
330
1F
100
AcDbEntity
  8
0
  6
CONTINUOUS
 62
     7
100
AcDbCircle
 10
5.7591778962
 20
5.0899716194
 30
0.0
 40
0.0393700787401608
100
AcDbArc
 50
4.7126034747
 51
30.0
  0
ARC
  5
1FD
330
1F
100
AcDbEntity
  8
0
  6
CONTINUOUS
 62
     7
100
AcDbCircle
 10
5.9886161475
 20
5.1088856894
 30
0.0
 40
0.1908464566929152
100
AcDbArc
 50
184.7126034747
 51
12.4587640698
  0
ARC
  5
1FE
330
1F
100
AcDbEntity
  8
0
  6
CONTINUOUS
 62
     7
100
AcDbCircle
 10
6.2134114349
 20
5.1585518946
 30
0.0
 40
0.0393700787401574
100
AcDbArc
 50
120.0000165352
 51
192.4587640698
  0
LINE
  5
1FF
330
1F
100
AcDbEntity
  8
0
  6
CONTINUOUS
 62
     7
100
AcDbLine
 10
6.3735621937
 20
5.2964753544
 30
0.0
 11
6.1937262978
 21
5.1926471138
 31
0.0
  0
ARC
  5
200
330
1F
100
AcDbEntity
  8
0
  6
CONTINUOUS
 62
     7
100
AcDbCircle
 10
6.3932470412
 20
5.2623800995
 30
0.0
 40
0.0393700787401593
100
AcDbArc
 50
47.541242307
 51
120.0000165352
  0
ARC
  5
201
330
1F
100
AcDbEntity
  8
0
  6
CONTINUOUS
 62
     7
100
AcDbCircle
 10
6.5486568613
 20
5.4322254438
 30
0.0
 40
0.1908464566929152
100
AcDbArc
 50
227.541242307
 51
55.2874052658
  0
ARC
  5
202
330
1F
100
AcDbEntity
  8
0
  6
CONTINUOUS
 62
     7
100
AcDbCircle
 10
6.6797560233
 20
5.6214677829
 30
0.0
 40
0.0393700787401597
100
AcDbArc
 50
210.0
 51
235.2874052658
  0
LINE
  5
203
330
1F
100
AcDbEntity
  8
0
  6
CONTINUOUS
 62
     7
100
AcDbLine
 10
6.5173220263
 20
5.8240714995
 30
0.0
 11
6.6456603304
 21
5.6017825474
 31
0.0
  0
ARC
  5
204
330
1F
100
AcDbEntity
  8
0
  6
CONTINUOUS
 62
     7
100
AcDbCircle
 10
6.5514180744
 20
5.8437566661
 30
0.0
 40
0.0393705963464485
100
AcDbArc
 50
184.7126323726
 51
210.0
  0
ARC
  5
205
330
1F
100
AcDbEntity
  8
0
  6
CONTINUOUS
 62
     7
100
AcDbCircle
 10
6.3219793168
 20
5.8248424378
 30
0.0
 40
0.1908464566929139
100
AcDbArc
 50
4.7126323726
 51
37.0193871307
  0
LINE
  5
206
330
1F
100
AcDbEntity
  8
0
  6
CONTINUOUS
 62
     7
100
AcDbLine
 10
7.3251321611
 20
6.4309429956
 30
0.0
 11
6.4743574026
 21
5.9397485099
 31
0.0
  0
LINE
  5
207
330
1F
100
AcDbEntity
  8
0
  6
CONTINUOUS
 62
     7
100
AcDbLine
 10
7.3251321611
 20
6.4309429956
 30
0.0
 11
7.3251321611
 21
5.6417464058
 31
0.0
  0
LINE
  5
208
330
1F
100
AcDbEntity
  8
0
  6
CONTINUOUS
 62
     7
100
AcDbLine
 10
2.1593653831
 20
3.4484864358
 30
0.0
 11
1.3583820628
 21
2.9860385781
 31
0.0
  0
ARC
  5
209
330
1F
100
AcDbEntity
  8
0
  6
CONTINUOUS
 62
     7
100
AcDbCircle
 10
2.1457836406
 20
2.6514482548
 30
0.0
 40
0.7874015748031525
100
AcDbArc
 50
180.0
 51
300.0
  0
LINE
  5
20A
330
1F
100
AcDbEntity
  8
0
  6
CONTINUOUS
 62
     7
100
AcDbLine
 10
1.3583820628
 20
2.6514482566
 30
0.0
 11
1.3583820628
 21
2.9860385781
 31
0.0
  0
LINE
  5
20B
330
1F
100
AcDbEntity
  8
0
  6
CONTINUOUS
 62
     7
100
AcDbLine
 10
6.3408406517
 20
9.8838588405
 30
0.0
 11
6.3408406517
 21
6.470925627
 31
0.0
  0
LINE
  5
20C
330
1F
100
AcDbEntity
  8
0
  6
CONTINUOUS
 62
     7
100
AcDbLine
 10
7.3251321611
 20
9.3155784187
 30
0.0
 11
6.3408406517
 21
9.8838588405
 31
0.0
  0
LINE
  5
20D
330
1F
100
AcDbEntity
  8
0
  6
CONTINUOUS
 62
     7
100
AcDbLine
 10
7.3251321611
 20
9.3155784187
 30
0.0
 11
7.3251321611
 21
7.0392066355
 31
0.0
  0
LINE
  5
20E
330
1F
100
AcDbEntity
  8
0
  6
CONTINUOUS
 62
     7
100
AcDbLine
 10
6.3408406517
 20
6.470925627
 30
0.0
 11
7.3251321611
 21
7.0392066355
 31
0.0
  0
ARC
  5
20F
330
1F
100
AcDbEntity
  8
0
  6
CONTINUOUS
 62
     7
100
AcDbCircle
 10
6.0971840294
 20
5.7751762327
 30
0.0
 40
0.0393700787401607
100
AcDbArc
 50
300.0000165352
 51
12.4587640698
  0
LINE
  5
210
330
1F
100
AcDbEntity
  8
0
  6
CONTINUOUS
 62
     7
100
AcDbLine
 10
6.116869159
 20
5.7410808316
 30
0.0
 11
5.9370332632
 21
5.637252591
 31
0.0
  0
ARC
  5
211
330
1F
100
AcDbEntity
  8
0
  6
CONTINUOUS
 62
     7
100
AcDbCircle
 10
5.9173484231
 20
5.6713480278
 30
0.0
 40
0.0393700787401574
100
AcDbArc
 50
227.541242307
 51
300.0000165352
  0
ARC
  5
212
330
1F
100
AcDbEntity
  8
0
  6
CONTINUOUS
 62
     7
100
AcDbCircle
 10
2.6703110821
 20
3.7966702141
 30
0.0
 40
0.0393700787401591
100
AcDbArc
 50
300.0000165352
 51
12.4587640698
  0
LINE
  5
213
330
1F
100
AcDbEntity
  8
0
  6
CONTINUOUS
 62
     7
100
AcDbLine
 10
2.6899960265
 20
3.7625747541
 30
0.0
 11
2.5101605707
 21
3.6587465135
 31
0.0
  0
ARC
  5
214
330
1F
100
AcDbEntity
  8
0
  6
CONTINUOUS
 62
     7
100
AcDbCircle
 10
2.4904754758
 20
3.6928420092
 30
0.0
 40
0.039370078740158
100
AcDbArc
 50
227.541242307
 51
300.0000165352
  0
ARC
  5
215
330
1F
100
AcDbEntity
  8
0
  6
CONTINUOUS
 62
     7
100
AcDbCircle
 10
2.4904754656
 20
12.6619429291
 30
0.0
 40
0.0393700787401601
100
AcDbArc
 50
60.0000165352
 51
132.4587640698
  0
LINE
  5
216
330
1F
100
AcDbEntity
  8
0
  6
CONTINUOUS
 62
     7
100
AcDbLine
 10
2.510160424
 20
12.6960382473
 30
0.0
 11
2.6899960265
 21
12.5922100067
 31
0.0
  0
ARC
  5
217
330
1F
100
AcDbEntity
  8
0
  6
CONTINUOUS
 62
     7
100
AcDbCircle
 10
2.6703111318
 20
12.558114828
 30
0.0
 40
0.0393700787401604
100
AcDbArc
 50
347.541242307
 51
60.0000165352
  0
ARC
  5
218
330
1F
100
AcDbEntity
  8
0
  6
CONTINUOUS
 62
     7
100
AcDbCircle
 10
5.9173484128
 20
10.6834369105
 30
0.0
 40
0.0393700787401586
100
AcDbArc
 50
60.0000165352
 51
132.4587640698
  0
LINE
  5
219
330
1F
100
AcDbEntity
  8
0
  6
CONTINUOUS
 62
     7
100
AcDbLine
 10
5.9370332632
 20
10.7175324632
 30
0.0
 11
6.116869159
 21
10.6137042226
 31
0.0
  0
ARC
  5
21A
330
1F
100
AcDbEntity
  8
0
  6
CONTINUOUS
 62
     7
100
AcDbCircle
 10
6.097184079
 20
10.5796088095
 30
0.0
 40
0.0393700787401604
100
AcDbArc
 50
347.541242307
 51
60.0000165352
  0
LINE
  5
21B
330
1F
100
AcDbEntity
  8
0
  6
CONTINUOUS
 62
     7
100
AcDbLine
 10
7.3251321611
 20
6.4309429956
 30
0.0
 11
7.3251321611
 21
7.0392066355
 31
0.0
  0
LINE
  5
21C
330
1F
100
AcDbEntity
  8
0
  6
CONTINUOUS
 62
     7
100
AcDbLine
 10
7.3251321611
 20
9.3155784187
 30
0.0
 11
7.3251321611
 21
9.923841472
 31
0.0
  0
ARC
  5
21D
330
1F
100
AcDbEntity
  8
0
  6
CONTINUOUS
 62
     7
100
AcDbCircle
 10
6.3219793168
 20
5.8248424378
 30
0.0
 40
0.1908464566929152
100
AcDbArc
 50
37.0193871307
 51
192.4587640698
  0
ARC
  5
21E
330
1F
100
AcDbEntity
  8
0
  6
CONTINUOUS
 62
     7
100
AcDbCircle
 10
5.7619386029
 20
5.5015026835
 30
0.0
 40
0.1908464566929115
100
AcDbArc
 50
47.541242307
 51
202.9805868151
  0
ARC
  5
21F
330
1F
100
AcDbEntity
  8
0
  6
CONTINUOUS
 62
     7
100
AcDbCircle
 10
6.321979372
 20
10.5299426293
 30
0.0
 40
0.1908464566929148
100
AcDbArc
 50
167.541242307
 51
322.9805873519
  0
ARC
  5
220
330
1F
100
AcDbEntity
  8
0
  6
CONTINUOUS
 62
     7
100
AcDbCircle
 10
5.7619385737
 20
10.8532822375
 30
0.0
 40
0.1908464566929143
100
AcDbArc
 50
157.0193871307
 51
312.4587640698
  0
ARC
  5
221
330
1F
100
AcDbEntity
  8
0
  6
CONTINUOUS
 62
     7
100
AcDbCircle
 10
2.8951063696
 20
3.8463364193
 30
0.0
 40
0.1908464566929151
100
AcDbArc
 50
37.0193871307
 51
192.4587640698
  0
ARC
  5
222
330
1F
100
AcDbEntity
  8
0
  6
CONTINUOUS
 62
     7
100
AcDbCircle
 10
2.3350656557
 20
3.5229966649
 30
0.0
 40
0.1908464566929118
100
AcDbArc
 50
47.541242307
 51
202.9805868151
  0
ARC
  5
223
330
1F
100
AcDbEntity
  8
0
  6
CONTINUOUS
 62
     7
100
AcDbCircle
 10
2.8951064247
 20
12.5084486479
 30
0.0
 40
0.1908464566929143
100
AcDbArc
 50
167.541242307
 51
322.9805873519
  0
ARC
  5
224
330
1F
100
AcDbEntity
  8
0
  6
CONTINUOUS
 62
     7
100
AcDbCircle
 10
2.3350656265
 20
12.8317882561
 30
0.0
 40
0.1908464566929154
100
AcDbArc
 50
157.0193871307
 51
312.4587640698
  0
LINE
  5
225
330
1F
100
AcDbEntity
  8
0
  6
CONTINUOUS
 62
     7
100
AcDbLine
 10
1.3583820628
 20
13.3687458895
 30
0.0
 11
1.3583820628
 21
12.7604828362
 31
0.0
  0
LINE
  5
226
330
1F
100
AcDbEntity
  8
0
  6
CONTINUOUS
 62
     7
100
AcDbLine
 10
1.3583820628
 20
3.594302218
 30
0.0
 11
1.3583820628
 21
2.9860385781
 31
0.0
  0
LINE
  5
227
330
1F
100
AcDbEntity
  8
0
  6
CONTINUOUS
 62
     7
100
AcDbLine
 10
22.3963478704
 20
1.2876287182
 30
0.0
 11
27.8176085502
 21
1.2876287182
 31
0.0
  0
LINE
  5
228
330
1F
100
AcDbEntity
  8
0
  6
CONTINUOUS
 62
     7
100
AcDbLine
 10
27.8176085502
 20
5.8088253823
 30
0.0
 11
22.3963478704
 21
5.8088253823
 31
0.0
  0
LINE
  5
229
330
1F
100
AcDbEntity
  8
0
  6
CONTINUOUS
 62
     7
100
AcDbLine
 10
27.8176085502
 20
1.2876287182
 30
0.0
 11
27.8176085502
 21
5.8088253823
 31
0.0
  0
LINE
  5
22A
330
1F
100
AcDbEntity
  8
0
  6
CONTINUOUS
 62
     7
100
AcDbLine
 10
22.3963478704
 20
5.8088253823
 30
0.0
 11
22.3963478704
 21
1.2876287182
 31
0.0
  0
LINE
  5
22B
330
1F
100
AcDbEntity
  8
PROFILES_INSIDE
100
AcDbLine
 10
6.5173221378
 20
10.5307136336
 30
0.0
 11
6.6456605349
 21
10.7530022581
 31
0.0
  0
LINE
  5
22C
330
1F
100
AcDbEntity
  8
PROFILES_INSIDE
100
AcDbLine
 10
5.9370334423
 20
10.7175324046
 30
0.0
 11
6.1168691085
 21
10.6137043035
 31
0.0
  0
LINE
  5
22D
330
1F
100
AcDbEntity
  8
PROFILES_INSIDE
100
AcDbLine
 10
5.7932733667
 20
11.2451283532
 30
0.0
 11
5.6649348713
 21
11.0228395173
 31
0.0
  0
LINE
  5
22E
330
1F
100
AcDbEntity
  8
PROFILES_INSIDE
100
AcDbLine
 10
6.3735620219
 20
11.0583094714
 30
0.0
 11
6.1937263457
 21
11.1621375552
 31
0.0
  0
LINE
  5
22F
330
1F
100
AcDbEntity
  8
PROFILES_INSIDE
100
AcDbLine
 10
3.0904491905
 20
12.5092196522
 30
0.0
 11
3.2187875877
 21
12.7315082766
 31
0.0
  0
LINE
  5
230
330
1F
100
AcDbEntity
  8
PROFILES_INSIDE
100
AcDbLine
 10
2.9466890747
 20
13.03681549
 30
0.0
 11
2.7668534048
 21
13.1406435848
 31
0.0
  0
LINE
  5
231
330
1F
100
AcDbEntity
  8
PROFILES_INSIDE
100
AcDbLine
 10
2.3664004179
 20
13.2236343726
 30
0.0
 11
2.238061924
 21
13.0013455359
 31
0.0
  0
LINE
  5
232
330
1F
100
AcDbEntity
  8
PROFILES_INSIDE
100
AcDbLine
 10
2.5101604951
 20
12.6960384231
 30
0.0
 11
2.6899961613
 21
12.592210322
 31
0.0
  0
LINE
  5
233
330
1F
100
AcDbEntity
  8
PROFILES_OUTSIDE
100
AcDbLine
 10
6.5377303203
 20
12.0768581714
 30
0.0
 11
2.539484428
 21
14.3852465136
 31
0.0
  0
LINE
  5
234
330
1F
100
AcDbEntity
  8
PROFILES_OUTSIDE
100
AcDbLine
 10
1.3583820658
 20
13.7033367468
 30
0.0
 11
1.3583820658
 21
2.6514482548
 31
0.0
  0
LINE
  5
235
330
1F
100
AcDbEntity
  8
PROFILES_OUTSIDE
100
AcDbLine
 10
2.539484428
 20
1.969538488
 30
0.0
 11
6.5377303203
 21
4.2779268302
 31
0.0
  0
LINE
  5
236
330
1F
100
AcDbEntity
  8
POCKETS
100
AcDbLine
 10
35.1827654118
 20
2.7195585078
 30
0.0
 11
29.0115055693
 21
2.7195585078
 31
0.0
  0
LINE
  5
237
330
1F
100
AcDbEntity
  8
POCKETS
100
AcDbLine
 10
29.0115055693
 20
2.7195585078
 30
0.0
 11
29.0115055693
 21
2.1355153253
 31
0.0
  0
LINE
  5
238
330
1F
100
AcDbEntity
  8
POCKETS
100
AcDbLine
 10
29.0115055693
 20
2.1355153253
 30
0.0
 11
35.1827654118
 21
2.1355153253
 31
0.0
  0
LINE
  5
239
330
1F
100
AcDbEntity
  8
POCKETS
100
AcDbLine
 10
35.1827654118
 20
2.1355153253
 30
0.0
 11
35.1827654118
 21
2.7195585078
 31
0.0
  0
LINE
  5
23A
330
1F
100
AcDbEntity
  8
PROFILES_INSIDE
100
AcDbLine
 10
6.6456605349
 20
5.6017827436
 30
0.0
 11
6.5173221378
 21
5.824071368
 31
0.0
  0
LINE
  5
23B
330
1F
100
AcDbEntity
  8
PROFILES_INSIDE
100
AcDbLine
 10
6.1168690786
 20
5.7410807501
 30
0.0
 11
5.9370334732
 21
5.6372525436
 31
0.0
  0
LINE
  5
23C
330
1F
100
AcDbEntity
  8
PROFILES_INSIDE
100
AcDbLine
 10
5.6649348503
 20
5.3319454722
 30
0.0
 11
5.7932733845
 21
5.1096566587
 31
0.0
  0
LINE
  5
23D
330
1F
100
AcDbEntity
  8
PROFILES_INSIDE
100
AcDbLine
 10
6.1937263857
 20
5.1926473772
 30
0.0
 11
6.373561992
 21
5.2964755821
 31
0.0
  0
LINE
  5
23E
330
1F
100
AcDbEntity
  8
PROFILES_OUTSIDE
100
AcDbLine
 10
7.3251318951
 20
5.6417463637
 30
0.0
 11
7.3251318951
 21
10.7130386379
 31
0.0
  0
LINE
  5
23F
330
1F
100
AcDbEntity
  8
PROFILES_OUTSIDE
100
AcDbLine
 10
8.8940295329
 20
10.7130613682
 30
0.0
 11
8.8940295329
 21
5.6417236334
 31
0.0
  0
LINE
  5
240
330
1F
100
AcDbEntity
  8
PROFILES_OUTSIDE
100
AcDbLine
 10
14.0733384172
 20
14.6125497692
 30
0.0
 11
9.6814311077
 21
12.0768809017
 31
0.0
  0
LINE
  5
241
330
1F
100
AcDbEntity
  8
PROFILES_OUTSIDE
100
AcDbLine
 10
20.0400488763
 20
12.0768809017
 30
0.0
 11
15.6481415668
 21
14.6125497692
 31
0.0
  0
LINE
  5
242
330
1F
100
AcDbEntity
  8
PROFILES_INSIDE
100
AcDbLine
 10
2.2380619062
 20
3.3534394554
 30
0.0
 11
2.3664004373
 21
3.1311506402
 31
0.0
  0
LINE
  5
243
330
1F
100
AcDbEntity
  8
PROFILES_INSIDE
100
AcDbLine
 10
2.7668534384
 20
3.2141413587
 30
0.0
 11
2.9466890447
 21
3.3179695636
 31
0.0
  0
LINE
  5
244
330
1F
100
AcDbEntity
  8
PROFILES_INSIDE
100
AcDbLine
 10
3.2187875877
 20
3.623276725
 30
0.0
 11
3.0904491905
 21
3.8455653494
 31
0.0
  0
LINE
  5
245
330
1F
100
AcDbEntity
  8
PROFILES_INSIDE
100
AcDbLine
 10
2.6899961313
 20
3.7625747315
 30
0.0
 11
2.510160525
 21
3.6587465266
 31
0.0
  0
LINE
  5
246
330
1F
100
AcDbEntity
  8
PROFILES_OUTSIDE
100
AcDbLine
 10
20.8274504512
 20
5.6417236334
 30
0.0
 11
20.8274504512
 21
10.7130613682
 31
0.0
  0
LINE
  5
247
330
1F
100
AcDbEntity
  8
PROFILES_OUTSIDE
100
AcDbLine
 10
15.6481415668
 20
1.7422352325
 30
0.0
 11
20.0400488763
 21
4.2779040999
 31
0.0
  0
LINE
  5
248
330
1F
100
AcDbEntity
  8
PROFILES_OUTSIDE
100
AcDbLine
 10
9.6814311077
 20
4.2779040999
 30
0.0
 11
14.0733384172
 21
1.7422352325
 31
0.0
  0
LINE
  5
249
330
1F
100
AcDbEntity
  8
PROFILES_INSIDE
100
AcDbLine
 10
20.0196800639
 20
10.5307136336
 30
0.0
 11
20.1480184611
 21
10.7530022581
 31
0.0
  0
LINE
  5
24A
330
1F
100
AcDbEntity
  8
PROFILES_INSIDE
100
AcDbLine
 10
19.4393913685
 20
10.7175324046
 30
0.0
 11
19.6192270347
 21
10.6137043035
 31
0.0
  0
LINE
  5
24B
330
1F
100
AcDbEntity
  8
PROFILES_INSIDE
100
AcDbLine
 10
19.2956312929
 20
11.2451283532
 30
0.0
 11
19.1672927974
 21
11.0228395173
 31
0.0
  0
LINE
  5
24C
330
1F
100
AcDbEntity
  8
PROFILES_INSIDE
100
AcDbLine
 10
19.8759199481
 20
11.0583094714
 30
0.0
 11
19.6960842719
 21
11.1621375552
 31
0.0
  0
LINE
  5
24D
330
1F
100
AcDbEntity
  8
PROFILES_INSIDE
100
AcDbLine
 10
16.5977373243
 20
12.5063731955
 30
0.0
 11
16.7260757215
 21
12.7286618199
 31
0.0
  0
LINE
  5
24E
330
1F
100
AcDbEntity
  8
PROFILES_INSIDE
100
AcDbLine
 10
16.4539772085
 20
13.0339690333
 30
0.0
 11
16.2741415386
 21
13.1377971281
 31
0.0
  0
LINE
  5
24F
330
1F
100
AcDbEntity
  8
PROFILES_INSIDE
100
AcDbLine
 10
15.8736885517
 20
13.2207879159
 30
0.0
 11
15.7453500578
 21
12.9984990792
 31
0.0
  0
LINE
  5
250
330
1F
100
AcDbEntity
  8
PROFILES_INSIDE
100
AcDbLine
 10
16.0174486289
 20
12.6931919664
 30
0.0
 11
16.1972842951
 21
12.5893638654
 31
0.0
  0
LINE
  5
251
330
1F
100
AcDbEntity
  8
PROFILES_INSIDE
100
AcDbLine
 10
20.1480184611
 20
5.6017827436
 30
0.0
 11
20.0196800639
 21
5.824071368
 31
0.0
  0
LINE
  5
252
330
1F
100
AcDbEntity
  8
BOX_STOCK
100
AcDbLine
 10
0.1802324595
 20
0.109479115
 30
0.0
 11
96.2432245855
 21
0.109479115
 31
0.0
  0
LINE
  5
253
330
1F
100
AcDbEntity
  8
BOX_STOCK
100
AcDbLine
 10
96.2432245855
 20
0.109479115
 30
0.0
 11
96.2432245855
 21
48.140975178
 31
0.0
  0
LINE
  5
254
330
1F
100
AcDbEntity
  8
BOX_STOCK
100
AcDbLine
 10
96.2432245855
 20
48.140975178
 30
0.0
 11
0.1802324595
 21
48.140975178
 31
0.0
  0
LINE
  5
255
330
1F
100
AcDbEntity
  8
BOX_STOCK
100
AcDbLine
 10
0.1802324595
 20
48.140975178
 30
0.0
 11
0.1802324595
 21
0.109479115
 31
0.0
  0
LINE
  5
256
330
1F
100
AcDbEntity
  8
PROFILES_INSIDE
100
AcDbLine
 10
19.6192270047
 20
5.7410807501
 30
0.0
 11
19.4393913994
 21
5.6372525436
 31
0.0
  0
LINE
  5
257
330
1F
100
AcDbEntity
  8
PROFILES_INSIDE
100
AcDbLine
 10
19.1672927765
 20
5.3319454722
 30
0.0
 11
19.2956313107
 21
5.1096566587
 31
0.0
  0
LINE
  5
258
330
1F
100
AcDbEntity
  8
PROFILES_INSIDE
100
AcDbLine
 10
19.6960843118
 20
5.1926473772
 30
0.0
 11
19.8759199181
 21
5.2964755821
 31
0.0
  0
LINE
  5
259
330
1F
100
AcDbEntity
  8
PROFILES_INSIDE
100
AcDbLine
 10
15.74535004
 20
3.3562859121
 30
0.0
 11
15.8736885711
 21
3.1339970969
 31
0.0
  0
LINE
  5
25A
330
1F
100
AcDbEntity
  8
PROFILES_INSIDE
100
AcDbLine
 10
16.2741415722
 20
3.2169878154
 30
0.0
 11
16.4539771785
 21
3.3208160202
 31
0.0
  0
LINE
  5
25B
330
1F
100
AcDbEntity
  8
PROFILES_INSIDE
100
AcDbLine
 10
16.7260757215
 20
3.6261231817
 30
0.0
 11
16.5977373243
 21
3.8484118061
 31
0.0
  0
LINE
  5
25C
330
1F
100
AcDbEntity
  8
PROFILES_INSIDE
100
AcDbLine
 10
16.1972842651
 20
3.7654211882
 30
0.0
 11
16.0174486588
 21
3.6615929833
 31
0.0
  0
LINE
  5
25D
330
1F
100
AcDbEntity
  8
PROFILES_INSIDE
100
AcDbLine
 10
10.0751318951
 20
10.0311516015
 30
0.0
 11
10.0751318951
 21
6.3236334002
 31
0.0
  0
LINE
  5
25E
330
1F
100
AcDbEntity
  8
POCKETS
100
AcDbLine
 10
35.1827654118
 20
10.8895902512
 30
0.0
 11
29.0115055693
 21
10.8895902512
 31
0.0
  0
LINE
  5
25F
330
1F
100
AcDbEntity
  8
POCKETS
100
AcDbLine
 10
29.0115055693
 20
10.8895902512
 30
0.0
 11
29.0115055693
 21
10.3055470687
 31
0.0
  0
LINE
  5
260
330
1F
100
AcDbEntity
  8
POCKETS
100
AcDbLine
 10
29.0115055693
 20
10.3055470687
 30
0.0
 11
35.1827654118
 21
10.3055470687
 31
0.0
  0
LINE
  5
261
330
1F
100
AcDbEntity
  8
POCKETS
100
AcDbLine
 10
35.1827654118
 20
10.3055470687
 30
0.0
 11
35.1827654118
 21
10.8895902512
 31
0.0
  0
LINE
  5
262
330
1F
100
AcDbEntity
  8
PROFILES_INSIDE
100
AcDbLine
 10
10.8625334699
 20
4.9598138666
 30
0.0
 11
12.4985352676
 21
4.0152677883
 31
0.0
  0
LINE
  5
263
330
1F
100
AcDbEntity
  8
PROFILES_INSIDE
100
AcDbLine
 10
13.6796376298
 20
4.6971775551
 30
0.0
 11
13.6796376298
 21
11.6576074465
 31
0.0
  0
LINE
  5
264
330
1F
100
AcDbEntity
  8
PROFILES_INSIDE
100
AcDbLine
 10
12.4985352676
 20
12.3395172133
 30
0.0
 11
10.8625334699
 21
11.394971135
 31
0.0
  0
LINE
  5
265
330
1F
100
AcDbEntity
  8
PROFILES_OUTSIDE
100
AcDbLine
 10
27.8176079315
 20
1.2876287213
 30
0.0
 11
27.8176079315
 21
5.8088254153
 31
0.0
  0
LINE
  5
266
330
1F
100
AcDbEntity
  8
PROFILES_OUTSIDE
100
AcDbLine
 10
27.8176079315
 20
5.8088254153
 30
0.0
 11
22.3963480889
 21
5.8088254153
 31
0.0
  0
LINE
  5
267
330
1F
100
AcDbEntity
  8
PROFILES_OUTSIDE
100
AcDbLine
 10
22.3963480889
 20
5.8088254153
 30
0.0
 11
22.3963480889
 21
1.2876287213
 31
0.0
  0
LINE
  5
268
330
1F
100
AcDbEntity
  8
PROFILES_OUTSIDE
100
AcDbLine
 10
22.3963480889
 20
1.2876287213
 30
0.0
 11
27.8176079315
 21
1.2876287213
 31
0.0
  0
LINE
  5
269
330
1F
100
AcDbEntity
  8
PROFILES_OUTSIDE
100
AcDbLine
 10
34.8077654118
 20
7.8887628269
 30
0.0
 11
29.3865055693
 21
7.8887628269
 31
0.0
  0
LINE
  5
26A
330
1F
100
AcDbEntity
  8
PROFILES_OUTSIDE
100
AcDbLine
 10
29.3865055693
 20
7.8887628269
 30
0.0
 11
29.3865055693
 21
1.2876287213
 31
0.0
  0
LINE
  5
26B
330
1F
100
AcDbEntity
  8
PROFILES_OUTSIDE
100
AcDbLine
 10
29.3865055693
 20
1.2876287213
 30
0.0
 11
34.8077654118
 21
1.2876287213
 31
0.0
  0
LINE
  5
26C
330
1F
100
AcDbEntity
  8
PROFILES_OUTSIDE
100
AcDbLine
 10
34.8077654118
 20
1.2876287213
 30
0.0
 11
34.8077654118
 21
7.8887628269
 31
0.0
  0
LINE
  5
26D
330
1F
100
AcDbEntity
  8
PROFILES_OUTSIDE
100
AcDbLine
 10
29.3865055693
 20
16.0587945702
 30
0.0
 11
29.3865055693
 21
9.4576604647
 31
0.0
  0
LINE
  5
26E
330
1F
100
AcDbEntity
  8
PROFILES_OUTSIDE
100
AcDbLine
 10
29.3865055693
 20
9.4576604647
 30
0.0
 11
34.8077654118
 21
9.4576604647
 31
0.0
  0
LINE
  5
26F
330
1F
100
AcDbEntity
  8
PROFILES_OUTSIDE
100
AcDbLine
 10
34.8077654118
 20
9.4576604647
 30
0.0
 11
34.8077654118
 21
16.0587945702
 31
0.0
  0
LINE
  5
270
330
1F
100
AcDbEntity
  8
PROFILES_OUTSIDE
100
AcDbLine
 10
34.8077654118
 20
16.0587945702
 30
0.0
 11
29.3865055693
 21
16.0587945702
 31
0.0
  0
LINE
  5
271
330
1F
100
AcDbEntity
  8
POCKETS
100
AcDbLine
 10
7.6547909741
 20
7.2295355371
 30
0.0
 11
7.3300314477
 21
7.0420355371
 31
0.0
  0
LINE
  5
272
330
1F
100
AcDbEntity
  8
POCKETS
100
AcDbLine
 10
7.9181768009
 20
6.7733379031
 30
0.0
 11
7.6547909741
 21
7.2295355371
 31
0.0
  0
LINE
  5
273
330
1F
100
AcDbEntity
  8
POCKETS
100
AcDbLine
 10
7.5934172745
 20
6.5858379031
 30
0.0
 11
7.9181768009
 21
6.7733379031
 31
0.0
  0
LINE
  5
274
330
1F
100
AcDbEntity
  8
POCKETS
100
AcDbLine
 10
1.3534825132
 20
2.983209889
 30
0.0
 11
7.5934172745
 21
6.5858379031
 31
0.0
  0
LINE
  5
275
330
1F
100
AcDbEntity
  8
POCKETS
100
AcDbLine
 10
1.0287229868
 20
2.795709889
 30
0.0
 11
1.3534825132
 21
2.983209889
 31
0.0
  0
LINE
  5
276
330
1F
100
AcDbEntity
  8
POCKETS
100
AcDbLine
 10
0.76533716
 20
3.2519075229
 30
0.0
 11
1.0287229868
 21
2.795709889
 31
0.0
  0
LINE
  5
277
330
1F
100
AcDbEntity
  8
POCKETS
100
AcDbLine
 10
1.0900966864
 20
3.4394075229
 30
0.0
 11
0.76533716
 21
3.2519075229
 31
0.0
  0
LINE
  5
278
330
1F
100
AcDbEntity
  8
POCKETS
100
AcDbLine
 10
5.8274547297
 20
6.1745224645
 30
0.0
 11
1.0900966864
 21
3.4394075229
 31
0.0
  0
LINE
  5
279
330
1F
100
AcDbEntity
  8
POCKETS
100
AcDbLine
 10
5.8274547297
 20
10.1802625371
 30
0.0
 11
5.8274547297
 21
6.1745224645
 31
0.0
  0
LINE
  5
27A
330
1F
100
AcDbEntity
  8
POCKETS
100
AcDbLine
 10
1.0900966864
 20
12.9153774787
 30
0.0
 11
5.8274547297
 21
10.1802625371
 31
0.0
  0
LINE
  5
27B
330
1F
100
AcDbEntity
  8
POCKETS
100
AcDbLine
 10
0.76533716
 20
13.1028774787
 30
0.0
 11
1.0900966864
 21
12.9153774787
 31
0.0
  0
LINE
  5
27C
330
1F
100
AcDbEntity
  8
POCKETS
100
AcDbLine
 10
1.0287229868
 20
13.5590751126
 30
0.0
 11
0.76533716
 21
13.1028774787
 31
0.0
  0
LINE
  5
27D
330
1F
100
AcDbEntity
  8
POCKETS
100
AcDbLine
 10
1.3534825132
 20
13.3715751126
 30
0.0
 11
1.0287229868
 21
13.5590751126
 31
0.0
  0
LINE
  5
27E
330
1F
100
AcDbEntity
  8
POCKETS
100
AcDbLine
 10
7.5934172745
 20
9.7689470985
 30
0.0
 11
1.3534825132
 21
13.3715751126
 31
0.0
  0
LINE
  5
27F
330
1F
100
AcDbEntity
  8
POCKETS
100
AcDbLine
 10
7.9181768009
 20
9.5814470985
 30
0.0
 11
7.5934172745
 21
9.7689470985
 31
0.0
  0
LINE
  5
280
330
1F
100
AcDbEntity
  8
POCKETS
100
AcDbLine
 10
7.6547909741
 20
9.1252494645
 30
0.0
 11
7.9181768009
 21
9.5814470985
 31
0.0
  0
LINE
  5
281
330
1F
100
AcDbEntity
  8
POCKETS
100
AcDbLine
 10
7.3300314477
 20
9.3127494645
 30
0.0
 11
7.6547909741
 21
9.1252494645
 31
0.0
  0
LINE
  5
282
330
1F
100
AcDbEntity
  8
POCKETS
100
AcDbLine
 10
6.3408405565
 20
9.8838590919
 30
0.0
 11
7.3300314477
 21
9.3127494645
 31
0.0
  0
LINE
  5
283
330
1F
100
AcDbEntity
  8
POCKETS
100
AcDbLine
 10
6.3408405565
 20
6.4709259098
 30
0.0
 11
6.3408405565
 21
9.8838590919
 31
0.0
  0
LINE
  5
284
330
1F
100
AcDbEntity
  8
POCKETS
100
AcDbLine
 10
7.3300314477
 20
7.0420355371
 30
0.0
 11
6.3408405565
 21
6.4709259098
 31
0.0
  0
LINE
  5
285
330
1F
100
AcDbEntity
  8
POCKETS
100
AcDbLine
 10
15.0416632103
 20
13.1160793239
 30
0.0
 11
14.9066318417
 21
12.8821981329
 31
0.0
  0
LINE
  5
286
330
1F
100
AcDbEntity
  8
POCKETS
100
AcDbLine
 10
15.1787303987
 20
12.5768909958
 30
0.0
 11
19.3298126559
 21
10.1802625371
 31
0.0
  0
LINE
  5
287
330
1F
100
AcDbEntity
  8
POCKETS
100
AcDbLine
 10
19.3298126559
 20
10.1802625371
 30
0.0
 11
19.3298126559
 21
6.1745224645
 31
0.0
  0
LINE
  5
288
330
1F
100
AcDbEntity
  8
POCKETS
100
AcDbLine
 10
19.3298126559
 20
6.1745224645
 30
0.0
 11
15.1787303987
 21
3.7778940059
 31
0.0
  0
LINE
  5
289
330
1F
100
AcDbEntity
  8
POCKETS
100
AcDbLine
 10
14.9066318417
 20
3.4725868688
 30
0.0
 11
15.0416632103
 21
3.2387056778
 31
0.0
  0
LINE
  5
28A
330
1F
100
AcDbEntity
  8
POCKETS
100
AcDbLine
 10
15.4421162255
 20
3.3216963719
 30
0.0
 11
21.0957358306
 21
6.5858151728
 31
0.0
  0
LINE
  5
28B
330
1F
100
AcDbEntity
  8
POCKETS
100
AcDbLine
 10
21.0957358306
 20
6.5858151728
 30
0.0
 11
21.420495357
 21
6.7733151728
 31
0.0
  0
LINE
  5
28C
330
1F
100
AcDbEntity
  8
POCKETS
100
AcDbLine
 10
21.420495357
 20
6.7733151728
 30
0.0
 11
21.1571095302
 21
7.2295128068
 31
0.0
  0
LINE
  5
28D
330
1F
100
AcDbEntity
  8
POCKETS
100
AcDbLine
 10
21.1571095302
 20
7.2295128068
 30
0.0
 11
20.8323500038
 21
7.0420128068
 31
0.0
  0
LINE
  5
28E
330
1F
100
AcDbEntity
  8
POCKETS
100
AcDbLine
 10
20.8323500038
 20
7.0420128068
 30
0.0
 11
19.8431984826
 21
6.4709259098
 31
0.0
  0
LINE
  5
28F
330
1F
100
AcDbEntity
  8
POCKETS
100
AcDbLine
 10
19.8431984826
 20
6.4709259098
 30
0.0
 11
19.8431984826
 21
9.8838590919
 31
0.0
  0
LINE
  5
290
330
1F
100
AcDbEntity
  8
POCKETS
100
AcDbLine
 10
19.8431984826
 20
9.8838590919
 30
0.0
 11
20.8323500038
 21
9.3127721948
 31
0.0
  0
LINE
  5
291
330
1F
100
AcDbEntity
  8
POCKETS
100
AcDbLine
 10
20.8323500038
 20
9.3127721948
 30
0.0
 11
21.1571095302
 21
9.1252721948
 31
0.0
  0
LINE
  5
292
330
1F
100
AcDbEntity
  8
POCKETS
100
AcDbLine
 10
21.1571095302
 20
9.1252721948
 30
0.0
 11
21.420495357
 21
9.5814698288
 31
0.0
  0
LINE
  5
293
330
1F
100
AcDbEntity
  8
POCKETS
100
AcDbLine
 10
21.420495357
 20
9.5814698288
 30
0.0
 11
21.0957358306
 21
9.7689698288
 31
0.0
  0
LINE
  5
294
330
1F
100
AcDbEntity
  8
POCKETS
100
AcDbLine
 10
21.0957358306
 20
9.7689698288
 30
0.0
 11
15.4421162255
 21
13.0330886297
 31
0.0
  0
LINE
  5
295
330
1F
100
AcDbEntity
  8
PROFILES_OUTSIDE
100
AcDbLine
 10
36.8317811598
 20
6.9670817033
 30
0.0
 11
36.4160331283
 21
6.9670817033
 31
0.0
  0
LINE
  5
296
330
1F
100
AcDbEntity
  8
PROFILES_OUTSIDE
100
AcDbLine
 10
36.8475291913
 20
6.7210187112
 30
0.0
 11
36.8317811598
 21
6.9670817033
 31
0.0
  0
LINE
  5
297
330
1F
100
AcDbEntity
  8
PROFILES_OUTSIDE
100
AcDbLine
 10
37.2325605599
 20
6.7210187112
 30
0.0
 11
36.8475291913
 21
6.7210187112
 31
0.0
  0
LINE
  5
298
330
1F
100
AcDbEntity
  8
PROFILES_OUTSIDE
100
AcDbLine
 10
37.3609150181
 20
7.2132234356
 30
0.0
 11
37.3609150181
 21
7.1093165424
 31
0.0
  0
LINE
  5
299
330
1F
100
AcDbEntity
  8
PROFILES_OUTSIDE
100
AcDbLine
 10
39.244871711
 20
7.2132234356
 30
0.0
 11
37.3609150181
 21
7.2132234356
 31
0.0
  0
LINE
  5
29A
330
1F
100
AcDbEntity
  8
PROFILES_OUTSIDE
100
AcDbLine
 10
39.4357181677
 20
5.3652299219
 30
0.0
 11
39.4357181677
 21
7.0223769789
 31
0.0
  0
LINE
  5
29B
330
1F
100
AcDbEntity
  8
PROFILES_OUTSIDE
100
AcDbLine
 10
40.0165252543
 20
5.1743834652
 30
0.0
 11
39.6265646244
 21
5.1743834652
 31
0.0
  0
LINE
  5
29C
330
1F
100
AcDbEntity
  8
PROFILES_OUTSIDE
100
AcDbLine
 10
40.207371711
 20
7.0223769789
 30
0.0
 11
40.207371711
 21
5.3652299219
 31
0.0
  0
LINE
  5
29D
330
1F
100
AcDbEntity
  8
PROFILES_OUTSIDE
100
AcDbLine
 10
42.2821748606
 20
7.2132234356
 30
0.0
 11
40.3982181677
 21
7.2132234356
 31
0.0
  0
LINE
  5
29E
330
1F
100
AcDbEntity
  8
PROFILES_OUTSIDE
100
AcDbLine
 10
42.2821748606
 20
7.1093165424
 30
0.0
 11
42.2821748606
 21
7.2132234356
 31
0.0
  0
LINE
  5
29F
330
1F
100
AcDbEntity
  8
PROFILES_OUTSIDE
100
AcDbLine
 10
42.7955606874
 20
6.7210187112
 30
0.0
 11
42.4105293188
 21
6.7210187112
 31
0.0
  0
LINE
  5
2A0
330
1F
100
AcDbEntity
  8
PROFILES_OUTSIDE
100
AcDbLine
 10
42.8113087189
 20
6.9670817033
 30
0.0
 11
42.7955606874
 21
6.7210187112
 31
0.0
  0
LINE
  5
2A1
330
1F
100
AcDbEntity
  8
PROFILES_OUTSIDE
100
AcDbLine
 10
43.2270567504
 20
6.9670817033
 30
0.0
 11
42.8113087189
 21
6.9670817033
 31
0.0
  0
LINE
  5
2A2
330
1F
100
AcDbEntity
  8
PROFILES_OUTSIDE
100
AcDbLine
 10
43.2664268291
 20
6.4651131994
 30
0.0
 11
43.2664268291
 21
6.9277116246
 31
0.0
  0
LINE
  5
2A3
330
1F
100
AcDbEntity
  8
PROFILES_OUTSIDE
100
AcDbLine
 10
40.9435921834
 20
6.2288927269
 30
0.0
 11
43.0302063567
 21
6.2288927269
 31
0.0
  0
LINE
  5
2A4
330
1F
100
AcDbEntity
  8
PROFILES_OUTSIDE
100
AcDbLine
 10
40.707371711
 20
5.1743834652
 30
0.0
 11
40.707371711
 21
5.9926722545
 31
0.0
  0
LINE
  5
2A5
330
1F
100
AcDbEntity
  8
PROFILES_OUTSIDE
100
AcDbLine
 10
40.207371711
 20
4.1924153553
 30
0.0
 11
40.207371711
 21
4.3083580614
 31
0.0
  0
LINE
  5
2A6
330
1F
100
AcDbEntity
  8
PROFILES_OUTSIDE
100
AcDbLine
 10
40.707371711
 20
2.5081011622
 30
0.0
 11
40.707371711
 21
3.3263899515
 31
0.0
  0
LINE
  5
2A7
330
1F
100
AcDbEntity
  8
PROFILES_OUTSIDE
100
AcDbLine
 10
43.0302063567
 20
2.2718806898
 30
0.0
 11
40.9435921834
 21
2.2718806898
 31
0.0
  0
LINE
  5
2A8
330
1F
100
AcDbEntity
  8
PROFILES_OUTSIDE
100
AcDbLine
 10
43.2664268291
 20
1.5730617922
 30
0.0
 11
43.2664268291
 21
2.0356602173
 31
0.0
  0
LINE
  5
2A9
330
1F
100
AcDbEntity
  8
PROFILES_OUTSIDE
100
AcDbLine
 10
42.8113087189
 20
1.5336917134
 30
0.0
 11
43.2270567504
 21
1.5336917134
 31
0.0
  0
LINE
  5
2AA
330
1F
100
AcDbEntity
  8
PROFILES_OUTSIDE
100
AcDbLine
 10
42.7955606874
 20
1.7797547055
 30
0.0
 11
42.8113087189
 21
1.5336917134
 31
0.0
  0
LINE
  5
2AB
330
1F
100
AcDbEntity
  8
PROFILES_OUTSIDE
100
AcDbLine
 10
42.4105293188
 20
1.7797547055
 30
0.0
 11
42.7955606874
 21
1.7797547055
 31
0.0
  0
LINE
  5
2AC
330
1F
100
AcDbEntity
  8
PROFILES_OUTSIDE
100
AcDbLine
 10
42.2821748606
 20
1.2875499811
 30
0.0
 11
42.2821748606
 21
1.3914568743
 31
0.0
  0
LINE
  5
2AD
330
1F
100
AcDbEntity
  8
PROFILES_OUTSIDE
100
AcDbLine
 10
40.3982181677
 20
1.2875499811
 30
0.0
 11
42.2821748606
 21
1.2875499811
 31
0.0
  0
LINE
  5
2AE
330
1F
100
AcDbEntity
  8
PROFILES_OUTSIDE
100
AcDbLine
 10
40.207371711
 20
3.1355434948
 30
0.0
 11
40.207371711
 21
1.4783964378
 31
0.0
  0
LINE
  5
2AF
330
1F
100
AcDbEntity
  8
PROFILES_OUTSIDE
100
AcDbLine
 10
39.6265646244
 20
3.3263899515
 30
0.0
 11
40.0165252543
 21
3.3263899515
 31
0.0
  0
LINE
  5
2B0
330
1F
100
AcDbEntity
  8
PROFILES_OUTSIDE
100
AcDbLine
 10
39.4357181677
 20
1.4783964378
 30
0.0
 11
39.4357181677
 21
3.1355434948
 31
0.0
  0
LINE
  5
2B1
330
1F
100
AcDbEntity
  8
PROFILES_OUTSIDE
100
AcDbLine
 10
37.3609150181
 20
1.2875499811
 30
0.0
 11
39.244871711
 21
1.2875499811
 31
0.0
  0
LINE
  5
2B2
330
1F
100
AcDbEntity
  8
PROFILES_OUTSIDE
100
AcDbLine
 10
37.3609150181
 20
1.3914568743
 30
0.0
 11
37.3609150181
 21
1.2875499811
 31
0.0
  0
LINE
  5
2B3
330
1F
100
AcDbEntity
  8
PROFILES_OUTSIDE
100
AcDbLine
 10
36.8475291913
 20
1.7797547055
 30
0.0
 11
37.2325605599
 21
1.7797547055
 31
0.0
  0
LINE
  5
2B4
330
1F
100
AcDbEntity
  8
PROFILES_OUTSIDE
100
AcDbLine
 10
36.8317811598
 20
1.5336917134
 30
0.0
 11
36.8475291913
 21
1.7797547055
 31
0.0
  0
LINE
  5
2B5
330
1F
100
AcDbEntity
  8
PROFILES_OUTSIDE
100
AcDbLine
 10
36.4160331283
 20
1.5336917134
 30
0.0
 11
36.8317811598
 21
1.5336917134
 31
0.0
  0
LINE
  5
2B6
330
1F
100
AcDbEntity
  8
PROFILES_OUTSIDE
100
AcDbLine
 10
36.3766630496
 20
2.0356602173
 30
0.0
 11
36.3766630496
 21
1.5730617922
 31
0.0
  0
LINE
  5
2B7
330
1F
100
AcDbEntity
  8
PROFILES_OUTSIDE
100
AcDbLine
 10
38.6994976952
 20
2.2718806898
 30
0.0
 11
36.612883522
 21
2.2718806898
 31
0.0
  0
LINE
  5
2B8
330
1F
100
AcDbEntity
  8
PROFILES_OUTSIDE
100
AcDbLine
 10
38.9357181677
 20
3.3263899515
 30
0.0
 11
38.9357181677
 21
2.5081011622
 31
0.0
  0
LINE
  5
2B9
330
1F
100
AcDbEntity
  8
PROFILES_OUTSIDE
100
AcDbLine
 10
39.4357181677
 20
4.3083580614
 30
0.0
 11
39.4357181677
 21
4.1924153553
 31
0.0
  0
LINE
  5
2BA
330
1F
100
AcDbEntity
  8
PROFILES_OUTSIDE
100
AcDbLine
 10
38.9357181677
 20
5.9926722545
 30
0.0
 11
38.9357181677
 21
5.1743834652
 31
0.0
  0
LINE
  5
2BB
330
1F
100
AcDbEntity
  8
PROFILES_OUTSIDE
100
AcDbLine
 10
36.612883522
 20
6.2288927269
 30
0.0
 11
38.6994976952
 21
6.2288927269
 31
0.0
  0
LINE
  5
2BC
330
1F
100
AcDbEntity
  8
PROFILES_OUTSIDE
100
AcDbLine
 10
36.3766630496
 20
6.9277116246
 30
0.0
 11
36.3766630496
 21
6.4651131994
 31
0.0
  0
LINE
  5
2BD
330
1F
100
AcDbEntity
  8
PROFILES_OUTSIDE
100
AcDbLine
 10
42.8113087189
 20
9.0281053254
 30
0.0
 11
43.2270567504
 21
9.0281053254
 31
0.0
  0
LINE
  5
2BE
330
1F
100
AcDbEntity
  8
PROFILES_OUTSIDE
100
AcDbLine
 10
42.7955606874
 20
9.2741683175
 30
0.0
 11
42.8113087189
 21
9.0281053254
 31
0.0
  0
LINE
  5
2BF
330
1F
100
AcDbEntity
  8
PROFILES_OUTSIDE
100
AcDbLine
 10
42.4105293188
 20
9.2741683175
 30
0.0
 11
42.7955606874
 21
9.2741683175
 31
0.0
  0
LINE
  5
2C0
330
1F
100
AcDbEntity
  8
PROFILES_OUTSIDE
100
AcDbLine
 10
42.2821748606
 20
8.7819635931
 30
0.0
 11
42.2821748606
 21
8.8858704862
 31
0.0
  0
LINE
  5
2C1
330
1F
100
AcDbEntity
  8
PROFILES_OUTSIDE
100
AcDbLine
 10
40.3982181677
 20
8.7819635931
 30
0.0
 11
42.2821748606
 21
8.7819635931
 31
0.0
  0
LINE
  5
2C2
330
1F
100
AcDbEntity
  8
PROFILES_OUTSIDE
100
AcDbLine
 10
40.207371711
 20
10.6299571068
 30
0.0
 11
40.207371711
 21
8.9728100498
 31
0.0
  0
LINE
  5
2C3
330
1F
100
AcDbEntity
  8
PROFILES_OUTSIDE
100
AcDbLine
 10
39.6265646244
 20
10.8208035635
 30
0.0
 11
40.0165252543
 21
10.8208035635
 31
0.0
  0
LINE
  5
2C4
330
1F
100
AcDbEntity
  8
PROFILES_OUTSIDE
100
AcDbLine
 10
39.4357181677
 20
8.9728100498
 30
0.0
 11
39.4357181677
 21
10.6299571068
 31
0.0
  0
LINE
  5
2C5
330
1F
100
AcDbEntity
  8
PROFILES_OUTSIDE
100
AcDbLine
 10
37.3609150181
 20
8.7819635931
 30
0.0
 11
39.244871711
 21
8.7819635931
 31
0.0
  0
LINE
  5
2C6
330
1F
100
AcDbEntity
  8
PROFILES_OUTSIDE
100
AcDbLine
 10
37.3609150181
 20
8.8858704862
 30
0.0
 11
37.3609150181
 21
8.7819635931
 31
0.0
  0
LINE
  5
2C7
330
1F
100
AcDbEntity
  8
PROFILES_OUTSIDE
100
AcDbLine
 10
36.8475291913
 20
9.2741683175
 30
0.0
 11
37.2325605599
 21
9.2741683175
 31
0.0
  0
LINE
  5
2C8
330
1F
100
AcDbEntity
  8
PROFILES_OUTSIDE
100
AcDbLine
 10
36.8317811598
 20
9.0281053254
 30
0.0
 11
36.8475291913
 21
9.2741683175
 31
0.0
  0
LINE
  5
2C9
330
1F
100
AcDbEntity
  8
PROFILES_OUTSIDE
100
AcDbLine
 10
36.4160331283
 20
9.0281053254
 30
0.0
 11
36.8317811598
 21
9.0281053254
 31
0.0
  0
LINE
  5
2CA
330
1F
100
AcDbEntity
  8
PROFILES_OUTSIDE
100
AcDbLine
 10
36.3766630496
 20
9.5300738293
 30
0.0
 11
36.3766630496
 21
9.0674754041
 31
0.0
  0
LINE
  5
2CB
330
1F
100
AcDbEntity
  8
PROFILES_OUTSIDE
100
AcDbLine
 10
38.6994976952
 20
9.7662943017
 30
0.0
 11
36.612883522
 21
9.7662943017
 31
0.0
  0
LINE
  5
2CC
330
1F
100
AcDbEntity
  8
PROFILES_OUTSIDE
100
AcDbLine
 10
38.9357181677
 20
10.8208035635
 30
0.0
 11
38.9357181677
 21
10.0025147742
 31
0.0
  0
LINE
  5
2CD
330
1F
100
AcDbEntity
  8
PROFILES_OUTSIDE
100
AcDbLine
 10
39.4357181677
 20
11.8027716734
 30
0.0
 11
39.4357181677
 21
11.6868289672
 31
0.0
  0
LINE
  5
2CE
330
1F
100
AcDbEntity
  8
PROFILES_OUTSIDE
100
AcDbLine
 10
38.9357181677
 20
13.4870858664
 30
0.0
 11
38.9357181677
 21
12.6687970772
 31
0.0
  0
LINE
  5
2CF
330
1F
100
AcDbEntity
  8
PROFILES_OUTSIDE
100
AcDbLine
 10
36.612883522
 20
13.7233063389
 30
0.0
 11
38.6994976952
 21
13.7233063389
 31
0.0
  0
LINE
  5
2D0
330
1F
100
AcDbEntity
  8
PROFILES_OUTSIDE
100
AcDbLine
 10
36.3766630496
 20
14.4221252365
 30
0.0
 11
36.3766630496
 21
13.9595268113
 31
0.0
  0
LINE
  5
2D1
330
1F
100
AcDbEntity
  8
PROFILES_OUTSIDE
100
AcDbLine
 10
36.8317811598
 20
14.4614953153
 30
0.0
 11
36.4160331283
 21
14.4614953153
 31
0.0
  0
LINE
  5
2D2
330
1F
100
AcDbEntity
  8
PROFILES_OUTSIDE
100
AcDbLine
 10
36.8475291913
 20
14.2154323231
 30
0.0
 11
36.8317811598
 21
14.4614953153
 31
0.0
  0
LINE
  5
2D3
330
1F
100
AcDbEntity
  8
PROFILES_OUTSIDE
100
AcDbLine
 10
37.2325605599
 20
14.2154323231
 30
0.0
 11
36.8475291913
 21
14.2154323231
 31
0.0
  0
LINE
  5
2D4
330
1F
100
AcDbEntity
  8
PROFILES_OUTSIDE
100
AcDbLine
 10
37.3609150181
 20
14.7076370475
 30
0.0
 11
37.3609150181
 21
14.6037301544
 31
0.0
  0
LINE
  5
2D5
330
1F
100
AcDbEntity
  8
PROFILES_OUTSIDE
100
AcDbLine
 10
39.244871711
 20
14.7076370475
 30
0.0
 11
37.3609150181
 21
14.7076370475
 31
0.0
  0
LINE
  5
2D6
330
1F
100
AcDbEntity
  8
PROFILES_OUTSIDE
100
AcDbLine
 10
39.4357181677
 20
12.8596435338
 30
0.0
 11
39.4357181677
 21
14.5167905908
 31
0.0
  0
LINE
  5
2D7
330
1F
100
AcDbEntity
  8
PROFILES_OUTSIDE
100
AcDbLine
 10
40.0165252543
 20
12.6687970772
 30
0.0
 11
39.6265646244
 21
12.6687970772
 31
0.0
  0
LINE
  5
2D8
330
1F
100
AcDbEntity
  8
PROFILES_OUTSIDE
100
AcDbLine
 10
40.207371711
 20
14.5167905908
 30
0.0
 11
40.207371711
 21
12.8596435338
 31
0.0
  0
LINE
  5
2D9
330
1F
100
AcDbEntity
  8
PROFILES_OUTSIDE
100
AcDbLine
 10
42.2821748606
 20
14.7076370475
 30
0.0
 11
40.3982181677
 21
14.7076370475
 31
0.0
  0
LINE
  5
2DA
330
1F
100
AcDbEntity
  8
PROFILES_OUTSIDE
100
AcDbLine
 10
42.2821748606
 20
14.6037301544
 30
0.0
 11
42.2821748606
 21
14.7076370475
 31
0.0
  0
LINE
  5
2DB
330
1F
100
AcDbEntity
  8
PROFILES_OUTSIDE
100
AcDbLine
 10
42.7955606874
 20
14.2154323231
 30
0.0
 11
42.4105293188
 21
14.2154323231
 31
0.0
  0
LINE
  5
2DC
330
1F
100
AcDbEntity
  8
PROFILES_OUTSIDE
100
AcDbLine
 10
42.8113087189
 20
14.4614953153
 30
0.0
 11
42.7955606874
 21
14.2154323231
 31
0.0
  0
LINE
  5
2DD
330
1F
100
AcDbEntity
  8
PROFILES_OUTSIDE
100
AcDbLine
 10
43.2270567504
 20
14.4614953153
 30
0.0
 11
42.8113087189
 21
14.4614953153
 31
0.0
  0
LINE
  5
2DE
330
1F
100
AcDbEntity
  8
PROFILES_OUTSIDE
100
AcDbLine
 10
43.2664268291
 20
13.9595268113
 30
0.0
 11
43.2664268291
 21
14.4221252365
 31
0.0
  0
LINE
  5
2DF
330
1F
100
AcDbEntity
  8
PROFILES_OUTSIDE
100
AcDbLine
 10
40.9435921834
 20
13.7233063389
 30
0.0
 11
43.0302063567
 21
13.7233063389
 31
0.0
  0
LINE
  5
2E0
330
1F
100
AcDbEntity
  8
PROFILES_OUTSIDE
100
AcDbLine
 10
40.707371711
 20
12.6687970772
 30
0.0
 11
40.707371711
 21
13.4870858664
 31
0.0
  0
LINE
  5
2E1
330
1F
100
AcDbEntity
  8
PROFILES_OUTSIDE
100
AcDbLine
 10
40.207371711
 20
11.6868289672
 30
0.0
 11
40.207371711
 21
11.8027716734
 31
0.0
  0
LINE
  5
2E2
330
1F
100
AcDbEntity
  8
PROFILES_OUTSIDE
100
AcDbLine
 10
40.707371711
 20
10.0025147742
 30
0.0
 11
40.707371711
 21
10.8208035635
 31
0.0
  0
LINE
  5
2E3
330
1F
100
AcDbEntity
  8
PROFILES_OUTSIDE
100
AcDbLine
 10
43.0302063567
 20
9.7662943017
 30
0.0
 11
40.9435921834
 21
9.7662943017
 31
0.0
  0
LINE
  5
2E4
330
1F
100
AcDbEntity
  8
PROFILES_OUTSIDE
100
AcDbLine
 10
43.2664268291
 20
9.0674754041
 30
0.0
 11
43.2664268291
 21
9.5300738293
 31
0.0
  0
ARC
  5
2E5
330
1F
100
AcDbEntity
  8
PROFILES_OUTSIDE
100
AcDbCircle
 10
2.1457836406
 20
2.6514482548
 30
0.0
 40
0.7874015748031507
100
AcDbArc
 50
180.0
 51
300.0
  0
ARC
  5
2E6
330
1F
100
AcDbEntity
  8
PROFILES_INSIDE
100
AcDbCircle
 10
11.6499350447
 20
6.3236334002
 30
0.0
 40
1.5748031496063
100
AcDbArc
 50
180.0
 51
240.0
  0
ARC
  5
2E7
330
1F
100
AcDbEntity
  8
PROFILES_INSIDE
100
AcDbCircle
 10
12.892236055
 20
4.6971775551
 30
0.0
 40
0.78740157480315
100
AcDbArc
 50
240.0
 51
0.0
  0
ARC
  5
2E8
330
1F
100
AcDbEntity
  8
PROFILES_INSIDE
100
AcDbCircle
 10
12.892236055
 20
11.6576074465
 30
0.0
 40
0.7874015748031504
100
AcDbArc
 50
0.0
 51
120.0
  0
ARC
  5
2E9
330
1F
100
AcDbEntity
  8
PROFILES_INSIDE
100
AcDbCircle
 10
11.6499350447
 20
10.0311516015
 30
0.0
 40
1.574803149606299
100
AcDbArc
 50
120.0
 51
180.0
  0
ARC
  5
2EA
330
1F
100
AcDbEntity
  8
PROFILES_INSIDE
100
AcDbCircle
 10
6.3932470515
 20
11.0924049654
 30
0.0
 40
0.0393700787401586
100
AcDbArc
 50
240.0000165352
 51
312.4587640698
  0
ARC
  5
2EB
330
1F
100
AcDbEntity
  8
PROFILES_INSIDE
100
AcDbCircle
 10
6.5486568905
 20
10.9225596384
 30
0.0
 40
0.1908464566929138
100
AcDbArc
 50
304.7126323726
 51
132.4587640698
  0
ARC
  5
2EC
330
1F
100
AcDbEntity
  8
PROFILES_INSIDE
100
AcDbCircle
 10
6.6797564715
 20
10.7333169599
 30
0.0
 40
0.039370596346449
100
AcDbArc
 50
124.7126323726
 51
150.0
  0
ARC
  5
2ED
330
1F
100
AcDbEntity
  8
PROFILES_INSIDE
100
AcDbCircle
 10
6.5514176261
 20
10.5110285943
 30
0.0
 40
0.0393700787401594
100
AcDbArc
 50
150.0
 51
175.2874052658
  0
ARC
  5
2EE
330
1F
100
AcDbEntity
  8
PROFILES_INSIDE
100
AcDbCircle
 10
6.321979372
 20
10.5299426293
 30
0.0
 40
0.1908464566929148
100
AcDbArc
 50
167.541242307
 51
355.2874052658
  0
ARC
  5
2EF
330
1F
100
AcDbEntity
  8
PROFILES_INSIDE
100
AcDbCircle
 10
6.097184079
 20
10.5796088095
 30
0.0
 40
0.0393700787401579
100
AcDbArc
 50
347.541242307
 51
60.0000165352
  0
ARC
  5
2F0
330
1F
100
AcDbEntity
  8
PROFILES_INSIDE
100
AcDbCircle
 10
5.9173484128
 20
10.6834369105
 30
0.0
 40
0.0393700787401586
100
AcDbArc
 50
60.0000165352
 51
132.4587640698
  0
ARC
  5
2F1
330
1F
100
AcDbEntity
  8
PROFILES_INSIDE
100
AcDbCircle
 10
5.7619385737
 20
10.8532822375
 30
0.0
 40
0.1908464566929143
100
AcDbArc
 50
124.7126034747
 51
312.4587640698
  0
ARC
  5
2F2
330
1F
100
AcDbEntity
  8
PROFILES_INSIDE
100
AcDbCircle
 10
5.6308393829
 20
11.0425245567
 30
0.0
 40
0.0393700787401585
100
AcDbArc
 50
304.7126034747
 51
330.0
  0
ARC
  5
2F3
330
1F
100
AcDbEntity
  8
PROFILES_OUTSIDE
100
AcDbCircle
 10
2.1457836406
 20
13.7033367468
 30
0.0
 40
0.7874015748031511
100
AcDbArc
 50
60.0
 51
180.0
  0
ARC
  5
2F4
330
1F
100
AcDbEntity
  8
PROFILES_OUTSIDE
100
AcDbCircle
 10
2.1457836406
 20
2.6514482548
 30
0.0
 40
0.7874015748031507
100
AcDbArc
 50
180.0
 51
300.0
  0
ARC
  5
2F5
330
1F
100
AcDbEntity
  8
PROFILES_OUTSIDE
100
AcDbCircle
 10
5.7503287455
 20
5.6417463637
 30
0.0
 40
1.5748031496063
100
AcDbArc
 50
300.0
 51
0.0
  0
ARC
  5
2F6
330
1F
100
AcDbEntity
  8
PROFILES_OUTSIDE
100
AcDbCircle
 10
5.7503287455
 20
10.7130386379
 30
0.0
 40
1.574803149606301
100
AcDbArc
 50
0.0
 51
60.0
  0
ARC
  5
2F7
330
1F
100
AcDbEntity
  8
PROFILES_INSIDE
100
AcDbCircle
 10
5.7591778962
 20
11.2648133822
 30
0.0
 40
0.0393700581817878
100
AcDbArc
 50
330.0
 51
355.2873791369
  0
ARC
  5
2F8
330
1F
100
AcDbEntity
  8
PROFILES_INSIDE
100
AcDbCircle
 10
5.9886160923
 20
11.2458992466
 30
0.0
 40
0.1908464367276217
100
AcDbArc
 50
347.541242307
 51
175.2873791369
  0
ARC
  5
2F9
330
1F
100
AcDbEntity
  8
PROFILES_INSIDE
100
AcDbCircle
 10
6.2134113852
 20
11.1962330665
 30
0.0
 40
0.0393700987054483
100
AcDbArc
 50
167.541242307
 51
240.0000165352
  0
ARC
  5
2FA
330
1F
100
AcDbEntity
  8
PROFILES_INSIDE
100
AcDbCircle
 10
3.2528835243
 20
12.7118229785
 30
0.0
 40
0.0393705963464497
100
AcDbArc
 50
124.7126323726
 51
150.0
  0
ARC
  5
2FB
330
1F
100
AcDbEntity
  8
PROFILES_INSIDE
100
AcDbCircle
 10
3.1217839433
 20
12.901065657
 30
0.0
 40
0.1908464566929141
100
AcDbArc
 50
304.7126323726
 51
132.4587640698
  0
ARC
  5
2FC
330
1F
100
AcDbEntity
  8
PROFILES_INSIDE
100
AcDbCircle
 10
2.9663741042
 20
13.070910984
 30
0.0
 40
0.0393700787401568
100
AcDbArc
 50
240.0000165352
 51
312.4587640698
  0
ARC
  5
2FD
330
1F
100
AcDbEntity
  8
PROFILES_INSIDE
100
AcDbCircle
 10
2.786538438
 20
13.1747390851
 30
0.0
 40
0.0393700896303137
100
AcDbArc
 50
167.541242307
 51
240.0000165352
  0
ARC
  5
2FE
330
1F
100
AcDbEntity
  8
PROFILES_INSIDE
100
AcDbCircle
 10
2.561743145
 20
13.2244052652
 30
0.0
 40
0.1908464458027606
100
AcDbArc
 50
347.541242307
 51
175.2873791369
  0
ARC
  5
2FF
330
1F
100
AcDbEntity
  8
PROFILES_INSIDE
100
AcDbCircle
 10
2.3323049489
 20
13.2433194008
 30
0.0
 40
0.0393700563667615
100
AcDbArc
 50
330.0
 51
355.2873791369
  0
ARC
  5
300
330
1F
100
AcDbEntity
  8
PROFILES_INSIDE
100
AcDbCircle
 10
2.2039664357
 20
13.0210305753
 30
0.0
 40
0.0393700787401581
100
AcDbArc
 50
304.7126034747
 51
330.0
  0
ARC
  5
301
330
1F
100
AcDbEntity
  8
PROFILES_INSIDE
100
AcDbCircle
 10
2.3350656265
 20
12.8317882561
 30
0.0
 40
0.1908464566929128
100
AcDbArc
 50
124.7126034747
 51
312.4587640698
  0
ARC
  5
302
330
1F
100
AcDbEntity
  8
PROFILES_INSIDE
100
AcDbCircle
 10
2.4904754656
 20
12.6619429291
 30
0.0
 40
0.0393700787401588
100
AcDbArc
 50
60.0000165352
 51
132.4587640697
  0
ARC
  5
303
330
1F
100
AcDbEntity
  8
PROFILES_INSIDE
100
AcDbCircle
 10
2.6703111318
 20
12.558114828
 30
0.0
 40
0.0393700787401604
100
AcDbArc
 50
347.541242307
 51
60.0000165352
  0
ARC
  5
304
330
1F
100
AcDbEntity
  8
PROFILES_INSIDE
100
AcDbCircle
 10
2.8951064247
 20
12.5084486479
 30
0.0
 40
0.1908464566929139
100
AcDbArc
 50
167.541242307
 51
355.2874052658
  0
ARC
  5
305
330
1F
100
AcDbEntity
  8
PROFILES_INSIDE
100
AcDbCircle
 10
3.1245446789
 20
12.4895346128
 30
0.0
 40
0.0393700787401584
100
AcDbArc
 50
150.0
 51
175.2874052658
  0
ARC
  5
306
330
1F
100
AcDbEntity
  8
PROFILES_INSIDE
100
AcDbCircle
 10
6.5486568613
 20
5.4322254438
 30
0.0
 40
0.1908464566929138
100
AcDbArc
 50
227.541242307
 51
55.2874052658
  0
ARC
  5
307
330
1F
100
AcDbEntity
  8
PROFILES_INSIDE
100
AcDbCircle
 10
6.6797560233
 20
5.6214677829
 30
0.0
 40
0.0393700787401597
100
AcDbArc
 50
210.0
 51
235.2874052658
  0
ARC
  5
308
330
1F
100
AcDbEntity
  8
PROFILES_INSIDE
100
AcDbCircle
 10
6.5514180744
 20
5.8437566661
 30
0.0
 40
0.0393705963464494
100
AcDbArc
 50
184.7126323726
 51
210.0
  0
ARC
  5
309
330
1F
100
AcDbEntity
  8
PROFILES_INSIDE
100
AcDbCircle
 10
6.3219793168
 20
5.8248424378
 30
0.0
 40
0.1908464566929133
100
AcDbArc
 50
4.7126323726
 51
192.4587640698
  0
ARC
  5
30A
330
1F
100
AcDbEntity
  8
PROFILES_INSIDE
100
AcDbCircle
 10
6.0971840294
 20
5.7751762327
 30
0.0
 40
0.0393700787401607
100
AcDbArc
 50
300.0000165352
 51
12.4587640698
  0
ARC
  5
30B
330
1F
100
AcDbEntity
  8
PROFILES_INSIDE
100
AcDbCircle
 10
5.9173484231
 20
5.6713480278
 30
0.0
 40
0.0393700878152878
100
AcDbArc
 50
227.541242307
 51
300.0000165352
  0
ARC
  5
30C
330
1F
100
AcDbEntity
  8
PROFILES_INSIDE
100
AcDbCircle
 10
5.7619386029
 20
5.5015026835
 30
0.0
 40
0.1908464476177816
100
AcDbArc
 50
47.541242307
 51
235.2873791369
  0
ARC
  5
30D
330
1F
100
AcDbEntity
  8
PROFILES_INSIDE
100
AcDbCircle
 10
5.6308393829
 20
5.3122604449
 30
0.0
 40
0.039370054551734
100
AcDbArc
 50
30.0
 51
55.2873791369
  0
ARC
  5
30E
330
1F
100
AcDbEntity
  8
PROFILES_INSIDE
100
AcDbCircle
 10
5.7591778962
 20
5.0899716194
 30
0.0
 40
0.0393700787401608
100
AcDbArc
 50
4.7126034747
 51
30.0
  0
ARC
  5
30F
330
1F
100
AcDbEntity
  8
PROFILES_INSIDE
100
AcDbCircle
 10
5.9886161475
 20
5.1088856894
 30
0.0
 40
0.1908464566929152
100
AcDbArc
 50
184.7126034747
 51
12.4587640698
  0
ARC
  5
310
330
1F
100
AcDbEntity
  8
PROFILES_INSIDE
100
AcDbCircle
 10
6.2134114349
 20
5.1585518946
 30
0.0
 40
0.0393700787401574
100
AcDbArc
 50
120.0000165352
 51
192.4587640698
  0
ARC
  5
311
330
1F
100
AcDbEntity
  8
PROFILES_INSIDE
100
AcDbCircle
 10
6.3932470412
 20
5.2623800995
 30
0.0
 40
0.0393700787401593
100
AcDbArc
 50
47.541242307
 51
120.0000165352
  0
ARC
  5
312
330
1F
100
AcDbEntity
  8
PROFILES_INSIDE
100
AcDbCircle
 10
2.3323049489
 20
3.1114656008
 30
0.0
 40
0.0393700787401566
100
AcDbArc
 50
4.7126034747
 51
30.0
  0
ARC
  5
313
330
1F
100
AcDbEntity
  8
PROFILES_INSIDE
100
AcDbCircle
 10
2.5617432002
 20
3.1303796709
 30
0.0
 40
0.1908464566929146
100
AcDbArc
 50
184.7126034747
 51
12.4587640698
  0
ARC
  5
314
330
1F
100
AcDbEntity
  8
PROFILES_INSIDE
100
AcDbCircle
 10
2.7865384876
 20
3.180045876
 30
0.0
 40
0.0393700787401604
100
AcDbArc
 50
120.0000165352
 51
192.4587640698
  0
ARC
  5
315
330
1F
100
AcDbEntity
  8
PROFILES_INSIDE
100
AcDbCircle
 10
2.9663740939
 20
3.2838740809
 30
0.0
 40
0.0393700787401614
100
AcDbArc
 50
47.541242307
 51
120.0000165352
  0
ARC
  5
316
330
1F
100
AcDbEntity
  8
PROFILES_INSIDE
100
AcDbCircle
 10
3.1217839141
 20
3.4537194252
 30
0.0
 40
0.1908464566929139
100
AcDbArc
 50
227.541242307
 51
55.2874052658
  0
ARC
  5
317
330
1F
100
AcDbEntity
  8
PROFILES_INSIDE
100
AcDbCircle
 10
3.252883076
 20
3.6429617644
 30
0.0
 40
0.0393700787401577
100
AcDbArc
 50
210.0
 51
235.2874052658
  0
ARC
  5
318
330
1F
100
AcDbEntity
  8
PROFILES_INSIDE
100
AcDbCircle
 10
3.1245451271
 20
3.8652506476
 30
0.0
 40
0.0393705963464517
100
AcDbArc
 50
184.7126323726
 51
210.0
  0
ARC
  5
319
330
1F
100
AcDbEntity
  8
PROFILES_INSIDE
100
AcDbCircle
 10
2.8951063696
 20
3.8463364193
 30
0.0
 40
0.1908464566929151
100
AcDbArc
 50
4.7126323726
 51
192.4587640698
  0
ARC
  5
31A
330
1F
100
AcDbEntity
  8
PROFILES_INSIDE
100
AcDbCircle
 10
2.6703110821
 20
3.7966702141
 30
0.0
 40
0.0393700787401572
100
AcDbArc
 50
300.0000165352
 51
12.4587640698
  0
ARC
  5
31B
330
1F
100
AcDbEntity
  8
PROFILES_INSIDE
100
AcDbCircle
 10
2.4904754758
 20
3.6928420092
 30
0.0
 40
0.0393700805551834
100
AcDbArc
 50
227.541242307
 51
300.0000165352
  0
ARC
  5
31C
330
1F
100
AcDbEntity
  8
PROFILES_INSIDE
100
AcDbCircle
 10
2.3350656557
 20
3.5229966649
 30
0.0
 40
0.1908464548778864
100
AcDbArc
 50
47.541242307
 51
235.2873791369
  0
ARC
  5
31D
330
1F
100
AcDbEntity
  8
PROFILES_INSIDE
100
AcDbCircle
 10
2.2039664357
 20
3.3337544263
 30
0.0
 40
0.039370058181788
100
AcDbArc
 50
30.0
 51
55.2873791369
  0
ARC
  5
31E
330
1F
100
AcDbEntity
  8
PROFILES_INSIDE
100
AcDbCircle
 10
19.8956049776
 20
11.0924049654
 30
0.0
 40
0.0393700787401586
100
AcDbArc
 50
240.0000165352
 51
312.4587640698
  0
ARC
  5
31F
330
1F
100
AcDbEntity
  8
PROFILES_INSIDE
100
AcDbCircle
 10
20.0510148167
 20
10.9225596384
 30
0.0
 40
0.1908464566929133
100
AcDbArc
 50
304.7126323726
 51
132.4587640698
  0
ARC
  5
320
330
1F
100
AcDbEntity
  8
PROFILES_INSIDE
100
AcDbCircle
 10
20.1821143977
 20
10.7333169599
 30
0.0
 40
0.0393705963464486
100
AcDbArc
 50
124.7126323726
 51
150.0
  0
ARC
  5
321
330
1F
100
AcDbEntity
  8
PROFILES_INSIDE
100
AcDbCircle
 10
20.0537755523
 20
10.5110285943
 30
0.0
 40
0.0393700787401603
100
AcDbArc
 50
150.0
 51
175.2874052658
  0
ARC
  5
322
330
1F
100
AcDbEntity
  8
PROFILES_INSIDE
100
AcDbCircle
 10
19.8243372981
 20
10.5299426293
 30
0.0
 40
0.1908464566929144
100
AcDbArc
 50
167.541242307
 51
355.2874052658
  0
ARC
  5
323
330
1F
100
AcDbEntity
  8
PROFILES_INSIDE
100
AcDbCircle
 10
19.5995420052
 20
10.5796088095
 30
0.0
 40
0.0393700787401601
100
AcDbArc
 50
347.541242307
 51
60.0000165352
  0
ARC
  5
324
330
1F
100
AcDbEntity
  8
PROFILES_INSIDE
100
AcDbCircle
 10
19.419706339
 20
10.6834369105
 30
0.0
 40
0.039370078740157
100
AcDbArc
 50
60.0000165352
 51
132.4587640698
  0
ARC
  5
325
330
1F
100
AcDbEntity
  8
PROFILES_INSIDE
100
AcDbCircle
 10
19.2642964999
 20
10.8532822375
 30
0.0
 40
0.1908464566929143
100
AcDbArc
 50
124.7126034747
 51
312.4587640698
  0
ARC
  5
326
330
1F
100
AcDbEntity
  8
PROFILES_INSIDE
100
AcDbCircle
 10
19.1331973091
 20
11.0425245567
 30
0.0
 40
0.0393700787401573
100
AcDbArc
 50
304.7126034747
 51
330.0
  0
ARC
  5
327
330
1F
100
AcDbEntity
  8
PROFILES_INSIDE
100
AcDbCircle
 10
19.2615358224
 20
11.2648133822
 30
0.0
 40
0.0393700581817832
100
AcDbArc
 50
330.0
 51
355.2873791369
  0
ARC
  5
328
330
1F
100
AcDbEntity
  8
PROFILES_INSIDE
100
AcDbCircle
 10
19.4909740184
 20
11.2458992466
 30
0.0
 40
0.1908464367276234
100
AcDbArc
 50
347.541242307
 51
175.2873791369
  0
ARC
  5
329
330
1F
100
AcDbEntity
  8
PROFILES_INSIDE
100
AcDbCircle
 10
19.7157693114
 20
11.1962330665
 30
0.0
 40
0.0393700987054469
100
AcDbArc
 50
167.541242307
 51
240.0000165352
  0
ARC
  5
32A
330
1F
100
AcDbEntity
  8
PROFILES_INSIDE
100
AcDbCircle
 10
16.7601716581
 20
12.7089765218
 30
0.0
 40
0.0393705963464471
100
AcDbArc
 50
124.7126323726
 51
150.0
  0
ARC
  5
32B
330
1F
100
AcDbEntity
  8
PROFILES_INSIDE
100
AcDbCircle
 10
16.6290720771
 20
12.8982192003
 30
0.0
 40
0.1908464566929138
100
AcDbArc
 50
304.7126323726
 51
132.4587640698
  0
ARC
  5
32C
330
1F
100
AcDbEntity
  8
PROFILES_INSIDE
100
AcDbCircle
 10
16.473662238
 20
13.0680645273
 30
0.0
 40
0.0393700787401608
100
AcDbArc
 50
240.0000165352
 51
312.4587640698
  0
ARC
  5
32D
330
1F
100
AcDbEntity
  8
PROFILES_INSIDE
100
AcDbCircle
 10
16.2938265718
 20
13.1718926284
 30
0.0
 40
0.0393700896303145
100
AcDbArc
 50
167.541242307
 51
240.0000165352
  0
ARC
  5
32E
330
1F
100
AcDbEntity
  8
PROFILES_INSIDE
100
AcDbCircle
 10
16.0690312788
 20
13.2215588085
 30
0.0
 40
0.1908464458027555
100
AcDbArc
 50
347.541242307
 51
175.2873791369
  0
ARC
  5
32F
330
1F
100
AcDbEntity
  8
PROFILES_INSIDE
100
AcDbCircle
 10
15.8395930827
 20
13.2404729441
 30
0.0
 40
0.0393700563667586
100
AcDbArc
 50
330.0
 51
355.2873791369
  0
ARC
  5
330
330
1F
100
AcDbEntity
  8
PROFILES_INSIDE
100
AcDbCircle
 10
15.7112545695
 20
13.0181841186
 30
0.0
 40
0.0393700787401598
100
AcDbArc
 50
304.7126034747
 51
330.0
  0
ARC
  5
331
330
1F
100
AcDbEntity
  8
PROFILES_INSIDE
100
AcDbCircle
 10
15.8423537602
 20
12.8289417994
 30
0.0
 40
0.1908464566929143
100
AcDbArc
 50
124.7126034747
 51
312.4587640698
  0
ARC
  5
332
330
1F
100
AcDbEntity
  8
PROFILES_INSIDE
100
AcDbCircle
 10
15.9977635993
 20
12.6590964724
 30
0.0
 40
0.039370078740157
100
AcDbArc
 50
60.0000165352
 51
132.4587640698
  0
ARC
  5
333
330
1F
100
AcDbEntity
  8
PROFILES_INSIDE
100
AcDbCircle
 10
16.1775992655
 20
12.5552683713
 30
0.0
 40
0.0393700787401591
100
AcDbArc
 50
347.541242307
 51
60.0000165352
  0
ARC
  5
334
330
1F
100
AcDbEntity
  8
PROFILES_INSIDE
100
AcDbCircle
 10
16.4023945585
 20
12.5056021912
 30
0.0
 40
0.190846456692914
100
AcDbArc
 50
167.541242307
 51
355.2874052658
  0
ARC
  5
335
330
1F
100
AcDbEntity
  8
PROFILES_INSIDE
100
AcDbCircle
 10
16.6318328126
 20
12.4866881562
 30
0.0
 40
0.0393700787401602
100
AcDbArc
 50
150.0
 51
175.2874052658
  0
ARC
  5
336
330
1F
100
AcDbEntity
  8
PROFILES_INSIDE
100
AcDbCircle
 10
20.0510147875
 20
5.4322254438
 30
0.0
 40
0.190846456692914
100
AcDbArc
 50
227.541242307
 51
55.2874052658
  0
ARC
  5
337
330
1F
100
AcDbEntity
  8
PROFILES_INSIDE
100
AcDbCircle
 10
20.1821139494
 20
5.6214677829
 30
0.0
 40
0.0393700787401602
100
AcDbArc
 50
210.0
 51
235.2874052658
  0
ARC
  5
338
330
1F
100
AcDbEntity
  8
PROFILES_INSIDE
100
AcDbCircle
 10
20.0537760005
 20
5.8437566661
 30
0.0
 40
0.0393705963464479
100
AcDbArc
 50
184.7126323726
 51
210.0
  0
ARC
  5
339
330
1F
100
AcDbEntity
  8
PROFILES_INSIDE
100
AcDbCircle
 10
19.824337243
 20
5.8248424378
 30
0.0
 40
0.1908464566929143
100
AcDbArc
 50
4.7126323726
 51
192.4587640698
  0
ARC
  5
33A
330
1F
100
AcDbEntity
  8
PROFILES_INSIDE
100
AcDbCircle
 10
19.5995419555
 20
5.7751762327
 30
0.0
 40
0.0393700787401561
100
AcDbArc
 50
300.0000165352
 51
12.4587640698
  0
ARC
  5
33B
330
1F
100
AcDbEntity
  8
PROFILES_INSIDE
100
AcDbCircle
 10
19.4197063492
 20
5.6713480278
 30
0.0
 40
0.0393700878152886
100
AcDbArc
 50
227.541242307
 51
300.0000165352
  0
ARC
  5
33C
330
1F
100
AcDbEntity
  8
PROFILES_INSIDE
100
AcDbCircle
 10
19.2642965291
 20
5.5015026835
 30
0.0
 40
0.1908464476177835
100
AcDbArc
 50
47.541242307
 51
235.2873791369
  0
ARC
  5
33D
330
1F
100
AcDbEntity
  8
PROFILES_INSIDE
100
AcDbCircle
 10
19.1331973091
 20
5.3122604449
 30
0.0
 40
0.0393700545517368
100
AcDbArc
 50
30.0
 51
55.2873791369
  0
ARC
  5
33E
330
1F
100
AcDbEntity
  8
PROFILES_INSIDE
100
AcDbCircle
 10
19.2615358224
 20
5.0899716194
 30
0.0
 40
0.0393700787401558
100
AcDbArc
 50
4.7126034747
 51
30.0
  0
ARC
  5
33F
330
1F
100
AcDbEntity
  8
PROFILES_INSIDE
100
AcDbCircle
 10
19.4909740736
 20
5.1088856894
 30
0.0
 40
0.1908464566929147
100
AcDbArc
 50
184.7126034747
 51
12.4587640698
  0
ARC
  5
340
330
1F
100
AcDbEntity
  8
PROFILES_INSIDE
100
AcDbCircle
 10
19.7157693611
 20
5.1585518946
 30
0.0
 40
0.0393700787401602
100
AcDbArc
 50
120.0000165352
 51
192.4587640698
  0
ARC
  5
341
330
1F
100
AcDbEntity
  8
PROFILES_INSIDE
100
AcDbCircle
 10
19.8956049673
 20
5.2623800995
 30
0.0
 40
0.0393700787401592
100
AcDbArc
 50
47.541242307
 51
120.0000165352
  0
ARC
  5
342
330
1F
100
AcDbEntity
  8
PROFILES_INSIDE
100
AcDbCircle
 10
15.8395930827
 20
3.1143120575
 30
0.0
 40
0.0393700787401588
100
AcDbArc
 50
4.7126034747
 51
30.0
  0
ARC
  5
343
330
1F
100
AcDbEntity
  8
PROFILES_INSIDE
100
AcDbCircle
 10
16.069031334
 20
3.1332261276
 30
0.0
 40
0.1908464566929146
100
AcDbArc
 50
184.7126034747
 51
12.4587640698
  0
ARC
  5
344
330
1F
100
AcDbEntity
  8
PROFILES_INSIDE
100
AcDbCircle
 10
16.2938266214
 20
3.1828923327
 30
0.0
 40
0.0393700787401561
100
AcDbArc
 50
120.0000165352
 51
192.4587640698
  0
ARC
  5
345
330
1F
100
AcDbEntity
  8
PROFILES_INSIDE
100
AcDbCircle
 10
16.4736622277
 20
3.2867205376
 30
0.0
 40
0.0393700787401605
100
AcDbArc
 50
47.541242307
 51
120.0000165352
  0
ARC
  5
346
330
1F
100
AcDbEntity
  8
PROFILES_INSIDE
100
AcDbCircle
 10
16.6290720479
 20
3.4565658819
 30
0.0
 40
0.1908464566929136
100
AcDbArc
 50
227.541242307
 51
55.2874052658
  0
ARC
  5
347
330
1F
100
AcDbEntity
  8
PROFILES_INSIDE
100
AcDbCircle
 10
16.7601712098
 20
3.645808221
 30
0.0
 40
0.0393700787401567
100
AcDbArc
 50
210.0
 51
235.2874052658
  0
ARC
  5
348
330
1F
100
AcDbEntity
  8
PROFILES_INSIDE
100
AcDbCircle
 10
16.6318332609
 20
3.8680971043
 30
0.0
 40
0.039370596346447
100
AcDbArc
 50
184.7126323726
 51
210.0
  0
ARC
  5
349
330
1F
100
AcDbEntity
  8
PROFILES_INSIDE
100
AcDbCircle
 10
16.4023945033
 20
3.849182876
 30
0.0
 40
0.1908464566929142
100
AcDbArc
 50
4.7126323726
 51
192.4587640698
  0
ARC
  5
34A
330
1F
100
AcDbEntity
  8
PROFILES_INSIDE
100
AcDbCircle
 10
16.1775992159
 20
3.7995166708
 30
0.0
 40
0.0393700787401557
100
AcDbArc
 50
300.0000165352
 51
12.4587640698
  0
ARC
  5
34B
330
1F
100
AcDbEntity
  8
PROFILES_INSIDE
100
AcDbCircle
 10
15.9977636096
 20
3.6956884659
 30
0.0
 40
0.039370080555185
100
AcDbArc
 50
227.541242307
 51
300.0000165352
  0
ARC
  5
34C
330
1F
100
AcDbEntity
  8
PROFILES_INSIDE
100
AcDbCircle
 10
15.8423537894
 20
3.5258431216
 30
0.0
 40
0.1908464548778864
100
AcDbArc
 50
47.541242307
 51
235.2873791369
  0
ARC
  5
34D
330
1F
100
AcDbEntity
  8
PROFILES_INSIDE
100
AcDbCircle
 10
15.7112545695
 20
3.336600883
 30
0.0
 40
0.0393700581817851
100
AcDbArc
 50
30.0
 51
55.2873791369
  0
ARC
  5
34E
330
1F
100
AcDbEntity
  8
POCKETS
100
AcDbCircle
 10
15.2370059746
 20
13.1168503107
 30
0.0
 40
0.1908464566929161
100
AcDbArc
 50
347.5412391186
 51
175.2874008956
  0
ARC
  5
34F
330
1F
100
AcDbEntity
  8
POCKETS
100
AcDbCircle
 10
15.0075677219
 20
13.1357643632
 30
0.0
 40
0.039370078740156
100
AcDbArc
 50
330.0
 51
355.2874008956
  0
ARC
  5
350
330
1F
100
AcDbEntity
  8
POCKETS
100
AcDbCircle
 10
14.8725363533
 20
12.9018831722
 30
0.0
 40
0.0393700787401593
100
AcDbArc
 50
304.7125991044
 51
330.0
  0
ARC
  5
351
330
1F
100
AcDbEntity
  8
POCKETS
100
AcDbCircle
 10
15.0036355297
 20
12.7126408431
 30
0.0
 40
0.1908464566929136
100
AcDbArc
 50
124.7125991044
 51
312.4587608814
  0
ARC
  5
352
330
1F
100
AcDbEntity
  8
POCKETS
100
AcDbCircle
 10
15.1590453593
 20
12.5427955074
 30
0.0
 40
0.0393700787401589
100
AcDbArc
 50
60.0
 51
132.4587608814
  0
ARC
  5
353
330
1F
100
AcDbEntity
  8
POCKETS
100
AcDbCircle
 10
15.1590453593
 20
3.8119894942
 30
0.0
 40
0.0393700787401571
100
AcDbArc
 50
227.5412391186
 51
300.0
  0
ARC
  5
354
330
1F
100
AcDbEntity
  8
POCKETS
100
AcDbCircle
 10
15.0036355297
 20
3.6421441586
 30
0.0
 40
0.190846456692914
100
AcDbArc
 50
47.5412391186
 51
235.2874008956
  0
ARC
  5
355
330
1F
100
AcDbEntity
  8
POCKETS
100
AcDbCircle
 10
14.8725363533
 20
3.4529018294
 30
0.0
 40
0.0393700787401573
100
AcDbArc
 50
30.0
 51
55.2874008956
  0
ARC
  5
356
330
1F
100
AcDbEntity
  8
PROFILES_OUTSIDE
100
AcDbCircle
 10
10.4688326825
 20
5.6417236334
 30
0.0
 40
1.5748031496063
100
AcDbArc
 50
180.0
 51
240.0
  0
ARC
  5
357
330
1F
100
AcDbEntity
  8
PROFILES_OUTSIDE
100
AcDbCircle
 10
10.4688326825
 20
10.7130613682
 30
0.0
 40
1.5748031496063
100
AcDbArc
 50
120.0
 51
180.0
  0
ARC
  5
358
330
1F
100
AcDbEntity
  8
POCKETS
100
AcDbCircle
 10
15.0075677219
 20
3.2190206384
 30
0.0
 40
0.0393700787401558
100
AcDbArc
 50
4.7125991044
 51
30.0
  0
ARC
  5
359
330
1F
100
AcDbEntity
  8
POCKETS
100
AcDbCircle
 10
15.2370059746
 20
3.2379346909
 30
0.0
 40
0.1908464566929159
100
AcDbArc
 50
184.7125991044
 51
12.4587608814
  0
ARC
  5
35A
330
1F
100
AcDbEntity
  8
POCKETS
100
AcDbCircle
 10
15.4618012648
 20
3.2876008836
 30
0.0
 40
0.0393700787401586
100
AcDbArc
 50
120.0
 51
192.4587608814
  0
ARC
  5
35B
330
1F
100
AcDbEntity
  8
POCKETS
100
AcDbCircle
 10
15.4618012648
 20
13.0671841181
 30
0.0
 40
0.0393700787401601
100
AcDbArc
 50
167.5412391186
 51
240.0
  0
ARC
  5
35C
330
1F
100
AcDbEntity
  8
PROFILES_OUTSIDE
100
AcDbCircle
 10
14.860739992
 20
13.2487302356
 30
0.0
 40
1.5748031496063
100
AcDbArc
 50
60.0
 51
120.0
  0
ARC
  5
35D
330
1F
100
AcDbEntity
  8
PROFILES_OUTSIDE
100
AcDbCircle
 10
19.2526473015
 20
10.7130613682
 30
0.0
 40
1.574803149606302
100
AcDbArc
 50
0.0
 51
60.0
  0
ARC
  5
35E
330
1F
100
AcDbEntity
  8
PROFILES_OUTSIDE
100
AcDbCircle
 10
19.2526473015
 20
5.6417236334
 30
0.0
 40
1.574803149606299
100
AcDbArc
 50
300.0
 51
0.0
  0
ARC
  5
35F
330
1F
100
AcDbEntity
  8
PROFILES_OUTSIDE
100
AcDbCircle
 10
14.860739992
 20
3.106054766
 30
0.0
 40
1.5748031496063
100
AcDbArc
 50
240.0
 51
300.0
  0
ARC
  5
360
330
1F
100
AcDbEntity
  8
PROFILES_OUTSIDE
100
AcDbCircle
 10
37.2325605599
 20
6.6816486324
 30
0.0
 40
0.0393700787401583
100
AcDbArc
 50
64.7125991044
 51
90.0
  0
ARC
  5
361
330
1F
100
AcDbEntity
  8
PROFILES_OUTSIDE
100
AcDbCircle
 10
37.3308996362
 20
6.8898050142
 30
0.0
 40
0.190846456692914
100
AcDbArc
 50
244.7125991044
 51
72.4587608814
  0
ARC
  5
362
330
1F
100
AcDbEntity
  8
PROFILES_OUTSIDE
100
AcDbCircle
 10
37.4002850968
 20
7.1093165424
 30
0.0
 40
0.0393700787401571
100
AcDbArc
 50
180.0
 51
252.4587608814
  0
ARC
  5
363
330
1F
100
AcDbEntity
  8
PROFILES_OUTSIDE
100
AcDbCircle
 10
39.244871711
 20
7.0223769789
 30
0.0
 40
0.1908464566929169
100
AcDbArc
 50
0.0
 51
90.0
  0
ARC
  5
364
330
1F
100
AcDbEntity
  8
PROFILES_OUTSIDE
100
AcDbCircle
 10
39.6265646244
 20
5.3652299219
 30
0.0
 40
0.1908464566929169
100
AcDbArc
 50
180.0
 51
270.0
  0
ARC
  5
365
330
1F
100
AcDbEntity
  8
PROFILES_OUTSIDE
100
AcDbCircle
 10
40.0165252543
 20
5.3652299219
 30
0.0
 40
0.190846456692924
100
AcDbArc
 50
270.0
 51
0.0
  0
ARC
  5
366
330
1F
100
AcDbEntity
  8
PROFILES_OUTSIDE
100
AcDbCircle
 10
40.3982181677
 20
7.0223769789
 30
0.0
 40
0.1908464566929142
100
AcDbArc
 50
90.0
 51
180.0
  0
ARC
  5
367
330
1F
100
AcDbEntity
  8
PROFILES_OUTSIDE
100
AcDbCircle
 10
42.2428047819
 20
7.1093165424
 30
0.0
 40
0.0393700787401627
100
AcDbArc
 50
287.5412391186
 51
0.0
  0
ARC
  5
368
330
1F
100
AcDbEntity
  8
PROFILES_OUTSIDE
100
AcDbCircle
 10
42.3121902424
 20
6.8898050142
 30
0.0
 40
0.1908464566929158
100
AcDbArc
 50
107.5412391186
 51
295.2874008956
  0
ARC
  5
369
330
1F
100
AcDbEntity
  8
PROFILES_OUTSIDE
100
AcDbCircle
 10
42.4105293188
 20
6.6816486324
 30
0.0
 40
0.0393700787401601
100
AcDbArc
 50
90.0
 51
115.2874008956
  0
ARC
  5
36A
330
1F
100
AcDbEntity
  8
PROFILES_OUTSIDE
100
AcDbCircle
 10
43.2270567504
 20
6.9277116246
 30
0.0
 40
0.0393700787401574
100
AcDbArc
 50
0.0
 51
90.0
  0
ARC
  5
36B
330
1F
100
AcDbEntity
  8
PROFILES_OUTSIDE
100
AcDbCircle
 10
43.0302063567
 20
6.4651131994
 30
0.0
 40
0.236220472440948
100
AcDbArc
 50
270.0
 51
0.0
  0
ARC
  5
36C
330
1F
100
AcDbEntity
  8
PROFILES_OUTSIDE
100
AcDbCircle
 10
40.9435921834
 20
5.9926722545
 30
0.0
 40
0.236220472440948
100
AcDbArc
 50
90.0
 51
180.0
  0
ARC
  5
36D
330
1F
100
AcDbEntity
  8
PROFILES_OUTSIDE
100
AcDbCircle
 10
40.207371711
 20
5.1743834652
 30
0.0
 40
0.4999999999999952
100
AcDbArc
 50
300.0
 51
0.0
  0
ARC
  5
36E
330
1F
100
AcDbEntity
  8
PROFILES_OUTSIDE
100
AcDbCircle
 10
40.707371711
 20
4.3083580614
 30
0.0
 40
0.4999999999999987
100
AcDbArc
 50
120.0
 51
180.0
  0
ARC
  5
36F
330
1F
100
AcDbEntity
  8
PROFILES_OUTSIDE
100
AcDbCircle
 10
40.707371711
 20
4.1924153553
 30
0.0
 40
0.4999999999999987
100
AcDbArc
 50
180.0
 51
240.0
  0
ARC
  5
370
330
1F
100
AcDbEntity
  8
PROFILES_OUTSIDE
100
AcDbCircle
 10
40.207371711
 20
3.3263899515
 30
0.0
 40
0.4999999999999952
100
AcDbArc
 50
0.0
 51
60.0
  0
ARC
  5
371
330
1F
100
AcDbEntity
  8
PROFILES_OUTSIDE
100
AcDbCircle
 10
40.9435921834
 20
2.5081011622
 30
0.0
 40
0.236220472440948
100
AcDbArc
 50
180.0
 51
270.0
  0
ARC
  5
372
330
1F
100
AcDbEntity
  8
PROFILES_OUTSIDE
100
AcDbCircle
 10
43.0302063567
 20
2.0356602173
 30
0.0
 40
0.236220472440948
100
AcDbArc
 50
0.0
 51
90.0
  0
ARC
  5
373
330
1F
100
AcDbEntity
  8
PROFILES_OUTSIDE
100
AcDbCircle
 10
43.2270567504
 20
1.5730617922
 30
0.0
 40
0.0393700787401574
100
AcDbArc
 50
270.0
 51
0.0
  0
ARC
  5
374
330
1F
100
AcDbEntity
  8
PROFILES_OUTSIDE
100
AcDbCircle
 10
42.4105293188
 20
1.8191247843
 30
0.0
 40
0.0393700787401574
100
AcDbArc
 50
244.7125991044
 51
270.0
  0
ARC
  5
375
330
1F
100
AcDbEntity
  8
PROFILES_OUTSIDE
100
AcDbCircle
 10
42.3121902424
 20
1.6109684026
 30
0.0
 40
0.1908464566929158
100
AcDbArc
 50
64.7125991044
 51
252.4587608814
  0
ARC
  5
376
330
1F
100
AcDbEntity
  8
PROFILES_OUTSIDE
100
AcDbCircle
 10
42.2428047819
 20
1.3914568743
 30
0.0
 40
0.0393700787401627
100
AcDbArc
 50
0.0
 51
72.4587608814
  0
ARC
  5
377
330
1F
100
AcDbEntity
  8
PROFILES_OUTSIDE
100
AcDbCircle
 10
40.3982181677
 20
1.4783964378
 30
0.0
 40
0.1908464566929136
100
AcDbArc
 50
180.0
 51
270.0
  0
ARC
  5
378
330
1F
100
AcDbEntity
  8
PROFILES_OUTSIDE
100
AcDbCircle
 10
40.0165252543
 20
3.1355434948
 30
0.0
 40
0.190846456692924
100
AcDbArc
 50
0.0
 51
90.0
  0
ARC
  5
379
330
1F
100
AcDbEntity
  8
PROFILES_OUTSIDE
100
AcDbCircle
 10
39.6265646244
 20
3.1355434948
 30
0.0
 40
0.1908464566929169
100
AcDbArc
 50
90.0
 51
180.0
  0
ARC
  5
37A
330
1F
100
AcDbEntity
  8
PROFILES_OUTSIDE
100
AcDbCircle
 10
39.244871711
 20
1.4783964378
 30
0.0
 40
0.1908464566929169
100
AcDbArc
 50
270.0
 51
0.0
  0
ARC
  5
37B
330
1F
100
AcDbEntity
  8
PROFILES_OUTSIDE
100
AcDbCircle
 10
37.4002850968
 20
1.3914568743
 30
0.0
 40
0.0393700787401594
100
AcDbArc
 50
107.5412391186
 51
180.0
  0
ARC
  5
37C
330
1F
100
AcDbEntity
  8
PROFILES_OUTSIDE
100
AcDbCircle
 10
37.3308996362
 20
1.6109684026
 30
0.0
 40
0.1908464566929142
100
AcDbArc
 50
287.5412391186
 51
115.2874008956
  0
ARC
  5
37D
330
1F
100
AcDbEntity
  8
PROFILES_OUTSIDE
100
AcDbCircle
 10
37.2325605599
 20
1.8191247843
 30
0.0
 40
0.0393700787401574
100
AcDbArc
 50
270.0
 51
295.2874008956
  0
ARC
  5
37E
330
1F
100
AcDbEntity
  8
PROFILES_OUTSIDE
100
AcDbCircle
 10
36.4160331283
 20
1.5730617922
 30
0.0
 40
0.0393700787401574
100
AcDbArc
 50
180.0
 51
270.0
  0
ARC
  5
37F
330
1F
100
AcDbEntity
  8
PROFILES_OUTSIDE
100
AcDbCircle
 10
36.612883522
 20
2.0356602173
 30
0.0
 40
0.2362204724409449
100
AcDbArc
 50
90.0
 51
180.0
  0
ARC
  5
380
330
1F
100
AcDbEntity
  8
PROFILES_OUTSIDE
100
AcDbCircle
 10
38.6994976952
 20
2.5081011622
 30
0.0
 40
0.2362204724409449
100
AcDbArc
 50
270.0
 51
0.0
  0
ARC
  5
381
330
1F
100
AcDbEntity
  8
PROFILES_OUTSIDE
100
AcDbCircle
 10
39.4357181677
 20
3.3263899515
 30
0.0
 40
0.5000000000000071
100
AcDbArc
 50
120.0
 51
180.0
  0
ARC
  5
382
330
1F
100
AcDbEntity
  8
PROFILES_OUTSIDE
100
AcDbCircle
 10
38.9357181677
 20
4.1924153553
 30
0.0
 40
0.5000000000000026
100
AcDbArc
 50
300.0
 51
0.0
  0
ARC
  5
383
330
1F
100
AcDbEntity
  8
PROFILES_OUTSIDE
100
AcDbCircle
 10
38.9357181677
 20
4.3083580614
 30
0.0
 40
0.5
100
AcDbArc
 50
0.0
 51
60.0
  0
ARC
  5
384
330
1F
100
AcDbEntity
  8
PROFILES_OUTSIDE
100
AcDbCircle
 10
39.4357181677
 20
5.1743834652
 30
0.0
 40
0.5000000000000022
100
AcDbArc
 50
180.0
 51
240.0
  0
ARC
  5
385
330
1F
100
AcDbEntity
  8
PROFILES_OUTSIDE
100
AcDbCircle
 10
38.6994976952
 20
5.9926722545
 30
0.0
 40
0.236220472440948
100
AcDbArc
 50
0.0
 51
90.0
  0
ARC
  5
386
330
1F
100
AcDbEntity
  8
PROFILES_OUTSIDE
100
AcDbCircle
 10
36.612883522
 20
6.4651131994
 30
0.0
 40
0.2362204724409454
100
AcDbArc
 50
180.0
 51
270.0
  0
ARC
  5
387
330
1F
100
AcDbEntity
  8
PROFILES_OUTSIDE
100
AcDbCircle
 10
36.4160331283
 20
6.9277116246
 30
0.0
 40
0.0393700787401583
100
AcDbArc
 50
90.0
 51
180.0
  0
ARC
  5
388
330
1F
100
AcDbEntity
  8
PROFILES_OUTSIDE
100
AcDbCircle
 10
42.4105293188
 20
9.3135383962
 30
0.0
 40
0.039370078740158
100
AcDbArc
 50
244.7125991044
 51
270.0
  0
ARC
  5
389
330
1F
100
AcDbEntity
  8
PROFILES_OUTSIDE
100
AcDbCircle
 10
42.3121902424
 20
9.1053820145
 30
0.0
 40
0.190846456692914
100
AcDbArc
 50
64.7125991044
 51
252.4587608814
  0
ARC
  5
38A
330
1F
100
AcDbEntity
  8
PROFILES_OUTSIDE
100
AcDbCircle
 10
42.2428047819
 20
8.8858704862
 30
0.0
 40
0.0393700787401562
100
AcDbArc
 50
0.0
 51
72.4587608814
  0
ARC
  5
38B
330
1F
100
AcDbEntity
  8
PROFILES_OUTSIDE
100
AcDbCircle
 10
40.3982181677
 20
8.9728100498
 30
0.0
 40
0.1908464566929169
100
AcDbArc
 50
180.0
 51
270.0
  0
ARC
  5
38C
330
1F
100
AcDbEntity
  8
PROFILES_OUTSIDE
100
AcDbCircle
 10
40.0165252543
 20
10.6299571068
 30
0.0
 40
0.1908464566929133
100
AcDbArc
 50
0.0
 51
90.0
  0
ARC
  5
38D
330
1F
100
AcDbEntity
  8
PROFILES_OUTSIDE
100
AcDbCircle
 10
39.6265646244
 20
10.6299571068
 30
0.0
 40
0.1908464566929169
100
AcDbArc
 50
90.0
 51
180.0
  0
ARC
  5
38E
330
1F
100
AcDbEntity
  8
PROFILES_OUTSIDE
100
AcDbCircle
 10
39.244871711
 20
8.9728100498
 30
0.0
 40
0.1908464566929133
100
AcDbArc
 50
270.0
 51
0.0
  0
ARC
  5
38F
330
1F
100
AcDbEntity
  8
PROFILES_OUTSIDE
100
AcDbCircle
 10
37.4002850968
 20
8.8858704862
 30
0.0
 40
0.0393700787401627
100
AcDbArc
 50
107.5412391186
 51
180.0
  0
ARC
  5
390
330
1F
100
AcDbEntity
  8
PROFILES_OUTSIDE
100
AcDbCircle
 10
37.3308996362
 20
9.1053820145
 30
0.0
 40
0.1908464566929158
100
AcDbArc
 50
287.5412391186
 51
115.2874008956
  0
ARC
  5
391
330
1F
100
AcDbEntity
  8
PROFILES_OUTSIDE
100
AcDbCircle
 10
37.2325605599
 20
9.3135383962
 30
0.0
 40
0.0393700787401594
100
AcDbArc
 50
270.0
 51
295.2874008956
  0
ARC
  5
392
330
1F
100
AcDbEntity
  8
PROFILES_OUTSIDE
100
AcDbCircle
 10
36.4160331283
 20
9.0674754041
 30
0.0
 40
0.0393700787401574
100
AcDbArc
 50
180.0
 51
270.0
  0
ARC
  5
393
330
1F
100
AcDbEntity
  8
PROFILES_OUTSIDE
100
AcDbCircle
 10
36.612883522
 20
9.5300738293
 30
0.0
 40
0.2362204724409462
100
AcDbArc
 50
90.0
 51
180.0
  0
ARC
  5
394
330
1F
100
AcDbEntity
  8
PROFILES_OUTSIDE
100
AcDbCircle
 10
38.6994976952
 20
10.0025147742
 30
0.0
 40
0.236220472440948
100
AcDbArc
 50
270.0
 51
0.0
  0
ARC
  5
395
330
1F
100
AcDbEntity
  8
PROFILES_OUTSIDE
100
AcDbCircle
 10
39.4357181677
 20
10.8208035635
 30
0.0
 40
0.4999999999999995
100
AcDbArc
 50
120.0
 51
180.0
  0
ARC
  5
396
330
1F
100
AcDbEntity
  8
PROFILES_OUTSIDE
100
AcDbCircle
 10
38.9357181677
 20
11.6868289672
 30
0.0
 40
0.4999999999999974
100
AcDbArc
 50
300.0
 51
0.0
  0
ARC
  5
397
330
1F
100
AcDbEntity
  8
PROFILES_OUTSIDE
100
AcDbCircle
 10
38.9357181677
 20
11.8027716734
 30
0.0
 40
0.4999999999999944
100
AcDbArc
 50
0.0
 51
60.0
  0
ARC
  5
398
330
1F
100
AcDbEntity
  8
PROFILES_OUTSIDE
100
AcDbCircle
 10
39.4357181677
 20
12.6687970772
 30
0.0
 40
0.4999999999999995
100
AcDbArc
 50
180.0
 51
240.0
  0
ARC
  5
399
330
1F
100
AcDbEntity
  8
PROFILES_OUTSIDE
100
AcDbCircle
 10
38.6994976952
 20
13.4870858664
 30
0.0
 40
0.236220472440948
100
AcDbArc
 50
0.0
 51
90.0
  0
ARC
  5
39A
330
1F
100
AcDbEntity
  8
PROFILES_OUTSIDE
100
AcDbCircle
 10
36.612883522
 20
13.9595268113
 30
0.0
 40
0.2362204724409445
100
AcDbArc
 50
180.0
 51
270.0
  0
ARC
  5
39B
330
1F
100
AcDbEntity
  8
PROFILES_OUTSIDE
100
AcDbCircle
 10
36.4160331283
 20
14.4221252365
 30
0.0
 40
0.0393700787401574
100
AcDbArc
 50
90.0
 51
180.0
  0
ARC
  5
39C
330
1F
100
AcDbEntity
  8
PROFILES_OUTSIDE
100
AcDbCircle
 10
37.2325605599
 20
14.1760622444
 30
0.0
 40
0.0393700787401594
100
AcDbArc
 50
64.7125991044
 51
90.0
  0
ARC
  5
39D
330
1F
100
AcDbEntity
  8
PROFILES_OUTSIDE
100
AcDbCircle
 10
37.3308996362
 20
14.3842186261
 30
0.0
 40
0.1908464566929145
100
AcDbArc
 50
244.7125991044
 51
72.4587608814
  0
ARC
  5
39E
330
1F
100
AcDbEntity
  8
PROFILES_OUTSIDE
100
AcDbCircle
 10
37.4002850968
 20
14.6037301544
 30
0.0
 40
0.0393700787401627
100
AcDbArc
 50
180.0
 51
252.4587608814
  0
ARC
  5
39F
330
1F
100
AcDbEntity
  8
PROFILES_OUTSIDE
100
AcDbCircle
 10
39.244871711
 20
14.5167905908
 30
0.0
 40
0.1908464566929133
100
AcDbArc
 50
0.0
 51
90.0
  0
ARC
  5
3A0
330
1F
100
AcDbEntity
  8
PROFILES_OUTSIDE
100
AcDbCircle
 10
39.6265646244
 20
12.8596435338
 30
0.0
 40
0.1908464566929169
100
AcDbArc
 50
180.0
 51
270.0
  0
ARC
  5
3A1
330
1F
100
AcDbEntity
  8
PROFILES_OUTSIDE
100
AcDbCircle
 10
40.0165252543
 20
12.8596435338
 30
0.0
 40
0.1908464566929133
100
AcDbArc
 50
270.0
 51
0.0
  0
ARC
  5
3A2
330
1F
100
AcDbEntity
  8
PROFILES_OUTSIDE
100
AcDbCircle
 10
40.3982181677
 20
14.5167905908
 30
0.0
 40
0.1908464566929133
100
AcDbArc
 50
90.0
 51
180.0
  0
ARC
  5
3A3
330
1F
100
AcDbEntity
  8
PROFILES_OUTSIDE
100
AcDbCircle
 10
42.2428047819
 20
14.6037301544
 30
0.0
 40
0.0393700787401579
100
AcDbArc
 50
287.5412391186
 51
0.0
  0
ARC
  5
3A4
330
1F
100
AcDbEntity
  8
PROFILES_OUTSIDE
100
AcDbCircle
 10
42.3121902424
 20
14.3842186261
 30
0.0
 40
0.1908464566929158
100
AcDbArc
 50
107.5412391186
 51
295.2874008956
  0
ARC
  5
3A5
330
1F
100
AcDbEntity
  8
PROFILES_OUTSIDE
100
AcDbCircle
 10
42.4105293188
 20
14.1760622444
 30
0.0
 40
0.0393700787401574
100
AcDbArc
 50
90.0
 51
115.2874008956
  0
ARC
  5
3A6
330
1F
100
AcDbEntity
  8
PROFILES_OUTSIDE
100
AcDbCircle
 10
43.2270567504
 20
14.4221252365
 30
0.0
 40
0.0393700787401627
100
AcDbArc
 50
0.0
 51
90.0
  0
ARC
  5
3A7
330
1F
100
AcDbEntity
  8
PROFILES_OUTSIDE
100
AcDbCircle
 10
43.0302063567
 20
13.9595268113
 30
0.0
 40
0.236220472440948
100
AcDbArc
 50
270.0
 51
0.0
  0
ARC
  5
3A8
330
1F
100
AcDbEntity
  8
PROFILES_OUTSIDE
100
AcDbCircle
 10
40.9435921834
 20
13.4870858664
 30
0.0
 40
0.236220472440948
100
AcDbArc
 50
90.0
 51
180.0
  0
ARC
  5
3A9
330
1F
100
AcDbEntity
  8
PROFILES_OUTSIDE
100
AcDbCircle
 10
40.207371711
 20
12.6687970772
 30
0.0
 40
0.5000000000000071
100
AcDbArc
 50
300.0
 51
0.0
  0
ARC
  5
3AA
330
1F
100
AcDbEntity
  8
PROFILES_OUTSIDE
100
AcDbCircle
 10
40.707371711
 20
11.8027716734
 30
0.0
 40
0.5000000000000006
100
AcDbArc
 50
120.0
 51
180.0
  0
ARC
  5
3AB
330
1F
100
AcDbEntity
  8
PROFILES_OUTSIDE
100
AcDbCircle
 10
40.707371711
 20
11.6868289672
 30
0.0
 40
0.5
100
AcDbArc
 50
180.0
 51
240.0
  0
ARC
  5
3AC
330
1F
100
AcDbEntity
  8
PROFILES_OUTSIDE
100
AcDbCircle
 10
40.207371711
 20
10.8208035635
 30
0.0
 40
0.5000000000000046
100
AcDbArc
 50
0.0
 51
60.0
  0
ARC
  5
3AD
330
1F
100
AcDbEntity
  8
PROFILES_OUTSIDE
100
AcDbCircle
 10
40.9435921834
 20
10.0025147742
 30
0.0
 40
0.236220472440948
100
AcDbArc
 50
180.0
 51
270.0
  0
ARC
  5
3AE
330
1F
100
AcDbEntity
  8
PROFILES_OUTSIDE
100
AcDbCircle
 10
43.0302063567
 20
9.5300738293
 30
0.0
 40
0.236220472440948
100
AcDbArc
 50
0.0
 51
90.0
  0
ARC
  5
3AF
330
1F
100
AcDbEntity
  8
PROFILES_OUTSIDE
100
AcDbCircle
 10
43.2270567504
 20
9.0674754041
 30
0.0
 40
0.0393700787401627
100
AcDbArc
 50
270.0
 51
0.0
  0
ENDSEC
  0
SECTION
  2
OBJECTS
  0
DICTIONARY
  5
C
330
0
100
AcDbDictionary
  3
ACAD_GROUP
350
D
  3
ACAD_MLINESTYLE
350
17
  3
ACAD_SCALELIST
350
47
  0
DICTIONARY
  5
D
102
{ACAD_REACTORS
330
C
102
}
330
C
100
AcDbDictionary
  0
DICTIONARY
  5
17
102
{ACAD_REACTORS
330
C
102
}
330
C
100
AcDbDictionary
  3
STANDARD
350
18
  0
DICTIONARY
  5
47
102
{ACAD_REACTORS
330
C
102
}
330
C
100
AcDbDictionary
  0
MLINESTYLE
  5
18
102
{ACAD_REACTORS
330
17
102
}
330
17
100
AcDbMlineStyle
  2
Standard
 70
     0
  3

 62
   256
 51
90.0
 52
90.0
 71
     2
 49
0.5
 62
   256
  6
BYLAYER
 49
-0.5
 62
   256
  6
BYLAYER
  0
ENDSEC
  0
EOF
