  0
SECTION
  2
HEADER
  9
$ACADVER
  1
AC1009
  9
$INSBASE
 10
0.0
 20
0.0
 30
0.0
  9
$EXTMIN
 10
-450.33797095541189
 20
372.69154613007441
 30
0.0
  9
$EXTMAX
 10
-276.98797668192441
 20
437.51886023904029
 30
0.0
  9
$LIMMIN
 10
0.0
 20
0.0
  9
$LIMMAX
 10
841.0
 20
594.0
  9
$ORTHOMODE
 70
     1
  9
$REGENMODE
 70
     1
  9
$FILLMODE
 70
     1
  9
$QTEXTMODE
 70
     0
  9
$MIRRTEXT
 70
     1
  9
$DRAGMODE
 70
     2
  9
$LTSCALE
 40
1.0
  9
$OSMODE
 70
    37
  9
$ATTMODE
 70
     1
  9
$TEXTSIZE
 40
3.5
  9
$TRACEWID
 40
1.0
  9
$TEXTSTYLE
  7
STANDARD
  9
$CLAYER
  8
ERASE
  9
$CELTYPE
  6
BYLAYER
  9
$CECOLOR
 62
   256
  9
$DIMSCALE
 40
1.0
  9
$DIMASZ
 40
3.302
  9
$DIMEXO
 40
1.0
  9
$DIMDLI
 40
3.75
  9
$DIMRND
 40
0.0
  9
$DIMDLE
 40
0.0
  9
$DIMEXE
 40
1.0
  9
$DIMTP
 40
0.0
  9
$DIMTM
 40
0.0
  9
$DIMTXT
 40
3.5
  9
$DIMCEN
 40
2.5
  9
$DIMTSZ
 40
0.0
  9
$DIMTOL
 70
     0
  9
$DIMLIM
 70
     0
  9
$DIMTIH
 70
     1
  9
$DIMTOH
 70
     1
  9
$DIMSE1
 70
     0
  9
$DIMSE2
 70
     0
  9
$DIMTAD
 70
     1
  9
$DIMZIN
 70
     0
  9
$DIMBLK
  1

  9
$DIMASO
 70
     1
  9
$DIMSHO
 70
     1
  9
$DIMPOST
  1

  9
$DIMAPOST
  1

  9
$DIMALT
 70
     0
  9
$DIMALTD
 70
     3
  9
$DIMALTF
 40
0.0393700787
  9
$DIMLFAC
 40
1.0
  9
$DIMTOFL
 70
     1
  9
$DIMTVP
 40
0.0
  9
$DIMTIX
 70
     0
  9
$DIMSOXD
 70
     0
  9
$DIMSAH
 70
     0
  9
$DIMBLK1
  1

  9
$DIMBLK2
  1

  9
$DIMSTYLE
  2
ISO-25
  9
$DIMCLRD
 70
     0
  9
$DIMCLRE
 70
     0
  9
$DIMCLRT
 70
     0
  9
$DIMTFAC
 40
1.0
  9
$DIMGAP
 40
1.524
  9
$LUNITS
 70
     2
  9
$LUPREC
 70
     2
  9
$SKETCHINC
 40
1.0
  9
$FILLETRAD
 40
1.0
  9
$AUNITS
 70
     0
  9
$AUPREC
 70
     2
  9
$MENU
  1
.
  9
$ELEVATION
 40
0.0
  9
$PELEVATION
 40
0.0
  9
$THICKNESS
 40
0.0
  9
$LIMCHECK
 70
     0
  9
$BLIPMODE
 70
     0
  9
$CHAMFERA
 40
10.0
  9
$CHAMFERB
 40
10.0
  9
$SKPOLY
 70
     0
  9
$TDCREATE
 40
2457108.6347797448
  9
$TDUPDATE
 40
2457171.0574558219
  9
$TDINDWG
 40
0.4031123843
  9
$TDUSRTIMER
 40
0.4031121875
  9
$USRTIMER
 70
     1
  9
$ANGBASE
 50
0.0
  9
$ANGDIR
 70
     0
  9
$PDMODE
 70
     0
  9
$PDSIZE
 40
-1.0
  9
$PLINEWID
 40
0.0
  9
$COORDS
 70
     1
  9
$SPLFRAME
 70
     0
  9
$SPLINETYPE
 70
     6
  9
$SPLINESEGS
 70
     8
  9
$ATTDIA
 70
     1
  9
$ATTREQ
 70
     1
  9
$HANDLING
 70
     1
  9
$HANDSEED
  5
3BE1
  9
$SURFTAB1
 70
     6
  9
$SURFTAB2
 70
     6
  9
$SURFTYPE
 70
     6
  9
$SURFU
 70
     6
  9
$SURFV
 70
     6
  9
$UCSNAME
  2

  9
$UCSORG
 10
0.0
 20
0.0
 30
0.0
  9
$UCSXDIR
 10
1.0
 20
0.0
 30
0.0
  9
$UCSYDIR
 10
0.0
 20
1.0
 30
0.0
  9
$PUCSNAME
  2

  9
$PUCSORG
 10
0.0
 20
0.0
 30
0.0
  9
$PUCSXDIR
 10
1.0
 20
0.0
 30
0.0
  9
$PUCSYDIR
 10
0.0
 20
1.0
 30
0.0
  9
$USERI1
 70
     0
  9
$USERI2
 70
     0
  9
$USERI3
 70
     0
  9
$USERI4
 70
     0
  9
$USERI5
 70
     0
  9
$USERR1
 40
0.0
  9
$USERR2
 40
0.0
  9
$USERR3
 40
0.0
  9
$USERR4
 40
0.0
  9
$USERR5
 40
0.0
  9
$WORLDVIEW
 70
     1
  9
$SHADEDGE
 70
     3
  9
$SHADEDIF
 70
    70
  9
$TILEMODE
 70
     1
  9
$MAXACTVP
 70
    64
  9
$PLIMCHECK
 70
     0
  9
$PEXTMIN
 10
1.0000000000000000E+020
 20
1.0000000000000000E+020
 30
1.0000000000000000E+020
  9
$PEXTMAX
 10
-1.0000000000000000E+020
 20
-1.0000000000000000E+020
 30
-1.0000000000000000E+020
  9
$PLIMMIN
 10
0.0
 20
0.0
  9
$PLIMMAX
 10
420.0
 20
297.0
  9
$UNITMODE
 70
     0
  9
$VISRETAIN
 70
     1
  9
$PLINEGEN
 70
     0
  9
$PSLTSCALE
 70
     1
  0
ENDSEC
  0
SECTION
  2
TABLES
  0
TABLE
  2
VPORT
 70
     1
  0
VPORT
  2
*ACTIVE
 70
     0
 10
0.0
 20
0.0
 11
1.0
 21
1.0
 12
-387.60108199900549
 22
412.32411324346958
 13
0.0
 23
0.0
 14
10.0
 24
10.0
 15
10.0
 25
10.0
 16
0.0
 26
0.0
 36
1.0
 17
0.0
 27
0.0
 37
0.0
 40
70.591651363316259
 41
2.318681318681318
 42
50.0
 43
0.0
 44
0.0
 50
0.0
 51
0.0
 71
     0
 72
  2000
 73
     1
 74
     3
 75
     0
 76
     0
 77
     0
 78
     0
  0
ENDTAB
  0
TABLE
  2
LTYPE
 70
     7
  0
LTYPE
  2
CONTINUOUS
 70
     0
  3
Solid line
 72
    65
 73
     0
 40
0.0
  0
LTYPE
  2
HIDDEN
 70
     0
  3
Hidden __ __ __ __ __ __ __ __ __ __ __ __ __ __
 72
    65
 73
     2
 40
1.905
 49
1.27
 49
-0.635
  0
LTYPE
  2
PHANTOM
 70
     0
  3
Phantom ______  __  __  ______  __  __  ______
 72
    65
 73
     6
 40
12.699999999999999
 49
6.3499999999999979
 49
-1.27
 49
1.27
 49
-1.27
 49
1.27
 49
-1.27
  0
LTYPE
  2
CENTER
 70
     0
  3
Center ____ _ ____ _ ____ _ ____ _ ____ _ ____
 72
    65
 73
     4
 40
10.16
 49
6.3499999999999979
 49
-1.27
 49
1.27
 49
-1.27
  0
LTYPE
  2
CENTERX2
 70
     0
  3
Center (2x) ________  __  ________  __  _____
 72
    65
 73
     4
 40
20.32
 49
12.699999999999999
 49
-2.54
 49
2.54
 49
-2.54
  0
LTYPE
  2
DOT2
 70
     0
  3
Dot (.5x) ........................................
 72
    65
 73
     2
 40
0.635
 49
0.0
 49
-0.635
  0
ENDTAB
  0
TABLE
  2
LAYER
 70
     7
  0
LAYER
  2
0
 70
     0
 62
     7
  6
CONTINUOUS
  0
LAYER
  2
ERASE
 70
     0
 62
    10
  6
CONTINUOUS
  0
LAYER
  2
FORMAT
 70
     0
 62
     7
  6
CONTINUOUS
  0
LAYER
  2
DEFPOINTS
 70
     5
 62
    -7
  6
CONTINUOUS
  0
LAYER
  2
PROFILE_-_OUTSIDE
 70
     0
 62
    18
  6
CONTINUOUS
  0
LAYER
  2
PROFILES
 70
     0
 62
     5
  6
CONTINUOUS
  0
LAYER
  2
BRIDGES
 70
     0
 62
     2
  6
CONTINUOUS
  0
ENDTAB
  0
TABLE
  2
STYLE
 70
     4
  0
STYLE
  2
STANDARD
 70
     0
 40
0.0
 41
1.0
 50
0.0
 71
     0
 42
3.5
  3
txt
  4

  0
STYLE
  2
ANNOTATIVE
 70
     0
 40
0.0
 41
1.0
 50
0.0
 71
     0
 42
0.2
  3
txt
  4

  0
STYLE
  2
SLDTEXTSTYLE0
 70
     0
 40
0.0
 41
0.75
 50
0.0
 71
     0
 42
0.2
  3
TXT
  4

  0
STYLE
  2
SLDTEXTSTYLE1
 70
     0
 40
0.0
 41
0.6875
 50
0.0
 71
     0
 42
0.2
  3
TXT
  4

  0
ENDTAB
  0
TABLE
  2
VIEW
 70
     4
  0
ENDTAB
  0
TABLE
  2
UCS
 70
     0
  0
ENDTAB
  0
TABLE
  2
APPID
 70
     8
  0
APPID
  2
ACAD
 70
     0
  0
APPID
  2
ACADANNOTATIVE
 70
     0
  0
APPID
  2
ACAD_NAV_VCDISPLAY
 70
     0
  0
APPID
  2
ACAD_DSTYLE_DIMRADIAL_EXTENSION
 70
     0
  0
APPID
  2
ACAD_EXEMPT_FROM_CAD_STANDARDS
 70
     0
  0
APPID
  2
ACAECLAYERSTANDARD
 70
     0
  0
APPID
  2
ACCMTRANSPARENCY
 70
     0
  0
APPID
  2
ACAD_MLEADERVER
 70
     0
  0
ENDTAB
  0
TABLE
  2
DIMSTYLE
 70
     4
  0
DIMSTYLE
  2
STANDARD
 70
     0
  3

  4

  5

  6

  7

 40
1.0
 41
0.18
 42
0.0625
 43
0.38
 44
0.18
 45
0.0
 46
0.0
 47
0.0
 48
0.0
140
0.18
141
0.09
142
0.0
143
25.399999999999999
144
1.0
145
0.0
146
1.0
147
0.09
 71
     0
 72
     0
 73
     1
 74
     1
 75
     0
 76
     0
 77
     0
 78
     0
170
     0
171
     2
172
     0
173
     0
174
     0
175
     0
176
     0
177
     0
178
     0
  0
DIMSTYLE
  2
ANNOTATIVE
 70
     0
  3

  4

  5

  6

  7

 40
1.0
 41
0.18
 42
0.0625
 43
0.38
 44
0.18
 45
0.0
 46
0.0
 47
0.0
 48
0.0
140
0.18
141
0.09
142
0.0
143
25.399999999999999
144
1.0
145
0.0
146
1.0
147
0.09
 71
     0
 72
     0
 73
     1
 74
     1
 75
     0
 76
     0
 77
     0
 78
     0
170
     0
171
     2
172
     0
173
     0
174
     0
175
     0
176
     0
177
     0
178
     0
  0
DIMSTYLE
  2
ISO-25
 70
     0
  3

  4

  5

  6

  7

 40
1.0
 41
2.5
 42
0.625
 43
3.75
 44
1.25
 45
0.0
 46
0.0
 47
0.0
 48
0.0
140
2.5
141
2.5
142
0.0
143
0.0393700787
144
1.0
145
0.0
146
1.0
147
0.625
 71
     0
 72
     0
 73
     0
 74
     0
 75
     0
 76
     0
 77
     1
 78
     8
170
     0
171
     3
172
     1
173
     0
174
     0
175
     0
176
     0
177
     0
178
     0
  0
ENDTAB
  0
ENDSEC
  0
SECTION
  2
BLOCKS
  0
BLOCK
  8
0
  2
$MODEL_SPACE
 70
     0
 10
0.0
 20
0.0
 30
0.0
  3
$MODEL_SPACE
  1

  0
ENDBLK
  5
3382
  8
0
  0
BLOCK
 67
     1
  8
0
  2
$PAPER_SPACE
 70
     0
 10
0.0
 20
0.0
 30
0.0
  3
$PAPER_SPACE
  1

  0
ENDBLK
  5
337E
 67
     1
  8
0
  0
BLOCK
  8
0
  2
SW_NOTE_0
 70
     0
 10
0.0
 20
0.0
 30
0.0
  3
SW_NOTE_0
  1

  0
INSERT
  5
79
  8
ERASE
  2
*U3
 10
0.0
 20
0.0
 30
0.0
  0
INSERT
  5
7A
  8
ERASE
  2
*U4
 10
0.0
 20
0.0
 30
0.0
  0
INSERT
  5
7B
  8
ERASE
  2
*U5
 10
0.0
 20
0.0
 30
0.0
  0
ENDBLK
  5
78
  8
0
  0
BLOCK
  8
0
  2
*U3
 70
     1
 10
0.0
 20
0.0
 30
0.0
  3
*U3
  1

  0
TEXT
  5
2E75
  8
0
 62
     0
 10
0.0
 20
0.4336016097
 30
0.0
 40
1.5
  1
DEBUR AND
 41
0.75
  7
SLDTEXTSTYLE0
  0
ENDBLK
  5
2E77
  8
0
  0
BLOCK
  8
0
  2
*U4
 70
     1
 10
0.0
 20
0.0
 30
0.0
  3
*U4
  1

  0
TEXT
  5
2E79
  8
0
 62
     0
 10
0.0
 20
-2.0663983345000001
 30
0.0
 40
1.5
  1
BREAK SHARP
 41
0.75
  7
SLDTEXTSTYLE0
  0
ENDBLK
  5
2E7B
  8
0
  0
BLOCK
  8
0
  2
*U5
 70
     1
 10
0.0
 20
0.0
 30
0.0
  3
*U5
  1

  0
TEXT
  5
2E7D
  8
0
 62
     0
 10
0.0
 20
-4.5663982786000004
 30
0.0
 40
1.5
  1
EDGES
 41
0.75
  7
SLDTEXTSTYLE0
  0
ENDBLK
  5
2E7F
  8
0
  0
BLOCK
  8
0
  2
SW_NOTE_1
 70
     0
 10
0.0
 20
0.0
 30
0.0
  3
SW_NOTE_1
  1

  0
INSERT
  5
81
  8
ERASE
  2
*U7
 10
0.0
 20
0.0
 30
0.0
  0
INSERT
  5
82
  8
ERASE
  2
*U8
 10
0.0
 20
0.0
 30
0.0
  0
INSERT
  5
83
  8
ERASE
  2
*U9
 10
0.0
 20
0.0
 30
0.0
  0
INSERT
  5
84
  8
ERASE
  2
*U10
 10
0.0
 20
0.0
 30
0.0
  0
INSERT
  5
85
  8
ERASE
  2
*U11
 10
0.0
 20
0.0
 30
0.0
  0
INSERT
  5
86
  8
ERASE
  2
*U12
 10
0.0
 20
0.0
 30
0.0
  0
ENDBLK
  5
80
  8
0
  0
BLOCK
  8
0
  2
*U7
 70
     1
 10
0.0
 20
0.0
 30
0.0
  3
*U7
  1

  0
TEXT
  5
2E81
  8
0
 62
     0
 10
0.0
 20
0.4336016097
 30
0.0
 40
1.5
  1
UNLESS OTHERWISE SPECIFIED:
 41
0.75
  7
SLDTEXTSTYLE0
  0
ENDBLK
  5
2E83
  8
0
  0
BLOCK
  8
0
  2
*U8
 70
     1
 10
0.0
 20
0.0
 30
0.0
  3
*U8
  1

  0
TEXT
  5
2E85
  8
0
 62
     0
 10
0.0
 20
-2.0663983345000001
 30
0.0
 40
1.5
  1
DIMENSIONS ARE IN MILLIMETERS
 41
0.75
  7
SLDTEXTSTYLE0
  0
ENDBLK
  5
2E87
  8
0
  0
BLOCK
  8
0
  2
*U9
 70
     1
 10
0.0
 20
0.0
 30
0.0
  3
*U9
  1

  0
TEXT
  5
2E89
  8
0
 62
     0
 10
0.0
 20
-4.5663982786000004
 30
0.0
 40
1.5
  1
SURFACE FINISH:
 41
0.75
  7
SLDTEXTSTYLE0
  0
ENDBLK
  5
2E8B
  8
0
  0
BLOCK
  8
0
  2
*U10
 70
     1
 10
0.0
 20
0.0
 30
0.0
  3
*U10
  1

  0
TEXT
  5
2E8D
  8
0
 62
     0
 10
0.0
 20
-7.0663982227000002
 30
0.0
 40
1.5
  1
TOLERANCES:
 41
0.75
  7
SLDTEXTSTYLE0
  0
ENDBLK
  5
2E8F
  8
0
  0
BLOCK
  8
0
  2
*U11
 70
     1
 10
0.0
 20
0.0
 30
0.0
  3
*U11
  1

  0
TEXT
  5
2E91
  8
0
 62
     0
 10
1.6875
 20
-9.5663981668000009
 30
0.0
 40
1.5
  1
LINEAR:
 41
0.75
  7
SLDTEXTSTYLE0
  0
ENDBLK
  5
2E93
  8
0
  0
BLOCK
  8
0
  2
*U12
 70
     1
 10
0.0
 20
0.0
 30
0.0
  3
*U12
  1

  0
TEXT
  5
2E95
  8
0
 62
     0
 10
1.6875
 20
-12.0663981109
 30
0.0
 40
1.5
  1
ANGULAR:
 41
0.75
  7
SLDTEXTSTYLE0
  0
ENDBLK
  5
2E97
  8
0
  0
BLOCK
  8
0
  2
SW_CENTERMARKSYMBOL_0
 70
     0
 10
0.0
 20
0.0
 30
0.0
  3
SW_CENTERMARKSYMBOL_0
  1

  0
LINE
  5
C9
  8
0
  6
CONTINUOUS
 62
     0
 10
0.0
 20
0.0
 30
0.0
 11
0.0
 21
2.5
 31
0.0
  0
LINE
  5
CA
  8
0
  6
CONTINUOUS
 62
     0
 10
0.0
 20
0.0
 30
0.0
 11
-2.5
 21
0.0
 31
0.0
  0
LINE
  5
CB
  8
0
  6
CONTINUOUS
 62
     0
 10
0.0
 20
0.0
 30
0.0
 11
0.0
 21
-2.5
 31
0.0
  0
LINE
  5
CC
  8
0
  6
CONTINUOUS
 62
     0
 10
0.0
 20
0.0
 30
0.0
 11
2.5
 21
0.0
 31
0.0
  0
LINE
  5
CD
  8
0
  6
CONTINUOUS
 62
     0
 10
0.0
 20
5.0
 30
0.0
 11
0.0
 21
8.8499999999999979
 31
0.0
  0
LINE
  5
CE
  8
0
  6
CONTINUOUS
 62
     0
 10
-5.0
 20
0.0
 30
0.0
 11
-8.8499999999999979
 21
0.0
 31
0.0
  0
LINE
  5
CF
  8
0
  6
CONTINUOUS
 62
     0
 10
0.0
 20
-5.0
 30
0.0
 11
0.0
 21
-8.8499999999999979
 31
0.0
  0
LINE
  5
D0
  8
0
  6
CONTINUOUS
 62
     0
 10
5.0
 20
0.0
 30
0.0
 11
8.8499999999999979
 21
0.0
 31
0.0
  0
ENDBLK
  5
C8
  8
0
  0
BLOCK
  8
0
  2
SW_CENTERMARKSYMBOL_1
 70
     0
 10
0.0
 20
0.0
 30
0.0
  3
SW_CENTERMARKSYMBOL_1
  1

  0
LINE
  5
18B
  8
0
  6
CONTINUOUS
 62
     0
 10
0.0
 20
0.0
 30
0.0
 11
0.0
 21
2.5
 31
0.0
  0
LINE
  5
18C
  8
0
  6
CONTINUOUS
 62
     0
 10
0.0
 20
0.0
 30
0.0
 11
-2.5
 21
0.0
 31
0.0
  0
LINE
  5
18D
  8
0
  6
CONTINUOUS
 62
     0
 10
0.0
 20
0.0
 30
0.0
 11
0.0
 21
-2.5
 31
0.0
  0
LINE
  5
18E
  8
0
  6
CONTINUOUS
 62
     0
 10
0.0
 20
0.0
 30
0.0
 11
2.5
 21
0.0
 31
0.0
  0
LINE
  5
18F
  8
0
  6
CONTINUOUS
 62
     0
 10
0.0
 20
5.0
 30
0.0
 11
0.0
 21
7.5
 31
0.0
  0
LINE
  5
190
  8
0
  6
CONTINUOUS
 62
     0
 10
-5.0
 20
0.0
 30
0.0
 11
-7.5
 21
0.0
 31
0.0
  0
LINE
  5
191
  8
0
  6
CONTINUOUS
 62
     0
 10
0.0
 20
-5.0
 30
0.0
 11
0.0
 21
-7.5
 31
0.0
  0
LINE
  5
192
  8
0
  6
CONTINUOUS
 62
     0
 10
5.0
 20
0.0
 30
0.0
 11
7.5
 21
0.0
 31
0.0
  0
ENDBLK
  5
18A
  8
0
  0
ENDSEC
  0
SECTION
  2
ENTITIES
  0
POLYLINE
  5
2676
  8
0
 66
     1
 10
0.0
 20
0.0
 30
0.0
 70
     1
  0
VERTEX
  5
3770
  8
0
 10
-372.20289113336679
 20
434.00497731253267
 30
0.0
  0
VERTEX
  5
3771
  8
0
 10
-348.2028911333669
 20
434.00497731253267
 30
0.0
  0
VERTEX
  5
3772
  8
0
 10
-348.2028911333669
 20
386.0049773125329
 30
0.0
  0
VERTEX
  5
3773
  8
0
 10
-372.20289113336679
 20
386.0049773125329
 30
0.0
  0
SEQEND
  5
3774
  8
0
  0
POLYLINE
  5
26BF
  8
0
  6
CONTINUOUS
 66
     1
 10
0.0
 20
0.0
 30
0.0
 70
     1
  0
VERTEX
  5
3775
  8
0
  6
CONTINUOUS
 10
-429.28549836480772
 20
393.35456099458031
 30
0.0
  0
VERTEX
  5
3776
  8
0
  6
CONTINUOUS
 10
-429.28549836480772
 20
396.77652114726408
 30
0.0
 42
-0.999999988280428
  0
VERTEX
  5
3777
  8
0
  6
CONTINUOUS
 10
-429.0167737431625
 20
397.04524576890879
 30
0.0
  0
VERTEX
  5
3778
  8
0
  6
CONTINUOUS
 10
-428.80905631083732
 20
397.04524576890879
 30
0.0
 42
-0.999999988280428
  0
VERTEX
  5
3779
  8
0
  6
CONTINUOUS
 10
-428.54033168919261
 20
396.7765211472634
 30
0.0
  0
VERTEX
  5
377A
  8
0
  6
CONTINUOUS
 10
-428.54033168919261
 20
393.35456099458031
 30
0.0
 42
-0.999999988280428
  0
VERTEX
  5
377B
  8
0
  6
CONTINUOUS
 10
-428.8090563108376
 20
393.0858363729356
 30
0.0
  0
VERTEX
  5
377C
  8
0
  6
CONTINUOUS
 10
-429.01677374316313
 20
393.0858363729356
 30
0.0
 42
-0.9999999882804278
  0
SEQEND
  5
377D
  8
0
  6
CONTINUOUS
  0
POLYLINE
  5
26C0
  8
0
  6
CONTINUOUS
 66
     1
 10
0.0
 20
0.0
 30
0.0
 70
     1
  0
VERTEX
  5
377E
  8
0
  6
CONTINUOUS
 10
-428.80905631083732
 20
408.83527708881911
 30
0.0
  0
VERTEX
  5
377F
  8
0
  6
CONTINUOUS
 10
-429.01677374316313
 20
408.83527708881911
 30
0.0
 42
-0.9999999882804278
  0
VERTEX
  5
3780
  8
0
  6
CONTINUOUS
 10
-429.28549836480772
 20
409.1040017104645
 30
0.0
  0
VERTEX
  5
3781
  8
0
  6
CONTINUOUS
 10
-429.28549836480772
 20
412.52596186314747
 30
0.0
 42
-0.999999988280428
  0
VERTEX
  5
3782
  8
0
  6
CONTINUOUS
 10
-429.0167737431625
 20
412.79468648479218
 30
0.0
  0
VERTEX
  5
3783
  8
0
  6
CONTINUOUS
 10
-428.80905631083732
 20
412.79468648479218
 30
0.0
 42
-0.999999988280428
  0
VERTEX
  5
3784
  8
0
  6
CONTINUOUS
 10
-428.54033168919261
 20
412.5259618631469
 30
0.0
  0
VERTEX
  5
3785
  8
0
  6
CONTINUOUS
 10
-428.54033168919261
 20
409.10400171046399
 30
0.0
 42
-0.999999988280428
  0
SEQEND
  5
3786
  8
0
  6
CONTINUOUS
  0
POLYLINE
  5
26C1
  8
0
  6
CONTINUOUS
 66
     1
 10
0.0
 20
0.0
 30
0.0
 70
     1
  0
VERTEX
  5
3787
  8
0
  6
CONTINUOUS
 10
-428.8090563092623
 20
421.67107127226421
 30
0.0
  0
VERTEX
  5
3788
  8
0
  6
CONTINUOUS
 10
-429.01677374316313
 20
421.67107127226421
 30
0.0
 42
-0.9999999882804278
  0
VERTEX
  5
3789
  8
0
  6
CONTINUOUS
 10
-429.28549836480772
 20
421.93979589390949
 30
0.0
  0
VERTEX
  5
378A
  8
0
  6
CONTINUOUS
 10
-429.28549836480772
 20
423.74743837478968
 30
0.0
 42
-0.9999999941401636
  0
VERTEX
  5
378B
  8
0
  6
CONTINUOUS
 10
-429.01677374158783
 20
424.0161629948596
 30
0.0
  0
VERTEX
  5
378C
  8
0
  6
CONTINUOUS
 10
-428.80905631083732
 20
424.01616299485949
 30
0.0
 42
-1.0
  0
VERTEX
  5
378D
  8
0
  6
CONTINUOUS
 10
-428.54033168919221
 20
423.74743837321438
 30
0.0
  0
VERTEX
  5
378E
  8
0
  6
CONTINUOUS
 10
-428.54033168919261
 20
421.93979589548388
 30
0.0
 42
-0.9999999941402643
  0
SEQEND
  5
378F
  8
0
  6
CONTINUOUS
  0
POLYLINE
  5
26C2
  8
0
  6
CONTINUOUS
 66
     1
 10
0.0
 20
0.0
 30
0.0
 70
     1
  0
VERTEX
  5
3790
  8
0
  6
CONTINUOUS
 10
-428.36091211382802
 20
387.0049773125329
 30
0.0
 42
-0.4260205264732408
  0
VERTEX
  5
3791
  8
0
  6
CONTINUOUS
 10
-428.55077603743871
 20
387.20262003767908
 30
0.0
  0
VERTEX
  5
3792
  8
0
  6
CONTINUOUS
 10
-428.52711716095871
 20
387.79167463212679
 30
0.0
 42
0.4260205264732411
  0
VERTEX
  5
3793
  8
0
  6
CONTINUOUS
 10
-428.71698108457031
 20
387.98931735727552
 30
0.0
  0
VERTEX
  5
3794
  8
0
  6
CONTINUOUS
 10
-429.89632100522402
 20
387.98931735727552
 30
0.0
 42
0.4260205264732408
  0
VERTEX
  5
3795
  8
0
  6
CONTINUOUS
 10
-430.08618492883511
 20
387.79167463212548
 30
0.0
  0
VERTEX
  5
3796
  8
0
  6
CONTINUOUS
 10
-430.06252605235471
 20
387.20262003768181
 30
0.0
 42
-0.4260205264732411
  0
VERTEX
  5
3797
  8
0
  6
CONTINUOUS
 10
-430.25238997596648
 20
387.00497731253301
 30
0.0
  0
VERTEX
  5
3798
  8
0
  6
CONTINUOUS
 10
-431.23302577420372
 20
387.00497731253301
 30
0.0
  0
VERTEX
  5
3799
  8
0
  6
CONTINUOUS
 10
-431.2330257742039
 20
388.22658604211807
 30
0.0
 42
0.999999988280428
  0
VERTEX
  5
379A
  8
0
  6
CONTINUOUS
 10
-431.50175039584838
 20
388.49531066376341
 30
0.0
  0
VERTEX
  5
379B
  8
0
  6
CONTINUOUS
 10
-431.70946782817367
 20
388.49531066376341
 30
0.0
 42
0.999999988280428
  0
VERTEX
  5
379C
  8
0
  6
CONTINUOUS
 10
-431.97819244981889
 20
388.2265860421187
 30
0.0
  0
VERTEX
  5
379D
  8
0
  6
CONTINUOUS
 10
-431.97819244981889
 20
387.00497731253301
 30
0.0
  0
VERTEX
  5
379E
  8
0
  6
CONTINUOUS
 10
-432.85027520597112
 20
387.00497731253301
 30
0.0
  0
VERTEX
  5
379F
  8
0
  6
CONTINUOUS
 10
-432.85027520597112
 20
389.11737104855081
 30
0.0
 42
-0.4142135623730951
  0
VERTEX
  5
37A0
  8
0
  6
CONTINUOUS
 10
-432.60025283460641
 20
389.3673934199154
 30
0.0
  0
VERTEX
  5
37A1
  8
0
  6
CONTINUOUS
 10
-430.4878590985885
 20
389.3673934199154
 30
0.0
  0
VERTEX
  5
37A2
  8
0
  6
CONTINUOUS
 10
-430.4878590985885
 20
425.98484308434479
 30
0.0
  0
VERTEX
  5
37A3
  8
0
  6
CONTINUOUS
 10
-430.4878590985885
 20
426.12855673087728
 30
0.0
 42
-0.4142135623730951
  0
VERTEX
  5
37A4
  8
0
  6
CONTINUOUS
 10
-430.23783672722391
 20
426.37857910224187
 30
0.0
  0
VERTEX
  5
37A5
  8
0
  6
CONTINUOUS
 10
-430.09412308069142
 20
426.37857910224187
 30
0.0
  0
VERTEX
  5
37A6
  8
0
  6
CONTINUOUS
 10
-427.7317069733088
 20
426.37857910224187
 30
0.0
  0
VERTEX
  5
37A7
  8
0
  6
CONTINUOUS
 10
-427.58799332677631
 20
426.37857910224187
 30
0.0
 42
-0.4142135623730951
  0
VERTEX
  5
37A8
  8
0
  6
CONTINUOUS
 10
-427.33797095541178
 20
426.12855673087728
 30
0.0
  0
VERTEX
  5
37A9
  8
0
  6
CONTINUOUS
 10
-427.33797095541178
 20
425.98484308434479
 30
0.0
  0
VERTEX
  5
37AA
  8
0
  6
CONTINUOUS
 10
-427.33797095541178
 20
387.00497731253301
 30
0.0
  0
SEQEND
  5
37AB
  8
0
  6
CONTINUOUS
  0
POLYLINE
  5
26C3
  8
0
  6
CONTINUOUS
 66
     1
 10
0.0
 20
0.0
 30
0.0
 70
     1
  0
VERTEX
  5
37AC
  8
0
  6
CONTINUOUS
 10
-436.82250569670759
 20
393.35383822958022
 30
0.0
  0
VERTEX
  5
37AD
  8
0
  6
CONTINUOUS
 10
-436.82250569670759
 20
396.7757983822641
 30
0.0
 42
-0.999999988280428
  0
VERTEX
  5
37AE
  8
0
  6
CONTINUOUS
 10
-436.55378107506249
 20
397.04452300390892
 30
0.0
  0
VERTEX
  5
37AF
  8
0
  6
CONTINUOUS
 10
-436.34606364273719
 20
397.04452300390892
 30
0.0
 42
-0.999999988280428
  0
VERTEX
  5
37B0
  8
0
  6
CONTINUOUS
 10
-436.07733902109271
 20
396.77579838226342
 30
0.0
  0
VERTEX
  5
37B1
  8
0
  6
CONTINUOUS
 10
-436.07733902109271
 20
393.35383822958022
 30
0.0
 42
-0.999999988280428
  0
VERTEX
  5
37B2
  8
0
  6
CONTINUOUS
 10
-436.3460636427377
 20
393.0851136079358
 30
0.0
  0
VERTEX
  5
37B3
  8
0
  6
CONTINUOUS
 10
-436.553781075063
 20
393.0851136079358
 30
0.0
 42
-0.9999999882804278
  0
SEQEND
  5
37B4
  8
0
  6
CONTINUOUS
  0
POLYLINE
  5
26C4
  8
0
  6
CONTINUOUS
 66
     1
 10
0.0
 20
0.0
 30
0.0
 70
     1
  0
VERTEX
  5
37B5
  8
0
  6
CONTINUOUS
 10
-436.34606364273719
 20
408.83455432381908
 30
0.0
  0
VERTEX
  5
37B6
  8
0
  6
CONTINUOUS
 10
-436.553781075063
 20
408.83455432381908
 30
0.0
 42
-0.9999999882804278
  0
VERTEX
  5
37B7
  8
0
  6
CONTINUOUS
 10
-436.82250569670759
 20
409.10327894546441
 30
0.0
  0
VERTEX
  5
37B8
  8
0
  6
CONTINUOUS
 10
-436.82250569670759
 20
412.52523909814772
 30
0.0
 42
-0.999999988280428
  0
VERTEX
  5
37B9
  8
0
  6
CONTINUOUS
 10
-436.55378107506249
 20
412.7939637197922
 30
0.0
  0
VERTEX
  5
37BA
  8
0
  6
CONTINUOUS
 10
-436.34606364273719
 20
412.7939637197922
 30
0.0
 42
-0.999999988280428
  0
VERTEX
  5
37BB
  8
0
  6
CONTINUOUS
 10
-436.07733902109271
 20
412.52523909814693
 30
0.0
  0
VERTEX
  5
37BC
  8
0
  6
CONTINUOUS
 10
-436.07733902109271
 20
409.10327894546413
 30
0.0
 42
-0.999999988280428
  0
SEQEND
  5
37BD
  8
0
  6
CONTINUOUS
  0
POLYLINE
  5
26C5
  8
0
  6
CONTINUOUS
 66
     1
 10
0.0
 20
0.0
 30
0.0
 70
     1
  0
VERTEX
  5
37BE
  8
0
  6
CONTINUOUS
 10
-436.34606364116217
 20
421.67034850726441
 30
0.0
  0
VERTEX
  5
37BF
  8
0
  6
CONTINUOUS
 10
-436.553781075063
 20
421.67034850726441
 30
0.0
 42
-0.9999999882804278
  0
VERTEX
  5
37C0
  8
0
  6
CONTINUOUS
 10
-436.82250569670759
 20
421.93907312890963
 30
0.0
  0
VERTEX
  5
37C1
  8
0
  6
CONTINUOUS
 10
-436.82250569670759
 20
423.7467156097897
 30
0.0
 42
-0.9999999941401636
  0
VERTEX
  5
37C2
  8
0
  6
CONTINUOUS
 10
-436.5537810734877
 20
424.01544022985962
 30
0.0
  0
VERTEX
  5
37C3
  8
0
  6
CONTINUOUS
 10
-436.34606364273719
 20
424.01544022985951
 30
0.0
 42
-1.0
  0
VERTEX
  5
37C4
  8
0
  6
CONTINUOUS
 10
-436.07733902109243
 20
423.7467156082144
 30
0.0
  0
VERTEX
  5
37C5
  8
0
  6
CONTINUOUS
 10
-436.07733902109271
 20
421.93907313048402
 30
0.0
 42
-0.9999999941402643
  0
SEQEND
  5
37C6
  8
0
  6
CONTINUOUS
  0
POLYLINE
  5
26C6
  8
0
  6
CONTINUOUS
 66
     1
 10
0.0
 20
0.0
 30
0.0
 70
     1
  0
VERTEX
  5
37C7
  8
0
  6
CONTINUOUS
 10
-435.89791944572789
 20
387.00425454753292
 30
0.0
 42
-0.4260205264732408
  0
VERTEX
  5
37C8
  8
0
  6
CONTINUOUS
 10
-436.08778336933881
 20
387.20189727267922
 30
0.0
  0
VERTEX
  5
37C9
  8
0
  6
CONTINUOUS
 10
-436.06412449285858
 20
387.79095186712692
 30
0.0
 42
0.4260205264732411
  0
VERTEX
  5
37CA
  8
0
  6
CONTINUOUS
 10
-436.25398841647029
 20
387.98859459227549
 30
0.0
  0
VERTEX
  5
37CB
  8
0
  6
CONTINUOUS
 10
-437.43332833712412
 20
387.98859459227572
 30
0.0
 42
0.4260205264732408
  0
VERTEX
  5
37CC
  8
0
  6
CONTINUOUS
 10
-437.62319226073498
 20
387.7909518671255
 30
0.0
  0
VERTEX
  5
37CD
  8
0
  6
CONTINUOUS
 10
-437.5995333842547
 20
387.20189727268172
 30
0.0
 42
-0.4260205264732411
  0
VERTEX
  5
37CE
  8
0
  6
CONTINUOUS
 10
-437.78939730786652
 20
387.00425454753298
 30
0.0
  0
VERTEX
  5
37CF
  8
0
  6
CONTINUOUS
 10
-438.77003310610371
 20
387.00425454753298
 30
0.0
  0
VERTEX
  5
37D0
  8
0
  6
CONTINUOUS
 10
-438.77003310610388
 20
388.22586327711809
 30
0.0
 42
0.999999988280428
  0
VERTEX
  5
37D1
  8
0
  6
CONTINUOUS
 10
-439.03875772774842
 20
388.49458789876343
 30
0.0
  0
VERTEX
  5
37D2
  8
0
  6
CONTINUOUS
 10
-439.24647516007371
 20
388.49458789876343
 30
0.0
 42
0.999999988280428
  0
VERTEX
  5
37D3
  8
0
  6
CONTINUOUS
 10
-439.51519978171899
 20
388.22586327711861
 30
0.0
  0
VERTEX
  5
37D4
  8
0
  6
CONTINUOUS
 10
-439.51519978171899
 20
387.00425454753298
 30
0.0
  0
VERTEX
  5
37D5
  8
0
  6
CONTINUOUS
 10
-440.38728253787099
 20
387.00425454753298
 30
0.0
  0
VERTEX
  5
37D6
  8
0
  6
CONTINUOUS
 10
-440.38728253787099
 20
389.11664828355072
 30
0.0
 42
-0.4142135623730951
  0
VERTEX
  5
37D7
  8
0
  6
CONTINUOUS
 10
-440.13726016650628
 20
389.36667065491531
 30
0.0
  0
VERTEX
  5
37D8
  8
0
  6
CONTINUOUS
 10
-438.02486643048837
 20
389.36667065491531
 30
0.0
  0
VERTEX
  5
37D9
  8
0
  6
CONTINUOUS
 10
-438.02486643048837
 20
425.98412031934492
 30
0.0
  0
VERTEX
  5
37DA
  8
0
  6
CONTINUOUS
 10
-438.02486643048837
 20
426.1278339658773
 30
0.0
 42
-0.4142135623730951
  0
VERTEX
  5
37DB
  8
0
  6
CONTINUOUS
 10
-437.77484405912389
 20
426.37785633724212
 30
0.0
  0
VERTEX
  5
37DC
  8
0
  6
CONTINUOUS
 10
-437.63113041259129
 20
426.37785633724212
 30
0.0
  0
VERTEX
  5
37DD
  8
0
  6
CONTINUOUS
 10
-435.26871430520879
 20
426.37785633724212
 30
0.0
  0
VERTEX
  5
37DE
  8
0
  6
CONTINUOUS
 10
-435.1250006586763
 20
426.37785633724212
 30
0.0
 42
-0.4142135623730951
  0
VERTEX
  5
37DF
  8
0
  6
CONTINUOUS
 10
-434.87497828731182
 20
426.1278339658773
 30
0.0
  0
VERTEX
  5
37E0
  8
0
  6
CONTINUOUS
 10
-434.87497828731182
 20
425.98412031934492
 30
0.0
  0
VERTEX
  5
37E1
  8
0
  6
CONTINUOUS
 10
-434.87497828731182
 20
387.00425454753298
 30
0.0
  0
SEQEND
  5
37E2
  8
0
  6
CONTINUOUS
  0
POLYLINE
  5
26C7
  8
0
  6
CONTINUOUS
 66
     1
 10
0.0
 20
0.0
 30
0.0
 70
     1
  0
VERTEX
  5
37E3
  8
0
  6
CONTINUOUS
 10
-434.25636511118859
 20
426.6966684132052
 30
0.0
 42
0.999999988280428
  0
VERTEX
  5
37E4
  8
0
  6
CONTINUOUS
 10
-434.5250897328371
 20
426.96539303485048
 30
0.0
  0
VERTEX
  5
37E5
  8
0
  6
CONTINUOUS
 10
-436.36875884720632
 20
426.96539303485048
 30
0.0
 42
-0.4142135623730951
  0
VERTEX
  5
37E6
  8
0
  6
CONTINUOUS
 10
-436.61878121857097
 20
427.2154154062149
 30
0.0
  0
VERTEX
  5
37E7
  8
0
  6
CONTINUOUS
 10
-436.61878121857097
 20
429.32780914223292
 30
0.0
  0
VERTEX
  5
37E8
  8
0
  6
CONTINUOUS
 10
-435.74659845347031
 20
429.32780914223292
 30
0.0
  0
VERTEX
  5
37E9
  8
0
  6
CONTINUOUS
 10
-435.74659845347031
 20
428.10630042159642
 30
0.0
 42
0.9999999882804278
  0
VERTEX
  5
37EA
  8
0
  6
CONTINUOUS
 10
-435.4778738318256
 20
427.83757579995108
 30
0.0
  0
VERTEX
  5
37EB
  8
0
  6
CONTINUOUS
 10
-435.27015639950031
 20
427.83757579995108
 30
0.0
 42
0.999999988280428
  0
VERTEX
  5
37EC
  8
0
  6
CONTINUOUS
 10
-435.00143177785509
 20
428.1063004215996
 30
0.0
  0
VERTEX
  5
37ED
  8
0
  6
CONTINUOUS
 10
-435.00143177785509
 20
429.32780914223292
 30
0.0
  0
VERTEX
  5
37EE
  8
0
  6
CONTINUOUS
 10
-434.02089598857037
 20
429.32780914223292
 30
0.0
 42
0.4260205264732411
  0
VERTEX
  5
37EF
  8
0
  6
CONTINUOUS
 10
-433.83103206495872
 20
429.52545186738212
 30
0.0
  0
VERTEX
  5
37F0
  8
0
  6
CONTINUOUS
 10
-433.85469094143889
 20
430.11450646182948
 30
0.0
 42
-0.4260205264732408
  0
VERTEX
  5
37F1
  8
0
  6
CONTINUOUS
 10
-433.66482701782792
 20
430.31214918697589
 30
0.0
  0
VERTEX
  5
37F2
  8
0
  6
CONTINUOUS
 10
-432.48548709717039
 20
430.31214918697577
 30
0.0
 42
-0.4260205264732411
  0
VERTEX
  5
37F3
  8
0
  6
CONTINUOUS
 10
-432.29562317355862
 20
430.11450646182681
 30
0.0
  0
VERTEX
  5
37F4
  8
0
  6
CONTINUOUS
 10
-432.3192820500426
 20
429.52545186738308
 30
0.0
 42
0.4260205264732408
  0
VERTEX
  5
37F5
  8
0
  6
CONTINUOUS
 10
-432.12941812642782
 20
429.32780914223298
 30
0.0
  0
VERTEX
  5
37F6
  8
0
  6
CONTINUOUS
 10
-431.10647696801169
 20
429.32780914223292
 30
0.0
  0
VERTEX
  5
37F7
  8
0
  6
CONTINUOUS
 10
-431.10647696801169
 20
390.20422972388849
 30
0.0
 42
-0.4142135623730951
  0
VERTEX
  5
37F8
  8
0
  6
CONTINUOUS
 10
-431.3564993393764
 20
389.95420735252412
 30
0.0
  0
VERTEX
  5
37F9
  8
0
  6
CONTINUOUS
 10
-434.00634273982388
 20
389.95420735252412
 30
0.0
 42
-0.4142135623730951
  0
VERTEX
  5
37FA
  8
0
  6
CONTINUOUS
 10
-434.25636511118859
 20
390.20422972388849
 30
0.0
  0
SEQEND
  5
37FB
  8
0
  6
CONTINUOUS
  0
POLYLINE
  5
26C8
  8
0
  6
CONTINUOUS
 66
     1
 10
0.0
 20
0.0
 30
0.0
 70
     1
  0
VERTEX
  5
37FC
  8
0
  6
CONTINUOUS
 10
-433.05400437740769
 20
419.92795210839728
 30
0.0
 42
0.9999999882804278
  0
VERTEX
  5
37FD
  8
0
  6
CONTINUOUS
 10
-432.7852797557627
 20
419.65922748675189
 30
0.0
  0
VERTEX
  5
37FE
  8
0
  6
CONTINUOUS
 10
-432.57756232343769
 20
419.65922748675189
 30
0.0
 42
0.999999988280428
  0
VERTEX
  5
37FF
  8
0
  6
CONTINUOUS
 10
-432.30883770179241
 20
419.92795210840069
 30
0.0
  0
VERTEX
  5
3800
  8
0
  6
CONTINUOUS
 10
-432.3088377017927
 20
423.34991226107979
 30
0.0
 42
0.999999988280428
  0
VERTEX
  5
3801
  8
0
  6
CONTINUOUS
 10
-432.57756232343769
 20
423.61863688272518
 30
0.0
  0
VERTEX
  5
3802
  8
0
  6
CONTINUOUS
 10
-432.7852797557627
 20
423.61863688272518
 30
0.0
 42
0.999999988280428
  0
VERTEX
  5
3803
  8
0
  6
CONTINUOUS
 10
-433.05400437740769
 20
423.34991226107979
 30
0.0
  0
SEQEND
  5
3804
  8
0
  6
CONTINUOUS
  0
POLYLINE
  5
26C9
  8
0
  6
CONTINUOUS
 66
     1
 10
0.0
 20
0.0
 30
0.0
 70
     1
  0
VERTEX
  5
3805
  8
0
  6
CONTINUOUS
 10
-432.30883770179241
 20
392.58534808155508
 30
0.0
  0
VERTEX
  5
3806
  8
0
  6
CONTINUOUS
 10
-432.3088377017927
 20
394.34928586286958
 30
0.0
 42
0.999999988280428
  0
VERTEX
  5
3807
  8
0
  6
CONTINUOUS
 10
-432.5775623234411
 20
394.61801048451491
 30
0.0
  0
VERTEX
  5
3808
  8
0
  6
CONTINUOUS
 10
-432.78527975576242
 20
394.61801048451491
 30
0.0
 42
0.999999988280428
  0
VERTEX
  5
3809
  8
0
  6
CONTINUOUS
 10
-433.05400437740769
 20
394.34928586287049
 30
0.0
  0
VERTEX
  5
380A
  8
0
  6
CONTINUOUS
 10
-433.05400437740758
 20
392.58534808155167
 30
0.0
 42
0.9999999882804278
  0
VERTEX
  5
380B
  8
0
  6
CONTINUOUS
 10
-432.7852797557627
 20
392.31662345990662
 30
0.0
  0
VERTEX
  5
380C
  8
0
  6
CONTINUOUS
 10
-432.5775623234411
 20
392.31662345990662
 30
0.0
 42
0.999999988280428
  0
SEQEND
  5
380D
  8
0
  6
CONTINUOUS
  0
POLYLINE
  5
26CA
  8
0
  6
CONTINUOUS
 66
     1
 10
0.0
 20
0.0
 30
0.0
 70
     1
  0
VERTEX
  5
380E
  8
0
  6
CONTINUOUS
 10
-432.5775623234411
 20
427.16226104379911
 30
0.0
  0
VERTEX
  5
380F
  8
0
  6
CONTINUOUS
 10
-432.78527975576242
 20
427.16226104379911
 30
0.0
 42
0.999999988280428
  0
VERTEX
  5
3810
  8
0
  6
CONTINUOUS
 10
-433.05400437740769
 20
426.89353642215411
 30
0.0
  0
VERTEX
  5
3811
  8
0
  6
CONTINUOUS
 10
-433.05400437740758
 20
425.12959864083581
 30
0.0
 42
0.9999999882804278
  0
VERTEX
  5
3812
  8
0
  6
CONTINUOUS
 10
-432.7852797557627
 20
424.86087401919031
 30
0.0
  0
VERTEX
  5
3813
  8
0
  6
CONTINUOUS
 10
-432.57756232343769
 20
424.86087401919031
 30
0.0
 42
0.999999988280428
  0
VERTEX
  5
3814
  8
0
  6
CONTINUOUS
 10
-432.30883770179241
 20
425.12959864083922
 30
0.0
  0
VERTEX
  5
3815
  8
0
  6
CONTINUOUS
 10
-432.30883770179241
 20
426.89353642215411
 30
0.0
 42
0.999999988280428
  0
SEQEND
  5
3816
  8
0
  6
CONTINUOUS
  0
POLYLINE
  5
26CB
  8
0
  6
CONTINUOUS
 66
     1
 10
0.0
 20
0.0
 30
0.0
 70
     1
  0
VERTEX
  5
3817
  8
0
  6
CONTINUOUS
 10
-432.5775623234411
 20
407.86919616684162
 30
0.0
  0
VERTEX
  5
3818
  8
0
  6
CONTINUOUS
 10
-432.78527975576242
 20
407.86919616684162
 30
0.0
 42
0.999999988280428
  0
VERTEX
  5
3819
  8
0
  6
CONTINUOUS
 10
-433.05400437740769
 20
407.60047154519668
 30
0.0
  0
VERTEX
  5
381A
  8
0
  6
CONTINUOUS
 10
-433.05400437740758
 20
404.1785113925136
 30
0.0
 42
0.9999999882804278
  0
VERTEX
  5
381B
  8
0
  6
CONTINUOUS
 10
-432.7852797557627
 20
403.90978677086838
 30
0.0
  0
VERTEX
  5
381C
  8
0
  6
CONTINUOUS
 10
-432.57756232343769
 20
403.90978677086838
 30
0.0
 42
0.999999988280428
  0
VERTEX
  5
381D
  8
0
  6
CONTINUOUS
 10
-432.30883770179241
 20
404.1785113925169
 30
0.0
  0
VERTEX
  5
381E
  8
0
  6
CONTINUOUS
 10
-432.30883770179241
 20
407.60047154519668
 30
0.0
 42
0.999999988280428
  0
SEQEND
  5
381F
  8
0
  6
CONTINUOUS
  0
POLYLINE
  5
26CC
  8
0
  6
CONTINUOUS
 66
     1
 10
0.0
 20
0.0
 30
0.0
 70
     1
  0
VERTEX
  5
3820
  8
0
  6
CONTINUOUS
 10
-441.79337244298841
 20
426.69595034150512
 30
0.0
 42
0.999999988280428
  0
VERTEX
  5
3821
  8
0
  6
CONTINUOUS
 10
-442.06209706463721
 20
426.96467496315051
 30
0.0
  0
VERTEX
  5
3822
  8
0
  6
CONTINUOUS
 10
-443.90576617900632
 20
426.96467496315051
 30
0.0
 42
-0.4142135623730951
  0
VERTEX
  5
3823
  8
0
  6
CONTINUOUS
 10
-444.15578855037103
 20
427.21469733451522
 30
0.0
  0
VERTEX
  5
3824
  8
0
  6
CONTINUOUS
 10
-444.15578855037103
 20
429.3270910705329
 30
0.0
  0
VERTEX
  5
3825
  8
0
  6
CONTINUOUS
 10
-443.28360578527031
 20
429.3270910705329
 30
0.0
  0
VERTEX
  5
3826
  8
0
  6
CONTINUOUS
 10
-443.28360578527031
 20
428.10558234989662
 30
0.0
 42
0.9999999882804278
  0
VERTEX
  5
3827
  8
0
  6
CONTINUOUS
 10
-443.01488116362549
 20
427.83685772825112
 30
0.0
  0
VERTEX
  5
3828
  8
0
  6
CONTINUOUS
 10
-442.80716373130031
 20
427.83685772825112
 30
0.0
 42
0.999999988280428
  0
VERTEX
  5
3829
  8
0
  6
CONTINUOUS
 10
-442.53843910965509
 20
428.10558234989969
 30
0.0
  0
VERTEX
  5
382A
  8
0
  6
CONTINUOUS
 10
-442.53843910965509
 20
429.3270910705329
 30
0.0
  0
VERTEX
  5
382B
  8
0
  6
CONTINUOUS
 10
-441.55790332037037
 20
429.3270910705329
 30
0.0
 42
0.4260205264732411
  0
VERTEX
  5
382C
  8
0
  6
CONTINUOUS
 10
-441.36803939675872
 20
429.52473379568181
 30
0.0
  0
VERTEX
  5
382D
  8
0
  6
CONTINUOUS
 10
-441.39169827323872
 20
430.11378839012951
 30
0.0
 42
-0.4260205264732408
  0
VERTEX
  5
382E
  8
0
  6
CONTINUOUS
 10
-441.2018343496278
 20
430.31143111527581
 30
0.0
  0
VERTEX
  5
382F
  8
0
  6
CONTINUOUS
 10
-440.02249442897028
 20
430.3114311152757
 30
0.0
 42
-0.4260205264732411
  0
VERTEX
  5
3830
  8
0
  6
CONTINUOUS
 10
-439.83263050535851
 20
430.1137883901269
 30
0.0
  0
VERTEX
  5
3831
  8
0
  6
CONTINUOUS
 10
-439.8562893818426
 20
429.52473379568318
 30
0.0
 42
0.4260205264732408
  0
VERTEX
  5
3832
  8
0
  6
CONTINUOUS
 10
-439.66642545822788
 20
429.32709107053302
 30
0.0
  0
VERTEX
  5
3833
  8
0
  6
CONTINUOUS
 10
-438.64348429981169
 20
429.3270910705329
 30
0.0
  0
VERTEX
  5
3834
  8
0
  6
CONTINUOUS
 10
-438.64348429981169
 20
390.20351165218841
 30
0.0
 42
-0.4142135623730951
  0
VERTEX
  5
3835
  8
0
  6
CONTINUOUS
 10
-438.89350667117628
 20
389.9534892808241
 30
0.0
  0
VERTEX
  5
3836
  8
0
  6
CONTINUOUS
 10
-441.54335007162388
 20
389.9534892808241
 30
0.0
 42
-0.4142135623730951
  0
VERTEX
  5
3837
  8
0
  6
CONTINUOUS
 10
-441.79337244298841
 20
390.20351165218841
 30
0.0
  0
SEQEND
  5
3838
  8
0
  6
CONTINUOUS
  0
POLYLINE
  5
26CD
  8
0
  6
CONTINUOUS
 66
     1
 10
0.0
 20
0.0
 30
0.0
 70
     1
  0
VERTEX
  5
3839
  8
0
  6
CONTINUOUS
 10
-440.59101170920758
 20
419.92723403669731
 30
0.0
 42
0.9999999882804278
  0
VERTEX
  5
383A
  8
0
  6
CONTINUOUS
 10
-440.32228708756298
 20
419.65850941505198
 30
0.0
  0
VERTEX
  5
383B
  8
0
  6
CONTINUOUS
 10
-440.11456965523757
 20
419.65850941505198
 30
0.0
 42
0.999999988280428
  0
VERTEX
  5
383C
  8
0
  6
CONTINUOUS
 10
-439.84584503359252
 20
419.92723403670072
 30
0.0
  0
VERTEX
  5
383D
  8
0
  6
CONTINUOUS
 10
-439.8458450335927
 20
423.34919418937972
 30
0.0
 42
0.999999988280428
  0
VERTEX
  5
383E
  8
0
  6
CONTINUOUS
 10
-440.11456965523757
 20
423.61791881102488
 30
0.0
  0
VERTEX
  5
383F
  8
0
  6
CONTINUOUS
 10
-440.32228708756298
 20
423.61791881102488
 30
0.0
 42
0.999999988280428
  0
VERTEX
  5
3840
  8
0
  6
CONTINUOUS
 10
-440.59101170920758
 20
423.34919418937972
 30
0.0
  0
SEQEND
  5
3841
  8
0
  6
CONTINUOUS
  0
POLYLINE
  5
26CE
  8
0
  6
CONTINUOUS
 66
     1
 10
0.0
 20
0.0
 30
0.0
 70
     1
  0
VERTEX
  5
3842
  8
0
  6
CONTINUOUS
 10
-439.84584503359252
 20
392.58463000985512
 30
0.0
  0
VERTEX
  5
3843
  8
0
  6
CONTINUOUS
 10
-439.8458450335927
 20
394.34856779116961
 30
0.0
 42
0.999999988280428
  0
VERTEX
  5
3844
  8
0
  6
CONTINUOUS
 10
-440.11456965524121
 20
394.61729241281489
 30
0.0
  0
VERTEX
  5
3845
  8
0
  6
CONTINUOUS
 10
-440.32228708756247
 20
394.61729241281489
 30
0.0
 42
0.999999988280428
  0
VERTEX
  5
3846
  8
0
  6
CONTINUOUS
 10
-440.59101170920758
 20
394.34856779117041
 30
0.0
  0
VERTEX
  5
3847
  8
0
  6
CONTINUOUS
 10
-440.59101170920758
 20
392.58463000985171
 30
0.0
 42
0.9999999882804278
  0
VERTEX
  5
3848
  8
0
  6
CONTINUOUS
 10
-440.32228708756298
 20
392.31590538820649
 30
0.0
  0
VERTEX
  5
3849
  8
0
  6
CONTINUOUS
 10
-440.11456965524121
 20
392.31590538820649
 30
0.0
 42
0.999999988280428
  0
SEQEND
  5
384A
  8
0
  6
CONTINUOUS
  0
POLYLINE
  5
26CF
  8
0
  6
CONTINUOUS
 66
     1
 10
0.0
 20
0.0
 30
0.0
 70
     1
  0
VERTEX
  5
384B
  8
0
  6
CONTINUOUS
 10
-440.11456965524121
 20
427.16154297209891
 30
0.0
  0
VERTEX
  5
384C
  8
0
  6
CONTINUOUS
 10
-440.32228708756247
 20
427.16154297209891
 30
0.0
 42
0.999999988280428
  0
VERTEX
  5
384D
  8
0
  6
CONTINUOUS
 10
-440.59101170920758
 20
426.89281835045409
 30
0.0
  0
VERTEX
  5
384E
  8
0
  6
CONTINUOUS
 10
-440.59101170920758
 20
425.12888056913562
 30
0.0
 42
0.9999999882804278
  0
VERTEX
  5
384F
  8
0
  6
CONTINUOUS
 10
-440.32228708756298
 20
424.8601559474904
 30
0.0
  0
VERTEX
  5
3850
  8
0
  6
CONTINUOUS
 10
-440.11456965523757
 20
424.8601559474904
 30
0.0
 42
0.999999988280428
  0
VERTEX
  5
3851
  8
0
  6
CONTINUOUS
 10
-439.84584503359252
 20
425.1288805691392
 30
0.0
  0
VERTEX
  5
3852
  8
0
  6
CONTINUOUS
 10
-439.84584503359252
 20
426.89281835045409
 30
0.0
 42
0.999999988280428
  0
SEQEND
  5
3853
  8
0
  6
CONTINUOUS
  0
POLYLINE
  5
26D0
  8
0
  6
CONTINUOUS
 66
     1
 10
0.0
 20
0.0
 30
0.0
 70
     1
  0
VERTEX
  5
3854
  8
0
  6
CONTINUOUS
 10
-440.11456965524121
 20
407.8684780951416
 30
0.0
  0
VERTEX
  5
3855
  8
0
  6
CONTINUOUS
 10
-440.32228708756247
 20
407.8684780951416
 30
0.0
 42
0.999999988280428
  0
VERTEX
  5
3856
  8
0
  6
CONTINUOUS
 10
-440.59101170920758
 20
407.59975347349649
 30
0.0
  0
VERTEX
  5
3857
  8
0
  6
CONTINUOUS
 10
-440.59101170920758
 20
404.17779332081369
 30
0.0
 42
0.9999999882804278
  0
VERTEX
  5
3858
  8
0
  6
CONTINUOUS
 10
-440.32228708756298
 20
403.90906869916819
 30
0.0
  0
VERTEX
  5
3859
  8
0
  6
CONTINUOUS
 10
-440.11456965523757
 20
403.90906869916819
 30
0.0
 42
0.999999988280428
  0
VERTEX
  5
385A
  8
0
  6
CONTINUOUS
 10
-439.84584503359252
 20
404.17779332081687
 30
0.0
  0
VERTEX
  5
385B
  8
0
  6
CONTINUOUS
 10
-439.84584503359252
 20
407.59975347349649
 30
0.0
 42
0.999999988280428
  0
SEQEND
  5
385C
  8
0
  6
CONTINUOUS
  0
POLYLINE
  5
26DA
  8
0
  6
CONTINUOUS
 66
     1
 10
0.0
 20
0.0
 30
0.0
 70
     1
  0
VERTEX
  5
385D
  8
0
  6
CONTINUOUS
 10
-386.16150824425131
 20
414.91495494116799
 30
0.0
 42
0.4142135623730951
  0
VERTEX
  5
385E
  8
0
  6
CONTINUOUS
 10
-386.4115306156159
 20
415.1649773125327
 30
0.0
  0
VERTEX
  5
385F
  8
0
  6
CONTINUOUS
 10
-389.83112793105209
 20
415.1649773125327
 30
0.0
 42
0.4142135623730951
  0
VERTEX
  5
3860
  8
0
  6
CONTINUOUS
 10
-390.0811503024168
 20
414.91495494116799
 30
0.0
  0
VERTEX
  5
3861
  8
0
  6
CONTINUOUS
 10
-390.0811503024168
 20
413.16578247109072
 30
0.0
 42
-0.999999988280428
  0
VERTEX
  5
3862
  8
0
  6
CONTINUOUS
 10
-390.3498749240614
 20
412.89705784944539
 30
0.0
  0
VERTEX
  5
3863
  8
0
  6
CONTINUOUS
 10
-391.28283262903869
 20
412.89705784944539
 30
0.0
 42
0.4142135623730951
  0
VERTEX
  5
3864
  8
0
  6
CONTINUOUS
 10
-391.5328550004034
 20
412.64703547808091
 30
0.0
  0
VERTEX
  5
3865
  8
0
  6
CONTINUOUS
 10
-391.5328550004034
 20
411.71584979575368
 30
0.0
 42
-0.2339845462446278
  0
VERTEX
  5
3866
  8
0
  6
CONTINUOUS
 10
-391.43442099592897
 20
411.51702285289531
 30
0.0
  0
VERTEX
  5
3867
  8
0
  6
CONTINUOUS
 10
-391.43442099592897
 20
390.65293177216631
 30
0.0
 42
-0.2339845462446278
  0
VERTEX
  5
3868
  8
0
  6
CONTINUOUS
 10
-391.5328550004034
 20
390.45410482930811
 30
0.0
  0
VERTEX
  5
3869
  8
0
  6
CONTINUOUS
 10
-391.5328550004034
 20
389.5229191469848
 30
0.0
 42
0.4142135623730951
  0
VERTEX
  5
386A
  8
0
  6
CONTINUOUS
 10
-391.28283262903869
 20
389.27289677561998
 30
0.0
  0
VERTEX
  5
386B
  8
0
  6
CONTINUOUS
 10
-390.3498749240614
 20
389.27289677561998
 30
0.0
 42
-0.999999988280428
  0
VERTEX
  5
386C
  8
0
  6
CONTINUOUS
 10
-390.0811503024168
 20
389.00417215397488
 30
0.0
  0
VERTEX
  5
386D
  8
0
  6
CONTINUOUS
 10
-390.0811503024168
 20
387.25499968389749
 30
0.0
 42
0.4142135623730951
  0
VERTEX
  5
386E
  8
0
  6
CONTINUOUS
 10
-389.83112793105209
 20
387.00497731253279
 30
0.0
  0
VERTEX
  5
386F
  8
0
  6
CONTINUOUS
 10
-386.4115306156159
 20
387.00497731253279
 30
0.0
 42
0.4142135623730951
  0
VERTEX
  5
3870
  8
0
  6
CONTINUOUS
 10
-386.16150824425102
 20
387.25499968389749
 30
0.0
  0
VERTEX
  5
3871
  8
0
  6
CONTINUOUS
 10
-386.16150824425102
 20
389.00417215397522
 30
0.0
 42
-0.9999999882804278
  0
VERTEX
  5
3872
  8
0
  6
CONTINUOUS
 10
-385.8927836226058
 20
389.27289677561998
 30
0.0
  0
VERTEX
  5
3873
  8
0
  6
CONTINUOUS
 10
-384.38300265140992
 20
389.27289677561998
 30
0.0
 42
0.4142135623730951
  0
VERTEX
  5
3874
  8
0
  6
CONTINUOUS
 10
-384.13298028004527
 20
389.5229191469848
 30
0.0
  0
VERTEX
  5
3875
  8
0
  6
CONTINUOUS
 10
-384.13298028004527
 20
412.64703547808091
 30
0.0
 42
0.4142135623730951
  0
VERTEX
  5
3876
  8
0
  6
CONTINUOUS
 10
-384.38300265140992
 20
412.89705784944539
 30
0.0
  0
VERTEX
  5
3877
  8
0
  6
CONTINUOUS
 10
-385.89278362260637
 20
412.89705784944539
 30
0.0
 42
-0.999999988280428
  0
VERTEX
  5
3878
  8
0
  6
CONTINUOUS
 10
-386.16150824425102
 20
413.16578247109072
 30
0.0
  0
SEQEND
  5
3879
  8
0
  6
CONTINUOUS
  0
POLYLINE
  5
26DB
  8
0
  6
CONTINUOUS
 66
     1
 10
0.0
 20
0.0
 30
0.0
 70
     1
  0
VERTEX
  5
387A
  8
0
  6
CONTINUOUS
 10
-388.22518798949687
 20
387.82766746018399
 30
0.0
  0
VERTEX
  5
387B
  8
0
  6
CONTINUOUS
 10
-388.01747055717181
 20
387.82766746018399
 30
0.0
 42
0.999999988280428
  0
VERTEX
  5
387C
  8
0
  6
CONTINUOUS
 10
-387.74874593552641
 20
388.09639208182858
 30
0.0
  0
VERTEX
  5
387D
  8
0
  6
CONTINUOUS
 10
-387.74874593552641
 20
388.30410951415388
 30
0.0
 42
0.999999988280428
  0
VERTEX
  5
387E
  8
0
  6
CONTINUOUS
 10
-388.01747055717101
 20
388.5728341357991
 30
0.0
  0
VERTEX
  5
387F
  8
0
  6
CONTINUOUS
 10
-388.22518798949608
 20
388.57283413579893
 30
0.0
 42
0.9999999882804278
  0
VERTEX
  5
3880
  8
0
  6
CONTINUOUS
 10
-388.49391261114141
 20
388.30410951415428
 30
0.0
  0
VERTEX
  5
3881
  8
0
  6
CONTINUOUS
 10
-388.49391261114141
 20
388.09639208182858
 30
0.0
 42
0.999999988280428
  0
SEQEND
  5
3882
  8
0
  6
CONTINUOUS
  0
POLYLINE
  5
26DC
  8
0
  6
CONTINUOUS
 66
     1
 10
0.0
 20
0.0
 30
0.0
 70
     1
  0
VERTEX
  5
3883
  8
0
  6
CONTINUOUS
 10
-388.22518798949687
 20
413.59712048926639
 30
0.0
  0
VERTEX
  5
3884
  8
0
  6
CONTINUOUS
 10
-388.01747055717181
 20
413.59712048926662
 30
0.0
 42
0.999999988280428
  0
VERTEX
  5
3885
  8
0
  6
CONTINUOUS
 10
-387.74874593552641
 20
413.86584511091138
 30
0.0
  0
VERTEX
  5
3886
  8
0
  6
CONTINUOUS
 10
-387.74874593552641
 20
414.07356254323628
 30
0.0
 42
0.999999988280428
  0
VERTEX
  5
3887
  8
0
  6
CONTINUOUS
 10
-388.01747055717101
 20
414.34228716488161
 30
0.0
  0
VERTEX
  5
3888
  8
0
  6
CONTINUOUS
 10
-388.22518798949608
 20
414.34228716488161
 30
0.0
 42
0.9999999882804278
  0
VERTEX
  5
3889
  8
0
  6
CONTINUOUS
 10
-388.49391261114141
 20
414.0735625432369
 30
0.0
  0
VERTEX
  5
388A
  8
0
  6
CONTINUOUS
 10
-388.49391261114141
 20
413.86584511091138
 30
0.0
 42
0.999999988280428
  0
SEQEND
  5
388B
  8
0
  6
CONTINUOUS
  0
POLYLINE
  5
26DD
  8
0
  6
CONTINUOUS
 66
     1
 10
0.0
 20
0.0
 30
0.0
 70
     1
  0
VERTEX
  5
388C
  8
0
  6
CONTINUOUS
 10
-377.02216974611792
 20
387.25499968389749
 30
0.0
  0
VERTEX
  5
388D
  8
0
  6
CONTINUOUS
 10
-377.02216974611792
 20
389.00417215397539
 30
0.0
 42
-0.9999999882804278
  0
VERTEX
  5
388E
  8
0
  6
CONTINUOUS
 10
-376.75344512447248
 20
389.27289677561998
 30
0.0
  0
VERTEX
  5
388F
  8
0
  6
CONTINUOUS
 10
-375.6035388736347
 20
389.27289677562021
 30
0.0
 42
0.4142135623730951
  0
VERTEX
  5
3890
  8
0
  6
CONTINUOUS
 10
-375.35351650227011
 20
389.5229191469848
 30
0.0
  0
VERTEX
  5
3891
  8
0
  6
CONTINUOUS
 10
-375.35351650227011
 20
412.64703547808091
 30
0.0
 42
0.4142135623730951
  0
VERTEX
  5
3892
  8
0
  6
CONTINUOUS
 10
-375.6035388736347
 20
412.89705784944562
 30
0.0
  0
VERTEX
  5
3893
  8
0
  6
CONTINUOUS
 10
-376.75344512446912
 20
412.89705784944562
 30
0.0
 42
-0.999999988280428
  0
VERTEX
  5
3894
  8
0
  6
CONTINUOUS
 10
-377.02216974611792
 20
413.16578247109072
 30
0.0
  0
VERTEX
  5
3895
  8
0
  6
CONTINUOUS
 10
-377.02216974611792
 20
414.91495494116811
 30
0.0
 42
0.4142135623730951
  0
VERTEX
  5
3896
  8
0
  6
CONTINUOUS
 10
-377.27219211748252
 20
415.1649773125327
 30
0.0
  0
VERTEX
  5
3897
  8
0
  6
CONTINUOUS
 10
-380.69178943291871
 20
415.1649773125327
 30
0.0
 42
0.4142135623730951
  0
VERTEX
  5
3898
  8
0
  6
CONTINUOUS
 10
-380.94181180428342
 20
414.91495494116811
 30
0.0
  0
VERTEX
  5
3899
  8
0
  6
CONTINUOUS
 10
-380.94181180428342
 20
413.16578247109072
 30
0.0
 42
-0.999999988280428
  0
VERTEX
  5
389A
  8
0
  6
CONTINUOUS
 10
-381.2105364259283
 20
412.89705784944562
 30
0.0
  0
VERTEX
  5
389B
  8
0
  6
CONTINUOUS
 10
-383.29320330316511
 20
412.89705784944562
 30
0.0
 42
0.4142135623730951
  0
VERTEX
  5
389C
  8
0
  6
CONTINUOUS
 10
-383.54322567452948
 20
412.64703547808091
 30
0.0
  0
VERTEX
  5
389D
  8
0
  6
CONTINUOUS
 10
-383.54322567452948
 20
389.5229191469848
 30
0.0
 42
0.4142135623730951
  0
VERTEX
  5
389E
  8
0
  6
CONTINUOUS
 10
-383.29320330316511
 20
389.27289677562021
 30
0.0
  0
VERTEX
  5
389F
  8
0
  6
CONTINUOUS
 10
-381.21053642592858
 20
389.27289677561998
 30
0.0
 42
-0.999999988280428
  0
VERTEX
  5
38A0
  8
0
  6
CONTINUOUS
 10
-380.94181180428347
 20
389.00417215397539
 30
0.0
  0
VERTEX
  5
38A1
  8
0
  6
CONTINUOUS
 10
-380.94181180428347
 20
387.25499968389749
 30
0.0
 42
0.4142135623730951
  0
VERTEX
  5
38A2
  8
0
  6
CONTINUOUS
 10
-380.69178943291871
 20
387.0049773125329
 30
0.0
  0
VERTEX
  5
38A3
  8
0
  6
CONTINUOUS
 10
-377.27219211748252
 20
387.0049773125329
 30
0.0
 42
0.4142135623730951
  0
SEQEND
  5
38A4
  8
0
  6
CONTINUOUS
  0
POLYLINE
  5
26DE
  8
0
  6
CONTINUOUS
 66
     1
 10
0.0
 20
0.0
 30
0.0
 70
     1
  0
VERTEX
  5
38A5
  8
0
  6
CONTINUOUS
 10
-378.87813205903848
 20
387.82766746018399
 30
0.0
 42
0.999999988280428
  0
VERTEX
  5
38A6
  8
0
  6
CONTINUOUS
 10
-378.60940743739309
 20
388.09639208182858
 30
0.0
  0
VERTEX
  5
38A7
  8
0
  6
CONTINUOUS
 10
-378.60940743739309
 20
388.30410951415388
 30
0.0
 42
0.999999988280428
  0
VERTEX
  5
38A8
  8
0
  6
CONTINUOUS
 10
-378.87813205903768
 20
388.5728341357991
 30
0.0
  0
VERTEX
  5
38A9
  8
0
  6
CONTINUOUS
 10
-379.08584949136298
 20
388.5728341357991
 30
0.0
 42
0.9999999882804278
  0
VERTEX
  5
38AA
  8
0
  6
CONTINUOUS
 10
-379.3545741130082
 20
388.30410951415428
 30
0.0
  0
VERTEX
  5
38AB
  8
0
  6
CONTINUOUS
 10
-379.3545741130082
 20
388.09639208182932
 30
0.0
 42
0.999999988280428
  0
VERTEX
  5
38AC
  8
0
  6
CONTINUOUS
 10
-379.08584949136298
 20
387.82766746018399
 30
0.0
  0
SEQEND
  5
38AD
  8
0
  6
CONTINUOUS
  0
POLYLINE
  5
26DF
  8
0
  6
CONTINUOUS
 66
     1
 10
0.0
 20
0.0
 30
0.0
 70
     1
  0
VERTEX
  5
38AE
  8
0
  6
CONTINUOUS
 10
-379.3545741130082
 20
413.86584511091178
 30
0.0
 42
0.999999988280428
  0
VERTEX
  5
38AF
  8
0
  6
CONTINUOUS
 10
-379.08584949135962
 20
413.59712048926662
 30
0.0
  0
VERTEX
  5
38B0
  8
0
  6
CONTINUOUS
 10
-378.87813205903848
 20
413.59712048926662
 30
0.0
 42
0.999999988280428
  0
VERTEX
  5
38B1
  8
0
  6
CONTINUOUS
 10
-378.60940743739309
 20
413.86584511091138
 30
0.0
  0
VERTEX
  5
38B2
  8
0
  6
CONTINUOUS
 10
-378.60940743739309
 20
414.07356254323651
 30
0.0
 42
0.999999988280428
  0
VERTEX
  5
38B3
  8
0
  6
CONTINUOUS
 10
-378.87813205903768
 20
414.34228716488161
 30
0.0
  0
VERTEX
  5
38B4
  8
0
  6
CONTINUOUS
 10
-379.08584949136298
 20
414.34228716488161
 30
0.0
 42
0.9999999882804278
  0
VERTEX
  5
38B5
  8
0
  6
CONTINUOUS
 10
-379.3545741130082
 20
414.07356254323651
 30
0.0
  0
SEQEND
  5
38B6
  8
0
  6
CONTINUOUS
  0
CIRCLE
  5
2709
  8
0
  6
CONTINUOUS
 10
-427.9284255896585
 20
431.61415805080497
 30
0.0
 40
0.1968680089485458
  0
POLYLINE
  5
270A
  8
0
  6
CONTINUOUS
 66
     1
 10
0.0
 20
0.0
 30
0.0
 70
     1
  0
VERTEX
  5
38B7
  8
0
  6
CONTINUOUS
 10
-430.19538197444598
 20
429.8817195720577
 30
0.0
  0
VERTEX
  5
38B8
  8
0
  6
CONTINUOUS
 10
-427.58784393417739
 20
429.8817195720577
 30
0.0
 42
0.4142135623730951
  0
VERTEX
  5
38B9
  8
0
  6
CONTINUOUS
 10
-427.33782156281279
 20
430.13174194342253
 30
0.0
  0
VERTEX
  5
38BA
  8
0
  6
CONTINUOUS
 10
-427.33782156281279
 20
431.95473970628598
 30
0.0
 42
0.4142135623730951
  0
VERTEX
  5
38BB
  8
0
  6
CONTINUOUS
 10
-427.58784393417739
 20
432.2047620776508
 30
0.0
  0
VERTEX
  5
38BC
  8
0
  6
CONTINUOUS
 10
-428.6627432630367
 20
432.20476207765051
 30
0.0
 42
0.4142135623730951
  0
VERTEX
  5
38BD
  8
0
  6
CONTINUOUS
 10
-428.91276563440118
 20
431.95473970628598
 30
0.0
  0
VERTEX
  5
38BE
  8
0
  6
CONTINUOUS
 10
-428.91276563440118
 20
431.29227864560812
 30
0.0
 42
-0.999999988280428
  0
VERTEX
  5
38BF
  8
0
  6
CONTINUOUS
 10
-429.18149025604652
 20
431.02355402395932
 30
0.0
  0
VERTEX
  5
38C0
  8
0
  6
CONTINUOUS
 10
-429.38920768837158
 20
431.02355402395932
 30
0.0
 42
-0.9999999882804278
  0
VERTEX
  5
38C1
  8
0
  6
CONTINUOUS
 10
-429.65793231001629
 20
431.29227864560448
 30
0.0
  0
VERTEX
  5
38C2
  8
0
  6
CONTINUOUS
 10
-429.65793231001641
 20
431.95473970628598
 30
0.0
 42
0.4142135623730951
  0
VERTEX
  5
38C3
  8
0
  6
CONTINUOUS
 10
-429.90795468138111
 20
432.2047620776508
 30
0.0
  0
VERTEX
  5
38C4
  8
0
  6
CONTINUOUS
 10
-430.19538197444598
 20
432.20476207765051
 30
0.0
 42
0.4142135623730951
  0
VERTEX
  5
38C5
  8
0
  6
CONTINUOUS
 10
-430.44540434581057
 20
431.95473970628598
 30
0.0
  0
VERTEX
  5
38C6
  8
0
  6
CONTINUOUS
 10
-430.44540434581057
 20
430.13174194342253
 30
0.0
 42
0.4142135623730951
  0
SEQEND
  5
38C7
  8
0
  6
CONTINUOUS
  0
CIRCLE
  5
270B
  8
0
  6
CONTINUOUS
 10
-427.9284255896585
 20
428.70077218650499
 30
0.0
 40
0.1968680089485458
  0
POLYLINE
  5
270C
  8
0
  6
CONTINUOUS
 66
     1
 10
0.0
 20
0.0
 30
0.0
 70
     1
  0
VERTEX
  5
38C8
  8
0
  6
CONTINUOUS
 10
-430.19538197444598
 20
426.96833370775772
 30
0.0
  0
VERTEX
  5
38C9
  8
0
  6
CONTINUOUS
 10
-427.58784393417739
 20
426.96833370775772
 30
0.0
 42
0.4142135623730951
  0
VERTEX
  5
38CA
  8
0
  6
CONTINUOUS
 10
-427.33782156281279
 20
427.21835607912249
 30
0.0
  0
VERTEX
  5
38CB
  8
0
  6
CONTINUOUS
 10
-427.33782156281279
 20
429.04135384198588
 30
0.0
 42
0.4142135623730951
  0
VERTEX
  5
38CC
  8
0
  6
CONTINUOUS
 10
-427.58784393417739
 20
429.29137621335059
 30
0.0
  0
VERTEX
  5
38CD
  8
0
  6
CONTINUOUS
 10
-428.6627432630367
 20
429.29137621335047
 30
0.0
 42
0.4142135623730951
  0
VERTEX
  5
38CE
  8
0
  6
CONTINUOUS
 10
-428.91276563440118
 20
429.04135384198588
 30
0.0
  0
VERTEX
  5
38CF
  8
0
  6
CONTINUOUS
 10
-428.91276563440118
 20
428.37889278130802
 30
0.0
 42
-0.999999988280428
  0
VERTEX
  5
38D0
  8
0
  6
CONTINUOUS
 10
-429.18149025604652
 20
428.11016815965922
 30
0.0
  0
VERTEX
  5
38D1
  8
0
  6
CONTINUOUS
 10
-429.38920768837158
 20
428.11016815965922
 30
0.0
 42
-0.9999999882804278
  0
VERTEX
  5
38D2
  8
0
  6
CONTINUOUS
 10
-429.65793231001629
 20
428.3788927813045
 30
0.0
  0
VERTEX
  5
38D3
  8
0
  6
CONTINUOUS
 10
-429.65793231001641
 20
429.04135384198588
 30
0.0
 42
0.4142135623730951
  0
VERTEX
  5
38D4
  8
0
  6
CONTINUOUS
 10
-429.90795468138111
 20
429.29137621335059
 30
0.0
  0
VERTEX
  5
38D5
  8
0
  6
CONTINUOUS
 10
-430.19538197444598
 20
429.29137621335047
 30
0.0
 42
0.4142135623730951
  0
VERTEX
  5
38D6
  8
0
  6
CONTINUOUS
 10
-430.44540434581057
 20
429.04135384198588
 30
0.0
  0
VERTEX
  5
38D7
  8
0
  6
CONTINUOUS
 10
-430.44540434581057
 20
427.21835607912249
 30
0.0
 42
0.4142135623730951
  0
SEQEND
  5
38D8
  8
0
  6
CONTINUOUS
  0
CIRCLE
  5
270D
  8
0
  6
CONTINUOUS
 10
-369.14189361005418
 20
387.5955813393785
 30
0.0
 40
0.1968680089485458
  0
POLYLINE
  5
270E
  8
0
  6
CONTINUOUS
 66
     1
 10
0.0
 20
0.0
 30
0.0
 70
     1
  0
VERTEX
  5
38D9
  8
0
  6
CONTINUOUS
 10
-368.1575535653115
 20
390.94233749150368
 30
0.0
  0
VERTEX
  5
38DA
  8
0
  6
CONTINUOUS
 10
-369.48247526553519
 20
390.94233749150368
 30
0.0
 42
0.4142135623730951
  0
VERTEX
  5
38DB
  8
0
  6
CONTINUOUS
 10
-369.73249763689989
 20
390.6923151201392
 30
0.0
  0
VERTEX
  5
38DC
  8
0
  6
CONTINUOUS
 10
-369.73249763689989
 20
387.25499968389738
 30
0.0
 42
0.4142135623730951
  0
VERTEX
  5
38DD
  8
0
  6
CONTINUOUS
 10
-369.48247526553519
 20
387.00497731253279
 30
0.0
  0
VERTEX
  5
38DE
  8
0
  6
CONTINUOUS
 10
-368.1575535653115
 20
387.00497731253279
 30
0.0
  0
VERTEX
  5
38DF
  8
0
  6
CONTINUOUS
 10
-368.1575535653115
 20
387.56309832847199
 30
0.0
 42
-0.999999988280428
  0
VERTEX
  5
38E0
  8
0
  6
CONTINUOUS
 10
-367.88882894366623
 20
387.83182295011682
 30
0.0
  0
VERTEX
  5
38E1
  8
0
  6
CONTINUOUS
 10
-366.12390703287292
 20
387.83182295011682
 30
0.0
 42
0.4142135623730951
  0
VERTEX
  5
38E2
  8
0
  6
CONTINUOUS
 10
-365.87388466150821
 20
388.08184532148141
 30
0.0
  0
VERTEX
  5
38E3
  8
0
  6
CONTINUOUS
 10
-365.87388466150821
 20
389.86546948255523
 30
0.0
 42
0.4142135623730951
  0
VERTEX
  5
38E4
  8
0
  6
CONTINUOUS
 10
-366.12390703287292
 20
390.11549185391971
 30
0.0
  0
VERTEX
  5
38E5
  8
0
  6
CONTINUOUS
 10
-367.88882894366662
 20
390.11549185391988
 30
0.0
 42
-0.999999988280428
  0
VERTEX
  5
38E6
  8
0
  6
CONTINUOUS
 10
-368.15755356531128
 20
390.38421647556521
 30
0.0
  0
SEQEND
  5
38E7
  8
0
  6
CONTINUOUS
  0
POLYLINE
  5
270F
  8
0
  6
CONTINUOUS
 66
     1
 10
0.0
 20
0.0
 30
0.0
 70
     1
  0
VERTEX
  5
38E8
  8
0
  6
CONTINUOUS
 10
-367.41238688969611
 20
388.86979868585593
 30
0.0
 42
0.999999988280428
  0
VERTEX
  5
38E9
  8
0
  6
CONTINUOUS
 10
-367.14366226805151
 20
388.60107406421059
 30
0.0
  0
VERTEX
  5
38EA
  8
0
  6
CONTINUOUS
 10
-366.93594483572622
 20
388.60107406421059
 30
0.0
 42
0.999999988280428
  0
VERTEX
  5
38EB
  8
0
  6
CONTINUOUS
 10
-366.667220214081
 20
388.86979868585922
 30
0.0
  0
VERTEX
  5
38EC
  8
0
  6
CONTINUOUS
 10
-366.667220214081
 20
389.07751611818048
 30
0.0
 42
0.9999999882804278
  0
VERTEX
  5
38ED
  8
0
  6
CONTINUOUS
 10
-366.93594483572582
 20
389.34624073982599
 30
0.0
  0
VERTEX
  5
38EE
  8
0
  6
CONTINUOUS
 10
-367.143662268051
 20
389.34624073982599
 30
0.0
 42
0.999999988280428
  0
VERTEX
  5
38EF
  8
0
  6
CONTINUOUS
 10
-367.41238688969611
 20
389.07751611818048
 30
0.0
  0
SEQEND
  5
38F0
  8
0
  6
CONTINUOUS
  0
CIRCLE
  5
2710
  8
0
  6
CONTINUOUS
 10
-369.14155918108742
 20
392.12314076997859
 30
0.0
 40
0.1968680089485458
  0
POLYLINE
  5
2711
  8
0
  6
CONTINUOUS
 66
     1
 10
0.0
 20
0.0
 30
0.0
 70
     1
  0
VERTEX
  5
38F1
  8
0
  6
CONTINUOUS
 10
-368.15721913634468
 20
395.46989692210371
 30
0.0
  0
VERTEX
  5
38F2
  8
0
  6
CONTINUOUS
 10
-369.48214083656848
 20
395.46989692210371
 30
0.0
 42
0.4142135623730951
  0
VERTEX
  5
38F3
  8
0
  6
CONTINUOUS
 10
-369.73216320793313
 20
395.21987455073918
 30
0.0
  0
VERTEX
  5
38F4
  8
0
  6
CONTINUOUS
 10
-369.73216320793313
 20
391.78255911449742
 30
0.0
 42
0.4142135623730951
  0
VERTEX
  5
38F5
  8
0
  6
CONTINUOUS
 10
-369.48214083656848
 20
391.53253674313282
 30
0.0
  0
VERTEX
  5
38F6
  8
0
  6
CONTINUOUS
 10
-368.15721913634468
 20
391.53253674313282
 30
0.0
  0
VERTEX
  5
38F7
  8
0
  6
CONTINUOUS
 10
-368.15721913634468
 20
392.09065775907197
 30
0.0
 42
-0.999999988280428
  0
VERTEX
  5
38F8
  8
0
  6
CONTINUOUS
 10
-367.8884945146994
 20
392.3593823807168
 30
0.0
  0
VERTEX
  5
38F9
  8
0
  6
CONTINUOUS
 10
-366.12357260390633
 20
392.3593823807168
 30
0.0
 42
0.4142135623730951
  0
VERTEX
  5
38FA
  8
0
  6
CONTINUOUS
 10
-365.87355023254162
 20
392.6094047520815
 30
0.0
  0
VERTEX
  5
38FB
  8
0
  6
CONTINUOUS
 10
-365.87355023254162
 20
394.39302891315521
 30
0.0
 42
0.4142135623730951
  0
VERTEX
  5
38FC
  8
0
  6
CONTINUOUS
 10
-366.12357260390633
 20
394.64305128451969
 30
0.0
  0
VERTEX
  5
38FD
  8
0
  6
CONTINUOUS
 10
-367.88849451470003
 20
394.64305128452008
 30
0.0
 42
-0.999999988280428
  0
VERTEX
  5
38FE
  8
0
  6
CONTINUOUS
 10
-368.15721913634462
 20
394.91177590616519
 30
0.0
  0
SEQEND
  5
38FF
  8
0
  6
CONTINUOUS
  0
POLYLINE
  5
2712
  8
0
  6
CONTINUOUS
 66
     1
 10
0.0
 20
0.0
 30
0.0
 70
     1
  0
VERTEX
  5
3900
  8
0
  6
CONTINUOUS
 10
-367.41205246072951
 20
393.39735811645591
 30
0.0
 42
0.999999988280428
  0
VERTEX
  5
3901
  8
0
  6
CONTINUOUS
 10
-367.1433278390848
 20
393.12863349481069
 30
0.0
  0
VERTEX
  5
3902
  8
0
  6
CONTINUOUS
 10
-366.93561040675951
 20
393.12863349481069
 30
0.0
 42
0.999999988280428
  0
VERTEX
  5
3903
  8
0
  6
CONTINUOUS
 10
-366.66688578511429
 20
393.39735811645937
 30
0.0
  0
VERTEX
  5
3904
  8
0
  6
CONTINUOUS
 10
-366.6668857851144
 20
393.60507554878058
 30
0.0
 42
0.9999999882804278
  0
VERTEX
  5
3905
  8
0
  6
CONTINUOUS
 10
-366.93561040675911
 20
393.8738001704258
 30
0.0
  0
VERTEX
  5
3906
  8
0
  6
CONTINUOUS
 10
-367.14332783908441
 20
393.8738001704258
 30
0.0
 42
0.999999988280428
  0
VERTEX
  5
3907
  8
0
  6
CONTINUOUS
 10
-367.41205246072951
 20
393.60507554878058
 30
0.0
  0
SEQEND
  5
3908
  8
0
  6
CONTINUOUS
  0
CIRCLE
  5
2713
  8
0
  6
CONTINUOUS
 10
-369.14189361005418
 20
396.6506996138786
 30
0.0
 40
0.1968680089485458
  0
POLYLINE
  5
2714
  8
0
  6
CONTINUOUS
 66
     1
 10
0.0
 20
0.0
 30
0.0
 70
     1
  0
VERTEX
  5
3909
  8
0
  6
CONTINUOUS
 10
-368.1575535653115
 20
399.99745576600378
 30
0.0
  0
VERTEX
  5
390A
  8
0
  6
CONTINUOUS
 10
-369.48247526553519
 20
399.99745576600378
 30
0.0
 42
0.4142135623730951
  0
VERTEX
  5
390B
  8
0
  6
CONTINUOUS
 10
-369.73249763689989
 20
399.74743339463907
 30
0.0
  0
VERTEX
  5
390C
  8
0
  6
CONTINUOUS
 10
-369.73249763689989
 20
396.31011795839743
 30
0.0
 42
0.4142135623730951
  0
VERTEX
  5
390D
  8
0
  6
CONTINUOUS
 10
-369.48247526553519
 20
396.06009558703278
 30
0.0
  0
VERTEX
  5
390E
  8
0
  6
CONTINUOUS
 10
-368.1575535653115
 20
396.06009558703278
 30
0.0
  0
VERTEX
  5
390F
  8
0
  6
CONTINUOUS
 10
-368.1575535653115
 20
396.6182166029721
 30
0.0
 42
-0.999999988280428
  0
VERTEX
  5
3910
  8
0
  6
CONTINUOUS
 10
-367.88882894366623
 20
396.88694122461681
 30
0.0
  0
VERTEX
  5
3911
  8
0
  6
CONTINUOUS
 10
-366.12390703287292
 20
396.88694122461681
 30
0.0
 42
0.4142135623730951
  0
VERTEX
  5
3912
  8
0
  6
CONTINUOUS
 10
-365.87388466150821
 20
397.1369635959814
 30
0.0
  0
VERTEX
  5
3913
  8
0
  6
CONTINUOUS
 10
-365.87388466150821
 20
398.92058775705522
 30
0.0
 42
0.4142135623730951
  0
VERTEX
  5
3914
  8
0
  6
CONTINUOUS
 10
-366.12390703287292
 20
399.17061012841981
 30
0.0
  0
VERTEX
  5
3915
  8
0
  6
CONTINUOUS
 10
-367.88882894366662
 20
399.17061012841998
 30
0.0
 42
-0.999999988280428
  0
VERTEX
  5
3916
  8
0
  6
CONTINUOUS
 10
-368.15755356531128
 20
399.43933475006531
 30
0.0
  0
SEQEND
  5
3917
  8
0
  6
CONTINUOUS
  0
POLYLINE
  5
2715
  8
0
  6
CONTINUOUS
 66
     1
 10
0.0
 20
0.0
 30
0.0
 70
     1
  0
VERTEX
  5
3918
  8
0
  6
CONTINUOUS
 10
-367.41238688969611
 20
397.92491696035597
 30
0.0
 42
0.999999988280428
  0
VERTEX
  5
3919
  8
0
  6
CONTINUOUS
 10
-367.14366226805151
 20
397.65619233871058
 30
0.0
  0
VERTEX
  5
391A
  8
0
  6
CONTINUOUS
 10
-366.93594483572622
 20
397.65619233871058
 30
0.0
 42
0.999999988280428
  0
VERTEX
  5
391B
  8
0
  6
CONTINUOUS
 10
-366.667220214081
 20
397.92491696035938
 30
0.0
  0
VERTEX
  5
391C
  8
0
  6
CONTINUOUS
 10
-366.667220214081
 20
398.13263439268059
 30
0.0
 42
0.9999999882804278
  0
VERTEX
  5
391D
  8
0
  6
CONTINUOUS
 10
-366.93594483572582
 20
398.40135901432581
 30
0.0
  0
VERTEX
  5
391E
  8
0
  6
CONTINUOUS
 10
-367.143662268051
 20
398.40135901432581
 30
0.0
 42
0.999999988280428
  0
VERTEX
  5
391F
  8
0
  6
CONTINUOUS
 10
-367.41238688969611
 20
398.13263439268059
 30
0.0
  0
SEQEND
  5
3920
  8
0
  6
CONTINUOUS
  0
CIRCLE
  5
2716
  8
0
  6
CONTINUOUS
 10
-369.14155918108742
 20
401.1782590444285
 30
0.0
 40
0.1968680089485458
  0
POLYLINE
  5
2717
  8
0
  6
CONTINUOUS
 66
     1
 10
0.0
 20
0.0
 30
0.0
 70
     1
  0
VERTEX
  5
3921
  8
0
  6
CONTINUOUS
 10
-368.15721913634468
 20
404.52501519655368
 30
0.0
  0
VERTEX
  5
3922
  8
0
  6
CONTINUOUS
 10
-369.48214083656848
 20
404.52501519655368
 30
0.0
 42
0.4142135623730951
  0
VERTEX
  5
3923
  8
0
  6
CONTINUOUS
 10
-369.73216320793313
 20
404.27499282518909
 30
0.0
  0
VERTEX
  5
3924
  8
0
  6
CONTINUOUS
 10
-369.73216320793313
 20
400.83767738894733
 30
0.0
 42
0.4142135623730951
  0
VERTEX
  5
3925
  8
0
  6
CONTINUOUS
 10
-369.48214083656848
 20
400.58765501758279
 30
0.0
  0
VERTEX
  5
3926
  8
0
  6
CONTINUOUS
 10
-368.15721913634468
 20
400.58765501758279
 30
0.0
  0
VERTEX
  5
3927
  8
0
  6
CONTINUOUS
 10
-368.15721913634468
 20
401.14577603352188
 30
0.0
 42
-0.999999988280428
  0
VERTEX
  5
3928
  8
0
  6
CONTINUOUS
 10
-367.8884945146994
 20
401.41450065516682
 30
0.0
  0
VERTEX
  5
3929
  8
0
  6
CONTINUOUS
 10
-366.12357260390633
 20
401.41450065516682
 30
0.0
 42
0.4142135623730951
  0
VERTEX
  5
392A
  8
0
  6
CONTINUOUS
 10
-365.87355023254162
 20
401.6645230265313
 30
0.0
  0
VERTEX
  5
392B
  8
0
  6
CONTINUOUS
 10
-365.87355023254162
 20
403.448147187605
 30
0.0
 42
0.4142135623730951
  0
VERTEX
  5
392C
  8
0
  6
CONTINUOUS
 10
-366.12357260390633
 20
403.69816955896982
 30
0.0
  0
VERTEX
  5
392D
  8
0
  6
CONTINUOUS
 10
-367.88849451470003
 20
403.69816955896999
 30
0.0
 42
-0.999999988280428
  0
VERTEX
  5
392E
  8
0
  6
CONTINUOUS
 10
-368.15721913634462
 20
403.9668941806151
 30
0.0
  0
SEQEND
  5
392F
  8
0
  6
CONTINUOUS
  0
POLYLINE
  5
2718
  8
0
  6
CONTINUOUS
 66
     1
 10
0.0
 20
0.0
 30
0.0
 70
     1
  0
VERTEX
  5
3930
  8
0
  6
CONTINUOUS
 10
-367.41205246072951
 20
402.45247639090587
 30
0.0
 42
0.999999988280428
  0
VERTEX
  5
3931
  8
0
  6
CONTINUOUS
 10
-367.1433278390848
 20
402.1837517692606
 30
0.0
  0
VERTEX
  5
3932
  8
0
  6
CONTINUOUS
 10
-366.93561040675951
 20
402.1837517692606
 30
0.0
 42
0.999999988280428
  0
VERTEX
  5
3933
  8
0
  6
CONTINUOUS
 10
-366.66688578511429
 20
402.45247639090923
 30
0.0
  0
VERTEX
  5
3934
  8
0
  6
CONTINUOUS
 10
-366.6668857851144
 20
402.6601938232306
 30
0.0
 42
0.9999999882804278
  0
VERTEX
  5
3935
  8
0
  6
CONTINUOUS
 10
-366.93561040675911
 20
402.92891844487588
 30
0.0
  0
VERTEX
  5
3936
  8
0
  6
CONTINUOUS
 10
-367.14332783908441
 20
402.92891844487588
 30
0.0
 42
0.999999988280428
  0
VERTEX
  5
3937
  8
0
  6
CONTINUOUS
 10
-367.41205246072951
 20
402.6601938232306
 30
0.0
  0
SEQEND
  5
3938
  8
0
  6
CONTINUOUS
  0
POLYLINE
  5
2719
  8
0
  6
CONTINUOUS
 66
     1
 10
0.0
 20
0.0
 30
0.0
 70
     1
  0
VERTEX
  5
3939
  8
0
  6
CONTINUOUS
 10
-393.61371743184333
 20
396.18905786319692
 30
0.0
 42
0.999999988280428
  0
VERTEX
  5
393A
  8
0
  6
CONTINUOUS
 10
-393.3449928101947
 20
395.92033324155159
 30
0.0
  0
VERTEX
  5
393B
  8
0
  6
CONTINUOUS
 10
-393.1372966396184
 20
395.92033324155159
 30
0.0
 42
0.999999988280428
  0
VERTEX
  5
393C
  8
0
  6
CONTINUOUS
 10
-392.86857201797318
 20
396.18905786319618
 30
0.0
  0
VERTEX
  5
393D
  8
0
  6
CONTINUOUS
 10
-392.86857201797318
 20
400.39415895547683
 30
0.0
 42
0.9999999882804278
  0
VERTEX
  5
393E
  8
0
  6
CONTINUOUS
 10
-393.13729663961777
 20
400.66288357712199
 30
0.0
  0
VERTEX
  5
393F
  8
0
  6
CONTINUOUS
 10
-393.34499281019811
 20
400.66288357712199
 30
0.0
 42
0.999999988280428
  0
VERTEX
  5
3940
  8
0
  6
CONTINUOUS
 10
-393.61371743184333
 20
400.39415895547683
 30
0.0
  0
SEQEND
  5
3941
  8
0
  6
CONTINUOUS
  0
POLYLINE
  5
271A
  8
0
  6
CONTINUOUS
 66
     1
 10
0.0
 20
0.0
 30
0.0
 70
     1
  0
VERTEX
  5
3942
  8
0
  6
CONTINUOUS
 10
-392.37342771372249
 20
403.02746523260288
 30
0.0
  0
VERTEX
  5
3943
  8
0
  6
CONTINUOUS
 10
-394.1088617360939
 20
403.02746523260288
 30
0.0
 42
0.4142135623730951
  0
VERTEX
  5
3944
  8
0
  6
CONTINUOUS
 10
-394.35888410745861
 20
402.77744286123828
 30
0.0
  0
VERTEX
  5
3945
  8
0
  6
CONTINUOUS
 10
-394.35888410745861
 20
393.80577395743518
 30
0.0
 42
0.4142135623730951
  0
VERTEX
  5
3946
  8
0
  6
CONTINUOUS
 10
-394.1088617360939
 20
393.55575158607041
 30
0.0
  0
VERTEX
  5
3947
  8
0
  6
CONTINUOUS
 10
-392.37342771372249
 20
393.55575158607053
 30
0.0
 42
0.4142135623730951
  0
VERTEX
  5
3948
  8
0
  6
CONTINUOUS
 10
-392.1234053423579
 20
393.80577395743518
 30
0.0
  0
VERTEX
  5
3949
  8
0
  6
CONTINUOUS
 10
-392.1234053423579
 20
402.77744286123828
 30
0.0
 42
0.4142135623730951
  0
SEQEND
  5
394A
  8
0
  6
CONTINUOUS
  0
POLYLINE
  5
271B
  8
0
  6
CONTINUOUS
 66
     1
 10
0.0
 20
0.0
 30
0.0
 70
     1
  0
VERTEX
  5
394B
  8
0
  6
CONTINUOUS
 10
-393.61371770778862
 20
406.25047594794148
 30
0.0
 42
0.999999988280428
  0
VERTEX
  5
394C
  8
0
  6
CONTINUOUS
 10
-393.34499308614011
 20
405.98175132629609
 30
0.0
  0
VERTEX
  5
394D
  8
0
  6
CONTINUOUS
 10
-393.13729691556381
 20
405.98175132629609
 30
0.0
 42
0.999999988280428
  0
VERTEX
  5
394E
  8
0
  6
CONTINUOUS
 10
-392.86857229391848
 20
406.2504759479408
 30
0.0
  0
VERTEX
  5
394F
  8
0
  6
CONTINUOUS
 10
-392.86857229391848
 20
410.45557704022139
 30
0.0
 42
0.9999999882804278
  0
VERTEX
  5
3950
  8
0
  6
CONTINUOUS
 10
-393.13729691556318
 20
410.72430166186649
 30
0.0
  0
VERTEX
  5
3951
  8
0
  6
CONTINUOUS
 10
-393.34499308614352
 20
410.72430166186649
 30
0.0
 42
0.999999988280428
  0
VERTEX
  5
3952
  8
0
  6
CONTINUOUS
 10
-393.61371770778862
 20
410.45557704022139
 30
0.0
  0
SEQEND
  5
3953
  8
0
  6
CONTINUOUS
  0
POLYLINE
  5
271C
  8
0
  6
CONTINUOUS
 66
     1
 10
0.0
 20
0.0
 30
0.0
 70
     1
  0
VERTEX
  5
3954
  8
0
  6
CONTINUOUS
 10
-392.37342798966802
 20
413.08888331734761
 30
0.0
  0
VERTEX
  5
3955
  8
0
  6
CONTINUOUS
 10
-394.10886201203931
 20
413.08888331734761
 30
0.0
 42
0.4142135623730951
  0
VERTEX
  5
3956
  8
0
  6
CONTINUOUS
 10
-394.3588843834039
 20
412.83886094598301
 30
0.0
  0
VERTEX
  5
3957
  8
0
  6
CONTINUOUS
 10
-394.3588843834039
 20
403.86719204217979
 30
0.0
 42
0.4142135623730951
  0
VERTEX
  5
3958
  8
0
  6
CONTINUOUS
 10
-394.10886201203931
 20
403.61716967081509
 30
0.0
  0
VERTEX
  5
3959
  8
0
  6
CONTINUOUS
 10
-392.37342798966802
 20
403.61716967081509
 30
0.0
 42
0.4142135623730951
  0
VERTEX
  5
395A
  8
0
  6
CONTINUOUS
 10
-392.12340561830342
 20
403.86719204217979
 30
0.0
  0
VERTEX
  5
395B
  8
0
  6
CONTINUOUS
 10
-392.12340561830342
 20
412.83886094598301
 30
0.0
 42
0.4142135623730951
  0
SEQEND
  5
395C
  8
0
  6
CONTINUOUS
  0
POLYLINE
  5
271D
  8
0
  6
CONTINUOUS
 66
     1
 10
0.0
 20
0.0
 30
0.0
 70
     1
  0
VERTEX
  5
395D
  8
0
  6
CONTINUOUS
 10
-392.88710743130969
 20
428.70002323854141
 30
0.0
  0
VERTEX
  5
395E
  8
0
  6
CONTINUOUS
 10
-390.85230034810581
 20
428.3613810607423
 30
0.0
 42
-0.9207651933220823
  0
VERTEX
  5
395F
  8
0
  6
CONTINUOUS
 10
-390.89827115398072
 20
427.80513016070279
 30
0.0
  0
VERTEX
  5
3960
  8
0
  6
CONTINUOUS
 10
-392.90845101975282
 20
427.80513016070279
 30
0.0
 42
-0.4142135623730951
  0
VERTEX
  5
3961
  8
0
  6
CONTINUOUS
 10
-393.03846265286239
 20
427.93514179381242
 30
0.0
  0
VERTEX
  5
3962
  8
0
  6
CONTINUOUS
 10
-393.03846265286222
 20
428.57177552520392
 30
0.0
 42
-0.4633830812107383
  0
SEQEND
  5
3963
  8
0
  6
CONTINUOUS
  0
POLYLINE
  5
271E
  8
0
  6
CONTINUOUS
 66
     1
 10
0.0
 20
0.0
 30
0.0
 70
     1
  0
VERTEX
  5
3964
  8
0
  6
CONTINUOUS
 10
-389.88264521666372
 20
428.70002323854141
 30
0.0
  0
VERTEX
  5
3965
  8
0
  6
CONTINUOUS
 10
-387.84783813345979
 20
428.3613810607423
 30
0.0
 42
-0.9207651933220823
  0
VERTEX
  5
3966
  8
0
  6
CONTINUOUS
 10
-387.89380893933492
 20
427.80513016070279
 30
0.0
  0
VERTEX
  5
3967
  8
0
  6
CONTINUOUS
 10
-389.90398880510679
 20
427.80513016070279
 30
0.0
 42
-0.4142135623730951
  0
VERTEX
  5
3968
  8
0
  6
CONTINUOUS
 10
-390.03400043821642
 20
427.93514179381242
 30
0.0
  0
VERTEX
  5
3969
  8
0
  6
CONTINUOUS
 10
-390.0340004382162
 20
428.57177552520392
 30
0.0
 42
-0.4633830812107383
  0
SEQEND
  5
396A
  8
0
  6
CONTINUOUS
  0
POLYLINE
  5
271F
  8
0
  6
CONTINUOUS
 66
     1
 10
0.0
 20
0.0
 30
0.0
 70
     1
  0
VERTEX
  5
396B
  8
0
  6
CONTINUOUS
 10
-386.87818300201758
 20
428.70002323854141
 30
0.0
  0
VERTEX
  5
396C
  8
0
  6
CONTINUOUS
 10
-384.84337591881382
 20
428.3613810607423
 30
0.0
 42
-0.9207651933220823
  0
VERTEX
  5
396D
  8
0
  6
CONTINUOUS
 10
-384.88934672468878
 20
427.80513016070279
 30
0.0
  0
VERTEX
  5
396E
  8
0
  6
CONTINUOUS
 10
-386.89952659046088
 20
427.80513016070279
 30
0.0
 42
-0.4142135623730951
  0
VERTEX
  5
396F
  8
0
  6
CONTINUOUS
 10
-387.0295382235704
 20
427.93514179381242
 30
0.0
  0
VERTEX
  5
3970
  8
0
  6
CONTINUOUS
 10
-387.0295382235704
 20
428.57177552520392
 30
0.0
 42
-0.4633830812107383
  0
SEQEND
  5
3971
  8
0
  6
CONTINUOUS
  0
POLYLINE
  5
2720
  8
0
  6
CONTINUOUS
 66
     1
 10
0.0
 20
0.0
 30
0.0
 70
     1
  0
VERTEX
  5
3972
  8
0
  6
CONTINUOUS
 10
-383.87410523171241
 20
428.70002323854118
 30
0.0
  0
VERTEX
  5
3973
  8
0
  6
CONTINUOUS
 10
-381.83929814850859
 20
428.36138106074202
 30
0.0
 42
-0.9207651933220823
  0
VERTEX
  5
3974
  8
0
  6
CONTINUOUS
 10
-381.8852689543836
 20
427.80513016070262
 30
0.0
  0
VERTEX
  5
3975
  8
0
  6
CONTINUOUS
 10
-383.89544882015571
 20
427.80513016070262
 30
0.0
 42
-0.4142135623730951
  0
VERTEX
  5
3976
  8
0
  6
CONTINUOUS
 10
-384.02546045326523
 20
427.93514179381219
 30
0.0
  0
VERTEX
  5
3977
  8
0
  6
CONTINUOUS
 10
-384.025460453265
 20
428.57177552520358
 30
0.0
 42
-0.4633830812107383
  0
SEQEND
  5
3978
  8
0
  6
CONTINUOUS
  0
POLYLINE
  5
2721
  8
0
  6
CONTINUOUS
 66
     1
 10
0.0
 20
0.0
 30
0.0
 70
     1
  0
VERTEX
  5
3979
  8
0
  6
CONTINUOUS
 10
-380.86964301706649
 20
428.70002323854118
 30
0.0
  0
VERTEX
  5
397A
  8
0
  6
CONTINUOUS
 10
-378.83483593386268
 20
428.36138106074208
 30
0.0
 42
-0.9207651933220823
  0
VERTEX
  5
397B
  8
0
  6
CONTINUOUS
 10
-378.88080673973758
 20
427.80513016070262
 30
0.0
  0
VERTEX
  5
397C
  8
0
  6
CONTINUOUS
 10
-380.89098660550962
 20
427.80513016070262
 30
0.0
 42
-0.4142135623730951
  0
VERTEX
  5
397D
  8
0
  6
CONTINUOUS
 10
-381.02099823861931
 20
427.93514179381231
 30
0.0
  0
VERTEX
  5
397E
  8
0
  6
CONTINUOUS
 10
-381.02099823861897
 20
428.57177552520358
 30
0.0
 42
-0.4633830812107383
  0
SEQEND
  5
397F
  8
0
  6
CONTINUOUS
  0
POLYLINE
  5
2722
  8
0
  6
CONTINUOUS
 66
     1
 10
0.0
 20
0.0
 30
0.0
 70
     1
  0
VERTEX
  5
3980
  8
0
  6
CONTINUOUS
 10
-377.86518080242041
 20
428.70002323854118
 30
0.0
  0
VERTEX
  5
3981
  8
0
  6
CONTINUOUS
 10
-375.83037371921682
 20
428.36138106074208
 30
0.0
 42
-0.9207651933220823
  0
VERTEX
  5
3982
  8
0
  6
CONTINUOUS
 10
-375.87634452509161
 20
427.80513016070262
 30
0.0
  0
VERTEX
  5
3983
  8
0
  6
CONTINUOUS
 10
-377.8865243908636
 20
427.80513016070262
 30
0.0
 42
-0.4142135623730951
  0
VERTEX
  5
3984
  8
0
  6
CONTINUOUS
 10
-378.01653602397317
 20
427.93514179381231
 30
0.0
  0
VERTEX
  5
3985
  8
0
  6
CONTINUOUS
 10
-378.01653602397312
 20
428.57177552520358
 30
0.0
 42
-0.4633830812107383
  0
SEQEND
  5
3986
  8
0
  6
CONTINUOUS
  0
POLYLINE
  5
2723
  8
0
  6
CONTINUOUS
 66
     1
 10
0.0
 20
0.0
 30
0.0
 70
     1
  0
VERTEX
  5
3987
  8
0
  6
CONTINUOUS
 10
-390.76365269066741
 20
429.2242053524688
 30
0.0
  0
VERTEX
  5
3988
  8
0
  6
CONTINUOUS
 10
-392.79845977387112
 20
429.56284753026802
 30
0.0
 42
-0.9207651933220823
  0
VERTEX
  5
3989
  8
0
  6
CONTINUOUS
 10
-392.75248896799621
 20
430.11909843030759
 30
0.0
  0
VERTEX
  5
398A
  8
0
  6
CONTINUOUS
 10
-390.74230910222423
 20
430.11909843030759
 30
0.0
 42
-0.4142135623730951
  0
VERTEX
  5
398B
  8
0
  6
CONTINUOUS
 10
-390.61229746911471
 20
429.98908679719801
 30
0.0
  0
VERTEX
  5
398C
  8
0
  6
CONTINUOUS
 10
-390.61229746911482
 20
429.35245306580651
 30
0.0
 42
-0.4633830812107383
  0
SEQEND
  5
398D
  8
0
  6
CONTINUOUS
  0
POLYLINE
  5
2724
  8
0
  6
CONTINUOUS
 66
     1
 10
0.0
 20
0.0
 30
0.0
 70
     1
  0
VERTEX
  5
398E
  8
0
  6
CONTINUOUS
 10
-387.75919047602139
 20
429.2242053524688
 30
0.0
  0
VERTEX
  5
398F
  8
0
  6
CONTINUOUS
 10
-389.79399755922532
 20
429.56284753026802
 30
0.0
 42
-0.9207651933220823
  0
VERTEX
  5
3990
  8
0
  6
CONTINUOUS
 10
-389.74802675335019
 20
430.11909843030759
 30
0.0
  0
VERTEX
  5
3991
  8
0
  6
CONTINUOUS
 10
-387.7378468875782
 20
430.11909843030759
 30
0.0
 42
-0.4142135623730951
  0
VERTEX
  5
3992
  8
0
  6
CONTINUOUS
 10
-387.60783525446868
 20
429.98908679719801
 30
0.0
  0
VERTEX
  5
3993
  8
0
  6
CONTINUOUS
 10
-387.60783525446891
 20
429.35245306580651
 30
0.0
 42
-0.4633830812107383
  0
SEQEND
  5
3994
  8
0
  6
CONTINUOUS
  0
POLYLINE
  5
2725
  8
0
  6
CONTINUOUS
 66
     1
 10
0.0
 20
0.0
 30
0.0
 70
     1
  0
VERTEX
  5
3995
  8
0
  6
CONTINUOUS
 10
-384.75472826137548
 20
429.2242053524688
 30
0.0
  0
VERTEX
  5
3996
  8
0
  6
CONTINUOUS
 10
-386.78953534457929
 20
429.56284753026802
 30
0.0
 42
-0.9207651933220823
  0
VERTEX
  5
3997
  8
0
  6
CONTINUOUS
 10
-386.74356453870422
 20
430.11909843030759
 30
0.0
  0
VERTEX
  5
3998
  8
0
  6
CONTINUOUS
 10
-384.73338467293217
 20
430.11909843030759
 30
0.0
 42
-0.4142135623730951
  0
VERTEX
  5
3999
  8
0
  6
CONTINUOUS
 10
-384.6033730398226
 20
429.98908679719801
 30
0.0
  0
VERTEX
  5
399A
  8
0
  6
CONTINUOUS
 10
-384.60337303982283
 20
429.35245306580651
 30
0.0
 42
-0.4633830812107383
  0
SEQEND
  5
399B
  8
0
  6
CONTINUOUS
  0
POLYLINE
  5
2726
  8
0
  6
CONTINUOUS
 66
     1
 10
0.0
 20
0.0
 30
0.0
 70
     1
  0
VERTEX
  5
399C
  8
0
  6
CONTINUOUS
 10
-381.75065049107019
 20
429.22420535246869
 30
0.0
  0
VERTEX
  5
399D
  8
0
  6
CONTINUOUS
 10
-383.78545757427412
 20
429.56284753026762
 30
0.0
 42
-0.9207651933220823
  0
VERTEX
  5
399E
  8
0
  6
CONTINUOUS
 10
-383.7394867683991
 20
430.1190984303073
 30
0.0
  0
VERTEX
  5
399F
  8
0
  6
CONTINUOUS
 10
-381.729306902627
 20
430.1190984303073
 30
0.0
 42
-0.4142135623730951
  0
VERTEX
  5
39A0
  8
0
  6
CONTINUOUS
 10
-381.59929526951743
 20
429.98908679719767
 30
0.0
  0
VERTEX
  5
39A1
  8
0
  6
CONTINUOUS
 10
-381.59929526951748
 20
429.35245306580617
 30
0.0
 42
-0.4633830812107383
  0
SEQEND
  5
39A2
  8
0
  6
CONTINUOUS
  0
POLYLINE
  5
2727
  8
0
  6
CONTINUOUS
 66
     1
 10
0.0
 20
0.0
 30
0.0
 70
     1
  0
VERTEX
  5
39A3
  8
0
  6
CONTINUOUS
 10
-378.74618827642422
 20
429.22420535246869
 30
0.0
  0
VERTEX
  5
39A4
  8
0
  6
CONTINUOUS
 10
-380.78099535962798
 20
429.56284753026779
 30
0.0
 42
-0.9207651933220823
  0
VERTEX
  5
39A5
  8
0
  6
CONTINUOUS
 10
-380.73502455375308
 20
430.11909843030742
 30
0.0
  0
VERTEX
  5
39A6
  8
0
  6
CONTINUOUS
 10
-378.72484468798109
 20
430.11909843030742
 30
0.0
 42
-0.4142135623730951
  0
VERTEX
  5
39A7
  8
0
  6
CONTINUOUS
 10
-378.5948330548714
 20
429.98908679719801
 30
0.0
  0
VERTEX
  5
39A8
  8
0
  6
CONTINUOUS
 10
-378.59483305487157
 20
429.35245306580629
 30
0.0
 42
-0.4633830812107383
  0
SEQEND
  5
39A9
  8
0
  6
CONTINUOUS
  0
POLYLINE
  5
2728
  8
0
  6
CONTINUOUS
 66
     1
 10
0.0
 20
0.0
 30
0.0
 70
     1
  0
VERTEX
  5
39AA
  8
0
  6
CONTINUOUS
 10
-375.74172606177842
 20
429.22420535246869
 30
0.0
  0
VERTEX
  5
39AB
  8
0
  6
CONTINUOUS
 10
-377.77653314498201
 20
429.56284753026779
 30
0.0
 42
-0.9207651933220823
  0
VERTEX
  5
39AC
  8
0
  6
CONTINUOUS
 10
-377.73056233910722
 20
430.11909843030742
 30
0.0
  0
VERTEX
  5
39AD
  8
0
  6
CONTINUOUS
 10
-375.72038247333512
 20
430.11909843030742
 30
0.0
 42
-0.4142135623730951
  0
VERTEX
  5
39AE
  8
0
  6
CONTINUOUS
 10
-375.59037084022538
 20
429.98908679719801
 30
0.0
  0
VERTEX
  5
39AF
  8
0
  6
CONTINUOUS
 10
-375.59037084022572
 20
429.35245306580629
 30
0.0
 42
-0.4633830812107383
  0
SEQEND
  5
39B0
  8
0
  6
CONTINUOUS
  0
POLYLINE
  5
272B
  8
0
  6
CONTINUOUS
 66
     1
 10
0.0
 20
0.0
 30
0.0
 70
     1
  0
VERTEX
  5
39B1
  8
0
  6
CONTINUOUS
 10
-377.62832646446498
 20
431.52329224969452
 30
0.0
  0
VERTEX
  5
39B2
  8
0
  6
CONTINUOUS
 10
-375.59351938126122
 20
431.18465007189531
 30
0.0
 42
-0.9207651933220823
  0
VERTEX
  5
39B3
  8
0
  6
CONTINUOUS
 10
-375.63949018713618
 20
430.62839917185568
 30
0.0
  0
VERTEX
  5
39B4
  8
0
  6
CONTINUOUS
 10
-377.64967005290822
 20
430.62839917185568
 30
0.0
 42
-0.4142135623730951
  0
VERTEX
  5
39B5
  8
0
  6
CONTINUOUS
 10
-377.7796816860178
 20
430.75841080496531
 30
0.0
  0
VERTEX
  5
39B6
  8
0
  6
CONTINUOUS
 10
-377.7796816860178
 20
431.39504453635681
 30
0.0
 42
-0.4633830812107383
  0
SEQEND
  5
39B7
  8
0
  6
CONTINUOUS
  0
POLYLINE
  5
272C
  8
0
  6
CONTINUOUS
 66
     1
 10
0.0
 20
0.0
 30
0.0
 70
     1
  0
VERTEX
  5
39B8
  8
0
  6
CONTINUOUS
 10
-380.632788679111
 20
431.52329224969452
 30
0.0
  0
VERTEX
  5
39B9
  8
0
  6
CONTINUOUS
 10
-378.5979815959073
 20
431.18465007189531
 30
0.0
 42
-0.9207651933220823
  0
VERTEX
  5
39BA
  8
0
  6
CONTINUOUS
 10
-378.6439524017822
 20
430.62839917185568
 30
0.0
  0
VERTEX
  5
39BB
  8
0
  6
CONTINUOUS
 10
-380.65413226755419
 20
430.62839917185568
 30
0.0
 42
-0.4142135623730951
  0
VERTEX
  5
39BC
  8
0
  6
CONTINUOUS
 10
-380.78414390066382
 20
430.75841080496531
 30
0.0
  0
VERTEX
  5
39BD
  8
0
  6
CONTINUOUS
 10
-380.78414390066371
 20
431.39504453635681
 30
0.0
 42
-0.4633830812107383
  0
SEQEND
  5
39BE
  8
0
  6
CONTINUOUS
  0
POLYLINE
  5
2732
  8
0
  6
CONTINUOUS
 66
     1
 10
0.0
 20
0.0
 30
0.0
 70
     1
  0
VERTEX
  5
39BF
  8
0
  6
CONTINUOUS
 10
-365.87355023254167
 20
407.91794035082478
 30
0.0
 42
0.4241263572826678
  0
VERTEX
  5
39C0
  8
0
  6
CONTINUOUS
 10
-366.13200310987253
 20
408.16782054762552
 30
0.0
  0
VERTEX
  5
39C1
  8
0
  6
CONTINUOUS
 10
-367.04058378958871
 20
408.1371666785397
 30
0.0
  0
VERTEX
  5
39C2
  8
0
  6
CONTINUOUS
 10
-367.95759497527098
 20
408.1371666785397
 30
0.0
 42
0.4142135623730284
  0
VERTEX
  5
39C3
  8
0
  6
CONTINUOUS
 10
-368.2076173466358
 20
407.88714430717511
 30
0.0
  0
VERTEX
  5
39C4
  8
0
  6
CONTINUOUS
 10
-368.2078229036826
 20
405.4245894608045
 30
0.0
 42
0.4142135623731618
  0
VERTEX
  5
39C5
  8
0
  6
CONTINUOUS
 10
-367.95780053231812
 20
405.17456708943968
 30
0.0
  0
VERTEX
  5
39C6
  8
0
  6
CONTINUOUS
 10
-367.04078934663568
 20
405.17456708943962
 30
0.0
  0
VERTEX
  5
39C7
  8
0
  6
CONTINUOUS
 10
-366.1322086669195
 20
405.14391322035368
 30
0.0
 42
0.4241263572826768
  0
VERTEX
  5
39C8
  8
0
  6
CONTINUOUS
 10
-365.87375578958859
 20
405.39379341715039
 30
0.0
  0
SEQEND
  5
39C9
  8
0
  6
CONTINUOUS
  0
POLYLINE
  5
2733
  8
0
  6
CONTINUOUS
 66
     1
 10
0.0
 20
0.0
 30
0.0
 70
     1
  0
VERTEX
  5
39CA
  8
0
  6
CONTINUOUS
 10
-365.87355023254167
 20
411.59234611712481
 30
0.0
 42
0.4241263572826678
  0
VERTEX
  5
39CB
  8
0
  6
CONTINUOUS
 10
-366.13200310987253
 20
411.84222631392549
 30
0.0
  0
VERTEX
  5
39CC
  8
0
  6
CONTINUOUS
 10
-367.04058378958871
 20
411.81157244483973
 30
0.0
  0
VERTEX
  5
39CD
  8
0
  6
CONTINUOUS
 10
-367.95759497527098
 20
411.81157244483973
 30
0.0
 42
0.4142135623730951
  0
VERTEX
  5
39CE
  8
0
  6
CONTINUOUS
 10
-368.20761734663552
 20
411.56155007347508
 30
0.0
  0
VERTEX
  5
39CF
  8
0
  6
CONTINUOUS
 10
-368.2076173466358
 20
409.09899522710452
 30
0.0
 42
0.4142135623730951
  0
VERTEX
  5
39D0
  8
0
  6
CONTINUOUS
 10
-367.95759497527098
 20
408.8489728557397
 30
0.0
  0
VERTEX
  5
39D1
  8
0
  6
CONTINUOUS
 10
-367.04058378958871
 20
408.84897285573959
 30
0.0
  0
VERTEX
  5
39D2
  8
0
  6
CONTINUOUS
 10
-366.13200310987253
 20
408.81831898665382
 30
0.0
 42
0.4241263572826768
  0
VERTEX
  5
39D3
  8
0
  6
CONTINUOUS
 10
-365.8735502325415
 20
409.06819918345047
 30
0.0
  0
SEQEND
  5
39D4
  8
0
  6
CONTINUOUS
  0
POLYLINE
  5
2740
  8
0
  6
CONTINUOUS
 66
     1
 10
0.0
 20
0.0
 30
0.0
 70
     1
  0
VERTEX
  5
39D5
  8
0
  6
CONTINUOUS
 10
-417.48032456750911
 20
425.28972713610028
 30
0.0
 42
-0.9999999882829795
  0
VERTEX
  5
39D6
  8
0
  6
CONTINUOUS
 10
-417.48032456751122
 20
425.66976114057462
 30
0.0
  0
VERTEX
  5
39D7
  8
0
  6
CONTINUOUS
 10
-417.3334461625405
 20
425.81663954554517
 30
0.0
 42
-0.9999999882800951
  0
VERTEX
  5
39D8
  8
0
  6
CONTINUOUS
 10
-416.95341215806639
 20
425.81663954554369
 30
0.0
  0
VERTEX
  5
39D9
  8
0
  6
CONTINUOUS
 10
-414.54931208001841
 20
423.4125394674935
 30
0.0
 42
-0.9999999882829795
  0
VERTEX
  5
39DA
  8
0
  6
CONTINUOUS
 10
-414.54931208001659
 20
423.03250546301922
 30
0.0
  0
VERTEX
  5
39DB
  8
0
  6
CONTINUOUS
 10
-414.69619048498521
 20
422.88562705805259
 30
0.0
 42
-0.9999999882800951
  0
VERTEX
  5
39DC
  8
0
  6
CONTINUOUS
 10
-415.07622448945972
 20
422.88562705805413
 30
0.0
  0
SEQEND
  5
39DD
  8
0
  6
CONTINUOUS
  0
POLYLINE
  5
2741
  8
0
  6
CONTINUOUS
 66
     1
 10
0.0
 20
0.0
 30
0.0
 70
     1
  0
VERTEX
  5
39DE
  8
0
  6
CONTINUOUS
 10
-414.54931208001841
 20
419.91059927708881
 30
0.0
  0
VERTEX
  5
39DF
  8
0
  6
CONTINUOUS
 10
-416.95341215806621
 20
417.50649919903719
 30
0.0
 42
-0.9999999882800951
  0
VERTEX
  5
39E0
  8
0
  6
CONTINUOUS
 10
-417.3334461625405
 20
417.50649919903873
 30
0.0
  0
VERTEX
  5
39E1
  8
0
  6
CONTINUOUS
 10
-417.48032456751122
 20
417.65337760400399
 30
0.0
 42
-0.9999999882829795
  0
VERTEX
  5
39E2
  8
0
  6
CONTINUOUS
 10
-417.48032456750911
 20
418.03341160847827
 30
0.0
  0
VERTEX
  5
39E3
  8
0
  6
CONTINUOUS
 10
-415.07622448945961
 20
420.43751168653
 30
0.0
 42
-0.9999999882800951
  0
VERTEX
  5
39E4
  8
0
  6
CONTINUOUS
 10
-414.69619048498538
 20
420.43751168652841
 30
0.0
  0
VERTEX
  5
39E5
  8
0
  6
CONTINUOUS
 10
-414.54931208001841
 20
420.2906332815632
 30
0.0
 42
-0.9999999882829795
  0
SEQEND
  5
39E6
  8
0
  6
CONTINUOUS
  0
POLYLINE
  5
2742
  8
0
  6
CONTINUOUS
 66
     1
 10
0.0
 20
0.0
 30
0.0
 70
     1
  0
VERTEX
  5
39E7
  8
0
  6
CONTINUOUS
 10
-421.06679836065319
 20
419.96161390445252
 30
0.0
  0
VERTEX
  5
39E8
  8
0
  6
CONTINUOUS
 10
-421.06679836065319
 20
423.3615248401299
 30
0.0
 42
-0.999999988280428
  0
VERTEX
  5
39E9
  8
0
  6
CONTINUOUS
 10
-420.79807373900769
 20
423.63024946177461
 30
0.0
  0
VERTEX
  5
39EA
  8
0
  6
CONTINUOUS
 10
-420.15431492860648
 20
423.63024946177461
 30
0.0
 42
-0.999999988280428
  0
VERTEX
  5
39EB
  8
0
  6
CONTINUOUS
 10
-419.88559030696177
 20
423.36152484012968
 30
0.0
  0
VERTEX
  5
39EC
  8
0
  6
CONTINUOUS
 10
-419.88559030696177
 20
419.96161390445252
 30
0.0
 42
-0.9999999882804278
  0
VERTEX
  5
39ED
  8
0
  6
CONTINUOUS
 10
-420.15431492860722
 20
419.69288928280389
 30
0.0
  0
VERTEX
  5
39EE
  8
0
  6
CONTINUOUS
 10
-420.7980737390082
 20
419.69288928280378
 30
0.0
 42
-0.999999988280428
  0
SEQEND
  5
39EF
  8
0
  6
CONTINUOUS
  0
POLYLINE
  5
2743
  8
0
  6
CONTINUOUS
 66
     1
 10
0.0
 20
0.0
 30
0.0
 70
     1
  0
VERTEX
  5
39F0
  8
0
  6
CONTINUOUS
 10
-418.5606686067382
 20
413.78684901434758
 30
0.0
 42
0.4142135623730951
  0
VERTEX
  5
39F1
  8
0
  6
CONTINUOUS
 10
-418.3106462353735
 20
414.036871385712
 30
0.0
  0
VERTEX
  5
39F2
  8
0
  6
CONTINUOUS
 10
-418.3106462353735
 20
414.7772617134097
 30
0.0
 42
0.4054988976350948
  0
VERTEX
  5
39F3
  8
0
  6
CONTINUOUS
 10
-418.55320776422599
 20
415.02717274160119
 30
0.0
  0
VERTEX
  5
39F4
  8
0
  6
CONTINUOUS
 10
-420.01467100458473
 20
415.07080325743613
 30
0.0
 42
-0.9851876673895548
  0
VERTEX
  5
39F5
  8
0
  6
CONTINUOUS
 10
-420.2793263248588
 20
415.34347750846041
 30
0.0
  0
VERTEX
  5
39F6
  8
0
  6
CONTINUOUS
 10
-420.2793263248588
 20
415.48680448218818
 30
0.0
 42
-0.9999999882803711
  0
VERTEX
  5
39F7
  8
0
  6
CONTINUOUS
 10
-420.01060170321369
 20
415.75552910383271
 30
0.0
  0
VERTEX
  5
39F8
  8
0
  6
CONTINUOUS
 10
-412.65462833828173
 20
415.75552910383283
 30
0.0
 42
0.4142135623730284
  0
VERTEX
  5
39F9
  8
0
  6
CONTINUOUS
 10
-412.40460596691707
 20
416.00555147519759
 30
0.0
  0
VERTEX
  5
39FA
  8
0
  6
CONTINUOUS
 10
-412.4046059669169
 20
427.31758726938102
 30
0.0
 42
0.4142135623730951
  0
VERTEX
  5
39FB
  8
0
  6
CONTINUOUS
 10
-412.65462833828173
 20
427.56760964074562
 30
0.0
  0
VERTEX
  5
39FC
  8
0
  6
CONTINUOUS
 10
-421.99798404297968
 20
427.56760964074562
 30
0.0
 42
0.4142135623730951
  0
VERTEX
  5
39FD
  8
0
  6
CONTINUOUS
 10
-422.24800641434439
 20
427.31758726938102
 30
0.0
  0
VERTEX
  5
39FE
  8
0
  6
CONTINUOUS
 10
-422.2480064143445
 20
414.036871385712
 30
0.0
 42
0.4142135623730951
  0
VERTEX
  5
39FF
  8
0
  6
CONTINUOUS
 10
-421.99798404297968
 20
413.78684901434758
 30
0.0
  0
SEQEND
  5
3A00
  8
0
  6
CONTINUOUS
  0
POLYLINE
  5
2744
  8
0
  6
CONTINUOUS
 66
     1
 10
0.0
 20
0.0
 30
0.0
 70
     1
  0
VERTEX
  5
3A01
  8
0
  6
CONTINUOUS
 10
-407.04637350218189
 20
425.28972713610011
 30
0.0
 42
-0.9999999882829795
  0
VERTEX
  5
3A02
  8
0
  6
CONTINUOUS
 10
-407.04637350218388
 20
425.66976114057451
 30
0.0
  0
VERTEX
  5
3A03
  8
0
  6
CONTINUOUS
 10
-406.89949509721322
 20
425.81663954554517
 30
0.0
 42
-0.9999999882800951
  0
VERTEX
  5
3A04
  8
0
  6
CONTINUOUS
 10
-406.51946109273911
 20
425.81663954554369
 30
0.0
  0
VERTEX
  5
3A05
  8
0
  6
CONTINUOUS
 10
-404.11536101469119
 20
423.41253946749339
 30
0.0
 42
-0.9999999882829795
  0
VERTEX
  5
3A06
  8
0
  6
CONTINUOUS
 10
-404.1153610146892
 20
423.03250546301922
 30
0.0
  0
VERTEX
  5
3A07
  8
0
  6
CONTINUOUS
 10
-404.26223941965787
 20
422.88562705805242
 30
0.0
 42
-0.9999999882800951
  0
VERTEX
  5
3A08
  8
0
  6
CONTINUOUS
 10
-404.64227342413233
 20
422.88562705805401
 30
0.0
  0
SEQEND
  5
3A09
  8
0
  6
CONTINUOUS
  0
POLYLINE
  5
2745
  8
0
  6
CONTINUOUS
 66
     1
 10
0.0
 20
0.0
 30
0.0
 70
     1
  0
VERTEX
  5
3A0A
  8
0
  6
CONTINUOUS
 10
-404.11536101469119
 20
419.91059927708881
 30
0.0
  0
VERTEX
  5
3A0B
  8
0
  6
CONTINUOUS
 10
-406.51946109273882
 20
417.50649919903708
 30
0.0
 42
-0.9999999882800951
  0
VERTEX
  5
3A0C
  8
0
  6
CONTINUOUS
 10
-406.89949509721328
 20
417.5064991990385
 30
0.0
  0
VERTEX
  5
3A0D
  8
0
  6
CONTINUOUS
 10
-407.04637350218388
 20
417.65337760400388
 30
0.0
 42
-0.9999999882829795
  0
VERTEX
  5
3A0E
  8
0
  6
CONTINUOUS
 10
-407.04637350218189
 20
418.0334116084781
 30
0.0
  0
VERTEX
  5
3A0F
  8
0
  6
CONTINUOUS
 10
-404.64227342413233
 20
420.43751168652989
 30
0.0
 42
-0.9999999882800951
  0
VERTEX
  5
3A10
  8
0
  6
CONTINUOUS
 10
-404.26223941965799
 20
420.43751168652841
 30
0.0
  0
VERTEX
  5
3A11
  8
0
  6
CONTINUOUS
 10
-404.11536101469119
 20
420.29063328156309
 30
0.0
 42
-0.9999999882829795
  0
SEQEND
  5
3A12
  8
0
  6
CONTINUOUS
  0
POLYLINE
  5
2746
  8
0
  6
CONTINUOUS
 66
     1
 10
0.0
 20
0.0
 30
0.0
 70
     1
  0
VERTEX
  5
3A13
  8
0
  6
CONTINUOUS
 10
-410.6328472953258
 20
419.96161390445241
 30
0.0
  0
VERTEX
  5
3A14
  8
0
  6
CONTINUOUS
 10
-410.6328472953258
 20
423.36152484012979
 30
0.0
 42
-0.999999988280428
  0
VERTEX
  5
3A15
  8
0
  6
CONTINUOUS
 10
-410.36412267368058
 20
423.6302494617745
 30
0.0
  0
VERTEX
  5
3A16
  8
0
  6
CONTINUOUS
 10
-409.72036386327932
 20
423.63024946177461
 30
0.0
 42
-0.999999988280428
  0
VERTEX
  5
3A17
  8
0
  6
CONTINUOUS
 10
-409.45163924163461
 20
423.3615248401295
 30
0.0
  0
VERTEX
  5
3A18
  8
0
  6
CONTINUOUS
 10
-409.45163924163461
 20
419.96161390445241
 30
0.0
 42
-0.9999999882804278
  0
VERTEX
  5
3A19
  8
0
  6
CONTINUOUS
 10
-409.72036386328
 20
419.69288928280378
 30
0.0
  0
VERTEX
  5
3A1A
  8
0
  6
CONTINUOUS
 10
-410.36412267368098
 20
419.69288928280372
 30
0.0
 42
-0.999999988280428
  0
SEQEND
  5
3A1B
  8
0
  6
CONTINUOUS
  0
POLYLINE
  5
2747
  8
0
  6
CONTINUOUS
 66
     1
 10
0.0
 20
0.0
 30
0.0
 70
     1
  0
VERTEX
  5
3A1C
  8
0
  6
CONTINUOUS
 10
-408.12671754141093
 20
413.78684901434741
 30
0.0
 42
0.4142135623730951
  0
VERTEX
  5
3A1D
  8
0
  6
CONTINUOUS
 10
-407.87669517004628
 20
414.03687138571189
 30
0.0
  0
VERTEX
  5
3A1E
  8
0
  6
CONTINUOUS
 10
-407.87669517004628
 20
414.77726171340947
 30
0.0
 42
0.4054988976350948
  0
VERTEX
  5
3A1F
  8
0
  6
CONTINUOUS
 10
-408.11925669889882
 20
415.02717274160108
 30
0.0
  0
VERTEX
  5
3A20
  8
0
  6
CONTINUOUS
 10
-409.58071993925739
 20
415.0708032574359
 30
0.0
 42
-0.9851876673895548
  0
VERTEX
  5
3A21
  8
0
  6
CONTINUOUS
 10
-409.84537525953158
 20
415.34347750846041
 30
0.0
  0
VERTEX
  5
3A22
  8
0
  6
CONTINUOUS
 10
-409.84537525953158
 20
415.48680448218801
 30
0.0
 42
-0.9999999882803711
  0
VERTEX
  5
3A23
  8
0
  6
CONTINUOUS
 10
-409.5766506378863
 20
415.75552910383271
 30
0.0
  0
VERTEX
  5
3A24
  8
0
  6
CONTINUOUS
 10
-402.22067727295439
 20
415.75552910383271
 30
0.0
 42
0.4142135623730284
  0
VERTEX
  5
3A25
  8
0
  6
CONTINUOUS
 10
-401.9706549015898
 20
416.00555147519742
 30
0.0
  0
VERTEX
  5
3A26
  8
0
  6
CONTINUOUS
 10
-401.97065490158963
 20
427.31758726938079
 30
0.0
 42
0.4142135623730951
  0
VERTEX
  5
3A27
  8
0
  6
CONTINUOUS
 10
-402.22067727295439
 20
427.5676096407455
 30
0.0
  0
VERTEX
  5
3A28
  8
0
  6
CONTINUOUS
 10
-411.5640329776524
 20
427.5676096407455
 30
0.0
 42
0.4142135623730951
  0
VERTEX
  5
3A29
  8
0
  6
CONTINUOUS
 10
-411.814055349017
 20
427.31758726938079
 30
0.0
  0
VERTEX
  5
3A2A
  8
0
  6
CONTINUOUS
 10
-411.81405534901722
 20
414.03687138571189
 30
0.0
 42
0.4142135623730951
  0
VERTEX
  5
3A2B
  8
0
  6
CONTINUOUS
 10
-411.5640329776524
 20
413.78684901434741
 30
0.0
  0
SEQEND
  5
3A2C
  8
0
  6
CONTINUOUS
  0
POLYLINE
  5
27B5
  8
0
  6
CONTINUOUS
 66
     1
 10
0.0
 20
0.0
 30
0.0
 70
     1
  0
VERTEX
  5
3A2D
  8
0
  6
CONTINUOUS
 10
-391.13599181964622
 20
425.28972713610028
 30
0.0
 42
-0.9999999882829795
  0
VERTEX
  5
3A2E
  8
0
  6
CONTINUOUS
 10
-391.13599181964832
 20
425.66976114057462
 30
0.0
  0
VERTEX
  5
3A2F
  8
0
  6
CONTINUOUS
 10
-390.98911341467772
 20
425.81663954554517
 30
0.0
 42
-0.9999999882800951
  0
VERTEX
  5
3A30
  8
0
  6
CONTINUOUS
 10
-390.60907941020338
 20
425.81663954554369
 30
0.0
  0
VERTEX
  5
3A31
  8
0
  6
CONTINUOUS
 10
-388.20497933215552
 20
423.4125394674935
 30
0.0
 42
-0.9999999882829795
  0
VERTEX
  5
3A32
  8
0
  6
CONTINUOUS
 10
-388.20497933215381
 20
423.03250546301922
 30
0.0
  0
VERTEX
  5
3A33
  8
0
  6
CONTINUOUS
 10
-388.35185773712249
 20
422.88562705805259
 30
0.0
 42
-0.9999999882800951
  0
VERTEX
  5
3A34
  8
0
  6
CONTINUOUS
 10
-388.73189174159671
 20
422.88562705805413
 30
0.0
  0
SEQEND
  5
3A35
  8
0
  6
CONTINUOUS
  0
POLYLINE
  5
27B6
  8
0
  6
CONTINUOUS
 66
     1
 10
0.0
 20
0.0
 30
0.0
 70
     1
  0
VERTEX
  5
3A36
  8
0
  6
CONTINUOUS
 10
-388.20497933215552
 20
419.91059927708881
 30
0.0
  0
VERTEX
  5
3A37
  8
0
  6
CONTINUOUS
 10
-390.60907941020332
 20
417.50649919903719
 30
0.0
 42
-0.9999999882800951
  0
VERTEX
  5
3A38
  8
0
  6
CONTINUOUS
 10
-390.98911341467777
 20
417.50649919903873
 30
0.0
  0
VERTEX
  5
3A39
  8
0
  6
CONTINUOUS
 10
-391.13599181964832
 20
417.65337760400399
 30
0.0
 42
-0.9999999882829795
  0
VERTEX
  5
3A3A
  8
0
  6
CONTINUOUS
 10
-391.13599181964622
 20
418.03341160847827
 30
0.0
  0
VERTEX
  5
3A3B
  8
0
  6
CONTINUOUS
 10
-388.73189174159671
 20
420.43751168653
 30
0.0
 42
-0.9999999882800951
  0
VERTEX
  5
3A3C
  8
0
  6
CONTINUOUS
 10
-388.35185773712249
 20
420.43751168652841
 30
0.0
  0
VERTEX
  5
3A3D
  8
0
  6
CONTINUOUS
 10
-388.20497933215552
 20
420.2906332815632
 30
0.0
 42
-0.9999999882829795
  0
SEQEND
  5
3A3E
  8
0
  6
CONTINUOUS
  0
POLYLINE
  5
27B7
  8
0
  6
CONTINUOUS
 66
     1
 10
0.0
 20
0.0
 30
0.0
 70
     1
  0
VERTEX
  5
3A3F
  8
0
  6
CONTINUOUS
 10
-394.72246561279042
 20
419.96161390445252
 30
0.0
  0
VERTEX
  5
3A40
  8
0
  6
CONTINUOUS
 10
-394.72246561279042
 20
423.3615248401299
 30
0.0
 42
-0.999999988280428
  0
VERTEX
  5
3A41
  8
0
  6
CONTINUOUS
 10
-394.45374099114491
 20
423.63024946177461
 30
0.0
  0
VERTEX
  5
3A42
  8
0
  6
CONTINUOUS
 10
-393.8099821807437
 20
423.63024946177461
 30
0.0
 42
-0.999999988280428
  0
VERTEX
  5
3A43
  8
0
  6
CONTINUOUS
 10
-393.54125755909911
 20
423.36152484012968
 30
0.0
  0
VERTEX
  5
3A44
  8
0
  6
CONTINUOUS
 10
-393.54125755909911
 20
419.96161390445252
 30
0.0
 42
-0.9999999882804278
  0
VERTEX
  5
3A45
  8
0
  6
CONTINUOUS
 10
-393.80998218074433
 20
419.69288928280389
 30
0.0
  0
VERTEX
  5
3A46
  8
0
  6
CONTINUOUS
 10
-394.45374099114542
 20
419.69288928280378
 30
0.0
 42
-0.999999988280428
  0
SEQEND
  5
3A47
  8
0
  6
CONTINUOUS
  0
POLYLINE
  5
27B8
  8
0
  6
CONTINUOUS
 66
     1
 10
0.0
 20
0.0
 30
0.0
 70
     1
  0
VERTEX
  5
3A48
  8
0
  6
CONTINUOUS
 10
-392.21633585887531
 20
413.78684901434758
 30
0.0
 42
0.4142135623730951
  0
VERTEX
  5
3A49
  8
0
  6
CONTINUOUS
 10
-391.9663134875106
 20
414.036871385712
 30
0.0
  0
VERTEX
  5
3A4A
  8
0
  6
CONTINUOUS
 10
-391.9663134875106
 20
414.7772617134097
 30
0.0
 42
0.4054988976350948
  0
VERTEX
  5
3A4B
  8
0
  6
CONTINUOUS
 10
-392.20887501636332
 20
415.02717274160119
 30
0.0
  0
VERTEX
  5
3A4C
  8
0
  6
CONTINUOUS
 10
-393.67033825672189
 20
415.07080325743613
 30
0.0
 42
-0.9851876673895548
  0
VERTEX
  5
3A4D
  8
0
  6
CONTINUOUS
 10
-393.93499357699608
 20
415.34347750846041
 30
0.0
  0
VERTEX
  5
3A4E
  8
0
  6
CONTINUOUS
 10
-393.93499357699608
 20
415.48680448218818
 30
0.0
 42
-0.9999999882803711
  0
VERTEX
  5
3A4F
  8
0
  6
CONTINUOUS
 10
-393.66626895535069
 20
415.75552910383271
 30
0.0
  0
VERTEX
  5
3A50
  8
0
  6
CONTINUOUS
 10
-386.31029559041889
 20
415.75552910383283
 30
0.0
 42
0.4142135623730284
  0
VERTEX
  5
3A51
  8
0
  6
CONTINUOUS
 10
-386.06027321905441
 20
416.00555147519759
 30
0.0
  0
VERTEX
  5
3A52
  8
0
  6
CONTINUOUS
 10
-386.06027321905418
 20
427.31758726938102
 30
0.0
 42
0.4142135623730951
  0
VERTEX
  5
3A53
  8
0
  6
CONTINUOUS
 10
-386.31029559041889
 20
427.56760964074562
 30
0.0
  0
VERTEX
  5
3A54
  8
0
  6
CONTINUOUS
 10
-395.65365129511667
 20
427.56760964074562
 30
0.0
 42
0.4142135623730951
  0
VERTEX
  5
3A55
  8
0
  6
CONTINUOUS
 10
-395.90367366648138
 20
427.31758726938102
 30
0.0
  0
VERTEX
  5
3A56
  8
0
  6
CONTINUOUS
 10
-395.90367366648161
 20
414.036871385712
 30
0.0
 42
0.4142135623730951
  0
VERTEX
  5
3A57
  8
0
  6
CONTINUOUS
 10
-395.65365129511667
 20
413.78684901434758
 30
0.0
  0
SEQEND
  5
3A58
  8
0
  6
CONTINUOUS
  0
POLYLINE
  5
27B9
  8
0
  6
CONTINUOUS
 66
     1
 10
0.0
 20
0.0
 30
0.0
 70
     1
  0
VERTEX
  5
3A59
  8
0
  6
CONTINUOUS
 10
-380.702040754319
 20
425.28972713610011
 30
0.0
 42
-0.9999999882829795
  0
VERTEX
  5
3A5A
  8
0
  6
CONTINUOUS
 10
-380.70204075432099
 20
425.66976114057451
 30
0.0
  0
VERTEX
  5
3A5B
  8
0
  6
CONTINUOUS
 10
-380.55516234935033
 20
425.81663954554517
 30
0.0
 42
-0.9999999882800951
  0
VERTEX
  5
3A5C
  8
0
  6
CONTINUOUS
 10
-380.17512834487621
 20
425.81663954554369
 30
0.0
  0
VERTEX
  5
3A5D
  8
0
  6
CONTINUOUS
 10
-377.7710282668283
 20
423.41253946749339
 30
0.0
 42
-0.9999999882829795
  0
VERTEX
  5
3A5E
  8
0
  6
CONTINUOUS
 10
-377.77102826682648
 20
423.03250546301922
 30
0.0
  0
VERTEX
  5
3A5F
  8
0
  6
CONTINUOUS
 10
-377.91790667179521
 20
422.88562705805242
 30
0.0
 42
-0.9999999882800951
  0
VERTEX
  5
3A60
  8
0
  6
CONTINUOUS
 10
-378.2979406762696
 20
422.88562705805401
 30
0.0
  0
SEQEND
  5
3A61
  8
0
  6
CONTINUOUS
  0
POLYLINE
  5
27BA
  8
0
  6
CONTINUOUS
 66
     1
 10
0.0
 20
0.0
 30
0.0
 70
     1
  0
VERTEX
  5
3A62
  8
0
  6
CONTINUOUS
 10
-377.7710282668283
 20
419.91059927708881
 30
0.0
  0
VERTEX
  5
3A63
  8
0
  6
CONTINUOUS
 10
-380.17512834487599
 20
417.50649919903708
 30
0.0
 42
-0.9999999882800951
  0
VERTEX
  5
3A64
  8
0
  6
CONTINUOUS
 10
-380.55516234935038
 20
417.5064991990385
 30
0.0
  0
VERTEX
  5
3A65
  8
0
  6
CONTINUOUS
 10
-380.70204075432099
 20
417.65337760400388
 30
0.0
 42
-0.9999999882829795
  0
VERTEX
  5
3A66
  8
0
  6
CONTINUOUS
 10
-380.702040754319
 20
418.0334116084781
 30
0.0
  0
VERTEX
  5
3A67
  8
0
  6
CONTINUOUS
 10
-378.29794067626921
 20
420.43751168652989
 30
0.0
 42
-0.9999999882800951
  0
VERTEX
  5
3A68
  8
0
  6
CONTINUOUS
 10
-377.91790667179532
 20
420.43751168652841
 30
0.0
  0
VERTEX
  5
3A69
  8
0
  6
CONTINUOUS
 10
-377.7710282668283
 20
420.29063328156309
 30
0.0
 42
-0.9999999882829795
  0
SEQEND
  5
3A6A
  8
0
  6
CONTINUOUS
  0
POLYLINE
  5
27BB
  8
0
  6
CONTINUOUS
 66
     1
 10
0.0
 20
0.0
 30
0.0
 70
     1
  0
VERTEX
  5
3A6B
  8
0
  6
CONTINUOUS
 10
-384.28851454746302
 20
419.96161390445241
 30
0.0
  0
VERTEX
  5
3A6C
  8
0
  6
CONTINUOUS
 10
-384.28851454746302
 20
423.36152484012979
 30
0.0
 42
-0.999999988280428
  0
VERTEX
  5
3A6D
  8
0
  6
CONTINUOUS
 10
-384.0197899258178
 20
423.6302494617745
 30
0.0
  0
VERTEX
  5
3A6E
  8
0
  6
CONTINUOUS
 10
-383.37603111541631
 20
423.63024946177461
 30
0.0
 42
-0.999999988280428
  0
VERTEX
  5
3A6F
  8
0
  6
CONTINUOUS
 10
-383.10730649377172
 20
423.3615248401295
 30
0.0
  0
VERTEX
  5
3A70
  8
0
  6
CONTINUOUS
 10
-383.10730649377172
 20
419.96161390445241
 30
0.0
 42
-0.9999999882804278
  0
VERTEX
  5
3A71
  8
0
  6
CONTINUOUS
 10
-383.37603111541699
 20
419.69288928280378
 30
0.0
  0
VERTEX
  5
3A72
  8
0
  6
CONTINUOUS
 10
-384.0197899258182
 20
419.69288928280372
 30
0.0
 42
-0.999999988280428
  0
SEQEND
  5
3A73
  8
0
  6
CONTINUOUS
  0
POLYLINE
  5
27BC
  8
0
  6
CONTINUOUS
 66
     1
 10
0.0
 20
0.0
 30
0.0
 70
     1
  0
VERTEX
  5
3A74
  8
0
  6
CONTINUOUS
 10
-381.78238479354792
 20
413.78684901434741
 30
0.0
 42
0.4142135623730951
  0
VERTEX
  5
3A75
  8
0
  6
CONTINUOUS
 10
-381.53236242218338
 20
414.03687138571189
 30
0.0
  0
VERTEX
  5
3A76
  8
0
  6
CONTINUOUS
 10
-381.53236242218333
 20
414.77726171340947
 30
0.0
 42
0.4054988976350948
  0
VERTEX
  5
3A77
  8
0
  6
CONTINUOUS
 10
-381.77492395103587
 20
415.02717274160108
 30
0.0
  0
VERTEX
  5
3A78
  8
0
  6
CONTINUOUS
 10
-383.2363871913945
 20
415.0708032574359
 30
0.0
 42
-0.9851876673895548
  0
VERTEX
  5
3A79
  8
0
  6
CONTINUOUS
 10
-383.5010425116688
 20
415.34347750846041
 30
0.0
  0
VERTEX
  5
3A7A
  8
0
  6
CONTINUOUS
 10
-383.5010425116688
 20
415.48680448218801
 30
0.0
 42
-0.9999999882803711
  0
VERTEX
  5
3A7B
  8
0
  6
CONTINUOUS
 10
-383.23231789002341
 20
415.75552910383271
 30
0.0
  0
VERTEX
  5
3A7C
  8
0
  6
CONTINUOUS
 10
-375.87634452509161
 20
415.75552910383271
 30
0.0
 42
0.4142135623730284
  0
VERTEX
  5
3A7D
  8
0
  6
CONTINUOUS
 10
-375.62632215372702
 20
416.00555147519742
 30
0.0
  0
VERTEX
  5
3A7E
  8
0
  6
CONTINUOUS
 10
-375.6263221537269
 20
427.31758726938079
 30
0.0
 42
0.4142135623730951
  0
VERTEX
  5
3A7F
  8
0
  6
CONTINUOUS
 10
-375.87634452509161
 20
427.5676096407455
 30
0.0
  0
VERTEX
  5
3A80
  8
0
  6
CONTINUOUS
 10
-385.21970022978962
 20
427.5676096407455
 30
0.0
 42
0.4142135623730951
  0
VERTEX
  5
3A81
  8
0
  6
CONTINUOUS
 10
-385.46972260115422
 20
427.31758726938079
 30
0.0
  0
VERTEX
  5
3A82
  8
0
  6
CONTINUOUS
 10
-385.46972260115427
 20
414.03687138571189
 30
0.0
 42
0.4142135623730951
  0
VERTEX
  5
3A83
  8
0
  6
CONTINUOUS
 10
-385.21970022978962
 20
413.78684901434741
 30
0.0
  0
SEQEND
  5
3A84
  8
0
  6
CONTINUOUS
  0
POLYLINE
  5
27C3
  8
0
  6
CONTINUOUS
 66
     1
 10
0.0
 20
0.0
 30
0.0
 70
     1
  0
VERTEX
  5
3A85
  8
0
  6
CONTINUOUS
 10
-364.98536645074302
 20
425.28972713610028
 30
0.0
 42
-0.9999999882829795
  0
VERTEX
  5
3A86
  8
0
  6
CONTINUOUS
 10
-364.98536645074512
 20
425.66976114057462
 30
0.0
  0
VERTEX
  5
3A87
  8
0
  6
CONTINUOUS
 10
-364.8384880457744
 20
425.81663954554517
 30
0.0
 42
-0.9999999882800951
  0
VERTEX
  5
3A88
  8
0
  6
CONTINUOUS
 10
-364.45845404130017
 20
425.81663954554369
 30
0.0
  0
VERTEX
  5
3A89
  8
0
  6
CONTINUOUS
 10
-362.05435396325231
 20
423.4125394674935
 30
0.0
 42
-0.9999999882829795
  0
VERTEX
  5
3A8A
  8
0
  6
CONTINUOUS
 10
-362.05435396325049
 20
423.03250546301922
 30
0.0
  0
VERTEX
  5
3A8B
  8
0
  6
CONTINUOUS
 10
-362.20123236821922
 20
422.88562705805259
 30
0.0
 42
-0.9999999882800951
  0
VERTEX
  5
3A8C
  8
0
  6
CONTINUOUS
 10
-362.58126637269351
 20
422.88562705805413
 30
0.0
  0
SEQEND
  5
3A8D
  8
0
  6
CONTINUOUS
  0
POLYLINE
  5
27C4
  8
0
  6
CONTINUOUS
 66
     1
 10
0.0
 20
0.0
 30
0.0
 70
     1
  0
VERTEX
  5
3A8E
  8
0
  6
CONTINUOUS
 10
-362.05435396325231
 20
419.91059927708881
 30
0.0
  0
VERTEX
  5
3A8F
  8
0
  6
CONTINUOUS
 10
-364.45845404130012
 20
417.50649919903719
 30
0.0
 42
-0.9999999882800951
  0
VERTEX
  5
3A90
  8
0
  6
CONTINUOUS
 10
-364.83848804577462
 20
417.50649919903873
 30
0.0
  0
VERTEX
  5
3A91
  8
0
  6
CONTINUOUS
 10
-364.98536645074512
 20
417.65337760400399
 30
0.0
 42
-0.9999999882829795
  0
VERTEX
  5
3A92
  8
0
  6
CONTINUOUS
 10
-364.98536645074302
 20
418.03341160847827
 30
0.0
  0
VERTEX
  5
3A93
  8
0
  6
CONTINUOUS
 10
-362.58126637269351
 20
420.43751168653
 30
0.0
 42
-0.9999999882800951
  0
VERTEX
  5
3A94
  8
0
  6
CONTINUOUS
 10
-362.20123236821922
 20
420.43751168652841
 30
0.0
  0
VERTEX
  5
3A95
  8
0
  6
CONTINUOUS
 10
-362.05435396325231
 20
420.2906332815632
 30
0.0
 42
-0.9999999882829795
  0
SEQEND
  5
3A96
  8
0
  6
CONTINUOUS
  0
POLYLINE
  5
27C5
  8
0
  6
CONTINUOUS
 66
     1
 10
0.0
 20
0.0
 30
0.0
 70
     1
  0
VERTEX
  5
3A97
  8
0
  6
CONTINUOUS
 10
-368.57184024388721
 20
419.96161390445252
 30
0.0
  0
VERTEX
  5
3A98
  8
0
  6
CONTINUOUS
 10
-368.57184024388721
 20
423.3615248401299
 30
0.0
 42
-0.999999988280428
  0
VERTEX
  5
3A99
  8
0
  6
CONTINUOUS
 10
-368.30311562224182
 20
423.63024946177461
 30
0.0
  0
VERTEX
  5
3A9A
  8
0
  6
CONTINUOUS
 10
-367.65935681184038
 20
423.63024946177461
 30
0.0
 42
-0.999999988280428
  0
VERTEX
  5
3A9B
  8
0
  6
CONTINUOUS
 10
-367.39063219019579
 20
423.36152484012968
 30
0.0
  0
VERTEX
  5
3A9C
  8
0
  6
CONTINUOUS
 10
-367.39063219019579
 20
419.96161390445252
 30
0.0
 42
-0.9999999882804278
  0
VERTEX
  5
3A9D
  8
0
  6
CONTINUOUS
 10
-367.65935681184118
 20
419.69288928280389
 30
0.0
  0
VERTEX
  5
3A9E
  8
0
  6
CONTINUOUS
 10
-368.30311562224222
 20
419.69288928280378
 30
0.0
 42
-0.999999988280428
  0
SEQEND
  5
3A9F
  8
0
  6
CONTINUOUS
  0
POLYLINE
  5
27C6
  8
0
  6
CONTINUOUS
 66
     1
 10
0.0
 20
0.0
 30
0.0
 70
     1
  0
VERTEX
  5
3AA0
  8
0
  6
CONTINUOUS
 10
-366.06571048997199
 20
413.78684901434758
 30
0.0
 42
0.4142135623730951
  0
VERTEX
  5
3AA1
  8
0
  6
CONTINUOUS
 10
-365.81568811860751
 20
414.036871385712
 30
0.0
  0
VERTEX
  5
3AA2
  8
0
  6
CONTINUOUS
 10
-365.81568811860751
 20
414.7772617134097
 30
0.0
 42
0.4054988976350948
  0
VERTEX
  5
3AA3
  8
0
  6
CONTINUOUS
 10
-366.05824964746012
 20
415.02717274160119
 30
0.0
  0
VERTEX
  5
3AA4
  8
0
  6
CONTINUOUS
 10
-367.51971288781863
 20
415.07080325743613
 30
0.0
 42
-0.9851876673895548
  0
VERTEX
  5
3AA5
  8
0
  6
CONTINUOUS
 10
-367.78436820809281
 20
415.34347750846041
 30
0.0
  0
VERTEX
  5
3AA6
  8
0
  6
CONTINUOUS
 10
-367.78436820809281
 20
415.48680448218818
 30
0.0
 42
-0.9999999882803711
  0
VERTEX
  5
3AA7
  8
0
  6
CONTINUOUS
 10
-367.51564358644748
 20
415.75552910383271
 30
0.0
  0
VERTEX
  5
3AA8
  8
0
  6
CONTINUOUS
 10
-360.15967022151568
 20
415.75552910383283
 30
0.0
 42
0.4142135623730284
  0
VERTEX
  5
3AA9
  8
0
  6
CONTINUOUS
 10
-359.90964785015098
 20
416.00555147519759
 30
0.0
  0
VERTEX
  5
3AAA
  8
0
  6
CONTINUOUS
 10
-359.90964785015092
 20
427.31758726938102
 30
0.0
 42
0.4142135623730951
  0
VERTEX
  5
3AAB
  8
0
  6
CONTINUOUS
 10
-360.15967022151568
 20
427.56760964074562
 30
0.0
  0
VERTEX
  5
3AAC
  8
0
  6
CONTINUOUS
 10
-369.50302592621358
 20
427.56760964074562
 30
0.0
 42
0.4142135623730951
  0
VERTEX
  5
3AAD
  8
0
  6
CONTINUOUS
 10
-369.75304829757829
 20
427.31758726938102
 30
0.0
  0
VERTEX
  5
3AAE
  8
0
  6
CONTINUOUS
 10
-369.7530482975784
 20
414.036871385712
 30
0.0
 42
0.4142135623730951
  0
VERTEX
  5
3AAF
  8
0
  6
CONTINUOUS
 10
-369.50302592621358
 20
413.78684901434758
 30
0.0
  0
SEQEND
  5
3AB0
  8
0
  6
CONTINUOUS
  0
POLYLINE
  5
27C7
  8
0
  6
CONTINUOUS
 66
     1
 10
0.0
 20
0.0
 30
0.0
 70
     1
  0
VERTEX
  5
3AB1
  8
0
  6
CONTINUOUS
 10
-354.55141538541591
 20
425.28972713610011
 30
0.0
 42
-0.9999999882829795
  0
VERTEX
  5
3AB2
  8
0
  6
CONTINUOUS
 10
-354.55141538541778
 20
425.66976114057451
 30
0.0
  0
VERTEX
  5
3AB3
  8
0
  6
CONTINUOUS
 10
-354.40453698044712
 20
425.81663954554517
 30
0.0
 42
-0.9999999882800951
  0
VERTEX
  5
3AB4
  8
0
  6
CONTINUOUS
 10
-354.02450297597289
 20
425.81663954554369
 30
0.0
  0
VERTEX
  5
3AB5
  8
0
  6
CONTINUOUS
 10
-351.62040289792498
 20
423.41253946749339
 30
0.0
 42
-0.9999999882829795
  0
VERTEX
  5
3AB6
  8
0
  6
CONTINUOUS
 10
-351.62040289792321
 20
423.03250546301922
 30
0.0
  0
VERTEX
  5
3AB7
  8
0
  6
CONTINUOUS
 10
-351.76728130289189
 20
422.88562705805242
 30
0.0
 42
-0.9999999882800951
  0
VERTEX
  5
3AB8
  8
0
  6
CONTINUOUS
 10
-352.14731530736628
 20
422.88562705805401
 30
0.0
  0
SEQEND
  5
3AB9
  8
0
  6
CONTINUOUS
  0
POLYLINE
  5
27C8
  8
0
  6
CONTINUOUS
 66
     1
 10
0.0
 20
0.0
 30
0.0
 70
     1
  0
VERTEX
  5
3ABA
  8
0
  6
CONTINUOUS
 10
-351.62040289792498
 20
419.91059927708881
 30
0.0
  0
VERTEX
  5
3ABB
  8
0
  6
CONTINUOUS
 10
-354.02450297597278
 20
417.50649919903708
 30
0.0
 42
-0.9999999882800951
  0
VERTEX
  5
3ABC
  8
0
  6
CONTINUOUS
 10
-354.40453698044718
 20
417.5064991990385
 30
0.0
  0
VERTEX
  5
3ABD
  8
0
  6
CONTINUOUS
 10
-354.55141538541778
 20
417.65337760400388
 30
0.0
 42
-0.9999999882829795
  0
VERTEX
  5
3ABE
  8
0
  6
CONTINUOUS
 10
-354.55141538541591
 20
418.0334116084781
 30
0.0
  0
VERTEX
  5
3ABF
  8
0
  6
CONTINUOUS
 10
-352.14731530736611
 20
420.43751168652989
 30
0.0
 42
-0.9999999882800951
  0
VERTEX
  5
3AC0
  8
0
  6
CONTINUOUS
 10
-351.767281302892
 20
420.43751168652841
 30
0.0
  0
VERTEX
  5
3AC1
  8
0
  6
CONTINUOUS
 10
-351.62040289792498
 20
420.29063328156309
 30
0.0
 42
-0.9999999882829795
  0
SEQEND
  5
3AC2
  8
0
  6
CONTINUOUS
  0
POLYLINE
  5
27C9
  8
0
  6
CONTINUOUS
 66
     1
 10
0.0
 20
0.0
 30
0.0
 70
     1
  0
VERTEX
  5
3AC3
  8
0
  6
CONTINUOUS
 10
-358.13788917855982
 20
419.96161390445241
 30
0.0
  0
VERTEX
  5
3AC4
  8
0
  6
CONTINUOUS
 10
-358.13788917855982
 20
423.36152484012979
 30
0.0
 42
-0.999999988280428
  0
VERTEX
  5
3AC5
  8
0
  6
CONTINUOUS
 10
-357.86916455691448
 20
423.6302494617745
 30
0.0
  0
VERTEX
  5
3AC6
  8
0
  6
CONTINUOUS
 10
-357.22540574651322
 20
423.63024946177461
 30
0.0
 42
-0.999999988280428
  0
VERTEX
  5
3AC7
  8
0
  6
CONTINUOUS
 10
-356.95668112486851
 20
423.3615248401295
 30
0.0
  0
VERTEX
  5
3AC8
  8
0
  6
CONTINUOUS
 10
-356.95668112486851
 20
419.96161390445241
 30
0.0
 42
-0.9999999882804278
  0
VERTEX
  5
3AC9
  8
0
  6
CONTINUOUS
 10
-357.22540574651379
 20
419.69288928280378
 30
0.0
  0
VERTEX
  5
3ACA
  8
0
  6
CONTINUOUS
 10
-357.86916455691488
 20
419.69288928280372
 30
0.0
 42
-0.999999988280428
  0
SEQEND
  5
3ACB
  8
0
  6
CONTINUOUS
  0
POLYLINE
  5
27CA
  8
0
  6
CONTINUOUS
 66
     1
 10
0.0
 20
0.0
 30
0.0
 70
     1
  0
VERTEX
  5
3ACC
  8
0
  6
CONTINUOUS
 10
-355.63175942464471
 20
413.78684901434741
 30
0.0
 42
0.4142135623730951
  0
VERTEX
  5
3ACD
  8
0
  6
CONTINUOUS
 10
-355.38173705328018
 20
414.03687138571189
 30
0.0
  0
VERTEX
  5
3ACE
  8
0
  6
CONTINUOUS
 10
-355.38173705328012
 20
414.77726171340947
 30
0.0
 42
0.4054988976350948
  0
VERTEX
  5
3ACF
  8
0
  6
CONTINUOUS
 10
-355.62429858213278
 20
415.02717274160108
 30
0.0
  0
VERTEX
  5
3AD0
  8
0
  6
CONTINUOUS
 10
-357.08576182249118
 20
415.0708032574359
 30
0.0
 42
-0.9851876673895548
  0
VERTEX
  5
3AD1
  8
0
  6
CONTINUOUS
 10
-357.35041714276548
 20
415.34347750846041
 30
0.0
  0
VERTEX
  5
3AD2
  8
0
  6
CONTINUOUS
 10
-357.35041714276548
 20
415.48680448218801
 30
0.0
 42
-0.9999999882803711
  0
VERTEX
  5
3AD3
  8
0
  6
CONTINUOUS
 10
-357.0816925211202
 20
415.75552910383271
 30
0.0
  0
VERTEX
  5
3AD4
  8
0
  6
CONTINUOUS
 10
-349.72571915618852
 20
415.75552910383271
 30
0.0
 42
0.4142135623730284
  0
VERTEX
  5
3AD5
  8
0
  6
CONTINUOUS
 10
-349.47569678482381
 20
416.00555147519742
 30
0.0
  0
VERTEX
  5
3AD6
  8
0
  6
CONTINUOUS
 10
-349.47569678482358
 20
427.31758726938079
 30
0.0
 42
0.4142135623730951
  0
VERTEX
  5
3AD7
  8
0
  6
CONTINUOUS
 10
-349.72571915618852
 20
427.5676096407455
 30
0.0
  0
VERTEX
  5
3AD8
  8
0
  6
CONTINUOUS
 10
-359.06907486088619
 20
427.5676096407455
 30
0.0
 42
0.4142135623730951
  0
VERTEX
  5
3AD9
  8
0
  6
CONTINUOUS
 10
-359.3190972322509
 20
427.31758726938079
 30
0.0
  0
VERTEX
  5
3ADA
  8
0
  6
CONTINUOUS
 10
-359.31909723225118
 20
414.03687138571189
 30
0.0
 42
0.4142135623730951
  0
VERTEX
  5
3ADB
  8
0
  6
CONTINUOUS
 10
-359.06907486088619
 20
413.78684901434741
 30
0.0
  0
SEQEND
  5
3ADC
  8
0
  6
CONTINUOUS
  0
POLYLINE
  5
27D2
  8
0
  6
CONTINUOUS
 66
     1
 10
0.0
 20
0.0
 30
0.0
 70
     1
  0
VERTEX
  5
3ADD
  8
0
  6
CONTINUOUS
 10
-360.0108828753481
 20
414.91495494116799
 30
0.0
 42
0.4142135623730951
  0
VERTEX
  5
3ADE
  8
0
  6
CONTINUOUS
 10
-360.26090524671281
 20
415.1649773125327
 30
0.0
  0
VERTEX
  5
3ADF
  8
0
  6
CONTINUOUS
 10
-363.680502562149
 20
415.1649773125327
 30
0.0
 42
0.4142135623730951
  0
VERTEX
  5
3AE0
  8
0
  6
CONTINUOUS
 10
-363.93052493351348
 20
414.91495494116799
 30
0.0
  0
VERTEX
  5
3AE1
  8
0
  6
CONTINUOUS
 10
-363.93052493351348
 20
413.16578247109072
 30
0.0
 42
-0.999999988280428
  0
VERTEX
  5
3AE2
  8
0
  6
CONTINUOUS
 10
-364.19924955515819
 20
412.89705784944539
 30
0.0
  0
VERTEX
  5
3AE3
  8
0
  6
CONTINUOUS
 10
-365.13220726013549
 20
412.89705784944539
 30
0.0
 42
0.4142135623730951
  0
VERTEX
  5
3AE4
  8
0
  6
CONTINUOUS
 10
-365.38222963150008
 20
412.64703547808091
 30
0.0
  0
VERTEX
  5
3AE5
  8
0
  6
CONTINUOUS
 10
-365.38222963150008
 20
411.71584979575368
 30
0.0
 42
-0.2339845462446278
  0
VERTEX
  5
3AE6
  8
0
  6
CONTINUOUS
 10
-365.28379562702588
 20
411.51702285289531
 30
0.0
  0
VERTEX
  5
3AE7
  8
0
  6
CONTINUOUS
 10
-365.28379562702588
 20
390.65293177216631
 30
0.0
 42
-0.2339845462446278
  0
VERTEX
  5
3AE8
  8
0
  6
CONTINUOUS
 10
-365.38222963150008
 20
390.45410482930811
 30
0.0
  0
VERTEX
  5
3AE9
  8
0
  6
CONTINUOUS
 10
-365.38222963150008
 20
389.5229191469848
 30
0.0
 42
0.4142135623730951
  0
VERTEX
  5
3AEA
  8
0
  6
CONTINUOUS
 10
-365.13220726013549
 20
389.27289677561998
 30
0.0
  0
VERTEX
  5
3AEB
  8
0
  6
CONTINUOUS
 10
-364.19924955515819
 20
389.27289677561998
 30
0.0
 42
-0.999999988280428
  0
VERTEX
  5
3AEC
  8
0
  6
CONTINUOUS
 10
-363.93052493351348
 20
389.00417215397488
 30
0.0
  0
VERTEX
  5
3AED
  8
0
  6
CONTINUOUS
 10
-363.93052493351348
 20
387.25499968389749
 30
0.0
 42
0.4142135623730951
  0
VERTEX
  5
3AEE
  8
0
  6
CONTINUOUS
 10
-363.680502562149
 20
387.00497731253279
 30
0.0
  0
VERTEX
  5
3AEF
  8
0
  6
CONTINUOUS
 10
-360.26090524671281
 20
387.00497731253279
 30
0.0
 42
0.4142135623730951
  0
VERTEX
  5
3AF0
  8
0
  6
CONTINUOUS
 10
-360.01088287534787
 20
387.25499968389749
 30
0.0
  0
VERTEX
  5
3AF1
  8
0
  6
CONTINUOUS
 10
-360.01088287534787
 20
389.00417215397522
 30
0.0
 42
-0.9999999882804278
  0
VERTEX
  5
3AF2
  8
0
  6
CONTINUOUS
 10
-359.74215825370248
 20
389.27289677561998
 30
0.0
  0
VERTEX
  5
3AF3
  8
0
  6
CONTINUOUS
 10
-358.23237728250672
 20
389.27289677561998
 30
0.0
 42
0.4142135623730951
  0
VERTEX
  5
3AF4
  8
0
  6
CONTINUOUS
 10
-357.98235491114212
 20
389.5229191469848
 30
0.0
  0
VERTEX
  5
3AF5
  8
0
  6
CONTINUOUS
 10
-357.98235491114212
 20
412.64703547808091
 30
0.0
 42
0.4142135623730951
  0
VERTEX
  5
3AF6
  8
0
  6
CONTINUOUS
 10
-358.23237728250672
 20
412.89705784944539
 30
0.0
  0
VERTEX
  5
3AF7
  8
0
  6
CONTINUOUS
 10
-359.74215825370322
 20
412.89705784944539
 30
0.0
 42
-0.999999988280428
  0
VERTEX
  5
3AF8
  8
0
  6
CONTINUOUS
 10
-360.01088287534787
 20
413.16578247109072
 30
0.0
  0
SEQEND
  5
3AF9
  8
0
  6
CONTINUOUS
  0
POLYLINE
  5
27D3
  8
0
  6
CONTINUOUS
 66
     1
 10
0.0
 20
0.0
 30
0.0
 70
     1
  0
VERTEX
  5
3AFA
  8
0
  6
CONTINUOUS
 10
-362.07456262059372
 20
387.82766746018399
 30
0.0
  0
VERTEX
  5
3AFB
  8
0
  6
CONTINUOUS
 10
-361.86684518826848
 20
387.82766746018399
 30
0.0
 42
0.999999988280428
  0
VERTEX
  5
3AFC
  8
0
  6
CONTINUOUS
 10
-361.59812056662321
 20
388.09639208182858
 30
0.0
  0
VERTEX
  5
3AFD
  8
0
  6
CONTINUOUS
 10
-361.59812056662321
 20
388.30410951415388
 30
0.0
 42
0.999999988280428
  0
VERTEX
  5
3AFE
  8
0
  6
CONTINUOUS
 10
-361.86684518826769
 20
388.5728341357991
 30
0.0
  0
VERTEX
  5
3AFF
  8
0
  6
CONTINUOUS
 10
-362.07456262059293
 20
388.57283413579893
 30
0.0
 42
0.9999999882804278
  0
VERTEX
  5
3B00
  8
0
  6
CONTINUOUS
 10
-362.3432872422382
 20
388.30410951415428
 30
0.0
  0
VERTEX
  5
3B01
  8
0
  6
CONTINUOUS
 10
-362.3432872422382
 20
388.09639208182858
 30
0.0
 42
0.999999988280428
  0
SEQEND
  5
3B02
  8
0
  6
CONTINUOUS
  0
POLYLINE
  5
27D4
  8
0
  6
CONTINUOUS
 66
     1
 10
0.0
 20
0.0
 30
0.0
 70
     1
  0
VERTEX
  5
3B03
  8
0
  6
CONTINUOUS
 10
-362.07456262059372
 20
413.59712048926639
 30
0.0
  0
VERTEX
  5
3B04
  8
0
  6
CONTINUOUS
 10
-361.86684518826848
 20
413.59712048926662
 30
0.0
 42
0.999999988280428
  0
VERTEX
  5
3B05
  8
0
  6
CONTINUOUS
 10
-361.59812056662321
 20
413.86584511091138
 30
0.0
  0
VERTEX
  5
3B06
  8
0
  6
CONTINUOUS
 10
-361.59812056662321
 20
414.07356254323628
 30
0.0
 42
0.999999988280428
  0
VERTEX
  5
3B07
  8
0
  6
CONTINUOUS
 10
-361.86684518826769
 20
414.34228716488161
 30
0.0
  0
VERTEX
  5
3B08
  8
0
  6
CONTINUOUS
 10
-362.07456262059293
 20
414.34228716488161
 30
0.0
 42
0.9999999882804278
  0
VERTEX
  5
3B09
  8
0
  6
CONTINUOUS
 10
-362.3432872422382
 20
414.0735625432369
 30
0.0
  0
VERTEX
  5
3B0A
  8
0
  6
CONTINUOUS
 10
-362.3432872422382
 20
413.86584511091138
 30
0.0
 42
0.999999988280428
  0
SEQEND
  5
3B0B
  8
0
  6
CONTINUOUS
  0
POLYLINE
  5
27D5
  8
0
  6
CONTINUOUS
 66
     1
 10
0.0
 20
0.0
 30
0.0
 70
     1
  0
VERTEX
  5
3B0C
  8
0
  6
CONTINUOUS
 10
-350.8715443772146
 20
387.25499968389749
 30
0.0
  0
VERTEX
  5
3B0D
  8
0
  6
CONTINUOUS
 10
-350.8715443772146
 20
389.00417215397539
 30
0.0
 42
-0.9999999882804278
  0
VERTEX
  5
3B0E
  8
0
  6
CONTINUOUS
 10
-350.60281975556933
 20
389.27289677561998
 30
0.0
  0
VERTEX
  5
3B0F
  8
0
  6
CONTINUOUS
 10
-349.4529135047315
 20
389.27289677562021
 30
0.0
 42
0.4142135623730951
  0
VERTEX
  5
3B10
  8
0
  6
CONTINUOUS
 10
-349.20289113336679
 20
389.5229191469848
 30
0.0
  0
VERTEX
  5
3B11
  8
0
  6
CONTINUOUS
 10
-349.20289113336679
 20
412.64703547808091
 30
0.0
 42
0.4142135623730951
  0
VERTEX
  5
3B12
  8
0
  6
CONTINUOUS
 10
-349.4529135047315
 20
412.89705784944562
 30
0.0
  0
VERTEX
  5
3B13
  8
0
  6
CONTINUOUS
 10
-350.60281975556592
 20
412.89705784944562
 30
0.0
 42
-0.999999988280428
  0
VERTEX
  5
3B14
  8
0
  6
CONTINUOUS
 10
-350.8715443772146
 20
413.16578247109072
 30
0.0
  0
VERTEX
  5
3B15
  8
0
  6
CONTINUOUS
 10
-350.8715443772146
 20
414.91495494116811
 30
0.0
 42
0.4142135623730951
  0
VERTEX
  5
3B16
  8
0
  6
CONTINUOUS
 10
-351.1215667485792
 20
415.1649773125327
 30
0.0
  0
VERTEX
  5
3B17
  8
0
  6
CONTINUOUS
 10
-354.5411640640155
 20
415.1649773125327
 30
0.0
 42
0.4142135623730951
  0
VERTEX
  5
3B18
  8
0
  6
CONTINUOUS
 10
-354.7911864353801
 20
414.91495494116811
 30
0.0
  0
VERTEX
  5
3B19
  8
0
  6
CONTINUOUS
 10
-354.7911864353801
 20
413.16578247109072
 30
0.0
 42
-0.999999988280428
  0
VERTEX
  5
3B1A
  8
0
  6
CONTINUOUS
 10
-355.05991105702498
 20
412.89705784944562
 30
0.0
  0
VERTEX
  5
3B1B
  8
0
  6
CONTINUOUS
 10
-357.14257793426179
 20
412.89705784944562
 30
0.0
 42
0.4142135623730951
  0
VERTEX
  5
3B1C
  8
0
  6
CONTINUOUS
 10
-357.39260030562639
 20
412.64703547808091
 30
0.0
  0
VERTEX
  5
3B1D
  8
0
  6
CONTINUOUS
 10
-357.39260030562639
 20
389.5229191469848
 30
0.0
 42
0.4142135623730951
  0
VERTEX
  5
3B1E
  8
0
  6
CONTINUOUS
 10
-357.14257793426179
 20
389.27289677562021
 30
0.0
  0
VERTEX
  5
3B1F
  8
0
  6
CONTINUOUS
 10
-355.05991105702537
 20
389.27289677561998
 30
0.0
 42
-0.999999988280428
  0
VERTEX
  5
3B20
  8
0
  6
CONTINUOUS
 10
-354.79118643538033
 20
389.00417215397539
 30
0.0
  0
VERTEX
  5
3B21
  8
0
  6
CONTINUOUS
 10
-354.79118643538033
 20
387.25499968389749
 30
0.0
 42
0.4142135623730951
  0
VERTEX
  5
3B22
  8
0
  6
CONTINUOUS
 10
-354.5411640640155
 20
387.0049773125329
 30
0.0
  0
VERTEX
  5
3B23
  8
0
  6
CONTINUOUS
 10
-351.1215667485792
 20
387.0049773125329
 30
0.0
 42
0.4142135623730951
  0
SEQEND
  5
3B24
  8
0
  6
CONTINUOUS
  0
POLYLINE
  5
27D6
  8
0
  6
CONTINUOUS
 66
     1
 10
0.0
 20
0.0
 30
0.0
 70
     1
  0
VERTEX
  5
3B25
  8
0
  6
CONTINUOUS
 10
-352.72750669013539
 20
387.82766746018399
 30
0.0
 42
0.999999988280428
  0
VERTEX
  5
3B26
  8
0
  6
CONTINUOUS
 10
-352.45878206848988
 20
388.09639208182858
 30
0.0
  0
VERTEX
  5
3B27
  8
0
  6
CONTINUOUS
 10
-352.45878206848988
 20
388.30410951415388
 30
0.0
 42
0.999999988280428
  0
VERTEX
  5
3B28
  8
0
  6
CONTINUOUS
 10
-352.72750669013448
 20
388.5728341357991
 30
0.0
  0
VERTEX
  5
3B29
  8
0
  6
CONTINUOUS
 10
-352.93522412245972
 20
388.5728341357991
 30
0.0
 42
0.9999999882804278
  0
VERTEX
  5
3B2A
  8
0
  6
CONTINUOUS
 10
-353.20394874410511
 20
388.30410951415428
 30
0.0
  0
VERTEX
  5
3B2B
  8
0
  6
CONTINUOUS
 10
-353.20394874410511
 20
388.09639208182932
 30
0.0
 42
0.999999988280428
  0
VERTEX
  5
3B2C
  8
0
  6
CONTINUOUS
 10
-352.93522412245972
 20
387.82766746018399
 30
0.0
  0
SEQEND
  5
3B2D
  8
0
  6
CONTINUOUS
  0
POLYLINE
  5
27D7
  8
0
  6
CONTINUOUS
 66
     1
 10
0.0
 20
0.0
 30
0.0
 70
     1
  0
VERTEX
  5
3B2E
  8
0
  6
CONTINUOUS
 10
-353.20394874410511
 20
413.86584511091178
 30
0.0
 42
0.999999988280428
  0
VERTEX
  5
3B2F
  8
0
  6
CONTINUOUS
 10
-352.9352241224563
 20
413.59712048926662
 30
0.0
  0
VERTEX
  5
3B30
  8
0
  6
CONTINUOUS
 10
-352.72750669013539
 20
413.59712048926662
 30
0.0
 42
0.999999988280428
  0
VERTEX
  5
3B31
  8
0
  6
CONTINUOUS
 10
-352.45878206848988
 20
413.86584511091138
 30
0.0
  0
VERTEX
  5
3B32
  8
0
  6
CONTINUOUS
 10
-352.45878206848988
 20
414.07356254323651
 30
0.0
 42
0.999999988280428
  0
VERTEX
  5
3B33
  8
0
  6
CONTINUOUS
 10
-352.72750669013448
 20
414.34228716488161
 30
0.0
  0
VERTEX
  5
3B34
  8
0
  6
CONTINUOUS
 10
-352.93522412245972
 20
414.34228716488161
 30
0.0
 42
0.9999999882804278
  0
VERTEX
  5
3B35
  8
0
  6
CONTINUOUS
 10
-353.20394874410511
 20
414.07356254323651
 30
0.0
  0
SEQEND
  5
3B36
  8
0
  6
CONTINUOUS
  0
POLYLINE
  5
2806
  8
0
  6
CONTINUOUS
 66
     1
 10
0.0
 20
0.0
 30
0.0
 70
     1
  0
VERTEX
  5
3B37
  8
0
  6
CONTINUOUS
 10
-412.5058409921142
 20
414.91495494116799
 30
0.0
 42
0.4142135623730951
  0
VERTEX
  5
3B38
  8
0
  6
CONTINUOUS
 10
-412.75586336347868
 20
415.1649773125327
 30
0.0
  0
VERTEX
  5
3B39
  8
0
  6
CONTINUOUS
 10
-416.17546067891499
 20
415.1649773125327
 30
0.0
 42
0.4142135623730951
  0
VERTEX
  5
3B3A
  8
0
  6
CONTINUOUS
 10
-416.42548305027958
 20
414.91495494116799
 30
0.0
  0
VERTEX
  5
3B3B
  8
0
  6
CONTINUOUS
 10
-416.42548305027958
 20
413.16578247109072
 30
0.0
 42
-0.999999988280428
  0
VERTEX
  5
3B3C
  8
0
  6
CONTINUOUS
 10
-416.69420767192418
 20
412.89705784944539
 30
0.0
  0
VERTEX
  5
3B3D
  8
0
  6
CONTINUOUS
 10
-417.62716537690159
 20
412.89705784944539
 30
0.0
 42
0.4142135623730951
  0
VERTEX
  5
3B3E
  8
0
  6
CONTINUOUS
 10
-417.87718774826618
 20
412.64703547808091
 30
0.0
  0
VERTEX
  5
3B3F
  8
0
  6
CONTINUOUS
 10
-417.87718774826618
 20
411.71584979575368
 30
0.0
 42
-0.2339845462446278
  0
VERTEX
  5
3B40
  8
0
  6
CONTINUOUS
 10
-417.77875374379192
 20
411.51702285289531
 30
0.0
  0
VERTEX
  5
3B41
  8
0
  6
CONTINUOUS
 10
-417.77875374379192
 20
390.65293177216631
 30
0.0
 42
-0.2339845462446278
  0
VERTEX
  5
3B42
  8
0
  6
CONTINUOUS
 10
-417.87718774826618
 20
390.45410482930811
 30
0.0
  0
VERTEX
  5
3B43
  8
0
  6
CONTINUOUS
 10
-417.87718774826618
 20
389.5229191469848
 30
0.0
 42
0.4142135623730951
  0
VERTEX
  5
3B44
  8
0
  6
CONTINUOUS
 10
-417.62716537690159
 20
389.27289677561998
 30
0.0
  0
VERTEX
  5
3B45
  8
0
  6
CONTINUOUS
 10
-416.69420767192418
 20
389.27289677561998
 30
0.0
 42
-0.999999988280428
  0
VERTEX
  5
3B46
  8
0
  6
CONTINUOUS
 10
-416.42548305027958
 20
389.00417215397488
 30
0.0
  0
VERTEX
  5
3B47
  8
0
  6
CONTINUOUS
 10
-416.42548305027958
 20
387.25499968389749
 30
0.0
 42
0.4142135623730951
  0
VERTEX
  5
3B48
  8
0
  6
CONTINUOUS
 10
-416.17546067891499
 20
387.00497731253279
 30
0.0
  0
VERTEX
  5
3B49
  8
0
  6
CONTINUOUS
 10
-412.75586336347868
 20
387.00497731253279
 30
0.0
 42
0.4142135623730951
  0
VERTEX
  5
3B4A
  8
0
  6
CONTINUOUS
 10
-412.50584099211397
 20
387.25499968389749
 30
0.0
  0
VERTEX
  5
3B4B
  8
0
  6
CONTINUOUS
 10
-412.50584099211397
 20
389.00417215397522
 30
0.0
 42
-0.9999999882804278
  0
VERTEX
  5
3B4C
  8
0
  6
CONTINUOUS
 10
-412.2371163704687
 20
389.27289677561998
 30
0.0
  0
VERTEX
  5
3B4D
  8
0
  6
CONTINUOUS
 10
-410.72733539927282
 20
389.27289677561998
 30
0.0
 42
0.4142135623730951
  0
VERTEX
  5
3B4E
  8
0
  6
CONTINUOUS
 10
-410.47731302790822
 20
389.5229191469848
 30
0.0
  0
VERTEX
  5
3B4F
  8
0
  6
CONTINUOUS
 10
-410.47731302790822
 20
412.64703547808091
 30
0.0
 42
0.4142135623730951
  0
VERTEX
  5
3B50
  8
0
  6
CONTINUOUS
 10
-410.72733539927282
 20
412.89705784944539
 30
0.0
  0
VERTEX
  5
3B51
  8
0
  6
CONTINUOUS
 10
-412.23711637046932
 20
412.89705784944539
 30
0.0
 42
-0.999999988280428
  0
VERTEX
  5
3B52
  8
0
  6
CONTINUOUS
 10
-412.50584099211397
 20
413.16578247109072
 30
0.0
  0
SEQEND
  5
3B53
  8
0
  6
CONTINUOUS
  0
POLYLINE
  5
2807
  8
0
  6
CONTINUOUS
 66
     1
 10
0.0
 20
0.0
 30
0.0
 70
     1
  0
VERTEX
  5
3B54
  8
0
  6
CONTINUOUS
 10
-414.56952073735971
 20
387.82766746018399
 30
0.0
  0
VERTEX
  5
3B55
  8
0
  6
CONTINUOUS
 10
-414.36180330503453
 20
387.82766746018399
 30
0.0
 42
0.999999988280428
  0
VERTEX
  5
3B56
  8
0
  6
CONTINUOUS
 10
-414.09307868338919
 20
388.09639208182858
 30
0.0
  0
VERTEX
  5
3B57
  8
0
  6
CONTINUOUS
 10
-414.09307868338919
 20
388.30410951415388
 30
0.0
 42
0.999999988280428
  0
VERTEX
  5
3B58
  8
0
  6
CONTINUOUS
 10
-414.36180330503379
 20
388.5728341357991
 30
0.0
  0
VERTEX
  5
3B59
  8
0
  6
CONTINUOUS
 10
-414.56952073735903
 20
388.57283413579893
 30
0.0
 42
0.9999999882804278
  0
VERTEX
  5
3B5A
  8
0
  6
CONTINUOUS
 10
-414.8382453590043
 20
388.30410951415428
 30
0.0
  0
VERTEX
  5
3B5B
  8
0
  6
CONTINUOUS
 10
-414.8382453590043
 20
388.09639208182858
 30
0.0
 42
0.999999988280428
  0
SEQEND
  5
3B5C
  8
0
  6
CONTINUOUS
  0
POLYLINE
  5
2808
  8
0
  6
CONTINUOUS
 66
     1
 10
0.0
 20
0.0
 30
0.0
 70
     1
  0
VERTEX
  5
3B5D
  8
0
  6
CONTINUOUS
 10
-414.56952073735971
 20
413.59712048926639
 30
0.0
  0
VERTEX
  5
3B5E
  8
0
  6
CONTINUOUS
 10
-414.36180330503453
 20
413.59712048926662
 30
0.0
 42
0.999999988280428
  0
VERTEX
  5
3B5F
  8
0
  6
CONTINUOUS
 10
-414.09307868338919
 20
413.86584511091138
 30
0.0
  0
VERTEX
  5
3B60
  8
0
  6
CONTINUOUS
 10
-414.09307868338919
 20
414.07356254323628
 30
0.0
 42
0.999999988280428
  0
VERTEX
  5
3B61
  8
0
  6
CONTINUOUS
 10
-414.36180330503379
 20
414.34228716488161
 30
0.0
  0
VERTEX
  5
3B62
  8
0
  6
CONTINUOUS
 10
-414.56952073735903
 20
414.34228716488161
 30
0.0
 42
0.9999999882804278
  0
VERTEX
  5
3B63
  8
0
  6
CONTINUOUS
 10
-414.8382453590043
 20
414.0735625432369
 30
0.0
  0
VERTEX
  5
3B64
  8
0
  6
CONTINUOUS
 10
-414.8382453590043
 20
413.86584511091138
 30
0.0
 42
0.999999988280428
  0
SEQEND
  5
3B65
  8
0
  6
CONTINUOUS
  0
POLYLINE
  5
2809
  8
0
  6
CONTINUOUS
 66
     1
 10
0.0
 20
0.0
 30
0.0
 70
     1
  0
VERTEX
  5
3B66
  8
0
  6
CONTINUOUS
 10
-403.36650249398082
 20
387.25499968389749
 30
0.0
  0
VERTEX
  5
3B67
  8
0
  6
CONTINUOUS
 10
-403.36650249398082
 20
389.00417215397539
 30
0.0
 42
-0.9999999882804278
  0
VERTEX
  5
3B68
  8
0
  6
CONTINUOUS
 10
-403.09777787233531
 20
389.27289677561998
 30
0.0
  0
VERTEX
  5
3B69
  8
0
  6
CONTINUOUS
 10
-401.9478716214976
 20
389.27289677562021
 30
0.0
 42
0.4142135623730951
  0
VERTEX
  5
3B6A
  8
0
  6
CONTINUOUS
 10
-401.69784925013289
 20
389.5229191469848
 30
0.0
  0
VERTEX
  5
3B6B
  8
0
  6
CONTINUOUS
 10
-401.69784925013289
 20
412.64703547808091
 30
0.0
 42
0.4142135623730951
  0
VERTEX
  5
3B6C
  8
0
  6
CONTINUOUS
 10
-401.9478716214976
 20
412.89705784944562
 30
0.0
  0
VERTEX
  5
3B6D
  8
0
  6
CONTINUOUS
 10
-403.09777787233202
 20
412.89705784944562
 30
0.0
 42
-0.999999988280428
  0
VERTEX
  5
3B6E
  8
0
  6
CONTINUOUS
 10
-403.36650249398082
 20
413.16578247109072
 30
0.0
  0
VERTEX
  5
3B6F
  8
0
  6
CONTINUOUS
 10
-403.3665024939807
 20
414.91495494116811
 30
0.0
 42
0.4142135623730951
  0
VERTEX
  5
3B70
  8
0
  6
CONTINUOUS
 10
-403.61652486534518
 20
415.1649773125327
 30
0.0
  0
VERTEX
  5
3B71
  8
0
  6
CONTINUOUS
 10
-407.0361221807816
 20
415.1649773125327
 30
0.0
 42
0.4142135623730951
  0
VERTEX
  5
3B72
  8
0
  6
CONTINUOUS
 10
-407.2861445521462
 20
414.91495494116811
 30
0.0
  0
VERTEX
  5
3B73
  8
0
  6
CONTINUOUS
 10
-407.2861445521462
 20
413.16578247109072
 30
0.0
 42
-0.999999988280428
  0
VERTEX
  5
3B74
  8
0
  6
CONTINUOUS
 10
-407.55486917379108
 20
412.89705784944562
 30
0.0
  0
VERTEX
  5
3B75
  8
0
  6
CONTINUOUS
 10
-409.63753605102789
 20
412.89705784944562
 30
0.0
 42
0.4142135623730951
  0
VERTEX
  5
3B76
  8
0
  6
CONTINUOUS
 10
-409.88755842239249
 20
412.64703547808091
 30
0.0
  0
VERTEX
  5
3B77
  8
0
  6
CONTINUOUS
 10
-409.88755842239249
 20
389.5229191469848
 30
0.0
 42
0.4142135623730951
  0
VERTEX
  5
3B78
  8
0
  6
CONTINUOUS
 10
-409.63753605102789
 20
389.27289677562021
 30
0.0
  0
VERTEX
  5
3B79
  8
0
  6
CONTINUOUS
 10
-407.5548691737917
 20
389.27289677561998
 30
0.0
 42
-0.999999988280428
  0
VERTEX
  5
3B7A
  8
0
  6
CONTINUOUS
 10
-407.28614455214642
 20
389.00417215397539
 30
0.0
  0
VERTEX
  5
3B7B
  8
0
  6
CONTINUOUS
 10
-407.28614455214642
 20
387.25499968389749
 30
0.0
 42
0.4142135623730951
  0
VERTEX
  5
3B7C
  8
0
  6
CONTINUOUS
 10
-407.0361221807816
 20
387.0049773125329
 30
0.0
  0
VERTEX
  5
3B7D
  8
0
  6
CONTINUOUS
 10
-403.61652486534518
 20
387.0049773125329
 30
0.0
 42
0.4142135623730951
  0
SEQEND
  5
3B7E
  8
0
  6
CONTINUOUS
  0
POLYLINE
  5
280A
  8
0
  6
CONTINUOUS
 66
     1
 10
0.0
 20
0.0
 30
0.0
 70
     1
  0
VERTEX
  5
3B7F
  8
0
  6
CONTINUOUS
 10
-405.22246480690143
 20
387.82766746018399
 30
0.0
 42
0.999999988280428
  0
VERTEX
  5
3B80
  8
0
  6
CONTINUOUS
 10
-404.95374018525598
 20
388.09639208182858
 30
0.0
  0
VERTEX
  5
3B81
  8
0
  6
CONTINUOUS
 10
-404.95374018525598
 20
388.30410951415388
 30
0.0
 42
0.999999988280428
  0
VERTEX
  5
3B82
  8
0
  6
CONTINUOUS
 10
-405.22246480690058
 20
388.5728341357991
 30
0.0
  0
VERTEX
  5
3B83
  8
0
  6
CONTINUOUS
 10
-405.43018223922581
 20
388.5728341357991
 30
0.0
 42
0.9999999882804278
  0
VERTEX
  5
3B84
  8
0
  6
CONTINUOUS
 10
-405.6989068608712
 20
388.30410951415428
 30
0.0
  0
VERTEX
  5
3B85
  8
0
  6
CONTINUOUS
 10
-405.6989068608712
 20
388.09639208182932
 30
0.0
 42
0.999999988280428
  0
VERTEX
  5
3B86
  8
0
  6
CONTINUOUS
 10
-405.43018223922581
 20
387.82766746018399
 30
0.0
  0
SEQEND
  5
3B87
  8
0
  6
CONTINUOUS
  0
POLYLINE
  5
280B
  8
0
  6
CONTINUOUS
 66
     1
 10
0.0
 20
0.0
 30
0.0
 70
     1
  0
VERTEX
  5
3B88
  8
0
  6
CONTINUOUS
 10
-405.6989068608712
 20
413.86584511091178
 30
0.0
 42
0.999999988280428
  0
VERTEX
  5
3B89
  8
0
  6
CONTINUOUS
 10
-405.4301822392224
 20
413.59712048926662
 30
0.0
  0
VERTEX
  5
3B8A
  8
0
  6
CONTINUOUS
 10
-405.22246480690143
 20
413.59712048926662
 30
0.0
 42
0.999999988280428
  0
VERTEX
  5
3B8B
  8
0
  6
CONTINUOUS
 10
-404.95374018525598
 20
413.86584511091138
 30
0.0
  0
VERTEX
  5
3B8C
  8
0
  6
CONTINUOUS
 10
-404.95374018525598
 20
414.07356254323651
 30
0.0
 42
0.999999988280428
  0
VERTEX
  5
3B8D
  8
0
  6
CONTINUOUS
 10
-405.22246480690058
 20
414.34228716488161
 30
0.0
  0
VERTEX
  5
3B8E
  8
0
  6
CONTINUOUS
 10
-405.43018223922581
 20
414.34228716488161
 30
0.0
 42
0.9999999882804278
  0
VERTEX
  5
3B8F
  8
0
  6
CONTINUOUS
 10
-405.6989068608712
 20
414.07356254323651
 30
0.0
  0
SEQEND
  5
3B90
  8
0
  6
CONTINUOUS
  0
POLYLINE
  5
282F
  8
0
  6
CONTINUOUS
 66
     1
 10
0.0
 20
0.0
 30
0.0
 70
     1
  0
VERTEX
  5
3B91
  8
0
  6
CONTINUOUS
 10
-395.89156964595549
 20
428.70002323854141
 30
0.0
  0
VERTEX
  5
3B92
  8
0
  6
CONTINUOUS
 10
-393.85676256275178
 20
428.3613810607423
 30
0.0
 42
-0.9207651933220823
  0
VERTEX
  5
3B93
  8
0
  6
CONTINUOUS
 10
-393.9027333686268
 20
427.80513016070279
 30
0.0
  0
VERTEX
  5
3B94
  8
0
  6
CONTINUOUS
 10
-395.91291323439867
 20
427.80513016070279
 30
0.0
 42
-0.4142135623730951
  0
VERTEX
  5
3B95
  8
0
  6
CONTINUOUS
 10
-396.0429248675083
 20
427.93514179381242
 30
0.0
  0
VERTEX
  5
3B96
  8
0
  6
CONTINUOUS
 10
-396.0429248675083
 20
428.57177552520392
 30
0.0
 42
-0.4633830812107383
  0
SEQEND
  5
3B97
  8
0
  6
CONTINUOUS
  0
POLYLINE
  5
2831
  8
0
  6
CONTINUOUS
 66
     1
 10
0.0
 20
0.0
 30
0.0
 70
     1
  0
VERTEX
  5
3B98
  8
0
  6
CONTINUOUS
 10
-393.7681149053135
 20
429.2242053524688
 30
0.0
  0
VERTEX
  5
3B99
  8
0
  6
CONTINUOUS
 10
-395.8029219885172
 20
429.56284753026802
 30
0.0
 42
-0.9207651933220823
  0
VERTEX
  5
3B9A
  8
0
  6
CONTINUOUS
 10
-395.7569511826423
 20
430.11909843030759
 30
0.0
  0
VERTEX
  5
3B9B
  8
0
  6
CONTINUOUS
 10
-393.74677131687019
 20
430.11909843030759
 30
0.0
 42
-0.4142135623730951
  0
VERTEX
  5
3B9C
  8
0
  6
CONTINUOUS
 10
-393.61675968376051
 20
429.98908679719801
 30
0.0
  0
VERTEX
  5
3B9D
  8
0
  6
CONTINUOUS
 10
-393.61675968376068
 20
429.35245306580651
 30
0.0
 42
-0.4633830812107383
  0
SEQEND
  5
3B9E
  8
0
  6
CONTINUOUS
  0
LINE
  5
2885
  8
0
  6
CONTINUOUS
 10
-386.74923686641898
 20
430.119040973658
 30
0.0
 11
-386.74923686641898
 21
430.11909843030759
 31
0.0
  0
LINE
  5
341D
  8
0
  6
CONTINUOUS
 62
     7
 10
-348.2028911333669
 20
434.00497731253279
 30
0.0
 11
-372.20289113336679
 21
434.00497731253267
 31
0.0
  0
LINE
  5
341E
  8
0
  6
CONTINUOUS
 62
     7
 10
-372.20289113336679
 20
434.00497731253267
 30
0.0
 11
-372.20289113336679
 21
386.0049773125329
 31
0.0
  0
LINE
  5
341F
  8
0
  6
CONTINUOUS
 62
     7
 10
-369.73249763689989
 20
389.22365740201832
 30
0.0
 11
-370.23249763689978
 21
389.22365740201832
 31
0.0
  0
LINE
  5
3420
  8
0
  6
CONTINUOUS
 62
     7
 10
-370.23249763689978
 20
388.72365740201832
 30
0.0
 11
-369.73249763689989
 21
388.72365740201832
 31
0.0
  0
LINE
  5
3423
  8
0
  6
CONTINUOUS
 62
     7
 10
-348.70289113336679
 20
393.16497731253281
 30
0.0
 11
-349.20289113336679
 21
393.16497731253281
 31
0.0
  0
LINE
  5
3424
  8
0
  6
CONTINUOUS
 62
     7
 10
-349.20289113336679
 20
392.66497731253281
 30
0.0
 11
-348.70289113336679
 21
392.66497731253281
 31
0.0
  0
LINE
  5
3427
  8
0
  6
CONTINUOUS
 62
     7
 10
-348.70289113336679
 20
409.5049773125329
 30
0.0
 11
-349.20289113336679
 21
409.5049773125329
 31
0.0
  0
LINE
  5
3428
  8
0
  6
CONTINUOUS
 62
     7
 10
-349.20289113336679
 20
409.00497731253279
 30
0.0
 11
-348.70289113336679
 21
409.00497731253279
 31
0.0
  0
LINE
  5
3429
  8
0
  6
CONTINUOUS
 62
     7
 10
-357.06907486088619
 20
428.0676096407455
 30
0.0
 11
-357.06907486088619
 21
427.5676096407455
 31
0.0
  0
LINE
  5
342A
  8
0
  6
CONTINUOUS
 62
     7
 10
-356.56907486088619
 20
427.5676096407455
 30
0.0
 11
-356.56907486088619
 21
428.0676096407455
 31
0.0
  0
LINE
  5
342D
  8
0
  6
CONTINUOUS
 62
     7
 10
-370.23249763689978
 20
386.5049773125329
 30
0.0
 11
-370.23249763689989
 21
405.00446453587529
 31
0.0
  0
LINE
  5
342E
  8
0
  6
CONTINUOUS
 62
     7
 10
-348.70289113336679
 20
428.0676096407455
 30
0.0
 11
-348.70289113336679
 21
386.5049773125329
 31
0.0
  0
LINE
  5
342F
  8
0
  6
CONTINUOUS
 62
     7
 10
-370.23249763689978
 20
428.0676096407455
 30
0.0
 11
-348.70289113336679
 21
428.0676096407455
 31
0.0
  0
LINE
  5
3430
  8
0
  6
CONTINUOUS
 62
     7
 10
-372.20289113336679
 20
386.0049773125329
 30
0.0
 11
-348.2028911333669
 21
386.0049773125329
 31
0.0
  0
LINE
  5
3431
  8
0
  6
CONTINUOUS
 62
     7
 10
-348.70289113336679
 20
386.5049773125329
 30
0.0
 11
-370.23249763689978
 21
386.5049773125329
 31
0.0
  0
LINE
  5
3432
  8
0
  6
CONTINUOUS
 62
     7
 10
-348.2028911333669
 20
386.0049773125329
 30
0.0
 11
-348.2028911333669
 21
434.00497731253279
 31
0.0
  0
LINE
  5
344C
  8
0
  6
CONTINUOUS
 62
     7
 10
-352.58136540629738
 20
386.5049773125329
 30
0.0
 11
-352.58136540629738
 21
387.0049773125329
 31
0.0
  0
LINE
  5
344D
  8
0
  6
CONTINUOUS
 62
     7
 10
-353.08136540629738
 20
387.0049773125329
 30
0.0
 11
-353.08136540629738
 21
386.5049773125329
 31
0.0
  0
LINE
  5
344F
  8
0
  6
CONTINUOUS
 62
     7
 10
-361.72070390443088
 20
386.5049773125329
 30
0.0
 11
-361.72070390443088
 21
387.00497731253279
 31
0.0
  0
LINE
  5
3450
  8
0
  6
CONTINUOUS
 62
     7
 10
-362.22070390443088
 20
387.00497731253279
 30
0.0
 11
-362.22070390443088
 21
386.5049773125329
 31
0.0
  0
LINE
  5
3452
  8
0
  6
CONTINUOUS
 62
     7
 10
-357.39260030562639
 20
393.16497731253281
 30
0.0
 11
-357.98235491114201
 21
393.16497731253281
 31
0.0
  0
LINE
  5
3453
  8
0
  6
CONTINUOUS
 62
     7
 10
-357.98235491114201
 20
392.66497731253281
 30
0.0
 11
-357.39260030562639
 21
392.66497731253281
 31
0.0
  0
LINE
  5
3454
  8
0
  6
CONTINUOUS
 62
     7
 10
-357.39260030562639
 20
409.5049773125329
 30
0.0
 11
-357.98235491114212
 21
409.5049773125329
 31
0.0
  0
LINE
  5
3455
  8
0
  6
CONTINUOUS
 62
     7
 10
-357.98235491114212
 20
409.00497731253279
 30
0.0
 11
-357.39260030562639
 21
409.00497731253279
 31
0.0
  0
LINE
  5
3457
  8
0
  6
CONTINUOUS
 62
     7
 10
-365.28379562702588
 20
410.58027265028772
 30
0.0
 11
-365.87355023254162
 21
410.58027265028772
 31
0.0
  0
LINE
  5
3458
  8
0
  6
CONTINUOUS
 62
     7
 10
-365.87355023254162
 20
410.08027265028761
 30
0.0
 11
-365.28379562702588
 21
410.08027265028761
 31
0.0
  0
LINE
  5
345A
  8
0
  6
CONTINUOUS
 62
     7
 10
-365.28389840554939
 20
406.90586688398758
 30
0.0
 11
-365.87365301106519
 21
406.90586688398758
 31
0.0
  0
LINE
  5
345B
  8
0
  6
CONTINUOUS
 62
     7
 10
-365.87365301106519
 20
406.40586688398758
 30
0.0
 11
-365.28389840554939
 21
406.40586688398758
 31
0.0
  0
LINE
  5
345D
  8
0
  6
CONTINUOUS
 62
     7
 10
-365.28379562702588
 20
402.80633510706821
 30
0.0
 11
-365.87355023254162
 21
402.80633510706821
 31
0.0
  0
LINE
  5
345E
  8
0
  6
CONTINUOUS
 62
     7
 10
-365.87355023254162
 20
402.30633510706821
 30
0.0
 11
-365.28379562702588
 21
402.30633510706821
 31
0.0
  0
LINE
  5
3460
  8
0
  6
CONTINUOUS
 62
     7
 10
-365.28413005599248
 20
398.27877567651831
 30
0.0
 11
-365.87388466150821
 21
398.27877567651831
 31
0.0
  0
LINE
  5
3461
  8
0
  6
CONTINUOUS
 62
     7
 10
-365.87388466150821
 20
397.77877567651831
 30
0.0
 11
-365.28413005599248
 21
397.77877567651831
 31
0.0
  0
LINE
  5
3463
  8
0
  6
CONTINUOUS
 62
     7
 10
-365.28379562702588
 20
393.7512168326183
 30
0.0
 11
-365.87355023254162
 21
393.7512168326183
 31
0.0
  0
LINE
  5
3464
  8
0
  6
CONTINUOUS
 62
     7
 10
-365.87355023254162
 20
393.2512168326183
 30
0.0
 11
-365.28379562702588
 21
393.2512168326183
 31
0.0
  0
LINE
  5
347E
  8
0
  6
CONTINUOUS
 62
     7
 10
-368.57001441542337
 20
386.50497731253279
 30
0.0
 11
-368.57001441542337
 21
387.00497731253279
 31
0.0
  0
LINE
  5
347F
  8
0
  6
CONTINUOUS
 62
     7
 10
-369.07001441542337
 20
387.00497731253279
 30
0.0
 11
-369.07001441542337
 21
386.50497731253279
 31
0.0
  0
LINE
  5
3489
  8
0
  6
CONTINUOUS
 62
     7
 10
-348.70289113336679
 20
419.00555147519742
 30
0.0
 11
-349.47569678482392
 21
419.00555147519742
 31
0.0
  0
LINE
  5
348A
  8
0
  6
CONTINUOUS
 62
     7
 10
-349.47569678482392
 20
418.50555147519742
 30
0.0
 11
-348.70289113336679
 21
418.50555147519742
 31
0.0
  0
LINE
  5
348C
  8
0
  6
CONTINUOUS
 62
     7
 10
-348.70289113336679
 20
424.81758726938068
 30
0.0
 11
-349.4756967848237
 21
424.81758726938068
 31
0.0
  0
LINE
  5
348D
  8
0
  6
CONTINUOUS
 62
     7
 10
-349.4756967848237
 20
424.31758726938068
 30
0.0
 11
-348.70289113336679
 21
424.31758726938068
 31
0.0
  0
LINE
  5
349F
  8
0
  6
CONTINUOUS
 62
     7
 10
-352.22571915618852
 20
428.0676096407455
 30
0.0
 11
-352.22571915618852
 21
427.5676096407455
 31
0.0
  0
LINE
  5
34A0
  8
0
  6
CONTINUOUS
 62
     7
 10
-351.72571915618852
 20
427.5676096407455
 30
0.0
 11
-351.72571915618852
 21
428.0676096407455
 31
0.0
  0
LINE
  5
34A1
  8
0
  6
CONTINUOUS
 62
     7
 10
-367.50302592621352
 20
428.06760964074562
 30
0.0
 11
-367.50302592621352
 21
427.56760964074562
 31
0.0
  0
LINE
  5
34A2
  8
0
  6
CONTINUOUS
 62
     7
 10
-367.00302592621352
 20
427.56760964074562
 30
0.0
 11
-367.00302592621352
 21
428.06760964074562
 31
0.0
  0
LINE
  5
34A4
  8
0
  6
CONTINUOUS
 62
     7
 10
-362.6596702215158
 20
428.06760964074562
 30
0.0
 11
-362.6596702215158
 21
427.56760964074562
 31
0.0
  0
LINE
  5
34A5
  8
0
  6
CONTINUOUS
 62
     7
 10
-362.1596702215158
 20
427.56760964074562
 30
0.0
 11
-362.1596702215158
 21
428.06760964074562
 31
0.0
  0
LINE
  5
34A6
  8
0
  6
CONTINUOUS
 62
     7
 10
-362.22070390443088
 20
415.75473191804838
 30
0.0
 11
-362.22070390443088
 21
415.1649773125327
 31
0.0
  0
LINE
  5
34A7
  8
0
  6
CONTINUOUS
 62
     7
 10
-361.72070390443088
 20
415.1649773125327
 30
0.0
 11
-361.72070390443088
 21
415.75473191804838
 31
0.0
  0
LINE
  5
34A9
  8
0
  6
CONTINUOUS
 62
     7
 10
-353.08136540629738
 20
415.75473191804838
 30
0.0
 11
-353.08136540629738
 21
415.1649773125327
 31
0.0
  0
LINE
  5
34AA
  8
0
  6
CONTINUOUS
 62
     7
 10
-352.58136540629738
 20
415.1649773125327
 30
0.0
 11
-352.58136540629738
 21
415.75473191804838
 31
0.0
  0
LINE
  5
34AD
  8
0
  6
CONTINUOUS
 62
     7
 10
-369.73216320793313
 20
393.7512168326183
 30
0.0
 11
-370.23216320793313
 21
393.7512168326183
 31
0.0
  0
LINE
  5
34AE
  8
0
  6
CONTINUOUS
 62
     7
 10
-370.23216320793313
 20
393.2512168326183
 30
0.0
 11
-369.73216320793313
 21
393.2512168326183
 31
0.0
  0
LINE
  5
34B0
  8
0
  6
CONTINUOUS
 62
     7
 10
-369.73249763689989
 20
398.27877567651831
 30
0.0
 11
-370.23249763689978
 21
398.27877567651831
 31
0.0
  0
LINE
  5
34B1
  8
0
  6
CONTINUOUS
 62
     7
 10
-370.23249763689978
 20
397.77877567651831
 30
0.0
 11
-369.73249763689989
 21
397.77877567651831
 31
0.0
  0
LINE
  5
34B3
  8
0
  6
CONTINUOUS
 62
     7
 10
-369.73216320793313
 20
402.80633510706832
 30
0.0
 11
-370.23216320793313
 21
402.80633510706832
 31
0.0
  0
LINE
  5
34B4
  8
0
  6
CONTINUOUS
 62
     7
 10
-370.23216320793313
 20
402.30633510706821
 30
0.0
 11
-369.73216320793313
 21
402.30633510706821
 31
0.0
  0
LINE
  5
34B6
  8
0
  6
CONTINUOUS
 62
     7
 10
-368.20772012515909
 20
406.9058668839898
 30
0.0
 11
-368.70772012515909
 21
406.9058668839898
 31
0.0
  0
LINE
  5
34B7
  8
0
  6
CONTINUOUS
 62
     7
 10
-368.70772012515909
 20
406.4058668839898
 30
0.0
 11
-368.20772012515909
 21
406.4058668839898
 31
0.0
  0
LINE
  5
34B9
  8
0
  6
CONTINUOUS
 62
     7
 10
-368.20761734663557
 20
410.58027265028983
 30
0.0
 11
-368.70761734663557
 21
410.58027265028983
 31
0.0
  0
LINE
  5
34BA
  8
0
  6
CONTINUOUS
 62
     7
 10
-368.70761734663557
 20
410.08027265028983
 30
0.0
 11
-368.20761734663557
 21
410.08027265028983
 31
0.0
  0
LINE
  5
34BC
  8
0
  6
CONTINUOUS
 62
     7
 10
-369.75304829757829
 20
419.00555147519742
 30
0.0
 11
-370.23249763690001
 21
419.00555147519742
 31
0.0
  0
LINE
  5
34BD
  8
0
  6
CONTINUOUS
 62
     7
 10
-370.23249763690001
 20
418.50555147519742
 30
0.0
 11
-369.75304829757829
 21
418.50555147519742
 31
0.0
  0
LINE
  5
34BE
  8
0
  6
CONTINUOUS
 62
     7
 10
-369.75304829757829
 20
424.81758726938068
 30
0.0
 11
-370.23249763689978
 21
424.81758726938068
 31
0.0
  0
LINE
  5
34BF
  8
0
  6
CONTINUOUS
 62
     7
 10
-370.23249763689978
 20
424.31758726938068
 30
0.0
 11
-369.75304829757829
 21
424.31758726938068
 31
0.0
  0
LINE
  5
34CF
  8
0
  6
CONTINUOUS
 62
     7
 10
-369.50302592621381
 20
413.30739967502581
 30
0.0
 11
-369.50302592621381
 21
413.78684901434752
 31
0.0
  0
LINE
  5
34D0
  8
0
  6
CONTINUOUS
 62
     7
 10
-369.48214083656848
 20
404.52501519655368
 30
0.0
 11
-369.48214083656848
 21
405.00446453587529
 31
0.0
  0
LINE
  5
34D1
  8
0
 10
-370.23249763689978
 20
413.30739967502581
 30
0.0
 11
-368.70761734663569
 21
413.30739967502581
 31
0.0
  0
LINE
  5
34D2
  8
0
 10
-368.70761734663569
 20
413.30739967502581
 30
0.0
 11
-368.70761734663569
 21
405.00446453587529
 31
0.0
  0
LINE
  5
34D3
  8
0
 10
-368.70761734663569
 20
405.00446453587529
 30
0.0
 11
-370.23249763689978
 21
405.00446453587529
 31
0.0
  0
LINE
  5
34D4
  8
0
  6
CONTINUOUS
 62
     7
 10
-370.23249763689989
 20
413.30739967502581
 30
0.0
 11
-370.23249763689978
 21
428.0676096407455
 31
0.0
  0
LINE
  5
3565
  8
0
  6
CONTINUOUS
 62
     7
 10
-401.19784925013289
 20
393.16497731253281
 30
0.0
 11
-401.69784925013289
 21
393.16497731253281
 31
0.0
  0
LINE
  5
3566
  8
0
  6
CONTINUOUS
 62
     7
 10
-401.69784925013289
 20
392.66497731253281
 30
0.0
 11
-401.19784925013289
 21
392.66497731253281
 31
0.0
  0
LINE
  5
3567
  8
0
  6
CONTINUOUS
 62
     7
 10
-401.197849250133
 20
409.5049773125329
 30
0.0
 11
-401.697849250133
 21
409.5049773125329
 31
0.0
  0
LINE
  5
3568
  8
0
  6
CONTINUOUS
 62
     7
 10
-401.697849250133
 20
409.00497731253279
 30
0.0
 11
-401.197849250133
 21
409.00497731253279
 31
0.0
  0
LINE
  5
3569
  8
0
  6
CONTINUOUS
 62
     7
 10
-409.56403297765229
 20
428.0676096407455
 30
0.0
 11
-409.56403297765229
 21
427.5676096407455
 31
0.0
  0
LINE
  5
356A
  8
0
  6
CONTINUOUS
 62
     7
 10
-409.06403297765229
 20
427.5676096407455
 30
0.0
 11
-409.06403297765229
 21
428.0676096407455
 31
0.0
  0
LINE
  5
356B
  8
0
  6
CONTINUOUS
 62
     7
 10
-422.72745575366599
 20
413.30739967502581
 30
0.0
 11
-422.72745575366588
 21
428.0676096407455
 31
0.0
  0
LINE
  5
356C
  8
0
  6
CONTINUOUS
 62
     7
 10
-401.197849250133
 20
428.0676096407455
 30
0.0
 11
-401.197849250133
 21
386.5049773125329
 31
0.0
  0
LINE
  5
356D
  8
0
  6
CONTINUOUS
 62
     7
 10
-422.72745575366588
 20
428.0676096407455
 30
0.0
 11
-401.197849250133
 21
428.0676096407455
 31
0.0
  0
LINE
  5
356E
  8
0
  6
CONTINUOUS
 62
     7
 10
-401.197849250133
 20
386.5049773125329
 30
0.0
 11
-418.37718774826618
 21
386.5049773125329
 31
0.0
  0
LINE
  5
356F
  8
0
  6
CONTINUOUS
 62
     7
 10
-405.07632352306348
 20
386.5049773125329
 30
0.0
 11
-405.07632352306348
 21
387.0049773125329
 31
0.0
  0
LINE
  5
3570
  8
0
  6
CONTINUOUS
 62
     7
 10
-405.57632352306348
 20
387.0049773125329
 30
0.0
 11
-405.57632352306348
 21
386.5049773125329
 31
0.0
  0
LINE
  5
3571
  8
0
  6
CONTINUOUS
 62
     7
 10
-414.21566202119698
 20
386.5049773125329
 30
0.0
 11
-414.21566202119698
 21
387.00497731253279
 31
0.0
  0
LINE
  5
3572
  8
0
  6
CONTINUOUS
 62
     7
 10
-414.71566202119698
 20
387.00497731253279
 30
0.0
 11
-414.71566202119698
 21
386.5049773125329
 31
0.0
  0
LINE
  5
3573
  8
0
  6
CONTINUOUS
 62
     7
 10
-409.88755842239249
 20
393.16497731253281
 30
0.0
 11
-410.47731302790822
 21
393.16497731253281
 31
0.0
  0
LINE
  5
3574
  8
0
  6
CONTINUOUS
 62
     7
 10
-410.47731302790822
 20
392.66497731253281
 30
0.0
 11
-409.88755842239249
 21
392.66497731253281
 31
0.0
  0
LINE
  5
3575
  8
0
  6
CONTINUOUS
 62
     7
 10
-409.88755842239249
 20
409.5049773125329
 30
0.0
 11
-410.47731302790828
 21
409.5049773125329
 31
0.0
  0
LINE
  5
3576
  8
0
  6
CONTINUOUS
 62
     7
 10
-410.47731302790828
 20
409.00497731253279
 30
0.0
 11
-409.88755842239249
 21
409.00497731253279
 31
0.0
  0
LINE
  5
3577
  8
0
  6
CONTINUOUS
 62
     7
 10
-401.197849250133
 20
419.00555147519742
 30
0.0
 11
-401.97065490159002
 21
419.00555147519742
 31
0.0
  0
LINE
  5
3578
  8
0
  6
CONTINUOUS
 62
     7
 10
-401.97065490159002
 20
418.50555147519742
 30
0.0
 11
-401.197849250133
 21
418.50555147519742
 31
0.0
  0
LINE
  5
3579
  8
0
  6
CONTINUOUS
 62
     7
 10
-401.197849250133
 20
424.81758726938068
 30
0.0
 11
-401.9706549015898
 21
424.81758726938068
 31
0.0
  0
LINE
  5
357A
  8
0
  6
CONTINUOUS
 62
     7
 10
-401.9706549015898
 20
424.31758726938068
 30
0.0
 11
-401.197849250133
 21
424.31758726938068
 31
0.0
  0
LINE
  5
357C
  8
0
  6
CONTINUOUS
 62
     7
 10
-404.72067727295467
 20
428.0676096407455
 30
0.0
 11
-404.72067727295467
 21
427.5676096407455
 31
0.0
  0
LINE
  5
357D
  8
0
  6
CONTINUOUS
 62
     7
 10
-404.22067727295467
 20
427.5676096407455
 30
0.0
 11
-404.22067727295467
 21
428.0676096407455
 31
0.0
  0
LINE
  5
357E
  8
0
  6
CONTINUOUS
 62
     7
 10
-419.99798404297962
 20
428.06760964074562
 30
0.0
 11
-419.99798404297962
 21
427.56760964074562
 31
0.0
  0
LINE
  5
357F
  8
0
  6
CONTINUOUS
 62
     7
 10
-419.49798404297962
 20
427.56760964074562
 30
0.0
 11
-419.49798404297962
 21
428.06760964074562
 31
0.0
  0
LINE
  5
3581
  8
0
  6
CONTINUOUS
 62
     7
 10
-415.1546283382819
 20
428.06760964074562
 30
0.0
 11
-415.1546283382819
 21
427.56760964074562
 31
0.0
  0
LINE
  5
3582
  8
0
  6
CONTINUOUS
 62
     7
 10
-414.6546283382819
 20
427.56760964074562
 30
0.0
 11
-414.6546283382819
 21
428.06760964074562
 31
0.0
  0
LINE
  5
3583
  8
0
  6
CONTINUOUS
 62
     7
 10
-414.71566202119698
 20
415.75473191804838
 30
0.0
 11
-414.71566202119698
 21
415.1649773125327
 31
0.0
  0
LINE
  5
3584
  8
0
  6
CONTINUOUS
 62
     7
 10
-414.21566202119698
 20
415.1649773125327
 30
0.0
 11
-414.21566202119698
 21
415.75473191804838
 31
0.0
  0
LINE
  5
3585
  8
0
  6
CONTINUOUS
 62
     7
 10
-405.57632352306348
 20
415.75473191804838
 30
0.0
 11
-405.57632352306348
 21
415.1649773125327
 31
0.0
  0
LINE
  5
3586
  8
0
  6
CONTINUOUS
 62
     7
 10
-405.07632352306348
 20
415.1649773125327
 30
0.0
 11
-405.07632352306348
 21
415.75473191804838
 31
0.0
  0
LINE
  5
3587
  8
0
  6
CONTINUOUS
 62
     7
 10
-422.2480064143445
 20
419.00555147519742
 30
0.0
 11
-422.72745575366611
 21
419.00555147519742
 31
0.0
  0
LINE
  5
3588
  8
0
  6
CONTINUOUS
 62
     7
 10
-422.72745575366611
 20
418.50555147519742
 30
0.0
 11
-422.2480064143445
 21
418.50555147519742
 31
0.0
  0
LINE
  5
3589
  8
0
  6
CONTINUOUS
 62
     7
 10
-422.24800641434439
 20
424.81758726938068
 30
0.0
 11
-422.72745575366588
 21
424.81758726938068
 31
0.0
  0
LINE
  5
358A
  8
0
  6
CONTINUOUS
 62
     7
 10
-422.72745575366588
 20
424.31758726938068
 30
0.0
 11
-422.24800641434439
 21
424.31758726938068
 31
0.0
  0
LINE
  5
358B
  8
0
  6
CONTINUOUS
 62
     7
 10
-424.69784925013278
 20
386.0049773125329
 30
0.0
 11
-400.697849250133
 21
386.0049773125329
 31
0.0
  0
LINE
  5
358C
  8
0
  6
CONTINUOUS
 62
     7
 10
-417.77875374379192
 20
393.1649773125331
 30
0.0
 11
-418.37718774826612
 21
393.1649773125331
 31
0.0
  0
LINE
  5
358D
  8
0
  6
CONTINUOUS
 62
     7
 10
-418.37718774826612
 20
392.66497731253321
 30
0.0
 11
-417.77875374379192
 21
392.66497731253321
 31
0.0
  0
LINE
  5
358E
  8
0
  6
CONTINUOUS
 62
     7
 10
-417.77875374379192
 20
409.50497731253319
 30
0.0
 11
-418.37718774826618
 21
409.50497731253319
 31
0.0
  0
LINE
  5
358F
  8
0
  6
CONTINUOUS
 62
     7
 10
-418.37718774826618
 20
409.00497731253319
 30
0.0
 11
-417.77875374379192
 21
409.00497731253319
 31
0.0
  0
LINE
  5
3590
  8
0
 10
-418.37718774826618
 20
413.30739967502569
 30
0.0
 11
-418.37718774826618
 21
386.5049773125329
 31
0.0
  0
LINE
  5
3591
  8
0
  6
CONTINUOUS
 62
     7
 10
-419.06066860673809
 20
413.78684901434741
 30
0.0
 11
-419.06066860673809
 21
413.30739967502569
 31
0.0
  0
LINE
  5
3592
  8
0
  6
CONTINUOUS
 62
     7
 10
-418.56066860673798
 20
413.30739967502569
 30
0.0
 11
-418.56066860673798
 21
413.78684901434741
 31
0.0
  0
LINE
  5
35A2
  8
0
 10
-418.37718774826618
 20
413.30739967502569
 30
0.0
 11
-422.72745575366599
 21
413.30739967502581
 31
0.0
  0
LINE
  5
35A3
  8
0
 10
-400.697849250133
 20
386.0049773125329
 30
0.0
 11
-400.697849250133
 21
434.00497731253267
 31
0.0
  0
LINE
  5
35A4
  8
0
 10
-400.697849250133
 20
434.00497731253267
 30
0.0
 11
-424.69784925013278
 21
434.00497731253267
 31
0.0
  0
LINE
  5
35A5
  8
0
 10
-424.69784925013278
 20
434.00497731253267
 30
0.0
 11
-424.69784925013278
 21
386.0049773125329
 31
0.0
  0
LINE
  5
35BE
  8
0
  6
CONTINUOUS
 62
     7
 10
-374.85351650227
 20
393.16497731253281
 30
0.0
 11
-375.35351650227
 21
393.16497731253281
 31
0.0
  0
LINE
  5
35BF
  8
0
  6
CONTINUOUS
 62
     7
 10
-375.35351650227
 20
392.66497731253281
 30
0.0
 11
-374.85351650227
 21
392.66497731253281
 31
0.0
  0
LINE
  5
35C0
  8
0
  6
CONTINUOUS
 62
     7
 10
-374.85351650227011
 20
409.5049773125329
 30
0.0
 11
-375.35351650227011
 21
409.5049773125329
 31
0.0
  0
LINE
  5
35C1
  8
0
  6
CONTINUOUS
 62
     7
 10
-375.35351650227011
 20
409.00497731253279
 30
0.0
 11
-374.85351650227011
 21
409.00497731253279
 31
0.0
  0
LINE
  5
35C2
  8
0
  6
CONTINUOUS
 62
     7
 10
-374.85351650227011
 20
431.93551630163671
 30
0.0
 11
-374.85351650227011
 21
386.5049773125329
 31
0.0
  0
LINE
  5
35C3
  8
0
  6
CONTINUOUS
 62
     7
 10
-374.85351650227011
 20
386.5049773125329
 30
0.0
 11
-392.13128900487771
 21
386.5049773125329
 31
0.0
  0
LINE
  5
35C4
  8
0
  6
CONTINUOUS
 62
     7
 10
-378.73199077520059
 20
386.5049773125329
 30
0.0
 11
-378.73199077520059
 21
387.0049773125329
 31
0.0
  0
LINE
  5
35C5
  8
0
  6
CONTINUOUS
 62
     7
 10
-379.23199077520059
 20
387.0049773125329
 30
0.0
 11
-379.23199077520059
 21
386.5049773125329
 31
0.0
  0
LINE
  5
35C6
  8
0
  6
CONTINUOUS
 62
     7
 10
-387.87132927333408
 20
386.5049773125329
 30
0.0
 11
-387.87132927333408
 21
387.00497731253279
 31
0.0
  0
LINE
  5
35C7
  8
0
  6
CONTINUOUS
 62
     7
 10
-388.37132927333408
 20
387.00497731253279
 30
0.0
 11
-388.37132927333408
 21
386.5049773125329
 31
0.0
  0
LINE
  5
35C8
  8
0
  6
CONTINUOUS
 62
     7
 10
-383.54322567452959
 20
393.16497731253281
 30
0.0
 11
-384.13298028004527
 21
393.16497731253281
 31
0.0
  0
LINE
  5
35C9
  8
0
  6
CONTINUOUS
 62
     7
 10
-384.13298028004527
 20
392.66497731253281
 30
0.0
 11
-383.54322567452959
 21
392.66497731253281
 31
0.0
  0
LINE
  5
35CA
  8
0
  6
CONTINUOUS
 62
     7
 10
-383.54322567452959
 20
409.5049773125329
 30
0.0
 11
-384.13298028004527
 21
409.5049773125329
 31
0.0
  0
LINE
  5
35CB
  8
0
  6
CONTINUOUS
 62
     7
 10
-384.13298028004527
 20
409.00497731253279
 30
0.0
 11
-383.54322567452959
 21
409.00497731253279
 31
0.0
  0
LINE
  5
35CC
  8
0
  6
CONTINUOUS
 62
     7
 10
-374.85351650227011
 20
419.00555147519742
 30
0.0
 11
-375.62632215372707
 21
419.00555147519742
 31
0.0
  0
LINE
  5
35CD
  8
0
  6
CONTINUOUS
 62
     7
 10
-375.62632215372707
 20
418.50555147519742
 30
0.0
 11
-374.85351650227011
 21
418.50555147519742
 31
0.0
  0
LINE
  5
35CE
  8
0
  6
CONTINUOUS
 62
     7
 10
-374.85351650227011
 20
424.81758726938068
 30
0.0
 11
-375.6263221537269
 21
424.81758726938068
 31
0.0
  0
LINE
  5
35CF
  8
0
  6
CONTINUOUS
 62
     7
 10
-375.6263221537269
 20
424.31758726938068
 30
0.0
 11
-374.85351650227011
 21
424.31758726938068
 31
0.0
  0
LINE
  5
35D0
  8
0
  6
CONTINUOUS
 62
     7
 10
-388.37132927333408
 20
415.75473191804838
 30
0.0
 11
-388.37132927333408
 21
415.1649773125327
 31
0.0
  0
LINE
  5
35D1
  8
0
  6
CONTINUOUS
 62
     7
 10
-387.87132927333408
 20
415.1649773125327
 30
0.0
 11
-387.87132927333408
 21
415.75473191804838
 31
0.0
  0
LINE
  5
35D2
  8
0
  6
CONTINUOUS
 62
     7
 10
-379.23199077520059
 20
415.75473191804838
 30
0.0
 11
-379.23199077520059
 21
415.1649773125327
 31
0.0
  0
LINE
  5
35D3
  8
0
  6
CONTINUOUS
 62
     7
 10
-378.73199077520059
 20
415.1649773125327
 30
0.0
 11
-378.73199077520059
 21
415.75473191804838
 31
0.0
  0
LINE
  5
35D4
  8
0
  6
CONTINUOUS
 62
     7
 10
-398.35351650226983
 20
386.0049773125329
 30
0.0
 11
-374.35351650227
 21
386.0049773125329
 31
0.0
  0
LINE
  5
35E8
  8
0
  6
CONTINUOUS
 62
     7
 10
-396.38312300580299
 20
430.61909843030742
 30
0.0
 11
-381.28414390066359
 21
430.61909843030742
 31
0.0
  0
LINE
  5
35E9
  8
0
  6
CONTINUOUS
 62
     7
 10
-395.12729393951258
 20
430.61909843030759
 30
0.0
 11
-395.12729393951258
 21
430.11909843030759
 31
0.0
  0
LINE
  5
35EA
  8
0
  6
CONTINUOUS
 62
     7
 10
-394.6272939395127
 20
430.11909843030759
 30
0.0
 11
-394.6272939395127
 21
430.61909843030759
 31
0.0
  0
LINE
  5
35ED
  8
0
  6
CONTINUOUS
 10
-395.12729393951258
 20
428.57282887608562
 30
0.0
 11
-395.12729393951258
 21
429.45040632845303
 31
0.0
  0
LINE
  5
35EE
  8
0
  6
CONTINUOUS
 10
-394.6272939395127
 20
428.48961652131379
 30
0.0
 11
-394.6272939395127
 21
429.36719397368131
 31
0.0
  0
LINE
  5
35EF
  8
0
 10
-395.12729393951258
 20
427.80513016070279
 30
0.0
 11
-395.12729393951258
 21
427.56760964074562
 31
0.0
  0
LINE
  5
35F1
  8
0
 10
-394.6272939395127
 20
427.80513016070279
 30
0.0
 11
-394.6272939395127
 21
427.56760964074562
 31
0.0
  0
LINE
  5
35F2
  8
0
  6
CONTINUOUS
 62
     7
 10
-392.12283172486673
 20
430.6190984303077
 30
0.0
 11
-392.12283172486673
 21
430.1190984303077
 31
0.0
  0
LINE
  5
35F3
  8
0
  6
CONTINUOUS
 62
     7
 10
-391.62283172486673
 20
430.1190984303077
 30
0.0
 11
-391.62283172486673
 21
430.6190984303077
 31
0.0
  0
LINE
  5
35F4
  8
0
  6
CONTINUOUS
 10
-392.12283172486673
 20
428.57282887608562
 30
0.0
 11
-392.12283172486673
 21
429.45040632845308
 31
0.0
  0
LINE
  5
35F5
  8
0
  6
CONTINUOUS
 10
-391.62283172486673
 20
428.48961652131379
 30
0.0
 11
-391.62283172486673
 21
429.36719397368131
 31
0.0
  0
LINE
  5
35F6
  8
0
 10
-392.12283172486673
 20
427.80513016070279
 30
0.0
 11
-392.12283172486673
 21
427.56760964074567
 31
0.0
  0
LINE
  5
35F7
  8
0
 10
-391.62283172486673
 20
427.80513016070279
 30
0.0
 11
-391.62283172486673
 21
427.56760964074567
 31
0.0
  0
LINE
  5
35F8
  8
0
  6
CONTINUOUS
 62
     7
 10
-389.11836951022082
 20
430.6190984303077
 30
0.0
 11
-389.11836951022082
 21
430.1190984303077
 31
0.0
  0
LINE
  5
35F9
  8
0
  6
CONTINUOUS
 62
     7
 10
-388.61836951022082
 20
430.1190984303077
 30
0.0
 11
-388.61836951022082
 21
430.6190984303077
 31
0.0
  0
LINE
  5
35FA
  8
0
  6
CONTINUOUS
 10
-389.11836951022082
 20
428.57282887608562
 30
0.0
 11
-389.11836951022082
 21
429.45040632845308
 31
0.0
  0
LINE
  5
35FB
  8
0
  6
CONTINUOUS
 10
-388.61836951022082
 20
428.48961652131379
 30
0.0
 11
-388.61836951022082
 21
429.36719397368131
 31
0.0
  0
LINE
  5
35FC
  8
0
 10
-389.11836951022082
 20
427.80513016070279
 30
0.0
 11
-389.11836951022082
 21
427.56760964074567
 31
0.0
  0
LINE
  5
35FD
  8
0
 10
-388.61836951022082
 20
427.80513016070279
 30
0.0
 11
-388.61836951022082
 21
427.56760964074567
 31
0.0
  0
LINE
  5
35FE
  8
0
  6
CONTINUOUS
 62
     7
 10
-386.11390729557468
 20
430.61909843030759
 30
0.0
 11
-386.11390729557468
 21
430.11909843030759
 31
0.0
  0
LINE
  5
35FF
  8
0
  6
CONTINUOUS
 62
     7
 10
-385.61390729557468
 20
430.11909843030759
 30
0.0
 11
-385.61390729557468
 21
430.61909843030759
 31
0.0
  0
LINE
  5
3600
  8
0
  6
CONTINUOUS
 10
-386.11390729557468
 20
428.57282887608562
 30
0.0
 11
-386.11390729557468
 21
429.45040632845303
 31
0.0
  0
LINE
  5
3601
  8
0
  6
CONTINUOUS
 10
-385.61390729557468
 20
428.48961652131379
 30
0.0
 11
-385.61390729557468
 21
429.36719397368131
 31
0.0
  0
LINE
  5
3602
  8
0
 10
-386.89952659046088
 20
427.80513016070279
 30
0.0
 11
-386.89952659046088
 21
427.56760964074562
 31
0.0
  0
LINE
  5
3603
  8
0
 10
-386.39952659046088
 20
427.80513016070279
 30
0.0
 11
-386.39952659046088
 21
427.56760964074562
 31
0.0
  0
LINE
  5
3604
  8
0
  6
CONTINUOUS
 62
     7
 10
-383.10982952526962
 20
430.61909843030719
 30
0.0
 11
-383.10982952526962
 21
430.11909843030719
 31
0.0
  0
LINE
  5
3605
  8
0
  6
CONTINUOUS
 62
     7
 10
-382.60982952526962
 20
430.11909843030719
 30
0.0
 11
-382.60982952526962
 21
430.61909843030719
 31
0.0
  0
LINE
  5
3606
  8
0
  6
CONTINUOUS
 10
-383.10982952526962
 20
428.57282887608523
 30
0.0
 11
-383.10982952526962
 21
429.45040632845257
 31
0.0
  0
LINE
  5
3607
  8
0
  6
CONTINUOUS
 10
-382.60982952526962
 20
428.48961652131339
 30
0.0
 11
-382.60982952526962
 21
429.36719397368091
 31
0.0
  0
LINE
  5
3608
  8
0
 10
-383.10982952526962
 20
427.80513016070239
 30
0.0
 11
-383.10982952526962
 21
427.56760964074522
 31
0.0
  0
LINE
  5
3609
  8
0
 10
-382.60982952526962
 20
427.80513016070239
 30
0.0
 11
-382.60982952526962
 21
427.56760964074522
 31
0.0
  0
LINE
  5
360A
  8
0
  6
CONTINUOUS
 62
     7
 10
-383.10982952526962
 20
430.61909843030719
 30
0.0
 11
-383.10982952526962
 21
430.11909843030719
 31
0.0
  0
LINE
  5
360B
  8
0
  6
CONTINUOUS
 62
     7
 10
-382.60982952526962
 20
430.11909843030719
 30
0.0
 11
-382.60982952526962
 21
430.61909843030719
 31
0.0
  0
LINE
  5
360C
  8
0
  6
CONTINUOUS
 10
-383.10982952526962
 20
428.57282887608523
 30
0.0
 11
-383.10982952526962
 21
429.45040632845257
 31
0.0
  0
LINE
  5
360D
  8
0
  6
CONTINUOUS
 10
-382.60982952526962
 20
428.48961652131339
 30
0.0
 11
-382.60982952526962
 21
429.36719397368091
 31
0.0
  0
LINE
  5
360E
  8
0
 10
-383.10982952526962
 20
427.80513016070239
 30
0.0
 11
-383.10982952526962
 21
427.56760964074522
 31
0.0
  0
LINE
  5
360F
  8
0
 10
-382.60982952526962
 20
427.80513016070239
 30
0.0
 11
-382.60982952526962
 21
427.56760964074522
 31
0.0
  0
LINE
  5
3610
  8
0
  6
CONTINUOUS
 62
     7
 10
-380.10536731062348
 20
430.6190984303073
 30
0.0
 11
-380.10536731062348
 21
430.1190984303073
 31
0.0
  0
LINE
  5
3611
  8
0
  6
CONTINUOUS
 62
     7
 10
-379.60536731062348
 20
430.1190984303073
 30
0.0
 11
-379.60536731062348
 21
430.6190984303073
 31
0.0
  0
LINE
  5
3612
  8
0
  6
CONTINUOUS
 10
-380.10536731062348
 20
428.57282887608528
 30
0.0
 11
-380.10536731062348
 21
429.45040632845269
 31
0.0
  0
LINE
  5
3613
  8
0
  6
CONTINUOUS
 10
-379.60536731062348
 20
428.48961652131351
 30
0.0
 11
-379.60536731062348
 21
429.36719397368091
 31
0.0
  0
LINE
  5
3614
  8
0
 10
-380.10536731062348
 20
427.80513016070262
 30
0.0
 11
-380.10536731062348
 21
427.56760964074539
 31
0.0
  0
LINE
  5
3615
  8
0
 10
-379.60536731062348
 20
427.80513016070262
 30
0.0
 11
-379.60536731062348
 21
427.56760964074539
 31
0.0
  0
LINE
  5
3616
  8
0
  6
CONTINUOUS
 62
     7
 10
-380.10536731062348
 20
430.6190984303073
 30
0.0
 11
-380.10536731062348
 21
430.1190984303073
 31
0.0
  0
LINE
  5
3617
  8
0
  6
CONTINUOUS
 62
     7
 10
-379.60536731062348
 20
430.1190984303073
 30
0.0
 11
-379.60536731062348
 21
430.6190984303073
 31
0.0
  0
LINE
  5
3618
  8
0
  6
CONTINUOUS
 10
-380.10536731062348
 20
428.57282887608528
 30
0.0
 11
-380.10536731062348
 21
429.45040632845269
 31
0.0
  0
LINE
  5
3619
  8
0
  6
CONTINUOUS
 10
-379.60536731062348
 20
428.48961652131351
 30
0.0
 11
-379.60536731062348
 21
429.36719397368091
 31
0.0
  0
LINE
  5
361A
  8
0
 10
-380.10536731062348
 20
427.80513016070262
 30
0.0
 11
-380.10536731062348
 21
427.56760964074539
 31
0.0
  0
LINE
  5
361B
  8
0
 10
-379.60536731062348
 20
427.80513016070262
 30
0.0
 11
-379.60536731062348
 21
427.56760964074539
 31
0.0
  0
LINE
  5
361C
  8
0
  6
CONTINUOUS
 62
     7
 10
-377.10090509597762
 20
430.6190984303073
 30
0.0
 11
-377.10090509597762
 21
430.1190984303073
 31
0.0
  0
LINE
  5
361D
  8
0
  6
CONTINUOUS
 62
     7
 10
-376.60090509597762
 20
430.1190984303073
 30
0.0
 11
-376.60090509597762
 21
430.6190984303073
 31
0.0
  0
LINE
  5
361E
  8
0
  6
CONTINUOUS
 10
-377.10090509597762
 20
428.57282887608528
 30
0.0
 11
-377.10090509597762
 21
429.45040632845269
 31
0.0
  0
LINE
  5
361F
  8
0
  6
CONTINUOUS
 10
-376.60090509597762
 20
428.48961652131351
 30
0.0
 11
-376.60090509597762
 21
429.36719397368091
 31
0.0
  0
LINE
  5
3620
  8
0
 10
-377.10090509597762
 20
427.80513016070262
 30
0.0
 11
-377.10090509597762
 21
427.56760964074539
 31
0.0
  0
LINE
  5
3621
  8
0
 10
-376.60090509597762
 20
427.80513016070262
 30
0.0
 11
-376.60090509597762
 21
427.56760964074539
 31
0.0
  0
LINE
  5
3631
  8
0
  6
CONTINUOUS
 62
     7
 10
-396.3831230058031
 20
413.30739967502569
 30
0.0
 11
-396.38312300580299
 21
430.61909843030742
 31
0.0
  0
LINE
  5
3632
  8
0
  6
CONTINUOUS
 62
     7
 10
-395.9036736664815
 20
419.00555147519731
 30
0.0
 11
-396.38312300580321
 21
419.00555147519731
 31
0.0
  0
LINE
  5
3633
  8
0
  6
CONTINUOUS
 62
     7
 10
-396.38312300580321
 20
418.50555147519731
 30
0.0
 11
-395.9036736664815
 21
418.50555147519731
 31
0.0
  0
LINE
  5
3634
  8
0
  6
CONTINUOUS
 62
     7
 10
-395.90367366648138
 20
424.81758726938068
 30
0.0
 11
-396.38312300580299
 21
424.81758726938068
 31
0.0
  0
LINE
  5
3635
  8
0
  6
CONTINUOUS
 62
     7
 10
-396.38312300580299
 20
424.31758726938068
 30
0.0
 11
-395.90367366648138
 21
424.31758726938068
 31
0.0
  0
LINE
  5
3645
  8
0
  6
CONTINUOUS
 62
     7
 10
-380.10536731062348
 20
431.93551630163688
 30
0.0
 11
-380.10536731062348
 21
431.43551630163688
 31
0.0
  0
LINE
  5
3646
  8
0
  6
CONTINUOUS
 62
     7
 10
-379.60536731062348
 20
431.35230394686522
 30
0.0
 11
-379.60536731062348
 21
431.93551630163688
 31
0.0
  0
LINE
  5
3647
  8
0
  6
CONTINUOUS
 62
     7
 10
-377.10090509597762
 20
431.93551630163688
 30
0.0
 11
-377.10090509597762
 21
431.43551630163688
 31
0.0
  0
LINE
  5
3648
  8
0
  6
CONTINUOUS
 62
     7
 10
-376.60090509597762
 20
431.35230394686528
 30
0.0
 11
-376.60090509597762
 21
431.93551630163688
 31
0.0
  0
LINE
  5
364A
  8
0
 10
-381.28414390066359
 20
430.61909843030742
 30
0.0
 11
-381.28414390066359
 21
431.93551630163682
 31
0.0
  0
LINE
  5
364B
  8
0
 10
-381.28414390066359
 20
431.93551630163682
 30
0.0
 11
-374.85351650227011
 21
431.93551630163671
 31
0.0
  0
LINE
  5
364C
  8
0
  6
CONTINUOUS
 62
     7
 10
-394.3588843834039
 20
410.8388609459829
 30
0.0
 11
-394.95731838787822
 21
410.8388609459829
 31
0.0
  0
LINE
  5
364D
  8
0
  6
CONTINUOUS
 62
     7
 10
-394.95731838787822
 20
410.3388609459829
 30
0.0
 11
-394.3588843834039
 21
410.3388609459829
 31
0.0
  0
LINE
  5
364E
  8
0
 10
-394.95731838787822
 20
413.30739967502569
 30
0.0
 11
-394.95731838787822
 21
393.07630224674932
 31
0.0
  0
LINE
  5
3650
  8
0
  6
CONTINUOUS
 62
     7
 10
-394.3588843834039
 20
406.36719204217968
 30
0.0
 11
-394.95731838787822
 21
406.36719204217968
 31
0.0
  0
LINE
  5
3651
  8
0
  6
CONTINUOUS
 62
     7
 10
-394.95731838787822
 20
405.86719204217968
 30
0.0
 11
-394.3588843834039
 21
405.86719204217968
 31
0.0
  0
LINE
  5
3652
  8
0
  6
CONTINUOUS
 62
     7
 10
-391.43442099592897
 20
410.8388609459829
 30
0.0
 11
-392.12340561830342
 21
410.8388609459829
 31
0.0
  0
LINE
  5
3653
  8
0
  6
CONTINUOUS
 62
     7
 10
-392.12340561830342
 20
410.3388609459829
 30
0.0
 11
-391.43442099592897
 21
410.3388609459829
 31
0.0
  0
LINE
  5
3654
  8
0
  6
CONTINUOUS
 62
     7
 10
-391.43442099592897
 20
406.36719204217968
 30
0.0
 11
-392.12340561830342
 21
406.36719204217968
 31
0.0
  0
LINE
  5
3655
  8
0
  6
CONTINUOUS
 62
     7
 10
-392.12340561830342
 20
405.86719204217968
 30
0.0
 11
-391.43442099592897
 21
405.86719204217968
 31
0.0
  0
LINE
  5
3656
  8
0
  6
CONTINUOUS
 62
     7
 10
-394.35888410745861
 20
400.77744286123823
 30
0.0
 11
-394.95731811193292
 21
400.77744286123823
 31
0.0
  0
LINE
  5
3657
  8
0
  6
CONTINUOUS
 62
     7
 10
-394.95731811193292
 20
400.27744286123823
 30
0.0
 11
-394.35888410745861
 21
400.27744286123823
 31
0.0
  0
LINE
  5
3658
  8
0
  6
CONTINUOUS
 62
     7
 10
-394.35888410745861
 20
396.30577395743501
 30
0.0
 11
-394.95731811193292
 21
396.30577395743501
 31
0.0
  0
LINE
  5
3659
  8
0
  6
CONTINUOUS
 62
     7
 10
-394.95731811193292
 20
395.80577395743501
 30
0.0
 11
-394.35888410745861
 21
395.80577395743501
 31
0.0
  0
LINE
  5
365A
  8
0
  6
CONTINUOUS
 62
     7
 10
-391.43442071998368
 20
400.77744286123823
 30
0.0
 11
-392.12340534235813
 21
400.77744286123823
 31
0.0
  0
LINE
  5
365B
  8
0
  6
CONTINUOUS
 62
     7
 10
-392.12340534235813
 20
400.27744286123823
 30
0.0
 11
-391.43442071998368
 21
400.27744286123823
 31
0.0
  0
LINE
  5
365C
  8
0
  6
CONTINUOUS
 62
     7
 10
-391.43442071998368
 20
396.30577395743501
 30
0.0
 11
-392.12340534235813
 21
396.30577395743501
 31
0.0
  0
LINE
  5
365D
  8
0
  6
CONTINUOUS
 62
     7
 10
-392.12340534235813
 20
395.80577395743501
 30
0.0
 11
-391.43442071998368
 21
395.80577395743501
 31
0.0
  0
LINE
  5
365F
  8
0
 10
-396.3831230058031
 20
413.30739967502637
 30
0.0
 11
-394.95731838787822
 21
413.30739967502569
 31
0.0
  0
LINE
  5
366F
  8
0
 10
-394.95731838787822
 20
393.07630224674932
 30
0.0
 11
-392.13128900487771
 21
393.07630224674813
 31
0.0
  0
LINE
  5
3671
  8
0
 10
-392.13128900487771
 20
393.07630224674813
 30
0.0
 11
-392.13128900487771
 21
386.5049773125329
 31
0.0
  0
LINE
  5
3688
  8
0
  6
CONTINUOUS
 62
     7
 10
-426.83797095541178
 20
409.5049773125329
 30
0.0
 11
-427.33797095541178
 21
409.5049773125329
 31
0.0
  0
LINE
  5
3689
  8
0
  6
CONTINUOUS
 62
     7
 10
-427.33797095541178
 20
409.00497731253279
 30
0.0
 11
-426.83797095541178
 21
409.00497731253279
 31
0.0
  0
LINE
  5
368A
  8
0
  6
CONTINUOUS
 62
     7
 10
-426.83797095541178
 20
432.7047620776508
 30
0.0
 11
-426.83797095541178
 21
386.5049773125329
 31
0.0
  0
LINE
  5
368B
  8
0
  6
CONTINUOUS
 62
     7
 10
-426.83797095541178
 20
386.5049773125329
 30
0.0
 11
-442.39180644746273
 21
386.5049773125329
 31
0.0
  0
LINE
  5
368C
  8
0
  6
CONTINUOUS
 62
     7
 10
-430.52582340635041
 20
386.5049773125329
 30
0.0
 11
-430.52582340635041
 21
387.00497731253301
 31
0.0
  0
LINE
  5
368D
  8
0
  6
CONTINUOUS
 62
     7
 10
-431.02582340635041
 20
387.00497731253301
 30
0.0
 11
-431.02582340635041
 21
386.5049773125329
 31
0.0
  0
LINE
  5
368E
  8
0
  6
CONTINUOUS
 62
     7
 10
-450.33797095541172
 20
386.0049773125329
 30
0.0
 11
-426.33797095541189
 21
386.0049773125329
 31
0.0
  0
LINE
  5
368F
  8
0
 10
-426.33797095541189
 20
386.0049773125329
 30
0.0
 11
-426.33797095541189
 21
434.00497731253267
 31
0.0
  0
LINE
  5
3691
  8
0
  6
CONTINUOUS
 62
     7
 10
-426.83797095541189
 20
423.98484308434479
 30
0.0
 11
-427.33797095541189
 21
423.98484308434479
 31
0.0
  0
LINE
  5
3692
  8
0
  6
CONTINUOUS
 62
     7
 10
-427.33797095541189
 20
423.48484308434479
 30
0.0
 11
-426.83797095541189
 21
423.48484308434479
 31
0.0
  0
LINE
  5
3693
  8
0
  6
CONTINUOUS
 62
     7
 10
-426.83797095541189
 20
389.50497731253301
 30
0.0
 11
-427.33797095541189
 21
389.50497731253301
 31
0.0
  0
LINE
  5
3694
  8
0
  6
CONTINUOUS
 62
     7
 10
-427.33797095541189
 20
389.00497731253301
 30
0.0
 11
-426.83797095541189
 21
389.00497731253301
 31
0.0
  0
LINE
  5
36B5
  8
0
  6
CONTINUOUS
 62
     7
 10
-430.4878590985885
 20
424.12855673087728
 30
0.0
 11
-431.10647696801169
 21
424.12855673087728
 31
0.0
  0
LINE
  5
36B6
  8
0
  6
CONTINUOUS
 62
     7
 10
-431.10647696801169
 20
423.62855673087728
 30
0.0
 11
-430.4878590985885
 21
423.62855673087728
 31
0.0
  0
LINE
  5
36B7
  8
0
  6
CONTINUOUS
 62
     7
 10
-434.25636511118859
 20
423.98412031934481
 30
0.0
 11
-434.87497828731182
 21
423.98412031934481
 31
0.0
  0
LINE
  5
36B8
  8
0
  6
CONTINUOUS
 62
     7
 10
-434.87497828731182
 20
423.48412031934492
 30
0.0
 11
-434.25636511118859
 21
423.48412031934492
 31
0.0
  0
LINE
  5
36B9
  8
0
  6
CONTINUOUS
 62
     7
 10
-438.02486643048837
 20
424.12855673087728
 30
0.0
 11
-438.64348429981169
 21
424.12855673087728
 31
0.0
  0
LINE
  5
36BA
  8
0
  6
CONTINUOUS
 62
     7
 10
-438.64348429981169
 20
423.62855673087728
 30
0.0
 11
-438.02486643048837
 21
423.62855673087728
 31
0.0
  0
LINE
  5
36BB
  8
0
  6
CONTINUOUS
 62
     7
 10
-430.4878590985885
 20
409.5049773125329
 30
0.0
 11
-431.10647696801169
 21
409.5049773125329
 31
0.0
  0
LINE
  5
36BC
  8
0
  6
CONTINUOUS
 62
     7
 10
-431.10647696801169
 20
409.00497731253279
 30
0.0
 11
-430.4878590985885
 21
409.00497731253279
 31
0.0
  0
LINE
  5
36BD
  8
0
  6
CONTINUOUS
 62
     7
 10
-434.25636511118859
 20
409.5049773125329
 30
0.0
 11
-434.87497828731182
 21
409.5049773125329
 31
0.0
  0
LINE
  5
36BE
  8
0
  6
CONTINUOUS
 62
     7
 10
-434.87497828731182
 20
409.00497731253279
 30
0.0
 11
-434.25636511118859
 21
409.00497731253279
 31
0.0
  0
LINE
  5
36BF
  8
0
  6
CONTINUOUS
 62
     7
 10
-438.02486643048849
 20
392.70351165218841
 30
0.0
 11
-438.6434842998118
 21
392.70351165218841
 31
0.0
  0
LINE
  5
36C0
  8
0
  6
CONTINUOUS
 62
     7
 10
-438.6434842998118
 20
392.20351165218841
 30
0.0
 11
-438.02486643048849
 21
392.20351165218841
 31
0.0
  0
LINE
  5
36C1
  8
0
  6
CONTINUOUS
 62
     7
 10
-430.48785909868849
 20
392.70351165218841
 30
0.0
 11
-431.1064769680118
 21
392.70351165218841
 31
0.0
  0
LINE
  5
36C2
  8
0
  6
CONTINUOUS
 62
     7
 10
-431.1064769680118
 20
392.20351165218841
 30
0.0
 11
-430.48785909868849
 21
392.20351165218841
 31
0.0
  0
LINE
  5
36C3
  8
0
  6
CONTINUOUS
 62
     7
 10
-434.25636041798839
 20
392.70351165218841
 30
0.0
 11
-434.87497828731182
 21
392.70351165218841
 31
0.0
  0
LINE
  5
36C4
  8
0
  6
CONTINUOUS
 62
     7
 10
-434.87497828731182
 20
392.20351165218841
 30
0.0
 11
-434.25636041798839
 21
392.20351165218841
 31
0.0
  0
LINE
  5
36C5
  8
0
  6
CONTINUOUS
 62
     7
 10
-438.02487112368863
 20
409.5049773125329
 30
0.0
 11
-438.64348429981169
 21
409.5049773125329
 31
0.0
  0
LINE
  5
36C6
  8
0
  6
CONTINUOUS
 62
     7
 10
-438.64348429981169
 20
409.00497731253279
 30
0.0
 11
-438.02487112368863
 21
409.00497731253279
 31
0.0
  0
LINE
  5
36C7
  8
0
  6
CONTINUOUS
 62
     7
 10
-435.08474321395431
 20
386.50461593003291
 30
0.0
 11
-435.08474321395431
 21
387.00461593003291
 31
0.0
  0
LINE
  5
36C8
  8
0
  6
CONTINUOUS
 62
     7
 10
-435.58474321395431
 20
387.00461593003291
 30
0.0
 11
-435.58474321395431
 21
386.50461593003291
 31
0.0
  0
LINE
  5
36C9
  8
0
  6
CONTINUOUS
 62
     7
 10
-439.68008017001767
 20
386.50425454753298
 30
0.0
 11
-439.68008017001767
 21
387.00425454753298
 31
0.0
  0
LINE
  5
36CA
  8
0
  6
CONTINUOUS
 62
     7
 10
-440.18008017001767
 20
387.00425454753298
 30
0.0
 11
-440.18008017001767
 21
386.50425454753298
 31
0.0
  0
LINE
  5
36CC
  8
0
  6
CONTINUOUS
 62
     7
 10
-428.37529359860702
 20
429.88113081886621
 30
0.0
 11
-428.37529359860702
 21
429.29137621335047
 31
0.0
  0
LINE
  5
36CD
  8
0
  6
CONTINUOUS
 62
     7
 10
-427.87529359860702
 20
429.29137621335047
 30
0.0
 11
-427.87529359860702
 21
429.88113081886621
 31
0.0
  0
LINE
  5
36CF
  8
0
  6
CONTINUOUS
 62
     7
 10
-428.37529359860702
 20
426.96833370775772
 30
0.0
 11
-428.37529359860702
 21
426.37857910224187
 31
0.0
  0
LINE
  5
36D0
  8
0
  6
CONTINUOUS
 62
     7
 10
-427.87529359860702
 20
426.37857910224187
 30
0.0
 11
-427.87529359860702
 21
426.96833370775772
 31
0.0
  0
LINE
  5
36E7
  8
0
  6
CONTINUOUS
 62
     7
 10
-427.59944153461993
 20
386.50461593003291
 30
0.0
 11
-427.59944153461993
 21
387.00461593003291
 31
0.0
  0
LINE
  5
36E8
  8
0
  6
CONTINUOUS
 62
     7
 10
-428.09944153461981
 20
387.00461593003291
 30
0.0
 11
-428.09944153461981
 21
386.50461593003291
 31
0.0
  0
LINE
  5
36EB
  8
0
  6
CONTINUOUS
 62
     7
 10
-430.94540434581057
 20
432.70476207765068
 30
0.0
 11
-426.83797095541178
 21
432.70476207765068
 31
0.0
  0
LINE
  5
36EC
  8
0
  6
CONTINUOUS
 62
     7
 10
-428.4284255896585
 20
432.70476207765068
 30
0.0
 11
-428.4284255896585
 21
432.20476207765068
 31
0.0
  0
LINE
  5
36ED
  8
0
  6
CONTINUOUS
 62
     7
 10
-427.9284255896585
 20
432.20476207765068
 30
0.0
 11
-427.9284255896585
 21
432.70476207765068
 31
0.0
  0
LINE
  5
36F2
  8
0
  6
CONTINUOUS
 62
     7
 10
-432.8251570574991
 20
430.31214918697577
 30
0.0
 11
-432.8251570574991
 21
430.81214918697577
 31
0.0
  0
LINE
  5
36F3
  8
0
  6
CONTINUOUS
 62
     7
 10
-433.3251570574991
 20
430.81214918697577
 30
0.0
 11
-433.3251570574991
 21
430.31214918697577
 31
0.0
  0
LINE
  5
36F4
  8
0
  6
CONTINUOUS
 62
     7
 10
-440.36216438929898
 20
430.31143111527581
 30
0.0
 11
-440.36216438929898
 21
430.81143111527581
 31
0.0
  0
LINE
  5
36F5
  8
0
  6
CONTINUOUS
 62
     7
 10
-440.8621643892991
 20
430.81143111527581
 30
0.0
 11
-440.8621643892991
 21
430.31143111527581
 31
0.0
  0
LINE
  5
36FC
  8
0
  6
CONTINUOUS
 62
     7
 10
-444.65578855037108
 20
430.81143111527581
 30
0.0
 11
-430.94540434581057
 21
430.81143111527581
 31
0.0
  0
LINE
  5
36FD
  8
0
  6
CONTINUOUS
 62
     7
 10
-430.44540434581057
 20
431.54410273967039
 30
0.0
 11
-430.94540434581057
 21
431.54410273967039
 31
0.0
  0
LINE
  5
36FE
  8
0
  6
CONTINUOUS
 62
     7
 10
-430.94540434581057
 20
431.04410273967039
 30
0.0
 11
-430.44540434581057
 21
431.04410273967039
 31
0.0
  0
LINE
  5
36FF
  8
0
 10
-430.94540434581057
 20
430.81143111527581
 30
0.0
 11
-430.94540434581057
 21
432.70476207765068
 31
0.0
  0
LINE
  5
370F
  8
0
  6
CONTINUOUS
 62
     7
 10
-444.15578855037103
 20
428.520894202524
 30
0.0
 11
-444.65578855037103
 21
428.520894202524
 31
0.0
  0
LINE
  5
3710
  8
0
  6
CONTINUOUS
 62
     7
 10
-444.65578855037103
 20
428.020894202524
 30
0.0
 11
-444.15578855037103
 21
428.020894202524
 31
0.0
  0
LINE
  5
3711
  8
0
 10
-444.65578855037108
 20
426.48522562382891
 30
0.0
 11
-444.65578855037108
 21
430.81143111527581
 31
0.0
  0
LINE
  5
3712
  8
0
  6
CONTINUOUS
 62
     7
 10
-441.79337244298841
 20
393.1649773125331
 30
0.0
 11
-442.39180644746261
 21
393.1649773125331
 31
0.0
  0
LINE
  5
3713
  8
0
  6
CONTINUOUS
 62
     7
 10
-442.39180644746261
 20
392.66497731253321
 30
0.0
 11
-441.79337244298841
 21
392.66497731253321
 31
0.0
  0
LINE
  5
3714
  8
0
  6
CONTINUOUS
 62
     7
 10
-441.79337244298841
 20
409.50497731253319
 30
0.0
 11
-442.39180644746273
 21
409.50497731253319
 31
0.0
  0
LINE
  5
3715
  8
0
  6
CONTINUOUS
 62
     7
 10
-442.39180644746273
 20
409.00497731253319
 30
0.0
 11
-441.79337244298841
 21
409.00497731253319
 31
0.0
  0
LINE
  5
3716
  8
0
 10
-442.39180644746261
 20
426.4852256238288
 30
0.0
 11
-442.39180644746273
 21
386.5049773125329
 31
0.0
  0
LINE
  5
3717
  8
0
  6
CONTINUOUS
 62
     7
 10
-441.79337244298841
 20
424.12855673087728
 30
0.0
 11
-442.41199031231167
 21
424.12855673087728
 31
0.0
  0
LINE
  5
3718
  8
0
  6
CONTINUOUS
 62
     7
 10
-442.41199031231167
 20
423.62855673087728
 30
0.0
 11
-441.79337244298841
 21
423.62855673087728
 31
0.0
  0
LINE
  5
371B
  8
0
 10
-442.39180644746261
 20
426.4852256238288
 30
0.0
 11
-444.65578855037108
 21
426.48522562382891
 31
0.0
  0
LINE
  5
371E
  8
0
  6
CONTINUOUS
 62
     7
 10
-430.44540434581057
 20
428.37985496055421
 30
0.0
 11
-431.10647696801169
 21
428.37985496055421
 31
0.0
  0
LINE
  5
371F
  8
0
  6
CONTINUOUS
 62
     7
 10
-431.10647696801169
 20
427.87985496055421
 30
0.0
 11
-430.44540434581057
 21
427.87985496055421
 31
0.0
  0
LINE
  5
3721
  8
0
 10
-426.33797095541189
 20
434.00497731253267
 30
0.0
 11
-450.33797095541189
 21
434.00497731253267
 31
0.0
  0
LINE
  5
3722
  8
0
 10
-450.33797095541189
 20
434.00497731253267
 30
0.0
 11
-450.33797095541189
 21
386.0049773125329
 31
0.0
  0
LINE
  5
3723
  8
0
 10
-374.35351650227
 20
386.0049773125329
 30
0.0
 11
-374.35351650227
 21
434.00497731253267
 31
0.0
  0
LINE
  5
3724
  8
0
 10
-374.35351650227
 20
434.00497731253267
 30
0.0
 11
-398.35351650226983
 21
434.00497731253267
 31
0.0
  0
LINE
  5
3725
  8
0
 10
-398.35351650226983
 20
434.00497731253267
 30
0.0
 11
-398.35351650226983
 21
386.0049773125329
 31
0.0
  0
ENDSEC
  0
EOF
