  0
SECTION
  2
HEADER
  9
$ACADVER
  1
AC1009
  9
$INSBASE
 10
0.0
 20
0.0
 30
0.0
  9
$EXTMIN
 10
-559.52501687891345
 20
290.28316727705101
 30
0.0
  9
$EXTMAX
 10
-232.3690592992568
 20
456.35950840302792
 30
0.0
  9
$LIMMIN
 10
0.0
 20
0.0
  9
$LIMMAX
 10
841.0
 20
594.0
  9
$ORTHOMODE
 70
     1
  9
$REGENMODE
 70
     1
  9
$FILLMODE
 70
     1
  9
$QTEXTMODE
 70
     0
  9
$MIRRTEXT
 70
     1
  9
$DRAGMODE
 70
     2
  9
$LTSCALE
 40
1.0
  9
$OSMODE
 70
    37
  9
$ATTMODE
 70
     1
  9
$TEXTSIZE
 40
3.5
  9
$TRACEWID
 40
1.0
  9
$TEXTSTYLE
  7
STANDARD
  9
$CLAYER
  8
ERASE
  9
$CELTYPE
  6
BYLAYER
  9
$CECOLOR
 62
   256
  9
$DIMSCALE
 40
1.0
  9
$DIMASZ
 40
3.302
  9
$DIMEXO
 40
1.0
  9
$DIMDLI
 40
3.75
  9
$DIMRND
 40
0.0
  9
$DIMDLE
 40
0.0
  9
$DIMEXE
 40
1.0
  9
$DIMTP
 40
0.0
  9
$DIMTM
 40
0.0
  9
$DIMTXT
 40
3.5
  9
$DIMCEN
 40
2.5
  9
$DIMTSZ
 40
0.0
  9
$DIMTOL
 70
     0
  9
$DIMLIM
 70
     0
  9
$DIMTIH
 70
     1
  9
$DIMTOH
 70
     1
  9
$DIMSE1
 70
     0
  9
$DIMSE2
 70
     0
  9
$DIMTAD
 70
     1
  9
$DIMZIN
 70
     0
  9
$DIMBLK
  1

  9
$DIMASO
 70
     1
  9
$DIMSHO
 70
     1
  9
$DIMPOST
  1

  9
$DIMAPOST
  1

  9
$DIMALT
 70
     0
  9
$DIMALTD
 70
     3
  9
$DIMALTF
 40
0.0393700787
  9
$DIMLFAC
 40
1.0
  9
$DIMTOFL
 70
     1
  9
$DIMTVP
 40
0.0
  9
$DIMTIX
 70
     0
  9
$DIMSOXD
 70
     0
  9
$DIMSAH
 70
     0
  9
$DIMBLK1
  1

  9
$DIMBLK2
  1

  9
$DIMSTYLE
  2
ISO-25
  9
$DIMCLRD
 70
     0
  9
$DIMCLRE
 70
     0
  9
$DIMCLRT
 70
     0
  9
$DIMTFAC
 40
1.0
  9
$DIMGAP
 40
1.524
  9
$LUNITS
 70
     2
  9
$LUPREC
 70
     2
  9
$SKETCHINC
 40
1.0
  9
$FILLETRAD
 40
1.0
  9
$AUNITS
 70
     0
  9
$AUPREC
 70
     2
  9
$MENU
  1
.
  9
$ELEVATION
 40
0.0
  9
$PELEVATION
 40
0.0
  9
$THICKNESS
 40
0.0
  9
$LIMCHECK
 70
     0
  9
$BLIPMODE
 70
     0
  9
$CHAMFERA
 40
10.0
  9
$CHAMFERB
 40
10.0
  9
$SKPOLY
 70
     0
  9
$TDCREATE
 40
2457108.6347797448
  9
$TDUPDATE
 40
2457148.0381903942
  9
$TDINDWG
 40
0.2294466551
  9
$TDUSRTIMER
 40
0.2294466551
  9
$USRTIMER
 70
     1
  9
$ANGBASE
 50
0.0
  9
$ANGDIR
 70
     0
  9
$PDMODE
 70
     0
  9
$PDSIZE
 40
-1.0
  9
$PLINEWID
 40
0.0
  9
$COORDS
 70
     1
  9
$SPLFRAME
 70
     0
  9
$SPLINETYPE
 70
     6
  9
$SPLINESEGS
 70
     8
  9
$ATTDIA
 70
     1
  9
$ATTREQ
 70
     1
  9
$HANDLING
 70
     1
  9
$HANDSEED
  5
2E2E
  9
$SURFTAB1
 70
     6
  9
$SURFTAB2
 70
     6
  9
$SURFTYPE
 70
     6
  9
$SURFU
 70
     6
  9
$SURFV
 70
     6
  9
$UCSNAME
  2

  9
$UCSORG
 10
0.0
 20
0.0
 30
0.0
  9
$UCSXDIR
 10
1.0
 20
0.0
 30
0.0
  9
$UCSYDIR
 10
0.0
 20
1.0
 30
0.0
  9
$PUCSNAME
  2

  9
$PUCSORG
 10
0.0
 20
0.0
 30
0.0
  9
$PUCSXDIR
 10
1.0
 20
0.0
 30
0.0
  9
$PUCSYDIR
 10
0.0
 20
1.0
 30
0.0
  9
$USERI1
 70
     0
  9
$USERI2
 70
     0
  9
$USERI3
 70
     0
  9
$USERI4
 70
     0
  9
$USERI5
 70
     0
  9
$USERR1
 40
0.0
  9
$USERR2
 40
0.0
  9
$USERR3
 40
0.0
  9
$USERR4
 40
0.0
  9
$USERR5
 40
0.0
  9
$WORLDVIEW
 70
     1
  9
$SHADEDGE
 70
     3
  9
$SHADEDIF
 70
    70
  9
$TILEMODE
 70
     1
  9
$MAXACTVP
 70
    64
  9
$PLIMCHECK
 70
     0
  9
$PEXTMIN
 10
1.0000000000000000E+020
 20
1.0000000000000000E+020
 30
1.0000000000000000E+020
  9
$PEXTMAX
 10
-1.0000000000000000E+020
 20
-1.0000000000000000E+020
 30
-1.0000000000000000E+020
  9
$PLIMMIN
 10
0.0
 20
0.0
  9
$PLIMMAX
 10
420.0
 20
297.0
  9
$UNITMODE
 70
     0
  9
$VISRETAIN
 70
     1
  9
$PLINEGEN
 70
     0
  9
$PSLTSCALE
 70
     1
  0
ENDSEC
  0
SECTION
  2
TABLES
  0
TABLE
  2
VPORT
 70
     1
  0
VPORT
  2
*ACTIVE
 70
     0
 10
0.0
 20
0.0
 11
1.0
 21
1.0
 12
-422.31541516894612
 22
402.4341091786402
 13
0.0
 23
0.0
 14
10.0
 24
10.0
 15
10.0
 25
10.0
 16
0.0
 26
0.0
 36
1.0
 17
0.0
 27
0.0
 37
0.0
 40
84.533088183266045
 41
2.318681318681318
 42
50.0
 43
0.0
 44
0.0
 50
0.0
 51
0.0
 71
     0
 72
  2000
 73
     1
 74
     3
 75
     0
 76
     0
 77
     0
 78
     0
  0
ENDTAB
  0
TABLE
  2
LTYPE
 70
     7
  0
LTYPE
  2
CONTINUOUS
 70
     0
  3
Solid line
 72
    65
 73
     0
 40
0.0
  0
LTYPE
  2
HIDDEN
 70
     0
  3
Hidden __ __ __ __ __ __ __ __ __ __ __ __ __ __
 72
    65
 73
     2
 40
1.905
 49
1.27
 49
-0.635
  0
LTYPE
  2
PHANTOM
 70
     0
  3
Phantom ______  __  __  ______  __  __  ______
 72
    65
 73
     6
 40
12.699999999999999
 49
6.3499999999999988
 49
-1.27
 49
1.27
 49
-1.27
 49
1.27
 49
-1.27
  0
LTYPE
  2
CENTER
 70
     0
  3
Center ____ _ ____ _ ____ _ ____ _ ____ _ ____
 72
    65
 73
     4
 40
10.16
 49
6.3499999999999988
 49
-1.27
 49
1.27
 49
-1.27
  0
LTYPE
  2
CENTERX2
 70
     0
  3
Center (2x) ________  __  ________  __  _____
 72
    65
 73
     4
 40
20.32
 49
12.699999999999999
 49
-2.54
 49
2.54
 49
-2.54
  0
LTYPE
  2
DOT2
 70
     0
  3
Dot (.5x) ........................................
 72
    65
 73
     2
 40
0.635
 49
0.0
 49
-0.635
  0
ENDTAB
  0
TABLE
  2
LAYER
 70
     5
  0
LAYER
  2
0
 70
     0
 62
     7
  6
CONTINUOUS
  0
LAYER
  2
FORMAT
 70
     0
 62
     7
  6
CONTINUOUS
  0
LAYER
  2
DEFPOINTS
 70
     0
 62
     7
  6
CONTINUOUS
  0
LAYER
  2
PROFILE_-_OUTSIDE
 70
     0
 62
    18
  6
CONTINUOUS
  0
LAYER
  2
ERASE
 70
     0
 62
    10
  6
CONTINUOUS
  0
ENDTAB
  0
TABLE
  2
STYLE
 70
     3
  0
STYLE
  2
STANDARD
 70
     0
 40
0.0
 41
1.0
 50
0.0
 71
     0
 42
3.5
  3
txt
  4

  0
STYLE
  2
SLDTEXTSTYLE0
 70
     0
 40
0.0
 41
0.75
 50
0.0
 71
     0
 42
0.2
  3
TXT
  4

  0
STYLE
  2
SLDTEXTSTYLE1
 70
     0
 40
0.0
 41
0.6875
 50
0.0
 71
     0
 42
0.2
  3
TXT
  4

  0
ENDTAB
  0
TABLE
  2
VIEW
 70
     1
  0
ENDTAB
  0
TABLE
  2
UCS
 70
     0
  0
ENDTAB
  0
TABLE
  2
APPID
 70
     7
  0
APPID
  2
ACAD
 70
     0
  0
APPID
  2
ACAD_NAV_VCDISPLAY
 70
     0
  0
APPID
  2
ACAD_DSTYLE_DIMRADIAL_EXTENSION
 70
     0
  0
APPID
  2
ACAD_EXEMPT_FROM_CAD_STANDARDS
 70
     0
  0
APPID
  2
ACAECLAYERSTANDARD
 70
     0
  0
APPID
  2
ACCMTRANSPARENCY
 70
     0
  0
APPID
  2
ACAD_MLEADERVER
 70
     0
  0
ENDTAB
  0
TABLE
  2
DIMSTYLE
 70
     3
  0
DIMSTYLE
  2
ISO-25
 70
     0
  3

  4

  5

  6

  7

 40
1.0
 41
2.5
 42
0.625
 43
3.75
 44
1.25
 45
0.0
 46
0.0
 47
0.0
 48
0.0
140
2.5
141
2.5
142
0.0
143
0.0393700787
144
1.0
145
0.0
146
1.0
147
0.625
 71
     0
 72
     0
 73
     0
 74
     0
 75
     0
 76
     0
 77
     1
 78
     8
170
     0
171
     3
172
     1
173
     0
174
     0
175
     0
176
     0
177
     0
178
     0
  0
DIMSTYLE
  2
STANDARD
 70
     0
  3

  4

  5

  6

  7

 40
1.0
 41
0.18
 42
0.0625
 43
0.38
 44
0.18
 45
0.0
 46
0.0
 47
0.0
 48
0.0
140
0.18
141
0.09
142
0.0
143
25.399999999999999
144
1.0
145
0.0
146
1.0
147
0.09
 71
     0
 72
     0
 73
     1
 74
     1
 75
     0
 76
     0
 77
     0
 78
     0
170
     0
171
     2
172
     0
173
     0
174
     0
175
     0
176
     0
177
     0
178
     0
  0
ENDTAB
  0
ENDSEC
  0
SECTION
  2
BLOCKS
  0
BLOCK
  8
0
  2
$MODEL_SPACE
 70
     0
 10
0.0
 20
0.0
 30
0.0
  3
$MODEL_SPACE
  1

  0
ENDBLK
  5
21
  8
0
  0
BLOCK
 67
     1
  8
0
  2
$PAPER_SPACE
 70
     0
 10
0.0
 20
0.0
 30
0.0
  3
$PAPER_SPACE
  1

  0
ENDBLK
  5
1D
 67
     1
  8
0
  0
BLOCK
  8
0
  2
SW_NOTE_0
 70
     0
 10
0.0
 20
0.0
 30
0.0
  3
SW_NOTE_0
  1

  0
INSERT
  5
79
  8
ERASE
  2
*U6
 10
0.0
 20
0.0
 30
0.0
  0
INSERT
  5
7A
  8
ERASE
  2
*U7
 10
0.0
 20
0.0
 30
0.0
  0
INSERT
  5
7B
  8
ERASE
  2
*U8
 10
0.0
 20
0.0
 30
0.0
  0
ENDBLK
  5
78
  8
0
  0
BLOCK
  8
0
  2
SW_NOTE_1
 70
     0
 10
0.0
 20
0.0
 30
0.0
  3
SW_NOTE_1
  1

  0
INSERT
  5
81
  8
ERASE
  2
*U9
 10
0.0
 20
0.0
 30
0.0
  0
INSERT
  5
82
  8
ERASE
  2
*U10
 10
0.0
 20
0.0
 30
0.0
  0
INSERT
  5
83
  8
ERASE
  2
*U11
 10
0.0
 20
0.0
 30
0.0
  0
INSERT
  5
84
  8
ERASE
  2
*U12
 10
0.0
 20
0.0
 30
0.0
  0
INSERT
  5
85
  8
ERASE
  2
*U13
 10
0.0
 20
0.0
 30
0.0
  0
INSERT
  5
86
  8
ERASE
  2
*U14
 10
0.0
 20
0.0
 30
0.0
  0
ENDBLK
  5
80
  8
0
  0
BLOCK
  8
0
  2
SW_CENTERMARKSYMBOL_0
 70
     0
 10
0.0
 20
0.0
 30
0.0
  3
SW_CENTERMARKSYMBOL_0
  1

  0
LINE
  5
C9
  8
0
  6
CONTINUOUS
 62
     0
 10
0.0
 20
0.0
 30
0.0
 11
0.0
 21
2.5
 31
0.0
  0
LINE
  5
CA
  8
0
  6
CONTINUOUS
 62
     0
 10
0.0
 20
0.0
 30
0.0
 11
-2.5
 21
0.0
 31
0.0
  0
LINE
  5
CB
  8
0
  6
CONTINUOUS
 62
     0
 10
0.0
 20
0.0
 30
0.0
 11
0.0
 21
-2.5
 31
0.0
  0
LINE
  5
CC
  8
0
  6
CONTINUOUS
 62
     0
 10
0.0
 20
0.0
 30
0.0
 11
2.5
 21
0.0
 31
0.0
  0
LINE
  5
CD
  8
0
  6
CONTINUOUS
 62
     0
 10
0.0
 20
5.0
 30
0.0
 11
0.0
 21
8.8499999999999996
 31
0.0
  0
LINE
  5
CE
  8
0
  6
CONTINUOUS
 62
     0
 10
-5.0
 20
0.0
 30
0.0
 11
-8.8499999999999996
 21
0.0
 31
0.0
  0
LINE
  5
CF
  8
0
  6
CONTINUOUS
 62
     0
 10
0.0
 20
-5.0
 30
0.0
 11
0.0
 21
-8.8499999999999996
 31
0.0
  0
LINE
  5
D0
  8
0
  6
CONTINUOUS
 62
     0
 10
5.0
 20
0.0
 30
0.0
 11
8.8499999999999996
 21
0.0
 31
0.0
  0
ENDBLK
  5
C8
  8
0
  0
BLOCK
  8
0
  2
SW_CENTERMARKSYMBOL_1
 70
     0
 10
0.0
 20
0.0
 30
0.0
  3
SW_CENTERMARKSYMBOL_1
  1

  0
LINE
  5
18B
  8
0
  6
CONTINUOUS
 62
     0
 10
0.0
 20
0.0
 30
0.0
 11
0.0
 21
2.5
 31
0.0
  0
LINE
  5
18C
  8
0
  6
CONTINUOUS
 62
     0
 10
0.0
 20
0.0
 30
0.0
 11
-2.5
 21
0.0
 31
0.0
  0
LINE
  5
18D
  8
0
  6
CONTINUOUS
 62
     0
 10
0.0
 20
0.0
 30
0.0
 11
0.0
 21
-2.5
 31
0.0
  0
LINE
  5
18E
  8
0
  6
CONTINUOUS
 62
     0
 10
0.0
 20
0.0
 30
0.0
 11
2.5
 21
0.0
 31
0.0
  0
LINE
  5
18F
  8
0
  6
CONTINUOUS
 62
     0
 10
0.0
 20
5.0
 30
0.0
 11
0.0
 21
7.5
 31
0.0
  0
LINE
  5
190
  8
0
  6
CONTINUOUS
 62
     0
 10
-5.0
 20
0.0
 30
0.0
 11
-7.5
 21
0.0
 31
0.0
  0
LINE
  5
191
  8
0
  6
CONTINUOUS
 62
     0
 10
0.0
 20
-5.0
 30
0.0
 11
0.0
 21
-7.5
 31
0.0
  0
LINE
  5
192
  8
0
  6
CONTINUOUS
 62
     0
 10
5.0
 20
0.0
 30
0.0
 11
7.5
 21
0.0
 31
0.0
  0
ENDBLK
  5
18A
  8
0
  0
BLOCK
  8
0
  2
*U6
 70
     1
 10
0.0
 20
0.0
 30
0.0
  3
*U6
  1

  0
TEXT
  5
28BE
  8
0
 62
     0
 10
0.0
 20
0.4336016097
 30
0.0
 40
1.5
  1
DEBUR AND
 41
0.75
  7
SLDTEXTSTYLE0
  0
ENDBLK
  5
28C0
  8
0
  0
BLOCK
  8
0
  2
*U7
 70
     1
 10
0.0
 20
0.0
 30
0.0
  3
*U7
  1

  0
TEXT
  5
28C2
  8
0
 62
     0
 10
0.0
 20
-2.0663983345000001
 30
0.0
 40
1.5
  1
BREAK SHARP
 41
0.75
  7
SLDTEXTSTYLE0
  0
ENDBLK
  5
28C4
  8
0
  0
BLOCK
  8
0
  2
*U8
 70
     1
 10
0.0
 20
0.0
 30
0.0
  3
*U8
  1

  0
TEXT
  5
28C6
  8
0
 62
     0
 10
0.0
 20
-4.5663982786000004
 30
0.0
 40
1.5
  1
EDGES
 41
0.75
  7
SLDTEXTSTYLE0
  0
ENDBLK
  5
28C8
  8
0
  0
BLOCK
  8
0
  2
*U9
 70
     1
 10
0.0
 20
0.0
 30
0.0
  3
*U9
  1

  0
TEXT
  5
28CA
  8
0
 62
     0
 10
0.0
 20
0.4336016097
 30
0.0
 40
1.5
  1
UNLESS OTHERWISE SPECIFIED:
 41
0.75
  7
SLDTEXTSTYLE0
  0
ENDBLK
  5
28CC
  8
0
  0
BLOCK
  8
0
  2
*U10
 70
     1
 10
0.0
 20
0.0
 30
0.0
  3
*U10
  1

  0
TEXT
  5
28CE
  8
0
 62
     0
 10
0.0
 20
-2.0663983345000001
 30
0.0
 40
1.5
  1
DIMENSIONS ARE IN MILLIMETERS
 41
0.75
  7
SLDTEXTSTYLE0
  0
ENDBLK
  5
28D0
  8
0
  0
BLOCK
  8
0
  2
*U11
 70
     1
 10
0.0
 20
0.0
 30
0.0
  3
*U11
  1

  0
TEXT
  5
28D2
  8
0
 62
     0
 10
0.0
 20
-4.5663982786000004
 30
0.0
 40
1.5
  1
SURFACE FINISH:
 41
0.75
  7
SLDTEXTSTYLE0
  0
ENDBLK
  5
28D4
  8
0
  0
BLOCK
  8
0
  2
*U12
 70
     1
 10
0.0
 20
0.0
 30
0.0
  3
*U12
  1

  0
TEXT
  5
28D6
  8
0
 62
     0
 10
0.0
 20
-7.0663982227000002
 30
0.0
 40
1.5
  1
TOLERANCES:
 41
0.75
  7
SLDTEXTSTYLE0
  0
ENDBLK
  5
28D8
  8
0
  0
BLOCK
  8
0
  2
*U13
 70
     1
 10
0.0
 20
0.0
 30
0.0
  3
*U13
  1

  0
TEXT
  5
28DA
  8
0
 62
     0
 10
1.6875
 20
-9.5663981667999991
 30
0.0
 40
1.5
  1
LINEAR:
 41
0.75
  7
SLDTEXTSTYLE0
  0
ENDBLK
  5
28DC
  8
0
  0
BLOCK
  8
0
  2
*U14
 70
     1
 10
0.0
 20
0.0
 30
0.0
  3
*U14
  1

  0
TEXT
  5
28DE
  8
0
 62
     0
 10
1.6875
 20
-12.0663981109
 30
0.0
 40
1.5
  1
ANGULAR:
 41
0.75
  7
SLDTEXTSTYLE0
  0
ENDBLK
  5
28E0
  8
0
  0
ENDSEC
  0
SECTION
  2
ENTITIES
  0
POLYLINE
  5
2674
  8
ERASE
 66
     1
 10
0.0
 20
0.0
 30
0.0
 70
     1
  0
VERTEX
  5
291D
  8
ERASE
 10
-424.69784925013289
 20
434.00497731253279
 30
0.0
  0
VERTEX
  5
291E
  8
ERASE
 10
-400.697849250133
 20
434.00497731253279
 30
0.0
  0
VERTEX
  5
291F
  8
ERASE
 10
-400.697849250133
 20
386.0049773125329
 30
0.0
  0
VERTEX
  5
2920
  8
ERASE
 10
-424.69784925013289
 20
386.0049773125329
 30
0.0
  0
SEQEND
  5
2921
  8
ERASE
  0
POLYLINE
  5
2675
  8
ERASE
 66
     1
 10
0.0
 20
0.0
 30
0.0
 70
     1
  0
VERTEX
  5
2922
  8
ERASE
 10
-398.35351650226988
 20
434.00497731253279
 30
0.0
  0
VERTEX
  5
2923
  8
ERASE
 10
-374.35351650227
 20
434.00497731253279
 30
0.0
  0
VERTEX
  5
2924
  8
ERASE
 10
-374.35351650227
 20
386.0049773125329
 30
0.0
  0
VERTEX
  5
2925
  8
ERASE
 10
-398.35351650226988
 20
386.0049773125329
 30
0.0
  0
SEQEND
  5
2926
  8
ERASE
  0
POLYLINE
  5
2676
  8
ERASE
 66
     1
 10
0.0
 20
0.0
 30
0.0
 70
     1
  0
VERTEX
  5
2927
  8
ERASE
 10
-372.20289113336679
 20
434.00497731253279
 30
0.0
  0
VERTEX
  5
2928
  8
ERASE
 10
-348.2028911333669
 20
434.00497731253279
 30
0.0
  0
VERTEX
  5
2929
  8
ERASE
 10
-348.2028911333669
 20
386.0049773125329
 30
0.0
  0
VERTEX
  5
292A
  8
ERASE
 10
-372.20289113336679
 20
386.0049773125329
 30
0.0
  0
SEQEND
  5
292B
  8
ERASE
  0
POLYLINE
  5
2677
  8
ERASE
 66
     1
 10
0.0
 20
0.0
 30
0.0
 70
     1
  0
VERTEX
  5
292C
  8
ERASE
 10
-481.41110308459469
 20
434.00497731253279
 30
0.0
  0
VERTEX
  5
292D
  8
ERASE
 10
-457.41110308459469
 20
434.00497731253279
 30
0.0
  0
VERTEX
  5
292E
  8
ERASE
 10
-457.41110308459469
 20
386.0049773125329
 30
0.0
  0
VERTEX
  5
292F
  8
ERASE
 10
-481.41110308459469
 20
386.0049773125329
 30
0.0
  0
SEQEND
  5
2930
  8
ERASE
  0
LINE
  5
2681
  8
0
  6
CONTINUOUS
 10
-365.59112706859997
 20
394.02188880136828
 30
0.0
 11
-364.8737956270258
 21
394.02188880136828
 31
0.0
  0
LINE
  5
2682
  8
0
  6
CONTINUOUS
 10
-364.8737956270258
 20
393.5653653285683
 30
0.0
 11
-365.59112706859997
 21
393.5653653285683
 31
0.0
  0
LINE
  5
2685
  8
0
  6
CONTINUOUS
 10
-365.59112706859997
 20
398.11785663106832
 30
0.0
 11
-364.8737956270258
 21
398.11785663106832
 31
0.0
  0
LINE
  5
2686
  8
0
  6
CONTINUOUS
 10
-364.8737956270258
 20
397.45234261246833
 30
0.0
 11
-365.59112706859997
 21
397.45234261246833
 31
0.0
  0
LINE
  5
2689
  8
0
  6
CONTINUOUS
 10
-365.59112706859997
 20
402.72760945886819
 30
0.0
 11
-364.8737956270258
 21
402.72760945886819
 31
0.0
  0
LINE
  5
268A
  8
0
  6
CONTINUOUS
 10
-364.8737956270258
 20
402.19335472396818
 30
0.0
 11
-365.59112706859997
 21
402.19335472396818
 31
0.0
  0
LINE
  5
2694
  8
0
  6
CONTINUOUS
 10
-376.2519638199775
 20
427.15760964074548
 30
0.0
 11
-376.2519638199775
 21
427.80513016070267
 31
0.0
  0
LINE
  5
26A3
  8
0
  6
CONTINUOUS
 10
-366.99176640830012
 20
407.72716667853967
 30
0.0
 11
-366.99176640830012
 21
408.43897754893959
 31
0.0
  0
LINE
  5
26A4
  8
0
  6
CONTINUOUS
 10
-366.55282513229997
 20
408.43205496223959
 30
0.0
 11
-366.55282513229997
 21
407.73408926523962
 31
0.0
  0
LINE
  5
26A7
  8
0
  6
CONTINUOUS
 10
-364.8737956270258
 20
405.66761500403959
 30
0.0
 11
-365.59112765530011
 21
405.66761500403959
 31
0.0
  0
LINE
  5
26A8
  8
0
  6
CONTINUOUS
 10
-365.59112765530011
 20
406.32133246553963
 30
0.0
 11
-364.8737956270258
 21
406.32133246553963
 31
0.0
  0
LINE
  5
26AB
  8
0
  6
CONTINUOUS
 10
-460.58510054069461
 20
429.40678312023289
 30
0.0
 11
-460.58510054069461
 21
428.81623250233281
 31
0.0
  0
LINE
  5
26AC
  8
0
  6
CONTINUOUS
 10
-460.85307739169463
 20
428.81623250233281
 30
0.0
 11
-460.85307739169463
 21
429.40678312023289
 31
0.0
  0
LINE
  5
26AD
  8
0
  6
CONTINUOUS
 10
-461.1083870822946
 20
427.37159895083289
 30
0.0
 11
-461.76960909719452
 21
427.37159895083289
 31
0.0
  0
LINE
  5
26AE
  8
0
  6
CONTINUOUS
 10
-461.76960909719452
 20
427.7410444963329
 30
0.0
 11
-461.1083870822946
 21
427.7410444963329
 31
0.0
  0
LINE
  5
26AF
  8
0
  6
CONTINUOUS
 10
-459.07172452999458
 20
428.81623250233281
 30
0.0
 11
-459.07172452999458
 21
429.40678312023289
 31
0.0
  0
LINE
  5
26B0
  8
0
  6
CONTINUOUS
 10
-458.75319167639458
 20
429.40678312023289
 30
0.0
 11
-458.75319167639458
 21
428.81623250233281
 31
0.0
  0
LINE
  5
26B1
  8
0
  6
CONTINUOUS
 10
-459.46764016969462
 20
426.49339725593279
 30
0.0
 11
-459.46764016969462
 21
425.96505135943278
 31
0.0
  0
LINE
  5
26B2
  8
0
  6
CONTINUOUS
 10
-459.90261797149458
 20
425.96505135943278
 30
0.0
 11
-459.90261797149458
 21
426.49339725593279
 31
0.0
  0
LINE
  5
26B3
  8
0
  6
CONTINUOUS
 10
-469.30661642899457
 20
417.08383256933291
 30
0.0
 11
-468.68771840529467
 21
417.08383256933291
 31
0.0
  0
LINE
  5
26B4
  8
0
  6
CONTINUOUS
 10
-468.68771840529467
 20
416.41174561333281
 30
0.0
 11
-469.30661642899457
 21
416.41174561333281
 31
0.0
  0
LINE
  5
26B5
  8
0
  6
CONTINUOUS
 10
-464.91921239269459
 20
416.41174561333281
 30
0.0
 11
-465.5381104164947
 21
416.41174561333281
 31
0.0
  0
LINE
  5
26B6
  8
0
  6
CONTINUOUS
 10
-465.5381104164947
 20
417.08383256933291
 30
0.0
 11
-464.91921239269459
 21
417.08383256933291
 31
0.0
  0
LINE
  5
26B7
  8
0
  6
CONTINUOUS
 10
-461.76960909719452
 20
417.08383256933291
 30
0.0
 11
-461.15071107339458
 21
417.08383256933291
 31
0.0
  0
LINE
  5
26B8
  8
0
  6
CONTINUOUS
 10
-461.15071107339458
 20
416.41174561333281
 30
0.0
 11
-461.76960909719452
 21
416.41174561333281
 31
0.0
  0
LINE
  5
26B9
  8
0
  6
CONTINUOUS
 10
-461.76960909719452
 20
398.91026373863292
 30
0.0
 11
-461.15071107339458
 21
398.91026373863292
 31
0.0
  0
LINE
  5
26BA
  8
0
  6
CONTINUOUS
 10
-461.15071107339458
 20
397.88278291483289
 30
0.0
 11
-461.76960909719452
 21
397.88278291483289
 31
0.0
  0
POLYLINE
  5
26BF
  8
0
  6
CONTINUOUS
 66
     1
 10
0.0
 20
0.0
 30
0.0
 70
     1
  0
VERTEX
  5
2931
  8
0
  6
CONTINUOUS
 10
-459.94863049399049
 20
392.94456099458017
 30
0.0
  0
VERTEX
  5
2932
  8
0
  6
CONTINUOUS
 10
-459.94863049399049
 20
396.366521147264
 30
0.0
 42
-0.999999988280428
  0
VERTEX
  5
2933
  8
0
  6
CONTINUOUS
 10
-459.67990587234539
 20
396.6352457689087
 30
0.0
  0
VERTEX
  5
2934
  8
0
  6
CONTINUOUS
 10
-459.47218844002009
 20
396.6352457689087
 30
0.0
 42
-0.9999999882804281
  0
VERTEX
  5
2935
  8
0
  6
CONTINUOUS
 10
-459.20346381837538
 20
396.36652114726331
 30
0.0
  0
VERTEX
  5
2936
  8
0
  6
CONTINUOUS
 10
-459.20346381837538
 20
392.94456099458017
 30
0.0
 42
-0.999999988280428
  0
VERTEX
  5
2937
  8
0
  6
CONTINUOUS
 10
-459.4721884400206
 20
392.67583637293552
 30
0.0
  0
VERTEX
  5
2938
  8
0
  6
CONTINUOUS
 10
-459.6799058723459
 20
392.67583637293552
 30
0.0
 42
-0.9999999882804278
  0
SEQEND
  5
2939
  8
0
  6
CONTINUOUS
  0
POLYLINE
  5
26C0
  8
0
  6
CONTINUOUS
 66
     1
 10
0.0
 20
0.0
 30
0.0
 70
     1
  0
VERTEX
  5
293A
  8
0
  6
CONTINUOUS
 10
-459.47218844002009
 20
408.42527708881897
 30
0.0
  0
VERTEX
  5
293B
  8
0
  6
CONTINUOUS
 10
-459.6799058723459
 20
408.42527708881897
 30
0.0
 42
-0.9999999882804278
  0
VERTEX
  5
293C
  8
0
  6
CONTINUOUS
 10
-459.94863049399049
 20
408.69400171046442
 30
0.0
  0
VERTEX
  5
293D
  8
0
  6
CONTINUOUS
 10
-459.94863049399049
 20
412.1159618631475
 30
0.0
 42
-0.999999988280428
  0
VERTEX
  5
293E
  8
0
  6
CONTINUOUS
 10
-459.67990587234539
 20
412.38468648479221
 30
0.0
  0
VERTEX
  5
293F
  8
0
  6
CONTINUOUS
 10
-459.47218844002009
 20
412.38468648479221
 30
0.0
 42
-0.9999999882804281
  0
VERTEX
  5
2940
  8
0
  6
CONTINUOUS
 10
-459.20346381837538
 20
412.11596186314688
 30
0.0
  0
VERTEX
  5
2941
  8
0
  6
CONTINUOUS
 10
-459.20346381837538
 20
408.69400171046391
 30
0.0
 42
-0.999999988280428
  0
SEQEND
  5
2942
  8
0
  6
CONTINUOUS
  0
POLYLINE
  5
26C1
  8
0
  6
CONTINUOUS
 66
     1
 10
0.0
 20
0.0
 30
0.0
 70
     1
  0
VERTEX
  5
2943
  8
0
  6
CONTINUOUS
 10
-459.47218843844519
 20
421.26107127226419
 30
0.0
  0
VERTEX
  5
2944
  8
0
  6
CONTINUOUS
 10
-459.6799058723459
 20
421.26107127226419
 30
0.0
 42
-0.9999999882804278
  0
VERTEX
  5
2945
  8
0
  6
CONTINUOUS
 10
-459.94863049399049
 20
421.52979589390952
 30
0.0
  0
VERTEX
  5
2946
  8
0
  6
CONTINUOUS
 10
-459.94863049399049
 20
423.3374383747896
 30
0.0
 42
-0.9999999941401636
  0
VERTEX
  5
2947
  8
0
  6
CONTINUOUS
 10
-459.6799058707706
 20
423.60616299485957
 30
0.0
  0
VERTEX
  5
2948
  8
0
  6
CONTINUOUS
 10
-459.47218844002009
 20
423.6061629948594
 30
0.0
 42
-1.0
  0
VERTEX
  5
2949
  8
0
  6
CONTINUOUS
 10
-459.20346381837521
 20
423.3374383732143
 30
0.0
  0
VERTEX
  5
294A
  8
0
  6
CONTINUOUS
 10
-459.20346381837538
 20
421.52979589548391
 30
0.0
 42
-0.9999999941402643
  0
SEQEND
  5
294B
  8
0
  6
CONTINUOUS
  0
POLYLINE
  5
26C2
  8
0
  6
CONTINUOUS
 66
     1
 10
0.0
 20
0.0
 30
0.0
 70
     1
  0
VERTEX
  5
294C
  8
0
  6
CONTINUOUS
 10
-459.02404424301079
 20
386.59497731253282
 30
0.0
 42
-0.4260205264732408
  0
VERTEX
  5
294D
  8
0
  6
CONTINUOUS
 10
-459.21390816662171
 20
386.792620037679
 30
0.0
  0
VERTEX
  5
294E
  8
0
  6
CONTINUOUS
 10
-459.19024929014148
 20
387.3816746321267
 30
0.0
 42
0.426020526473241
  0
VERTEX
  5
294F
  8
0
  6
CONTINUOUS
 10
-459.38011321375319
 20
387.5793173572755
 30
0.0
  0
VERTEX
  5
2950
  8
0
  6
CONTINUOUS
 10
-460.55945313440702
 20
387.5793173572755
 30
0.0
 42
0.4260205264732408
  0
VERTEX
  5
2951
  8
0
  6
CONTINUOUS
 10
-460.74931705801788
 20
387.38167463212551
 30
0.0
  0
VERTEX
  5
2952
  8
0
  6
CONTINUOUS
 10
-460.7256581815376
 20
386.79262003768162
 30
0.0
 42
-0.426020526473241
  0
VERTEX
  5
2953
  8
0
  6
CONTINUOUS
 10
-460.91552210514942
 20
386.59497731253288
 30
0.0
  0
VERTEX
  5
2954
  8
0
  6
CONTINUOUS
 10
-461.8961579033865
 20
386.59497731253288
 30
0.0
  0
VERTEX
  5
2955
  8
0
  6
CONTINUOUS
 10
-461.89615790338672
 20
387.81658604211799
 30
0.0
 42
0.9999999882804281
  0
VERTEX
  5
2956
  8
0
  6
CONTINUOUS
 10
-462.16488252503132
 20
388.08531066376332
 30
0.0
  0
VERTEX
  5
2957
  8
0
  6
CONTINUOUS
 10
-462.37259995735661
 20
388.08531066376332
 30
0.0
 42
0.999999988280428
  0
VERTEX
  5
2958
  8
0
  6
CONTINUOUS
 10
-462.64132457900178
 20
387.8165860421185
 30
0.0
  0
VERTEX
  5
2959
  8
0
  6
CONTINUOUS
 10
-462.64132457900178
 20
386.59497731253288
 30
0.0
  0
VERTEX
  5
295A
  8
0
  6
CONTINUOUS
 10
-463.51340733515389
 20
386.59497731253288
 30
0.0
  0
VERTEX
  5
295B
  8
0
  6
CONTINUOUS
 10
-463.51340733515389
 20
388.70737104855073
 30
0.0
 42
-0.4142135623730951
  0
VERTEX
  5
295C
  8
0
  6
CONTINUOUS
 10
-463.26338496378918
 20
388.95739341991532
 30
0.0
  0
VERTEX
  5
295D
  8
0
  6
CONTINUOUS
 10
-461.15099122777133
 20
388.95739341991532
 30
0.0
  0
VERTEX
  5
295E
  8
0
  6
CONTINUOUS
 10
-461.15099122777133
 20
425.57484308434482
 30
0.0
  0
VERTEX
  5
295F
  8
0
  6
CONTINUOUS
 10
-461.15099122777133
 20
425.71855673087731
 30
0.0
 42
-0.4142135623730951
  0
VERTEX
  5
2960
  8
0
  6
CONTINUOUS
 10
-460.90096885640679
 20
425.9685791022419
 30
0.0
  0
VERTEX
  5
2961
  8
0
  6
CONTINUOUS
 10
-460.7572552098743
 20
425.9685791022419
 30
0.0
  0
VERTEX
  5
2962
  8
0
  6
CONTINUOUS
 10
-458.39483910249169
 20
425.9685791022419
 30
0.0
  0
VERTEX
  5
2963
  8
0
  6
CONTINUOUS
 10
-458.25112545595931
 20
425.9685791022419
 30
0.0
 42
-0.4142135623730951
  0
VERTEX
  5
2964
  8
0
  6
CONTINUOUS
 10
-458.0011030845946
 20
425.71855673087731
 30
0.0
  0
VERTEX
  5
2965
  8
0
  6
CONTINUOUS
 10
-458.0011030845946
 20
425.57484308434482
 30
0.0
  0
VERTEX
  5
2966
  8
0
  6
CONTINUOUS
 10
-458.0011030845946
 20
386.59497731253288
 30
0.0
  0
SEQEND
  5
2967
  8
0
  6
CONTINUOUS
  0
POLYLINE
  5
26C3
  8
0
  6
CONTINUOUS
 66
     1
 10
0.0
 20
0.0
 30
0.0
 70
     1
  0
VERTEX
  5
2968
  8
0
  6
CONTINUOUS
 10
-467.48563782589059
 20
392.94383822958019
 30
0.0
  0
VERTEX
  5
2969
  8
0
  6
CONTINUOUS
 10
-467.48563782589059
 20
396.36579838226402
 30
0.0
 42
-0.999999988280428
  0
VERTEX
  5
296A
  8
0
  6
CONTINUOUS
 10
-467.21691320424532
 20
396.63452300390873
 30
0.0
  0
VERTEX
  5
296B
  8
0
  6
CONTINUOUS
 10
-467.00919577192008
 20
396.63452300390873
 30
0.0
 42
-0.9999999882804281
  0
VERTEX
  5
296C
  8
0
  6
CONTINUOUS
 10
-466.74047115027543
 20
396.36579838226328
 30
0.0
  0
VERTEX
  5
296D
  8
0
  6
CONTINUOUS
 10
-466.74047115027543
 20
392.94383822958019
 30
0.0
 42
-0.999999988280428
  0
VERTEX
  5
296E
  8
0
  6
CONTINUOUS
 10
-467.00919577192059
 20
392.6751136079356
 30
0.0
  0
VERTEX
  5
296F
  8
0
  6
CONTINUOUS
 10
-467.21691320424588
 20
392.6751136079356
 30
0.0
 42
-0.9999999882804278
  0
SEQEND
  5
2970
  8
0
  6
CONTINUOUS
  0
POLYLINE
  5
26C4
  8
0
  6
CONTINUOUS
 66
     1
 10
0.0
 20
0.0
 30
0.0
 70
     1
  0
VERTEX
  5
2971
  8
0
  6
CONTINUOUS
 10
-467.00919577192008
 20
408.42455432381911
 30
0.0
  0
VERTEX
  5
2972
  8
0
  6
CONTINUOUS
 10
-467.21691320424588
 20
408.42455432381911
 30
0.0
 42
-0.9999999882804278
  0
VERTEX
  5
2973
  8
0
  6
CONTINUOUS
 10
-467.48563782589059
 20
408.69327894546439
 30
0.0
  0
VERTEX
  5
2974
  8
0
  6
CONTINUOUS
 10
-467.48563782589059
 20
412.11523909814758
 30
0.0
 42
-0.999999988280428
  0
VERTEX
  5
2975
  8
0
  6
CONTINUOUS
 10
-467.21691320424532
 20
412.38396371979218
 30
0.0
  0
VERTEX
  5
2976
  8
0
  6
CONTINUOUS
 10
-467.00919577192008
 20
412.38396371979218
 30
0.0
 42
-0.9999999882804281
  0
VERTEX
  5
2977
  8
0
  6
CONTINUOUS
 10
-466.74047115027543
 20
412.11523909814679
 30
0.0
  0
VERTEX
  5
2978
  8
0
  6
CONTINUOUS
 10
-466.74047115027543
 20
408.69327894546399
 30
0.0
 42
-0.999999988280428
  0
SEQEND
  5
2979
  8
0
  6
CONTINUOUS
  0
POLYLINE
  5
26C5
  8
0
  6
CONTINUOUS
 66
     1
 10
0.0
 20
0.0
 30
0.0
 70
     1
  0
VERTEX
  5
297A
  8
0
  6
CONTINUOUS
 10
-467.00919577034517
 20
421.26034850726433
 30
0.0
  0
VERTEX
  5
297B
  8
0
  6
CONTINUOUS
 10
-467.21691320424588
 20
421.26034850726433
 30
0.0
 42
-0.9999999882804278
  0
VERTEX
  5
297C
  8
0
  6
CONTINUOUS
 10
-467.48563782589059
 20
421.5290731289096
 30
0.0
  0
VERTEX
  5
297D
  8
0
  6
CONTINUOUS
 10
-467.48563782589059
 20
423.33671560978962
 30
0.0
 42
-0.9999999941401636
  0
VERTEX
  5
297E
  8
0
  6
CONTINUOUS
 10
-467.2169132026707
 20
423.6054402298596
 30
0.0
  0
VERTEX
  5
297F
  8
0
  6
CONTINUOUS
 10
-467.00919577192008
 20
423.60544022985948
 30
0.0
 42
-1.0
  0
VERTEX
  5
2980
  8
0
  6
CONTINUOUS
 10
-466.74047115027531
 20
423.33671560821432
 30
0.0
  0
VERTEX
  5
2981
  8
0
  6
CONTINUOUS
 10
-466.74047115027543
 20
421.52907313048388
 30
0.0
 42
-0.9999999941402643
  0
SEQEND
  5
2982
  8
0
  6
CONTINUOUS
  0
POLYLINE
  5
26C6
  8
0
  6
CONTINUOUS
 66
     1
 10
0.0
 20
0.0
 30
0.0
 70
     1
  0
VERTEX
  5
2983
  8
0
  6
CONTINUOUS
 10
-466.56105157491072
 20
386.59425454753278
 30
0.0
 42
-0.4260205264732408
  0
VERTEX
  5
2984
  8
0
  6
CONTINUOUS
 10
-466.75091549852169
 20
386.79189727267902
 30
0.0
  0
VERTEX
  5
2985
  8
0
  6
CONTINUOUS
 10
-466.72725662204152
 20
387.38095186712673
 30
0.0
 42
0.426020526473241
  0
VERTEX
  5
2986
  8
0
  6
CONTINUOUS
 10
-466.91712054565329
 20
387.57859459227552
 30
0.0
  0
VERTEX
  5
2987
  8
0
  6
CONTINUOUS
 10
-468.09646046630689
 20
387.57859459227558
 30
0.0
 42
0.4260205264732408
  0
VERTEX
  5
2988
  8
0
  6
CONTINUOUS
 10
-468.28632438991781
 20
387.38095186712548
 30
0.0
  0
VERTEX
  5
2989
  8
0
  6
CONTINUOUS
 10
-468.26266551343758
 20
386.79189727268158
 30
0.0
 42
-0.426020526473241
  0
VERTEX
  5
298A
  8
0
  6
CONTINUOUS
 10
-468.45252943704941
 20
386.5942545475329
 30
0.0
  0
VERTEX
  5
298B
  8
0
  6
CONTINUOUS
 10
-469.43316523528648
 20
386.5942545475329
 30
0.0
  0
VERTEX
  5
298C
  8
0
  6
CONTINUOUS
 10
-469.43316523528659
 20
387.81586327711801
 30
0.0
 42
0.9999999882804281
  0
VERTEX
  5
298D
  8
0
  6
CONTINUOUS
 10
-469.7018898569313
 20
388.0845878987634
 30
0.0
  0
VERTEX
  5
298E
  8
0
  6
CONTINUOUS
 10
-469.90960728925648
 20
388.0845878987634
 30
0.0
 42
0.999999988280428
  0
VERTEX
  5
298F
  8
0
  6
CONTINUOUS
 10
-470.17833191090182
 20
387.81586327711852
 30
0.0
  0
VERTEX
  5
2990
  8
0
  6
CONTINUOUS
 10
-470.17833191090182
 20
386.5942545475329
 30
0.0
  0
VERTEX
  5
2991
  8
0
  6
CONTINUOUS
 10
-471.05041466705387
 20
386.5942545475329
 30
0.0
  0
VERTEX
  5
2992
  8
0
  6
CONTINUOUS
 10
-471.05041466705387
 20
388.70664828355069
 30
0.0
 42
-0.4142135623730951
  0
VERTEX
  5
2993
  8
0
  6
CONTINUOUS
 10
-470.80039229568922
 20
388.95667065491529
 30
0.0
  0
VERTEX
  5
2994
  8
0
  6
CONTINUOUS
 10
-468.68799855967131
 20
388.95667065491529
 30
0.0
  0
VERTEX
  5
2995
  8
0
  6
CONTINUOUS
 10
-468.68799855967131
 20
425.5741203193449
 30
0.0
  0
VERTEX
  5
2996
  8
0
  6
CONTINUOUS
 10
-468.68799855967131
 20
425.71783396587728
 30
0.0
 42
-0.4142135623730951
  0
VERTEX
  5
2997
  8
0
  6
CONTINUOUS
 10
-468.43797618830672
 20
425.96785633724193
 30
0.0
  0
VERTEX
  5
2998
  8
0
  6
CONTINUOUS
 10
-468.29426254177429
 20
425.96785633724193
 30
0.0
  0
VERTEX
  5
2999
  8
0
  6
CONTINUOUS
 10
-465.93184643439167
 20
425.96785633724193
 30
0.0
  0
VERTEX
  5
299A
  8
0
  6
CONTINUOUS
 10
-465.7881327878593
 20
425.96785633724193
 30
0.0
 42
-0.4142135623730951
  0
VERTEX
  5
299B
  8
0
  6
CONTINUOUS
 10
-465.5381104164947
 20
425.71783396587728
 30
0.0
  0
VERTEX
  5
299C
  8
0
  6
CONTINUOUS
 10
-465.5381104164947
 20
425.5741203193449
 30
0.0
  0
VERTEX
  5
299D
  8
0
  6
CONTINUOUS
 10
-465.5381104164947
 20
386.5942545475329
 30
0.0
  0
SEQEND
  5
299E
  8
0
  6
CONTINUOUS
  0
POLYLINE
  5
26C7
  8
0
  6
CONTINUOUS
 66
     1
 10
0.0
 20
0.0
 30
0.0
 70
     1
  0
VERTEX
  5
299F
  8
0
  6
CONTINUOUS
 10
-464.91949724037141
 20
426.28666841320518
 30
0.0
 42
0.9999999882804281
  0
VERTEX
  5
29A0
  8
0
  6
CONTINUOUS
 10
-465.18822186201999
 20
426.55539303485051
 30
0.0
  0
VERTEX
  5
29A1
  8
0
  6
CONTINUOUS
 10
-467.03189097638909
 20
426.55539303485051
 30
0.0
 42
-0.4142135623730951
  0
VERTEX
  5
29A2
  8
0
  6
CONTINUOUS
 10
-467.2819133477538
 20
426.80541540621499
 30
0.0
  0
VERTEX
  5
29A3
  8
0
  6
CONTINUOUS
 10
-467.2819133477538
 20
428.91780914223278
 30
0.0
  0
VERTEX
  5
29A4
  8
0
  6
CONTINUOUS
 10
-466.40973058265308
 20
428.91780914223278
 30
0.0
  0
VERTEX
  5
29A5
  8
0
  6
CONTINUOUS
 10
-466.40973058265308
 20
427.69630042159639
 30
0.0
 42
0.9999999882804278
  0
VERTEX
  5
29A6
  8
0
  6
CONTINUOUS
 10
-466.14100596100837
 20
427.42757579995111
 30
0.0
  0
VERTEX
  5
29A7
  8
0
  6
CONTINUOUS
 10
-465.93328852868319
 20
427.42757579995111
 30
0.0
 42
0.999999988280428
  0
VERTEX
  5
29A8
  8
0
  6
CONTINUOUS
 10
-465.66456390703797
 20
427.69630042159957
 30
0.0
  0
VERTEX
  5
29A9
  8
0
  6
CONTINUOUS
 10
-465.66456390703797
 20
428.91780914223278
 30
0.0
  0
VERTEX
  5
29AA
  8
0
  6
CONTINUOUS
 10
-464.68402811775331
 20
428.91780914223278
 30
0.0
 42
0.426020526473241
  0
VERTEX
  5
29AB
  8
0
  6
CONTINUOUS
 10
-464.4941641941416
 20
429.11545186738192
 30
0.0
  0
VERTEX
  5
29AC
  8
0
  6
CONTINUOUS
 10
-464.51782307062177
 20
429.70450646182951
 30
0.0
 42
-0.4260205264732408
  0
VERTEX
  5
29AD
  8
0
  6
CONTINUOUS
 10
-464.32795914701069
 20
429.90214918697581
 30
0.0
  0
VERTEX
  5
29AE
  8
0
  6
CONTINUOUS
 10
-463.14861922635328
 20
429.90214918697569
 30
0.0
 42
-0.426020526473241
  0
VERTEX
  5
29AF
  8
0
  6
CONTINUOUS
 10
-462.95875530274128
 20
429.7045064618269
 30
0.0
  0
VERTEX
  5
29B0
  8
0
  6
CONTINUOUS
 10
-462.9824141792256
 20
429.11545186738311
 30
0.0
 42
0.4260205264732408
  0
VERTEX
  5
29B1
  8
0
  6
CONTINUOUS
 10
-462.79255025561071
 20
428.9178091422329
 30
0.0
  0
VERTEX
  5
29B2
  8
0
  6
CONTINUOUS
 10
-461.76960909719452
 20
428.91780914223278
 30
0.0
  0
VERTEX
  5
29B3
  8
0
  6
CONTINUOUS
 10
-461.76960909719452
 20
389.79422972388841
 30
0.0
 42
-0.4142135623730951
  0
VERTEX
  5
29B4
  8
0
  6
CONTINUOUS
 10
-462.01963146855928
 20
389.54420735252393
 30
0.0
  0
VERTEX
  5
29B5
  8
0
  6
CONTINUOUS
 10
-464.66947486900671
 20
389.54420735252393
 30
0.0
 42
-0.4142135623730951
  0
VERTEX
  5
29B6
  8
0
  6
CONTINUOUS
 10
-464.91949724037141
 20
389.79422972388841
 30
0.0
  0
SEQEND
  5
29B7
  8
0
  6
CONTINUOUS
  0
POLYLINE
  5
26C8
  8
0
  6
CONTINUOUS
 66
     1
 10
0.0
 20
0.0
 30
0.0
 70
     1
  0
VERTEX
  5
29B8
  8
0
  6
CONTINUOUS
 10
-463.71713650659058
 20
419.5179521083972
 30
0.0
 42
0.9999999882804278
  0
VERTEX
  5
29B9
  8
0
  6
CONTINUOUS
 10
-463.4484118849457
 20
419.24922748675192
 30
0.0
  0
VERTEX
  5
29BA
  8
0
  6
CONTINUOUS
 10
-463.24069445262057
 20
419.24922748675192
 30
0.0
 42
0.999999988280428
  0
VERTEX
  5
29BB
  8
0
  6
CONTINUOUS
 10
-462.97196983097518
 20
419.51795210840072
 30
0.0
  0
VERTEX
  5
29BC
  8
0
  6
CONTINUOUS
 10
-462.97196983097552
 20
422.93991226107971
 30
0.0
 42
0.9999999882804281
  0
VERTEX
  5
29BD
  8
0
  6
CONTINUOUS
 10
-463.24069445262057
 20
423.2086368827251
 30
0.0
  0
VERTEX
  5
29BE
  8
0
  6
CONTINUOUS
 10
-463.4484118849457
 20
423.2086368827251
 30
0.0
 42
0.999999988280428
  0
VERTEX
  5
29BF
  8
0
  6
CONTINUOUS
 10
-463.71713650659058
 20
422.93991226107971
 30
0.0
  0
SEQEND
  5
29C0
  8
0
  6
CONTINUOUS
  0
POLYLINE
  5
26C9
  8
0
  6
CONTINUOUS
 66
     1
 10
0.0
 20
0.0
 30
0.0
 70
     1
  0
VERTEX
  5
29C1
  8
0
  6
CONTINUOUS
 10
-462.97196983097518
 20
392.175348081555
 30
0.0
  0
VERTEX
  5
29C2
  8
0
  6
CONTINUOUS
 10
-462.97196983097552
 20
393.9392858628695
 30
0.0
 42
0.9999999882804281
  0
VERTEX
  5
29C3
  8
0
  6
CONTINUOUS
 10
-463.24069445262398
 20
394.20801048451489
 30
0.0
  0
VERTEX
  5
29C4
  8
0
  6
CONTINUOUS
 10
-463.4484118849453
 20
394.20801048451489
 30
0.0
 42
0.999999988280428
  0
VERTEX
  5
29C5
  8
0
  6
CONTINUOUS
 10
-463.71713650659058
 20
393.93928586287029
 30
0.0
  0
VERTEX
  5
29C6
  8
0
  6
CONTINUOUS
 10
-463.71713650659041
 20
392.17534808155159
 30
0.0
 42
0.9999999882804278
  0
VERTEX
  5
29C7
  8
0
  6
CONTINUOUS
 10
-463.4484118849457
 20
391.90662345990648
 30
0.0
  0
VERTEX
  5
29C8
  8
0
  6
CONTINUOUS
 10
-463.24069445262398
 20
391.90662345990648
 30
0.0
 42
0.999999988280428
  0
SEQEND
  5
29C9
  8
0
  6
CONTINUOUS
  0
POLYLINE
  5
26CA
  8
0
  6
CONTINUOUS
 66
     1
 10
0.0
 20
0.0
 30
0.0
 70
     1
  0
VERTEX
  5
29CA
  8
0
  6
CONTINUOUS
 10
-463.24069445262398
 20
426.75226104379902
 30
0.0
  0
VERTEX
  5
29CB
  8
0
  6
CONTINUOUS
 10
-463.4484118849453
 20
426.75226104379902
 30
0.0
 42
0.999999988280428
  0
VERTEX
  5
29CC
  8
0
  6
CONTINUOUS
 10
-463.71713650659058
 20
426.48353642215409
 30
0.0
  0
VERTEX
  5
29CD
  8
0
  6
CONTINUOUS
 10
-463.71713650659041
 20
424.71959864083573
 30
0.0
 42
0.9999999882804278
  0
VERTEX
  5
29CE
  8
0
  6
CONTINUOUS
 10
-463.4484118849457
 20
424.45087401919028
 30
0.0
  0
VERTEX
  5
29CF
  8
0
  6
CONTINUOUS
 10
-463.24069445262057
 20
424.45087401919028
 30
0.0
 42
0.999999988280428
  0
VERTEX
  5
29D0
  8
0
  6
CONTINUOUS
 10
-462.97196983097518
 20
424.71959864083908
 30
0.0
  0
VERTEX
  5
29D1
  8
0
  6
CONTINUOUS
 10
-462.97196983097518
 20
426.48353642215409
 30
0.0
 42
0.9999999882804281
  0
SEQEND
  5
29D2
  8
0
  6
CONTINUOUS
  0
POLYLINE
  5
26CB
  8
0
  6
CONTINUOUS
 66
     1
 10
0.0
 20
0.0
 30
0.0
 70
     1
  0
VERTEX
  5
29D3
  8
0
  6
CONTINUOUS
 10
-463.24069445262398
 20
407.45919616684148
 30
0.0
  0
VERTEX
  5
29D4
  8
0
  6
CONTINUOUS
 10
-463.4484118849453
 20
407.45919616684148
 30
0.0
 42
0.999999988280428
  0
VERTEX
  5
29D5
  8
0
  6
CONTINUOUS
 10
-463.71713650659058
 20
407.1904715451966
 30
0.0
  0
VERTEX
  5
29D6
  8
0
  6
CONTINUOUS
 10
-463.71713650659041
 20
403.76851139251369
 30
0.0
 42
0.9999999882804278
  0
VERTEX
  5
29D7
  8
0
  6
CONTINUOUS
 10
-463.4484118849457
 20
403.49978677086841
 30
0.0
  0
VERTEX
  5
29D8
  8
0
  6
CONTINUOUS
 10
-463.24069445262057
 20
403.49978677086841
 30
0.0
 42
0.999999988280428
  0
VERTEX
  5
29D9
  8
0
  6
CONTINUOUS
 10
-462.97196983097518
 20
403.76851139251693
 30
0.0
  0
VERTEX
  5
29DA
  8
0
  6
CONTINUOUS
 10
-462.97196983097518
 20
407.1904715451966
 30
0.0
 42
0.9999999882804281
  0
SEQEND
  5
29DB
  8
0
  6
CONTINUOUS
  0
POLYLINE
  5
26CC
  8
0
  6
CONTINUOUS
 66
     1
 10
0.0
 20
0.0
 30
0.0
 70
     1
  0
VERTEX
  5
29DC
  8
0
  6
CONTINUOUS
 10
-472.4565045721713
 20
426.2859503415051
 30
0.0
 42
0.9999999882804281
  0
VERTEX
  5
29DD
  8
0
  6
CONTINUOUS
 10
-472.72522919381998
 20
426.55467496315038
 30
0.0
  0
VERTEX
  5
29DE
  8
0
  6
CONTINUOUS
 10
-474.5688983081892
 20
426.55467496315038
 30
0.0
 42
-0.4142135623730951
  0
VERTEX
  5
29DF
  8
0
  6
CONTINUOUS
 10
-474.81892067955391
 20
426.80469733451508
 30
0.0
  0
VERTEX
  5
29E0
  8
0
  6
CONTINUOUS
 10
-474.81892067955391
 20
428.91709107053288
 30
0.0
  0
VERTEX
  5
29E1
  8
0
  6
CONTINUOUS
 10
-473.94673791445319
 20
428.91709107053288
 30
0.0
  0
VERTEX
  5
29E2
  8
0
  6
CONTINUOUS
 10
-473.94673791445319
 20
427.69558234989648
 30
0.0
 42
0.9999999882804278
  0
VERTEX
  5
29E3
  8
0
  6
CONTINUOUS
 10
-473.67801329280837
 20
427.42685772825109
 30
0.0
  0
VERTEX
  5
29E4
  8
0
  6
CONTINUOUS
 10
-473.4702958604833
 20
427.42685772825109
 30
0.0
 42
0.999999988280428
  0
VERTEX
  5
29E5
  8
0
  6
CONTINUOUS
 10
-473.20157123883791
 20
427.69558234989972
 30
0.0
  0
VERTEX
  5
29E6
  8
0
  6
CONTINUOUS
 10
-473.20157123883791
 20
428.91709107053288
 30
0.0
  0
VERTEX
  5
29E7
  8
0
  6
CONTINUOUS
 10
-472.2210354495532
 20
428.91709107053288
 30
0.0
 42
0.426020526473241
  0
VERTEX
  5
29E8
  8
0
  6
CONTINUOUS
 10
-472.03117152594149
 20
429.11473379568179
 30
0.0
  0
VERTEX
  5
29E9
  8
0
  6
CONTINUOUS
 10
-472.05483040242171
 20
429.70378839012949
 30
0.0
 42
-0.4260205264732408
  0
VERTEX
  5
29EA
  8
0
  6
CONTINUOUS
 10
-471.8649664788108
 20
429.90143111527578
 30
0.0
  0
VERTEX
  5
29EB
  8
0
  6
CONTINUOUS
 10
-470.68562655815322
 20
429.90143111527561
 30
0.0
 42
-0.426020526473241
  0
VERTEX
  5
29EC
  8
0
  6
CONTINUOUS
 10
-470.49576263454139
 20
429.70378839012687
 30
0.0
  0
VERTEX
  5
29ED
  8
0
  6
CONTINUOUS
 10
-470.51942151102548
 20
429.11473379568309
 30
0.0
 42
0.4260205264732408
  0
VERTEX
  5
29EE
  8
0
  6
CONTINUOUS
 10
-470.3295575874107
 20
428.91709107053299
 30
0.0
  0
VERTEX
  5
29EF
  8
0
  6
CONTINUOUS
 10
-469.30661642899457
 20
428.91709107053288
 30
0.0
  0
VERTEX
  5
29F0
  8
0
  6
CONTINUOUS
 10
-469.30661642899457
 20
389.79351165218839
 30
0.0
 42
-0.4142135623730951
  0
VERTEX
  5
29F1
  8
0
  6
CONTINUOUS
 10
-469.55663880035928
 20
389.54348928082391
 30
0.0
  0
VERTEX
  5
29F2
  8
0
  6
CONTINUOUS
 10
-472.2064822008067
 20
389.54348928082391
 30
0.0
 42
-0.4142135623730951
  0
VERTEX
  5
29F3
  8
0
  6
CONTINUOUS
 10
-472.4565045721713
 20
389.79351165218839
 30
0.0
  0
SEQEND
  5
29F4
  8
0
  6
CONTINUOUS
  0
POLYLINE
  5
26CD
  8
0
  6
CONTINUOUS
 66
     1
 10
0.0
 20
0.0
 30
0.0
 70
     1
  0
VERTEX
  5
29F5
  8
0
  6
CONTINUOUS
 10
-471.25414383839052
 20
419.51723403669729
 30
0.0
 42
0.9999999882804278
  0
VERTEX
  5
29F6
  8
0
  6
CONTINUOUS
 10
-470.9854192167457
 20
419.2485094150519
 30
0.0
  0
VERTEX
  5
29F7
  8
0
  6
CONTINUOUS
 10
-470.77770178442057
 20
419.2485094150519
 30
0.0
 42
0.999999988280428
  0
VERTEX
  5
29F8
  8
0
  6
CONTINUOUS
 10
-470.5089771627753
 20
419.51723403670059
 30
0.0
  0
VERTEX
  5
29F9
  8
0
  6
CONTINUOUS
 10
-470.50897716277541
 20
422.93919418937969
 30
0.0
 42
0.9999999882804281
  0
VERTEX
  5
29FA
  8
0
  6
CONTINUOUS
 10
-470.77770178442057
 20
423.20791881102502
 30
0.0
  0
VERTEX
  5
29FB
  8
0
  6
CONTINUOUS
 10
-470.9854192167457
 20
423.20791881102502
 30
0.0
 42
0.999999988280428
  0
VERTEX
  5
29FC
  8
0
  6
CONTINUOUS
 10
-471.25414383839052
 20
422.93919418937969
 30
0.0
  0
SEQEND
  5
29FD
  8
0
  6
CONTINUOUS
  0
POLYLINE
  5
26CE
  8
0
  6
CONTINUOUS
 66
     1
 10
0.0
 20
0.0
 30
0.0
 70
     1
  0
VERTEX
  5
29FE
  8
0
  6
CONTINUOUS
 10
-470.5089771627753
 20
392.17463000985498
 30
0.0
  0
VERTEX
  5
29FF
  8
0
  6
CONTINUOUS
 10
-470.50897716277541
 20
393.93856779116948
 30
0.0
 42
0.9999999882804281
  0
VERTEX
  5
2A00
  8
0
  6
CONTINUOUS
 10
-470.77770178442398
 20
394.20729241281492
 30
0.0
  0
VERTEX
  5
2A01
  8
0
  6
CONTINUOUS
 10
-470.9854192167453
 20
394.20729241281492
 30
0.0
 42
0.999999988280428
  0
VERTEX
  5
2A02
  8
0
  6
CONTINUOUS
 10
-471.25414383839052
 20
393.93856779117021
 30
0.0
  0
VERTEX
  5
2A03
  8
0
  6
CONTINUOUS
 10
-471.25414383839052
 20
392.17463000985163
 30
0.0
 42
0.9999999882804278
  0
VERTEX
  5
2A04
  8
0
  6
CONTINUOUS
 10
-470.9854192167457
 20
391.90590538820652
 30
0.0
  0
VERTEX
  5
2A05
  8
0
  6
CONTINUOUS
 10
-470.77770178442398
 20
391.90590538820652
 30
0.0
 42
0.999999988280428
  0
SEQEND
  5
2A06
  8
0
  6
CONTINUOUS
  0
POLYLINE
  5
26CF
  8
0
  6
CONTINUOUS
 66
     1
 10
0.0
 20
0.0
 30
0.0
 70
     1
  0
VERTEX
  5
2A07
  8
0
  6
CONTINUOUS
 10
-470.77770178442398
 20
426.75154297209889
 30
0.0
  0
VERTEX
  5
2A08
  8
0
  6
CONTINUOUS
 10
-470.9854192167453
 20
426.75154297209889
 30
0.0
 42
0.999999988280428
  0
VERTEX
  5
2A09
  8
0
  6
CONTINUOUS
 10
-471.25414383839052
 20
426.48281835045401
 30
0.0
  0
VERTEX
  5
2A0A
  8
0
  6
CONTINUOUS
 10
-471.25414383839052
 20
424.71888056913559
 30
0.0
 42
0.9999999882804278
  0
VERTEX
  5
2A0B
  8
0
  6
CONTINUOUS
 10
-470.9854192167457
 20
424.45015594749032
 30
0.0
  0
VERTEX
  5
2A0C
  8
0
  6
CONTINUOUS
 10
-470.77770178442057
 20
424.45015594749032
 30
0.0
 42
0.999999988280428
  0
VERTEX
  5
2A0D
  8
0
  6
CONTINUOUS
 10
-470.5089771627753
 20
424.71888056913912
 30
0.0
  0
VERTEX
  5
2A0E
  8
0
  6
CONTINUOUS
 10
-470.5089771627753
 20
426.48281835045401
 30
0.0
 42
0.9999999882804281
  0
SEQEND
  5
2A0F
  8
0
  6
CONTINUOUS
  0
POLYLINE
  5
26D0
  8
0
  6
CONTINUOUS
 66
     1
 10
0.0
 20
0.0
 30
0.0
 70
     1
  0
VERTEX
  5
2A10
  8
0
  6
CONTINUOUS
 10
-470.77770178442398
 20
407.45847809514152
 30
0.0
  0
VERTEX
  5
2A11
  8
0
  6
CONTINUOUS
 10
-470.9854192167453
 20
407.45847809514152
 30
0.0
 42
0.999999988280428
  0
VERTEX
  5
2A12
  8
0
  6
CONTINUOUS
 10
-471.25414383839052
 20
407.18975347349658
 30
0.0
  0
VERTEX
  5
2A13
  8
0
  6
CONTINUOUS
 10
-471.25414383839052
 20
403.76779332081361
 30
0.0
 42
0.9999999882804278
  0
VERTEX
  5
2A14
  8
0
  6
CONTINUOUS
 10
-470.9854192167457
 20
403.49906869916828
 30
0.0
  0
VERTEX
  5
2A15
  8
0
  6
CONTINUOUS
 10
-470.77770178442057
 20
403.49906869916828
 30
0.0
 42
0.999999988280428
  0
VERTEX
  5
2A16
  8
0
  6
CONTINUOUS
 10
-470.5089771627753
 20
403.76779332081679
 30
0.0
  0
VERTEX
  5
2A17
  8
0
  6
CONTINUOUS
 10
-470.5089771627753
 20
407.18975347349658
 30
0.0
 42
0.9999999882804281
  0
SEQEND
  5
2A18
  8
0
  6
CONTINUOUS
  0
POLYLINE
  5
26DA
  8
0
  6
CONTINUOUS
 66
     1
 10
0.0
 20
0.0
 30
0.0
 70
     1
  0
VERTEX
  5
2A19
  8
0
  6
CONTINUOUS
 10
-385.75150824425123
 20
414.50495494116802
 30
0.0
 42
0.4142135623730951
  0
VERTEX
  5
2A1A
  8
0
  6
CONTINUOUS
 10
-386.00153061561571
 20
414.75497731253267
 30
0.0
  0
VERTEX
  5
2A1B
  8
0
  6
CONTINUOUS
 10
-389.42112793105201
 20
414.75497731253267
 30
0.0
 42
0.4142135623730951
  0
VERTEX
  5
2A1C
  8
0
  6
CONTINUOUS
 10
-389.67115030241661
 20
414.50495494116802
 30
0.0
  0
VERTEX
  5
2A1D
  8
0
  6
CONTINUOUS
 10
-389.67115030241661
 20
412.7557824710907
 30
0.0
 42
-0.9999999882804281
  0
VERTEX
  5
2A1E
  8
0
  6
CONTINUOUS
 10
-389.93987492406131
 20
412.48705784944542
 30
0.0
  0
VERTEX
  5
2A1F
  8
0
  6
CONTINUOUS
 10
-390.87283262903861
 20
412.48705784944542
 30
0.0
 42
0.4142135623730951
  0
VERTEX
  5
2A20
  8
0
  6
CONTINUOUS
 10
-391.12285500040321
 20
412.23703547808088
 30
0.0
  0
VERTEX
  5
2A21
  8
0
  6
CONTINUOUS
 10
-391.12285500040321
 20
411.3058497957536
 30
0.0
 42
-0.2339845462446278
  0
VERTEX
  5
2A22
  8
0
  6
CONTINUOUS
 10
-391.02442099592889
 20
411.10702285289528
 30
0.0
  0
VERTEX
  5
2A23
  8
0
  6
CONTINUOUS
 10
-391.02442099592889
 20
390.24293177216629
 30
0.0
 42
-0.2339845462446278
  0
VERTEX
  5
2A24
  8
0
  6
CONTINUOUS
 10
-391.12285500040321
 20
390.04410482930808
 30
0.0
  0
VERTEX
  5
2A25
  8
0
  6
CONTINUOUS
 10
-391.12285500040321
 20
389.11291914698472
 30
0.0
 42
0.4142135623730951
  0
VERTEX
  5
2A26
  8
0
  6
CONTINUOUS
 10
-390.87283262903861
 20
388.86289677562007
 30
0.0
  0
VERTEX
  5
2A27
  8
0
  6
CONTINUOUS
 10
-389.93987492406131
 20
388.86289677562007
 30
0.0
 42
-0.999999988280428
  0
VERTEX
  5
2A28
  8
0
  6
CONTINUOUS
 10
-389.67115030241661
 20
388.59417215397491
 30
0.0
  0
VERTEX
  5
2A29
  8
0
  6
CONTINUOUS
 10
-389.67115030241661
 20
386.84499968389753
 30
0.0
 42
0.4142135623730951
  0
VERTEX
  5
2A2A
  8
0
  6
CONTINUOUS
 10
-389.42112793105201
 20
386.59497731253282
 30
0.0
  0
VERTEX
  5
2A2B
  8
0
  6
CONTINUOUS
 10
-386.00153061561571
 20
386.59497731253282
 30
0.0
 42
0.4142135623730951
  0
VERTEX
  5
2A2C
  8
0
  6
CONTINUOUS
 10
-385.75150824425089
 20
386.84499968389753
 30
0.0
  0
VERTEX
  5
2A2D
  8
0
  6
CONTINUOUS
 10
-385.75150824425089
 20
388.59417215397531
 30
0.0
 42
-0.9999999882804278
  0
VERTEX
  5
2A2E
  8
0
  6
CONTINUOUS
 10
-385.48278362260561
 20
388.86289677562002
 30
0.0
  0
VERTEX
  5
2A2F
  8
0
  6
CONTINUOUS
 10
-383.97300265140979
 20
388.86289677562007
 30
0.0
 42
0.4142135623730951
  0
VERTEX
  5
2A30
  8
0
  6
CONTINUOUS
 10
-383.72298028004519
 20
389.11291914698472
 30
0.0
  0
VERTEX
  5
2A31
  8
0
  6
CONTINUOUS
 10
-383.72298028004519
 20
412.23703547808088
 30
0.0
 42
0.4142135623730951
  0
VERTEX
  5
2A32
  8
0
  6
CONTINUOUS
 10
-383.97300265140979
 20
412.48705784944542
 30
0.0
  0
VERTEX
  5
2A33
  8
0
  6
CONTINUOUS
 10
-385.48278362260629
 20
412.48705784944542
 30
0.0
 42
-0.999999988280428
  0
VERTEX
  5
2A34
  8
0
  6
CONTINUOUS
 10
-385.75150824425089
 20
412.7557824710907
 30
0.0
  0
SEQEND
  5
2A35
  8
0
  6
CONTINUOUS
  0
POLYLINE
  5
26DB
  8
0
  6
CONTINUOUS
 66
     1
 10
0.0
 20
0.0
 30
0.0
 70
     1
  0
VERTEX
  5
2A36
  8
0
  6
CONTINUOUS
 10
-387.81518798949668
 20
387.41766746018391
 30
0.0
  0
VERTEX
  5
2A37
  8
0
  6
CONTINUOUS
 10
-387.60747055717161
 20
387.41766746018391
 30
0.0
 42
0.9999999882804281
  0
VERTEX
  5
2A38
  8
0
  6
CONTINUOUS
 10
-387.33874593552622
 20
387.68639208182861
 30
0.0
  0
VERTEX
  5
2A39
  8
0
  6
CONTINUOUS
 10
-387.33874593552622
 20
387.89410951415391
 30
0.0
 42
0.999999988280428
  0
VERTEX
  5
2A3A
  8
0
  6
CONTINUOUS
 10
-387.60747055717081
 20
388.16283413579907
 30
0.0
  0
VERTEX
  5
2A3B
  8
0
  6
CONTINUOUS
 10
-387.815187989496
 20
388.1628341357989
 30
0.0
 42
0.9999999882804278
  0
VERTEX
  5
2A3C
  8
0
  6
CONTINUOUS
 10
-388.08391261114127
 20
387.89410951415431
 30
0.0
  0
VERTEX
  5
2A3D
  8
0
  6
CONTINUOUS
 10
-388.08391261114127
 20
387.68639208182861
 30
0.0
 42
0.999999988280428
  0
SEQEND
  5
2A3E
  8
0
  6
CONTINUOUS
  0
POLYLINE
  5
26DC
  8
0
  6
CONTINUOUS
 66
     1
 10
0.0
 20
0.0
 30
0.0
 70
     1
  0
VERTEX
  5
2A3F
  8
0
  6
CONTINUOUS
 10
-387.81518798949668
 20
413.18712048926642
 30
0.0
  0
VERTEX
  5
2A40
  8
0
  6
CONTINUOUS
 10
-387.60747055717161
 20
413.18712048926659
 30
0.0
 42
0.9999999882804281
  0
VERTEX
  5
2A41
  8
0
  6
CONTINUOUS
 10
-387.33874593552622
 20
413.4558451109113
 30
0.0
  0
VERTEX
  5
2A42
  8
0
  6
CONTINUOUS
 10
-387.33874593552622
 20
413.66356254323642
 30
0.0
 42
0.999999988280428
  0
VERTEX
  5
2A43
  8
0
  6
CONTINUOUS
 10
-387.60747055717081
 20
413.9322871648817
 30
0.0
  0
VERTEX
  5
2A44
  8
0
  6
CONTINUOUS
 10
-387.815187989496
 20
413.9322871648817
 30
0.0
 42
0.9999999882804278
  0
VERTEX
  5
2A45
  8
0
  6
CONTINUOUS
 10
-388.08391261114127
 20
413.66356254323699
 30
0.0
  0
VERTEX
  5
2A46
  8
0
  6
CONTINUOUS
 10
-388.08391261114127
 20
413.4558451109113
 30
0.0
 42
0.999999988280428
  0
SEQEND
  5
2A47
  8
0
  6
CONTINUOUS
  0
POLYLINE
  5
26DD
  8
0
  6
CONTINUOUS
 66
     1
 10
0.0
 20
0.0
 30
0.0
 70
     1
  0
VERTEX
  5
2A48
  8
0
  6
CONTINUOUS
 10
-376.61216974611767
 20
386.84499968389753
 30
0.0
  0
VERTEX
  5
2A49
  8
0
  6
CONTINUOUS
 10
-376.61216974611767
 20
388.59417215397542
 30
0.0
 42
-0.9999999882804278
  0
VERTEX
  5
2A4A
  8
0
  6
CONTINUOUS
 10
-376.3434451244724
 20
388.86289677562007
 30
0.0
  0
VERTEX
  5
2A4B
  8
0
  6
CONTINUOUS
 10
-375.19353887363462
 20
388.86289677562019
 30
0.0
 42
0.4142135623730951
  0
VERTEX
  5
2A4C
  8
0
  6
CONTINUOUS
 10
-374.94351650226992
 20
389.11291914698478
 30
0.0
  0
VERTEX
  5
2A4D
  8
0
  6
CONTINUOUS
 10
-374.94351650226992
 20
412.23703547808088
 30
0.0
 42
0.4142135623730951
  0
VERTEX
  5
2A4E
  8
0
  6
CONTINUOUS
 10
-375.19353887363462
 20
412.48705784944559
 30
0.0
  0
VERTEX
  5
2A4F
  8
0
  6
CONTINUOUS
 10
-376.34344512446899
 20
412.48705784944559
 30
0.0
 42
-0.999999988280428
  0
VERTEX
  5
2A50
  8
0
  6
CONTINUOUS
 10
-376.61216974611767
 20
412.7557824710907
 30
0.0
  0
VERTEX
  5
2A51
  8
0
  6
CONTINUOUS
 10
-376.61216974611767
 20
414.50495494116808
 30
0.0
 42
0.4142135623730951
  0
VERTEX
  5
2A52
  8
0
  6
CONTINUOUS
 10
-376.86219211748232
 20
414.75497731253267
 30
0.0
  0
VERTEX
  5
2A53
  8
0
  6
CONTINUOUS
 10
-380.28178943291857
 20
414.75497731253267
 30
0.0
 42
0.4142135623730951
  0
VERTEX
  5
2A54
  8
0
  6
CONTINUOUS
 10
-380.53181180428322
 20
414.50495494116808
 30
0.0
  0
VERTEX
  5
2A55
  8
0
  6
CONTINUOUS
 10
-380.53181180428322
 20
412.7557824710907
 30
0.0
 42
-0.9999999882804281
  0
VERTEX
  5
2A56
  8
0
  6
CONTINUOUS
 10
-380.8005364259281
 20
412.48705784944559
 30
0.0
  0
VERTEX
  5
2A57
  8
0
  6
CONTINUOUS
 10
-382.88320330316492
 20
412.48705784944559
 30
0.0
 42
0.4142135623730951
  0
VERTEX
  5
2A58
  8
0
  6
CONTINUOUS
 10
-383.1332256745294
 20
412.23703547808088
 30
0.0
  0
VERTEX
  5
2A59
  8
0
  6
CONTINUOUS
 10
-383.1332256745294
 20
389.11291914698478
 30
0.0
 42
0.4142135623730951
  0
VERTEX
  5
2A5A
  8
0
  6
CONTINUOUS
 10
-382.88320330316492
 20
388.86289677562019
 30
0.0
  0
VERTEX
  5
2A5B
  8
0
  6
CONTINUOUS
 10
-380.8005364259285
 20
388.86289677562007
 30
0.0
 42
-0.999999988280428
  0
VERTEX
  5
2A5C
  8
0
  6
CONTINUOUS
 10
-380.53181180428339
 20
388.59417215397542
 30
0.0
  0
VERTEX
  5
2A5D
  8
0
  6
CONTINUOUS
 10
-380.53181180428339
 20
386.84499968389753
 30
0.0
 42
0.4142135623730951
  0
VERTEX
  5
2A5E
  8
0
  6
CONTINUOUS
 10
-380.28178943291857
 20
386.59497731253288
 30
0.0
  0
VERTEX
  5
2A5F
  8
0
  6
CONTINUOUS
 10
-376.86219211748232
 20
386.59497731253288
 30
0.0
 42
0.4142135623730951
  0
SEQEND
  5
2A60
  8
0
  6
CONTINUOUS
  0
POLYLINE
  5
26DE
  8
0
  6
CONTINUOUS
 66
     1
 10
0.0
 20
0.0
 30
0.0
 70
     1
  0
VERTEX
  5
2A61
  8
0
  6
CONTINUOUS
 10
-378.46813205903828
 20
387.41766746018391
 30
0.0
 42
0.9999999882804281
  0
VERTEX
  5
2A62
  8
0
  6
CONTINUOUS
 10
-378.19940743739301
 20
387.68639208182861
 30
0.0
  0
VERTEX
  5
2A63
  8
0
  6
CONTINUOUS
 10
-378.19940743739301
 20
387.89410951415391
 30
0.0
 42
0.999999988280428
  0
VERTEX
  5
2A64
  8
0
  6
CONTINUOUS
 10
-378.4681320590376
 20
388.16283413579907
 30
0.0
  0
VERTEX
  5
2A65
  8
0
  6
CONTINUOUS
 10
-378.67584949136278
 20
388.16283413579902
 30
0.0
 42
0.9999999882804278
  0
VERTEX
  5
2A66
  8
0
  6
CONTINUOUS
 10
-378.94457411300812
 20
387.89410951415431
 30
0.0
  0
VERTEX
  5
2A67
  8
0
  6
CONTINUOUS
 10
-378.94457411300812
 20
387.68639208182918
 30
0.0
 42
0.999999988280428
  0
VERTEX
  5
2A68
  8
0
  6
CONTINUOUS
 10
-378.67584949136278
 20
387.41766746018391
 30
0.0
  0
SEQEND
  5
2A69
  8
0
  6
CONTINUOUS
  0
POLYLINE
  5
26DF
  8
0
  6
CONTINUOUS
 66
     1
 10
0.0
 20
0.0
 30
0.0
 70
     1
  0
VERTEX
  5
2A6A
  8
0
  6
CONTINUOUS
 10
-378.94457411300812
 20
413.45584511091181
 30
0.0
 42
0.999999988280428
  0
VERTEX
  5
2A6B
  8
0
  6
CONTINUOUS
 10
-378.67584949135937
 20
413.18712048926648
 30
0.0
  0
VERTEX
  5
2A6C
  8
0
  6
CONTINUOUS
 10
-378.46813205903828
 20
413.18712048926659
 30
0.0
 42
0.9999999882804281
  0
VERTEX
  5
2A6D
  8
0
  6
CONTINUOUS
 10
-378.19940743739301
 20
413.4558451109113
 30
0.0
  0
VERTEX
  5
2A6E
  8
0
  6
CONTINUOUS
 10
-378.19940743739301
 20
413.66356254323659
 30
0.0
 42
0.999999988280428
  0
VERTEX
  5
2A6F
  8
0
  6
CONTINUOUS
 10
-378.4681320590376
 20
413.9322871648817
 30
0.0
  0
VERTEX
  5
2A70
  8
0
  6
CONTINUOUS
 10
-378.67584949136278
 20
413.9322871648817
 30
0.0
 42
0.9999999882804278
  0
VERTEX
  5
2A71
  8
0
  6
CONTINUOUS
 10
-378.94457411300812
 20
413.66356254323659
 30
0.0
  0
SEQEND
  5
2A72
  8
0
  6
CONTINUOUS
  0
CIRCLE
  5
2709
  8
0
  6
CONTINUOUS
 10
-458.59155771884139
 20
431.13922159898021
 30
0.0
 40
0.1968680089485458
  0
POLYLINE
  5
270A
  8
0
  6
CONTINUOUS
 66
     1
 10
0.0
 20
0.0
 30
0.0
 70
     1
  0
VERTEX
  5
2A73
  8
0
  6
CONTINUOUS
 10
-460.85851410362892
 20
429.40678312023289
 30
0.0
  0
VERTEX
  5
2A74
  8
0
  6
CONTINUOUS
 10
-458.25097606336038
 20
429.40678312023289
 30
0.0
 42
0.4142135623730951
  0
VERTEX
  5
2A75
  8
0
  6
CONTINUOUS
 10
-458.00095369199568
 20
429.65680549159771
 30
0.0
  0
VERTEX
  5
2A76
  8
0
  6
CONTINUOUS
 10
-458.00095369199568
 20
431.47980325446122
 30
0.0
 42
0.4142135623730951
  0
VERTEX
  5
2A77
  8
0
  6
CONTINUOUS
 10
-458.25097606336038
 20
431.72982562582592
 30
0.0
  0
VERTEX
  5
2A78
  8
0
  6
CONTINUOUS
 10
-459.32587539221947
 20
431.7298256258257
 30
0.0
 42
0.4142135623730951
  0
VERTEX
  5
2A79
  8
0
  6
CONTINUOUS
 10
-459.57589776358412
 20
431.47980325446122
 30
0.0
  0
VERTEX
  5
2A7A
  8
0
  6
CONTINUOUS
 10
-459.57589776358412
 20
430.81734219378319
 30
0.0
 42
-0.999999988280428
  0
VERTEX
  5
2A7B
  8
0
  6
CONTINUOUS
 10
-459.84462238522929
 20
430.54861757213439
 30
0.0
  0
VERTEX
  5
2A7C
  8
0
  6
CONTINUOUS
 10
-460.05233981755453
 20
430.54861757213439
 30
0.0
 42
-0.9999999882804278
  0
VERTEX
  5
2A7D
  8
0
  6
CONTINUOUS
 10
-460.32106443919918
 20
430.81734219377972
 30
0.0
  0
VERTEX
  5
2A7E
  8
0
  6
CONTINUOUS
 10
-460.32106443919929
 20
431.47980325446122
 30
0.0
 42
0.4142135623730951
  0
VERTEX
  5
2A7F
  8
0
  6
CONTINUOUS
 10
-460.571086810564
 20
431.72982562582592
 30
0.0
  0
VERTEX
  5
2A80
  8
0
  6
CONTINUOUS
 10
-460.85851410362892
 20
431.7298256258257
 30
0.0
 42
0.4142135623730951
  0
VERTEX
  5
2A81
  8
0
  6
CONTINUOUS
 10
-461.10853647499351
 20
431.47980325446122
 30
0.0
  0
VERTEX
  5
2A82
  8
0
  6
CONTINUOUS
 10
-461.10853647499351
 20
429.65680549159771
 30
0.0
 42
0.4142135623730951
  0
SEQEND
  5
2A83
  8
0
  6
CONTINUOUS
  0
CIRCLE
  5
270B
  8
0
  6
CONTINUOUS
 10
-458.59155771884139
 20
428.22583573468012
 30
0.0
 40
0.1968680089485458
  0
POLYLINE
  5
270C
  8
0
  6
CONTINUOUS
 66
     1
 10
0.0
 20
0.0
 30
0.0
 70
     1
  0
VERTEX
  5
2A84
  8
0
  6
CONTINUOUS
 10
-460.85851410362892
 20
426.49339725593279
 30
0.0
  0
VERTEX
  5
2A85
  8
0
  6
CONTINUOUS
 10
-458.25097606336038
 20
426.49339725593279
 30
0.0
 42
0.4142135623730951
  0
VERTEX
  5
2A86
  8
0
  6
CONTINUOUS
 10
-458.00095369199568
 20
426.74341962729773
 30
0.0
  0
VERTEX
  5
2A87
  8
0
  6
CONTINUOUS
 10
-458.00095369199568
 20
428.56641739016112
 30
0.0
 42
0.4142135623730951
  0
VERTEX
  5
2A88
  8
0
  6
CONTINUOUS
 10
-458.25097606336038
 20
428.81643976152583
 30
0.0
  0
VERTEX
  5
2A89
  8
0
  6
CONTINUOUS
 10
-459.32587539221947
 20
428.81643976152571
 30
0.0
 42
0.4142135623730951
  0
VERTEX
  5
2A8A
  8
0
  6
CONTINUOUS
 10
-459.57589776358412
 20
428.56641739016112
 30
0.0
  0
VERTEX
  5
2A8B
  8
0
  6
CONTINUOUS
 10
-459.57589776358412
 20
427.90395632948309
 30
0.0
 42
-0.999999988280428
  0
VERTEX
  5
2A8C
  8
0
  6
CONTINUOUS
 10
-459.84462238522929
 20
427.63523170783441
 30
0.0
  0
VERTEX
  5
2A8D
  8
0
  6
CONTINUOUS
 10
-460.05233981755453
 20
427.63523170783441
 30
0.0
 42
-0.9999999882804278
  0
VERTEX
  5
2A8E
  8
0
  6
CONTINUOUS
 10
-460.32106443919918
 20
427.90395632947968
 30
0.0
  0
VERTEX
  5
2A8F
  8
0
  6
CONTINUOUS
 10
-460.32106443919929
 20
428.56641739016112
 30
0.0
 42
0.4142135623730951
  0
VERTEX
  5
2A90
  8
0
  6
CONTINUOUS
 10
-460.571086810564
 20
428.81643976152583
 30
0.0
  0
VERTEX
  5
2A91
  8
0
  6
CONTINUOUS
 10
-460.85851410362892
 20
428.81643976152571
 30
0.0
 42
0.4142135623730951
  0
VERTEX
  5
2A92
  8
0
  6
CONTINUOUS
 10
-461.10853647499351
 20
428.56641739016112
 30
0.0
  0
VERTEX
  5
2A93
  8
0
  6
CONTINUOUS
 10
-461.10853647499351
 20
426.74341962729773
 30
0.0
 42
0.4142135623730951
  0
SEQEND
  5
2A94
  8
0
  6
CONTINUOUS
  0
CIRCLE
  5
270D
  8
0
  6
CONTINUOUS
 10
-368.8594704461126
 20
387.18558133937847
 30
0.0
 40
0.1968680089485458
  0
POLYLINE
  5
270E
  8
0
  6
CONTINUOUS
 66
     1
 10
0.0
 20
0.0
 30
0.0
 70
     1
  0
VERTEX
  5
2A95
  8
0
  6
CONTINUOUS
 10
-367.87513040136992
 20
390.53233749150371
 30
0.0
  0
VERTEX
  5
2A96
  8
0
  6
CONTINUOUS
 10
-369.2000521015936
 20
390.53233749150371
 30
0.0
 42
0.4142135623730951
  0
VERTEX
  5
2A97
  8
0
  6
CONTINUOUS
 10
-369.45007447295819
 20
390.28231512013912
 30
0.0
  0
VERTEX
  5
2A98
  8
0
  6
CONTINUOUS
 10
-369.45007447295819
 20
386.84499968389741
 30
0.0
 42
0.4142135623730951
  0
VERTEX
  5
2A99
  8
0
  6
CONTINUOUS
 10
-369.2000521015936
 20
386.59497731253271
 30
0.0
  0
VERTEX
  5
2A9A
  8
0
  6
CONTINUOUS
 10
-367.87513040136992
 20
386.59497731253282
 30
0.0
  0
VERTEX
  5
2A9B
  8
0
  6
CONTINUOUS
 10
-367.87513040136992
 20
387.15309832847191
 30
0.0
 42
-0.999999988280428
  0
VERTEX
  5
2A9C
  8
0
  6
CONTINUOUS
 10
-367.60640577972458
 20
387.42182295011679
 30
0.0
  0
VERTEX
  5
2A9D
  8
0
  6
CONTINUOUS
 10
-365.84148386893139
 20
387.42182295011679
 30
0.0
 42
0.4142135623730951
  0
VERTEX
  5
2A9E
  8
0
  6
CONTINUOUS
 10
-365.59146149756668
 20
387.67184532148138
 30
0.0
  0
VERTEX
  5
2A9F
  8
0
  6
CONTINUOUS
 10
-365.59146149756668
 20
389.45546948255509
 30
0.0
 42
0.4142135623730951
  0
VERTEX
  5
2AA0
  8
0
  6
CONTINUOUS
 10
-365.84148386893139
 20
389.70549185391968
 30
0.0
  0
VERTEX
  5
2AA1
  8
0
  6
CONTINUOUS
 10
-367.60640577972509
 20
389.70549185391991
 30
0.0
 42
-0.9999999882804281
  0
VERTEX
  5
2AA2
  8
0
  6
CONTINUOUS
 10
-367.87513040136969
 20
389.97421647556519
 30
0.0
  0
SEQEND
  5
2AA3
  8
0
  6
CONTINUOUS
  0
POLYLINE
  5
270F
  8
0
  6
CONTINUOUS
 66
     1
 10
0.0
 20
0.0
 30
0.0
 70
     1
  0
VERTEX
  5
2AA4
  8
0
  6
CONTINUOUS
 10
-367.12996372575458
 20
388.4597986858559
 30
0.0
 42
0.9999999882804281
  0
VERTEX
  5
2AA5
  8
0
  6
CONTINUOUS
 10
-366.86123910410993
 20
388.19107406421062
 30
0.0
  0
VERTEX
  5
2AA6
  8
0
  6
CONTINUOUS
 10
-366.65352167178457
 20
388.19107406421062
 30
0.0
 42
0.999999988280428
  0
VERTEX
  5
2AA7
  8
0
  6
CONTINUOUS
 10
-366.38479705013941
 20
388.45979868585931
 30
0.0
  0
VERTEX
  5
2AA8
  8
0
  6
CONTINUOUS
 10
-366.38479705013953
 20
388.66751611818057
 30
0.0
 42
0.9999999882804278
  0
VERTEX
  5
2AA9
  8
0
  6
CONTINUOUS
 10
-366.65352167178418
 20
388.93624073982591
 30
0.0
  0
VERTEX
  5
2AAA
  8
0
  6
CONTINUOUS
 10
-366.86123910410942
 20
388.93624073982591
 30
0.0
 42
0.999999988280428
  0
VERTEX
  5
2AAB
  8
0
  6
CONTINUOUS
 10
-367.12996372575458
 20
388.66751611818057
 30
0.0
  0
SEQEND
  5
2AAC
  8
0
  6
CONTINUOUS
  0
CIRCLE
  5
2710
  8
0
  6
CONTINUOUS
 10
-368.85913601714589
 20
391.71314076997862
 30
0.0
 40
0.1968680089485458
  0
POLYLINE
  5
2711
  8
0
  6
CONTINUOUS
 66
     1
 10
0.0
 20
0.0
 30
0.0
 70
     1
  0
VERTEX
  5
2AAD
  8
0
  6
CONTINUOUS
 10
-367.87479597240309
 20
395.05989692210369
 30
0.0
  0
VERTEX
  5
2AAE
  8
0
  6
CONTINUOUS
 10
-369.19971767262689
 20
395.05989692210369
 30
0.0
 42
0.4142135623730951
  0
VERTEX
  5
2AAF
  8
0
  6
CONTINUOUS
 10
-369.44974004399148
 20
394.80987455073921
 30
0.0
  0
VERTEX
  5
2AB0
  8
0
  6
CONTINUOUS
 10
-369.44974004399148
 20
391.37255911449739
 30
0.0
 42
0.4142135623730951
  0
VERTEX
  5
2AB1
  8
0
  6
CONTINUOUS
 10
-369.19971767262689
 20
391.12253674313268
 30
0.0
  0
VERTEX
  5
2AB2
  8
0
  6
CONTINUOUS
 10
-367.87479597240309
 20
391.1225367431328
 30
0.0
  0
VERTEX
  5
2AB3
  8
0
  6
CONTINUOUS
 10
-367.87479597240309
 20
391.68065775907189
 30
0.0
 42
-0.999999988280428
  0
VERTEX
  5
2AB4
  8
0
  6
CONTINUOUS
 10
-367.60607135075787
 20
391.94938238071683
 30
0.0
  0
VERTEX
  5
2AB5
  8
0
  6
CONTINUOUS
 10
-365.84114943996468
 20
391.94938238071683
 30
0.0
 42
0.4142135623730951
  0
VERTEX
  5
2AB6
  8
0
  6
CONTINUOUS
 10
-365.59112706859997
 20
392.19940475208142
 30
0.0
  0
VERTEX
  5
2AB7
  8
0
  6
CONTINUOUS
 10
-365.59112706859997
 20
393.98302891315512
 30
0.0
 42
0.4142135623730951
  0
VERTEX
  5
2AB8
  8
0
  6
CONTINUOUS
 10
-365.84114943996468
 20
394.23305128451977
 30
0.0
  0
VERTEX
  5
2AB9
  8
0
  6
CONTINUOUS
 10
-367.60607135075838
 20
394.23305128452
 30
0.0
 42
-0.9999999882804281
  0
VERTEX
  5
2ABA
  8
0
  6
CONTINUOUS
 10
-367.87479597240298
 20
394.50177590616528
 30
0.0
  0
SEQEND
  5
2ABB
  8
0
  6
CONTINUOUS
  0
POLYLINE
  5
2712
  8
0
  6
CONTINUOUS
 66
     1
 10
0.0
 20
0.0
 30
0.0
 70
     1
  0
VERTEX
  5
2ABC
  8
0
  6
CONTINUOUS
 10
-367.12962929678793
 20
392.98735811645588
 30
0.0
 42
0.9999999882804281
  0
VERTEX
  5
2ABD
  8
0
  6
CONTINUOUS
 10
-366.86090467514322
 20
392.7186334948106
 30
0.0
  0
VERTEX
  5
2ABE
  8
0
  6
CONTINUOUS
 10
-366.65318724281792
 20
392.7186334948106
 30
0.0
 42
0.999999988280428
  0
VERTEX
  5
2ABF
  8
0
  6
CONTINUOUS
 10
-366.3844626211727
 20
392.9873581164594
 30
0.0
  0
VERTEX
  5
2AC0
  8
0
  6
CONTINUOUS
 10
-366.38446262117282
 20
393.19507554878061
 30
0.0
 42
0.9999999882804278
  0
VERTEX
  5
2AC1
  8
0
  6
CONTINUOUS
 10
-366.65318724281752
 20
393.46380017042588
 30
0.0
  0
VERTEX
  5
2AC2
  8
0
  6
CONTINUOUS
 10
-366.86090467514271
 20
393.46380017042588
 30
0.0
 42
0.999999988280428
  0
VERTEX
  5
2AC3
  8
0
  6
CONTINUOUS
 10
-367.12962929678793
 20
393.19507554878061
 30
0.0
  0
SEQEND
  5
2AC4
  8
0
  6
CONTINUOUS
  0
CIRCLE
  5
2713
  8
0
  6
CONTINUOUS
 10
-368.8594704461126
 20
396.24069961387858
 30
0.0
 40
0.1968680089485458
  0
POLYLINE
  5
2714
  8
0
  6
CONTINUOUS
 66
     1
 10
0.0
 20
0.0
 30
0.0
 70
     1
  0
VERTEX
  5
2AC5
  8
0
  6
CONTINUOUS
 10
-367.87513040136992
 20
399.58745576600381
 30
0.0
  0
VERTEX
  5
2AC6
  8
0
  6
CONTINUOUS
 10
-369.2000521015936
 20
399.58745576600381
 30
0.0
 42
0.4142135623730951
  0
VERTEX
  5
2AC7
  8
0
  6
CONTINUOUS
 10
-369.45007447295819
 20
399.33743339463911
 30
0.0
  0
VERTEX
  5
2AC8
  8
0
  6
CONTINUOUS
 10
-369.45007447295819
 20
395.9001179583974
 30
0.0
 42
0.4142135623730951
  0
VERTEX
  5
2AC9
  8
0
  6
CONTINUOUS
 10
-369.2000521015936
 20
395.65009558703269
 30
0.0
  0
VERTEX
  5
2ACA
  8
0
  6
CONTINUOUS
 10
-367.87513040136992
 20
395.65009558703281
 30
0.0
  0
VERTEX
  5
2ACB
  8
0
  6
CONTINUOUS
 10
-367.87513040136992
 20
396.20821660297202
 30
0.0
 42
-0.999999988280428
  0
VERTEX
  5
2ACC
  8
0
  6
CONTINUOUS
 10
-367.60640577972458
 20
396.47694122461678
 30
0.0
  0
VERTEX
  5
2ACD
  8
0
  6
CONTINUOUS
 10
-365.84148386893139
 20
396.47694122461678
 30
0.0
 42
0.4142135623730951
  0
VERTEX
  5
2ACE
  8
0
  6
CONTINUOUS
 10
-365.59146149756668
 20
396.72696359598137
 30
0.0
  0
VERTEX
  5
2ACF
  8
0
  6
CONTINUOUS
 10
-365.59146149756668
 20
398.51058775705508
 30
0.0
 42
0.4142135623730951
  0
VERTEX
  5
2AD0
  8
0
  6
CONTINUOUS
 10
-365.84148386893139
 20
398.76061012841978
 30
0.0
  0
VERTEX
  5
2AD1
  8
0
  6
CONTINUOUS
 10
-367.60640577972509
 20
398.76061012842001
 30
0.0
 42
-0.9999999882804281
  0
VERTEX
  5
2AD2
  8
0
  6
CONTINUOUS
 10
-367.87513040136969
 20
399.02933475006529
 30
0.0
  0
SEQEND
  5
2AD3
  8
0
  6
CONTINUOUS
  0
POLYLINE
  5
2715
  8
0
  6
CONTINUOUS
 66
     1
 10
0.0
 20
0.0
 30
0.0
 70
     1
  0
VERTEX
  5
2AD4
  8
0
  6
CONTINUOUS
 10
-367.12996372575458
 20
397.514916960356
 30
0.0
 42
0.9999999882804281
  0
VERTEX
  5
2AD5
  8
0
  6
CONTINUOUS
 10
-366.86123910410993
 20
397.24619233871061
 30
0.0
  0
VERTEX
  5
2AD6
  8
0
  6
CONTINUOUS
 10
-366.65352167178457
 20
397.24619233871061
 30
0.0
 42
0.999999988280428
  0
VERTEX
  5
2AD7
  8
0
  6
CONTINUOUS
 10
-366.38479705013941
 20
397.51491696035941
 30
0.0
  0
VERTEX
  5
2AD8
  8
0
  6
CONTINUOUS
 10
-366.38479705013953
 20
397.72263439268062
 30
0.0
 42
0.9999999882804278
  0
VERTEX
  5
2AD9
  8
0
  6
CONTINUOUS
 10
-366.65352167178418
 20
397.99135901432589
 30
0.0
  0
VERTEX
  5
2ADA
  8
0
  6
CONTINUOUS
 10
-366.86123910410942
 20
397.99135901432589
 30
0.0
 42
0.999999988280428
  0
VERTEX
  5
2ADB
  8
0
  6
CONTINUOUS
 10
-367.12996372575458
 20
397.72263439268062
 30
0.0
  0
SEQEND
  5
2ADC
  8
0
  6
CONTINUOUS
  0
CIRCLE
  5
2716
  8
0
  6
CONTINUOUS
 10
-368.85913601714589
 20
400.76825904442859
 30
0.0
 40
0.1968680089485458
  0
POLYLINE
  5
2717
  8
0
  6
CONTINUOUS
 66
     1
 10
0.0
 20
0.0
 30
0.0
 70
     1
  0
VERTEX
  5
2ADD
  8
0
  6
CONTINUOUS
 10
-367.87479597240309
 20
404.11501519655371
 30
0.0
  0
VERTEX
  5
2ADE
  8
0
  6
CONTINUOUS
 10
-369.19971767262689
 20
404.11501519655371
 30
0.0
 42
0.4142135623730951
  0
VERTEX
  5
2ADF
  8
0
  6
CONTINUOUS
 10
-369.44974004399148
 20
403.86499282518912
 30
0.0
  0
VERTEX
  5
2AE0
  8
0
  6
CONTINUOUS
 10
-369.44974004399148
 20
400.42767738894742
 30
0.0
 42
0.4142135623730951
  0
VERTEX
  5
2AE1
  8
0
  6
CONTINUOUS
 10
-369.19971767262689
 20
400.17765501758282
 30
0.0
  0
VERTEX
  5
2AE2
  8
0
  6
CONTINUOUS
 10
-367.87479597240309
 20
400.17765501758282
 30
0.0
  0
VERTEX
  5
2AE3
  8
0
  6
CONTINUOUS
 10
-367.87479597240309
 20
400.73577603352192
 30
0.0
 42
-0.999999988280428
  0
VERTEX
  5
2AE4
  8
0
  6
CONTINUOUS
 10
-367.60607135075787
 20
401.00450065516679
 30
0.0
  0
VERTEX
  5
2AE5
  8
0
  6
CONTINUOUS
 10
-365.84114943996468
 20
401.00450065516679
 30
0.0
 42
0.4142135623730951
  0
VERTEX
  5
2AE6
  8
0
  6
CONTINUOUS
 10
-365.59112706859997
 20
401.25452302653139
 30
0.0
  0
VERTEX
  5
2AE7
  8
0
  6
CONTINUOUS
 10
-365.59112706859997
 20
403.03814718760509
 30
0.0
 42
0.4142135623730951
  0
VERTEX
  5
2AE8
  8
0
  6
CONTINUOUS
 10
-365.84114943996468
 20
403.2881695589698
 30
0.0
  0
VERTEX
  5
2AE9
  8
0
  6
CONTINUOUS
 10
-367.60607135075838
 20
403.28816955896991
 30
0.0
 42
-0.9999999882804281
  0
VERTEX
  5
2AEA
  8
0
  6
CONTINUOUS
 10
-367.87479597240298
 20
403.55689418061519
 30
0.0
  0
SEQEND
  5
2AEB
  8
0
  6
CONTINUOUS
  0
POLYLINE
  5
2718
  8
0
  6
CONTINUOUS
 66
     1
 10
0.0
 20
0.0
 30
0.0
 70
     1
  0
VERTEX
  5
2AEC
  8
0
  6
CONTINUOUS
 10
-367.12962929678793
 20
402.0424763909059
 30
0.0
 42
0.9999999882804281
  0
VERTEX
  5
2AED
  8
0
  6
CONTINUOUS
 10
-366.86090467514322
 20
401.77375176926063
 30
0.0
  0
VERTEX
  5
2AEE
  8
0
  6
CONTINUOUS
 10
-366.65318724281792
 20
401.77375176926063
 30
0.0
 42
0.999999988280428
  0
VERTEX
  5
2AEF
  8
0
  6
CONTINUOUS
 10
-366.3844626211727
 20
402.04247639090931
 30
0.0
  0
VERTEX
  5
2AF0
  8
0
  6
CONTINUOUS
 10
-366.38446262117282
 20
402.25019382323057
 30
0.0
 42
0.9999999882804278
  0
VERTEX
  5
2AF1
  8
0
  6
CONTINUOUS
 10
-366.65318724281752
 20
402.51891844487591
 30
0.0
  0
VERTEX
  5
2AF2
  8
0
  6
CONTINUOUS
 10
-366.86090467514271
 20
402.51891844487591
 30
0.0
 42
0.999999988280428
  0
VERTEX
  5
2AF3
  8
0
  6
CONTINUOUS
 10
-367.12962929678793
 20
402.25019382323057
 30
0.0
  0
SEQEND
  5
2AF4
  8
0
  6
CONTINUOUS
  0
POLYLINE
  5
2719
  8
0
  6
CONTINUOUS
 66
     1
 10
0.0
 20
0.0
 30
0.0
 70
     1
  0
VERTEX
  5
2AF5
  8
0
  6
CONTINUOUS
 10
-393.20371743184307
 20
395.7790578631969
 30
0.0
 42
0.9999999882804281
  0
VERTEX
  5
2AF6
  8
0
  6
CONTINUOUS
 10
-392.93499281019461
 20
395.51033324155162
 30
0.0
  0
VERTEX
  5
2AF7
  8
0
  6
CONTINUOUS
 10
-392.7272966396182
 20
395.51033324155162
 30
0.0
 42
0.999999988280428
  0
VERTEX
  5
2AF8
  8
0
  6
CONTINUOUS
 10
-392.4585720179731
 20
395.77905786319621
 30
0.0
  0
VERTEX
  5
2AF9
  8
0
  6
CONTINUOUS
 10
-392.4585720179731
 20
399.9841589554768
 30
0.0
 42
0.9999999882804278
  0
VERTEX
  5
2AFA
  8
0
  6
CONTINUOUS
 10
-392.72729663961769
 20
400.25288357712202
 30
0.0
  0
VERTEX
  5
2AFB
  8
0
  6
CONTINUOUS
 10
-392.93499281019803
 20
400.25288357712202
 30
0.0
 42
0.999999988280428
  0
VERTEX
  5
2AFC
  8
0
  6
CONTINUOUS
 10
-393.20371743184319
 20
399.9841589554768
 30
0.0
  0
SEQEND
  5
2AFD
  8
0
  6
CONTINUOUS
  0
POLYLINE
  5
271A
  8
0
  6
CONTINUOUS
 66
     1
 10
0.0
 20
0.0
 30
0.0
 70
     1
  0
VERTEX
  5
2AFE
  8
0
  6
CONTINUOUS
 10
-391.96342771372241
 20
402.6174652326028
 30
0.0
  0
VERTEX
  5
2AFF
  8
0
  6
CONTINUOUS
 10
-393.69886173609382
 20
402.6174652326028
 30
0.0
 42
0.4142135623730951
  0
VERTEX
  5
2B00
  8
0
  6
CONTINUOUS
 10
-393.94888410745853
 20
402.36744286123832
 30
0.0
  0
VERTEX
  5
2B01
  8
0
  6
CONTINUOUS
 10
-393.94888410745853
 20
393.3957739574351
 30
0.0
 42
0.4142135623730951
  0
VERTEX
  5
2B02
  8
0
  6
CONTINUOUS
 10
-393.69886173609382
 20
393.14575158607039
 30
0.0
  0
VERTEX
  5
2B03
  8
0
  6
CONTINUOUS
 10
-391.96342771372241
 20
393.1457515860705
 30
0.0
 42
0.4142135623730951
  0
VERTEX
  5
2B04
  8
0
  6
CONTINUOUS
 10
-391.71340534235782
 20
393.3957739574351
 30
0.0
  0
VERTEX
  5
2B05
  8
0
  6
CONTINUOUS
 10
-391.71340534235782
 20
402.36744286123832
 30
0.0
 42
0.4142135623730951
  0
SEQEND
  5
2B06
  8
0
  6
CONTINUOUS
  0
POLYLINE
  5
271B
  8
0
  6
CONTINUOUS
 66
     1
 10
0.0
 20
0.0
 30
0.0
 70
     1
  0
VERTEX
  5
2B07
  8
0
  6
CONTINUOUS
 10
-393.20371770778848
 20
405.84047594794151
 30
0.0
 42
0.9999999882804281
  0
VERTEX
  5
2B08
  8
0
  6
CONTINUOUS
 10
-392.93499308614003
 20
405.57175132629618
 30
0.0
  0
VERTEX
  5
2B09
  8
0
  6
CONTINUOUS
 10
-392.72729691556361
 20
405.57175132629618
 30
0.0
 42
0.999999988280428
  0
VERTEX
  5
2B0A
  8
0
  6
CONTINUOUS
 10
-392.45857229391839
 20
405.84047594794077
 30
0.0
  0
VERTEX
  5
2B0B
  8
0
  6
CONTINUOUS
 10
-392.45857229391839
 20
410.04557704022142
 30
0.0
 42
0.9999999882804278
  0
VERTEX
  5
2B0C
  8
0
  6
CONTINUOUS
 10
-392.7272969155631
 20
410.31430166186669
 30
0.0
  0
VERTEX
  5
2B0D
  8
0
  6
CONTINUOUS
 10
-392.93499308614338
 20
410.31430166186669
 30
0.0
 42
0.999999988280428
  0
VERTEX
  5
2B0E
  8
0
  6
CONTINUOUS
 10
-393.20371770778848
 20
410.04557704022142
 30
0.0
  0
SEQEND
  5
2B0F
  8
0
  6
CONTINUOUS
  0
POLYLINE
  5
271C
  8
0
  6
CONTINUOUS
 66
     1
 10
0.0
 20
0.0
 30
0.0
 70
     1
  0
VERTEX
  5
2B10
  8
0
  6
CONTINUOUS
 10
-391.96342798966782
 20
412.67888331734758
 30
0.0
  0
VERTEX
  5
2B11
  8
0
  6
CONTINUOUS
 10
-393.69886201203923
 20
412.67888331734758
 30
0.0
 42
0.4142135623730951
  0
VERTEX
  5
2B12
  8
0
  6
CONTINUOUS
 10
-393.94888438340382
 20
412.42886094598299
 30
0.0
  0
VERTEX
  5
2B13
  8
0
  6
CONTINUOUS
 10
-393.94888438340382
 20
403.45719204217983
 30
0.0
 42
0.4142135623730951
  0
VERTEX
  5
2B14
  8
0
  6
CONTINUOUS
 10
-393.69886201203923
 20
403.20716967081501
 30
0.0
  0
VERTEX
  5
2B15
  8
0
  6
CONTINUOUS
 10
-391.96342798966782
 20
403.20716967081512
 30
0.0
 42
0.4142135623730951
  0
VERTEX
  5
2B16
  8
0
  6
CONTINUOUS
 10
-391.71340561830323
 20
403.45719204217983
 30
0.0
  0
VERTEX
  5
2B17
  8
0
  6
CONTINUOUS
 10
-391.71340561830323
 20
412.42886094598299
 30
0.0
 42
0.4142135623730951
  0
SEQEND
  5
2B18
  8
0
  6
CONTINUOUS
  0
POLYLINE
  5
271D
  8
0
  6
CONTINUOUS
 66
     1
 10
0.0
 20
0.0
 30
0.0
 70
     1
  0
VERTEX
  5
2B19
  8
0
  6
CONTINUOUS
 10
-392.47710743130949
 20
428.70002323854152
 30
0.0
  0
VERTEX
  5
2B1A
  8
0
  6
CONTINUOUS
 10
-390.44230034810568
 20
428.36138106074242
 30
0.0
 42
-0.9207651933220823
  0
VERTEX
  5
2B1B
  8
0
  6
CONTINUOUS
 10
-390.48827115398058
 20
427.80513016070279
 30
0.0
  0
VERTEX
  5
2B1C
  8
0
  6
CONTINUOUS
 10
-392.49845101975262
 20
427.80513016070279
 30
0.0
 42
-0.4142135623730951
  0
VERTEX
  5
2B1D
  8
0
  6
CONTINUOUS
 10
-392.62846265286231
 20
427.93514179381242
 30
0.0
  0
VERTEX
  5
2B1E
  8
0
  6
CONTINUOUS
 10
-392.62846265286208
 20
428.57177552520392
 30
0.0
 42
-0.4633830812107383
  0
SEQEND
  5
2B1F
  8
0
  6
CONTINUOUS
  0
POLYLINE
  5
271E
  8
0
  6
CONTINUOUS
 66
     1
 10
0.0
 20
0.0
 30
0.0
 70
     1
  0
VERTEX
  5
2B20
  8
0
  6
CONTINUOUS
 10
-389.47264521666352
 20
428.70002323854152
 30
0.0
  0
VERTEX
  5
2B21
  8
0
  6
CONTINUOUS
 10
-387.43783813345971
 20
428.36138106074242
 30
0.0
 42
-0.9207651933220823
  0
VERTEX
  5
2B22
  8
0
  6
CONTINUOUS
 10
-387.48380893933472
 20
427.80513016070279
 30
0.0
  0
VERTEX
  5
2B23
  8
0
  6
CONTINUOUS
 10
-389.49398880510671
 20
427.80513016070279
 30
0.0
 42
-0.4142135623730951
  0
VERTEX
  5
2B24
  8
0
  6
CONTINUOUS
 10
-389.62400043821629
 20
427.93514179381242
 30
0.0
  0
VERTEX
  5
2B25
  8
0
  6
CONTINUOUS
 10
-389.62400043821611
 20
428.57177552520392
 30
0.0
 42
-0.4633830812107383
  0
SEQEND
  5
2B26
  8
0
  6
CONTINUOUS
  0
POLYLINE
  5
271F
  8
0
  6
CONTINUOUS
 66
     1
 10
0.0
 20
0.0
 30
0.0
 70
     1
  0
VERTEX
  5
2B27
  8
0
  6
CONTINUOUS
 10
-386.4681830020175
 20
428.70002323854152
 30
0.0
  0
VERTEX
  5
2B28
  8
0
  6
CONTINUOUS
 10
-384.43337591881368
 20
428.36138106074242
 30
0.0
 42
-0.9207651933220823
  0
VERTEX
  5
2B29
  8
0
  6
CONTINUOUS
 10
-384.4793467246887
 20
427.80513016070279
 30
0.0
  0
VERTEX
  5
2B2A
  8
0
  6
CONTINUOUS
 10
-386.48952659046068
 20
427.80513016070279
 30
0.0
 42
-0.4142135623730951
  0
VERTEX
  5
2B2B
  8
0
  6
CONTINUOUS
 10
-386.61953822357032
 20
427.93514179381242
 30
0.0
  0
VERTEX
  5
2B2C
  8
0
  6
CONTINUOUS
 10
-386.6195382235702
 20
428.57177552520392
 30
0.0
 42
-0.4633830812107383
  0
SEQEND
  5
2B2D
  8
0
  6
CONTINUOUS
  0
POLYLINE
  5
2720
  8
0
  6
CONTINUOUS
 66
     1
 10
0.0
 20
0.0
 30
0.0
 70
     1
  0
VERTEX
  5
2B2E
  8
0
  6
CONTINUOUS
 10
-383.46410523171221
 20
428.70002323854129
 30
0.0
  0
VERTEX
  5
2B2F
  8
0
  6
CONTINUOUS
 10
-381.42929814850851
 20
428.36138106074208
 30
0.0
 42
-0.9207651933220823
  0
VERTEX
  5
2B30
  8
0
  6
CONTINUOUS
 10
-381.47526895438352
 20
427.80513016070262
 30
0.0
  0
VERTEX
  5
2B31
  8
0
  6
CONTINUOUS
 10
-383.48544882015551
 20
427.80513016070262
 30
0.0
 42
-0.4142135623730951
  0
VERTEX
  5
2B32
  8
0
  6
CONTINUOUS
 10
-383.61546045326509
 20
427.93514179381219
 30
0.0
  0
VERTEX
  5
2B33
  8
0
  6
CONTINUOUS
 10
-383.61546045326492
 20
428.57177552520358
 30
0.0
 42
-0.4633830812107383
  0
SEQEND
  5
2B34
  8
0
  6
CONTINUOUS
  0
POLYLINE
  5
2721
  8
0
  6
CONTINUOUS
 66
     1
 10
0.0
 20
0.0
 30
0.0
 70
     1
  0
VERTEX
  5
2B35
  8
0
  6
CONTINUOUS
 10
-380.4596430170663
 20
428.70002323854129
 30
0.0
  0
VERTEX
  5
2B36
  8
0
  6
CONTINUOUS
 10
-378.42483593386248
 20
428.36138106074219
 30
0.0
 42
-0.9207651933220823
  0
VERTEX
  5
2B37
  8
0
  6
CONTINUOUS
 10
-378.4708067397375
 20
427.80513016070267
 30
0.0
  0
VERTEX
  5
2B38
  8
0
  6
CONTINUOUS
 10
-380.48098660550949
 20
427.80513016070267
 30
0.0
 42
-0.4142135623730951
  0
VERTEX
  5
2B39
  8
0
  6
CONTINUOUS
 10
-380.61099823861912
 20
427.93514179381231
 30
0.0
  0
VERTEX
  5
2B3A
  8
0
  6
CONTINUOUS
 10
-380.61099823861889
 20
428.57177552520369
 30
0.0
 42
-0.4633830812107383
  0
SEQEND
  5
2B3B
  8
0
  6
CONTINUOUS
  0
POLYLINE
  5
2722
  8
0
  6
CONTINUOUS
 66
     1
 10
0.0
 20
0.0
 30
0.0
 70
     1
  0
VERTEX
  5
2B3C
  8
0
  6
CONTINUOUS
 10
-377.45518080242027
 20
428.70002323854129
 30
0.0
  0
VERTEX
  5
2B3D
  8
0
  6
CONTINUOUS
 10
-375.42037371921663
 20
428.36138106074219
 30
0.0
 42
-0.9207651933220823
  0
VERTEX
  5
2B3E
  8
0
  6
CONTINUOUS
 10
-375.46634452509147
 20
427.80513016070267
 30
0.0
  0
VERTEX
  5
2B3F
  8
0
  6
CONTINUOUS
 10
-377.47652439086352
 20
427.80513016070267
 30
0.0
 42
-0.4142135623730951
  0
VERTEX
  5
2B40
  8
0
  6
CONTINUOUS
 10
-377.60653602397309
 20
427.93514179381231
 30
0.0
  0
VERTEX
  5
2B41
  8
0
  6
CONTINUOUS
 10
-377.60653602397298
 20
428.57177552520369
 30
0.0
 42
-0.4633830812107383
  0
SEQEND
  5
2B42
  8
0
  6
CONTINUOUS
  0
POLYLINE
  5
2723
  8
0
  6
CONTINUOUS
 66
     1
 10
0.0
 20
0.0
 30
0.0
 70
     1
  0
VERTEX
  5
2B43
  8
0
  6
CONTINUOUS
 10
-390.35365269066727
 20
429.22420535246891
 30
0.0
  0
VERTEX
  5
2B44
  8
0
  6
CONTINUOUS
 10
-392.38845977387098
 20
429.56284753026802
 30
0.0
 42
-0.9207651933220823
  0
VERTEX
  5
2B45
  8
0
  6
CONTINUOUS
 10
-392.34248896799608
 20
430.11909843030759
 30
0.0
  0
VERTEX
  5
2B46
  8
0
  6
CONTINUOUS
 10
-390.33230910222409
 20
430.11909843030759
 30
0.0
 42
-0.4142135623730951
  0
VERTEX
  5
2B47
  8
0
  6
CONTINUOUS
 10
-390.20229746911451
 20
429.98908679719801
 30
0.0
  0
VERTEX
  5
2B48
  8
0
  6
CONTINUOUS
 10
-390.20229746911468
 20
429.35245306580651
 30
0.0
 42
-0.4633830812107383
  0
SEQEND
  5
2B49
  8
0
  6
CONTINUOUS
  0
POLYLINE
  5
2724
  8
0
  6
CONTINUOUS
 66
     1
 10
0.0
 20
0.0
 30
0.0
 70
     1
  0
VERTEX
  5
2B4A
  8
0
  6
CONTINUOUS
 10
-387.34919047602131
 20
429.22420535246891
 30
0.0
  0
VERTEX
  5
2B4B
  8
0
  6
CONTINUOUS
 10
-389.38399755922512
 20
429.56284753026802
 30
0.0
 42
-0.9207651933220823
  0
VERTEX
  5
2B4C
  8
0
  6
CONTINUOUS
 10
-389.33802675335011
 20
430.11909843030759
 30
0.0
  0
VERTEX
  5
2B4D
  8
0
  6
CONTINUOUS
 10
-387.32784688757812
 20
430.11909843030759
 30
0.0
 42
-0.4142135623730951
  0
VERTEX
  5
2B4E
  8
0
  6
CONTINUOUS
 10
-387.19783525446849
 20
429.98908679719801
 30
0.0
  0
VERTEX
  5
2B4F
  8
0
  6
CONTINUOUS
 10
-387.19783525446871
 20
429.35245306580651
 30
0.0
 42
-0.4633830812107383
  0
SEQEND
  5
2B50
  8
0
  6
CONTINUOUS
  0
POLYLINE
  5
2725
  8
0
  6
CONTINUOUS
 66
     1
 10
0.0
 20
0.0
 30
0.0
 70
     1
  0
VERTEX
  5
2B51
  8
0
  6
CONTINUOUS
 10
-384.34472826137539
 20
429.22420535246891
 30
0.0
  0
VERTEX
  5
2B52
  8
0
  6
CONTINUOUS
 10
-386.3795353445791
 20
429.56284753026802
 30
0.0
 42
-0.9207651933220823
  0
VERTEX
  5
2B53
  8
0
  6
CONTINUOUS
 10
-386.33356453870408
 20
430.11909843030759
 30
0.0
  0
VERTEX
  5
2B54
  8
0
  6
CONTINUOUS
 10
-384.32338467293209
 20
430.11909843030759
 30
0.0
 42
-0.4142135623730951
  0
VERTEX
  5
2B55
  8
0
  6
CONTINUOUS
 10
-384.19337303982252
 20
429.98908679719801
 30
0.0
  0
VERTEX
  5
2B56
  8
0
  6
CONTINUOUS
 10
-384.19337303982269
 20
429.35245306580651
 30
0.0
 42
-0.4633830812107383
  0
SEQEND
  5
2B57
  8
0
  6
CONTINUOUS
  0
POLYLINE
  5
2726
  8
0
  6
CONTINUOUS
 66
     1
 10
0.0
 20
0.0
 30
0.0
 70
     1
  0
VERTEX
  5
2B58
  8
0
  6
CONTINUOUS
 10
-381.34065049107011
 20
429.22420535246869
 30
0.0
  0
VERTEX
  5
2B59
  8
0
  6
CONTINUOUS
 10
-383.37545757427392
 20
429.56284753026779
 30
0.0
 42
-0.9207651933220823
  0
VERTEX
  5
2B5A
  8
0
  6
CONTINUOUS
 10
-383.32948676839891
 20
430.11909843030742
 30
0.0
  0
VERTEX
  5
2B5B
  8
0
  6
CONTINUOUS
 10
-381.31930690262692
 20
430.11909843030742
 30
0.0
 42
-0.4142135623730951
  0
VERTEX
  5
2B5C
  8
0
  6
CONTINUOUS
 10
-381.18929526951729
 20
429.98908679719779
 30
0.0
  0
VERTEX
  5
2B5D
  8
0
  6
CONTINUOUS
 10
-381.1892952695174
 20
429.35245306580629
 30
0.0
 42
-0.4633830812107383
  0
SEQEND
  5
2B5E
  8
0
  6
CONTINUOUS
  0
POLYLINE
  5
2727
  8
0
  6
CONTINUOUS
 66
     1
 10
0.0
 20
0.0
 30
0.0
 70
     1
  0
VERTEX
  5
2B5F
  8
0
  6
CONTINUOUS
 10
-378.33618827642408
 20
429.2242053524688
 30
0.0
  0
VERTEX
  5
2B60
  8
0
  6
CONTINUOUS
 10
-380.3709953596279
 20
429.5628475302679
 30
0.0
 42
-0.9207651933220823
  0
VERTEX
  5
2B61
  8
0
  6
CONTINUOUS
 10
-380.325024553753
 20
430.11909843030747
 30
0.0
  0
VERTEX
  5
2B62
  8
0
  6
CONTINUOUS
 10
-378.31484468798101
 20
430.11909843030747
 30
0.0
 42
-0.4142135623730951
  0
VERTEX
  5
2B63
  8
0
  6
CONTINUOUS
 10
-378.18483305487132
 20
429.98908679719801
 30
0.0
  0
VERTEX
  5
2B64
  8
0
  6
CONTINUOUS
 10
-378.18483305487149
 20
429.3524530658064
 30
0.0
 42
-0.4633830812107383
  0
SEQEND
  5
2B65
  8
0
  6
CONTINUOUS
  0
POLYLINE
  5
2728
  8
0
  6
CONTINUOUS
 66
     1
 10
0.0
 20
0.0
 30
0.0
 70
     1
  0
VERTEX
  5
2B66
  8
0
  6
CONTINUOUS
 10
-375.33172606177823
 20
429.2242053524688
 30
0.0
  0
VERTEX
  5
2B67
  8
0
  6
CONTINUOUS
 10
-377.36653314498187
 20
429.5628475302679
 30
0.0
 42
-0.9207651933220823
  0
VERTEX
  5
2B68
  8
0
  6
CONTINUOUS
 10
-377.32056233910703
 20
430.11909843030747
 30
0.0
  0
VERTEX
  5
2B69
  8
0
  6
CONTINUOUS
 10
-375.31038247333498
 20
430.11909843030747
 30
0.0
 42
-0.4142135623730951
  0
VERTEX
  5
2B6A
  8
0
  6
CONTINUOUS
 10
-375.18037084022529
 20
429.98908679719801
 30
0.0
  0
VERTEX
  5
2B6B
  8
0
  6
CONTINUOUS
 10
-375.18037084022552
 20
429.3524530658064
 30
0.0
 42
-0.4633830812107383
  0
SEQEND
  5
2B6C
  8
0
  6
CONTINUOUS
  0
POLYLINE
  5
2729
  8
0
  6
CONTINUOUS
 66
     1
 10
0.0
 20
0.0
 30
0.0
 70
     1
  0
VERTEX
  5
2B6D
  8
0
  6
CONTINUOUS
 10
-375.09487172382268
 20
432.04747436362197
 30
0.0
  0
VERTEX
  5
2B6E
  8
0
  6
CONTINUOUS
 10
-377.12967880702649
 20
432.38611654142107
 30
0.0
 42
-0.9207651933220823
  0
VERTEX
  5
2B6F
  8
0
  6
CONTINUOUS
 10
-377.08370800115148
 20
432.94236744146059
 30
0.0
  0
VERTEX
  5
2B70
  8
0
  6
CONTINUOUS
 10
-375.07352813537949
 20
432.94236744146059
 30
0.0
 42
-0.4142135623730951
  0
VERTEX
  5
2B71
  8
0
  6
CONTINUOUS
 10
-374.94351650226992
 20
432.81235580835101
 30
0.0
  0
VERTEX
  5
2B72
  8
0
  6
CONTINUOUS
 10
-374.94351650227009
 20
432.17572207695957
 30
0.0
 42
-0.4633830812107383
  0
SEQEND
  5
2B73
  8
0
  6
CONTINUOUS
  0
POLYLINE
  5
272A
  8
0
  6
CONTINUOUS
 66
     1
 10
0.0
 20
0.0
 30
0.0
 70
     1
  0
VERTEX
  5
2B74
  8
0
  6
CONTINUOUS
 10
-378.0993339384687
 20
432.04747436362197
 30
0.0
  0
VERTEX
  5
2B75
  8
0
  6
CONTINUOUS
 10
-380.13414102167252
 20
432.38611654142107
 30
0.0
 42
-0.9207651933220823
  0
VERTEX
  5
2B76
  8
0
  6
CONTINUOUS
 10
-380.0881702157975
 20
432.94236744146059
 30
0.0
  0
VERTEX
  5
2B77
  8
0
  6
CONTINUOUS
 10
-378.07799035002552
 20
432.94236744146059
 30
0.0
 42
-0.4142135623730951
  0
VERTEX
  5
2B78
  8
0
  6
CONTINUOUS
 10
-377.94797871691588
 20
432.81235580835101
 30
0.0
  0
VERTEX
  5
2B79
  8
0
  6
CONTINUOUS
 10
-377.94797871691611
 20
432.17572207695957
 30
0.0
 42
-0.4633830812107383
  0
SEQEND
  5
2B7A
  8
0
  6
CONTINUOUS
  0
POLYLINE
  5
272B
  8
0
  6
CONTINUOUS
 66
     1
 10
0.0
 20
0.0
 30
0.0
 70
     1
  0
VERTEX
  5
2B7B
  8
0
  6
CONTINUOUS
 10
-377.21832646446489
 20
431.52329224969452
 30
0.0
  0
VERTEX
  5
2B7C
  8
0
  6
CONTINUOUS
 10
-375.18351938126108
 20
431.18465007189542
 30
0.0
 42
-0.9207651933220823
  0
VERTEX
  5
2B7D
  8
0
  6
CONTINUOUS
 10
-375.22949018713609
 20
430.62839917185579
 30
0.0
  0
VERTEX
  5
2B7E
  8
0
  6
CONTINUOUS
 10
-377.23967005290808
 20
430.62839917185579
 30
0.0
 42
-0.4142135623730951
  0
VERTEX
  5
2B7F
  8
0
  6
CONTINUOUS
 10
-377.36968168601771
 20
430.75841080496531
 30
0.0
  0
VERTEX
  5
2B80
  8
0
  6
CONTINUOUS
 10
-377.3696816860176
 20
431.39504453635692
 30
0.0
 42
-0.4633830812107383
  0
SEQEND
  5
2B81
  8
0
  6
CONTINUOUS
  0
POLYLINE
  5
272C
  8
0
  6
CONTINUOUS
 66
     1
 10
0.0
 20
0.0
 30
0.0
 70
     1
  0
VERTEX
  5
2B82
  8
0
  6
CONTINUOUS
 10
-380.22278867911092
 20
431.52329224969452
 30
0.0
  0
VERTEX
  5
2B83
  8
0
  6
CONTINUOUS
 10
-378.1879815959071
 20
431.18465007189542
 30
0.0
 42
-0.9207651933220823
  0
VERTEX
  5
2B84
  8
0
  6
CONTINUOUS
 10
-378.23395240178212
 20
430.62839917185579
 30
0.0
  0
VERTEX
  5
2B85
  8
0
  6
CONTINUOUS
 10
-380.24413226755411
 20
430.62839917185579
 30
0.0
 42
-0.4142135623730951
  0
VERTEX
  5
2B86
  8
0
  6
CONTINUOUS
 10
-380.37414390066368
 20
430.75841080496531
 30
0.0
  0
VERTEX
  5
2B87
  8
0
  6
CONTINUOUS
 10
-380.37414390066351
 20
431.39504453635692
 30
0.0
 42
-0.4633830812107383
  0
SEQEND
  5
2B88
  8
0
  6
CONTINUOUS
  0
POLYLINE
  5
272F
  8
0
  6
CONTINUOUS
 66
     1
 10
0.0
 20
0.0
 30
0.0
 70
     1
  0
VERTEX
  5
2B89
  8
0
  6
CONTINUOUS
 10
-381.10905917808992
 20
432.04747436362197
 30
0.0
  0
VERTEX
  5
2B8A
  8
0
  6
CONTINUOUS
 10
-383.14386626129362
 20
432.38611654142107
 30
0.0
 42
-0.9207651933220823
  0
VERTEX
  5
2B8B
  8
0
  6
CONTINUOUS
 10
-383.09789545541872
 20
432.94236744146059
 30
0.0
  0
VERTEX
  5
2B8C
  8
0
  6
CONTINUOUS
 10
-381.08771558964668
 20
432.94236744146059
 30
0.0
 42
-0.4142135623730951
  0
VERTEX
  5
2B8D
  8
0
  6
CONTINUOUS
 10
-380.95770395653699
 20
432.81235580835101
 30
0.0
  0
VERTEX
  5
2B8E
  8
0
  6
CONTINUOUS
 10
-380.95770395653722
 20
432.17572207695957
 30
0.0
 42
-0.4633830812107383
  0
SEQEND
  5
2B8F
  8
0
  6
CONTINUOUS
  0
POLYLINE
  5
2730
  8
0
  6
CONTINUOUS
 66
     1
 10
0.0
 20
0.0
 30
0.0
 70
     1
  0
VERTEX
  5
2B90
  8
0
  6
CONTINUOUS
 10
-383.23251391873202
 20
431.52329224969452
 30
0.0
  0
VERTEX
  5
2B91
  8
0
  6
CONTINUOUS
 10
-381.19770683552832
 20
431.18465007189542
 30
0.0
 42
-0.9207651933220823
  0
VERTEX
  5
2B92
  8
0
  6
CONTINUOUS
 10
-381.24367764140322
 20
430.62839917185579
 30
0.0
  0
VERTEX
  5
2B93
  8
0
  6
CONTINUOUS
 10
-383.25385750717521
 20
430.62839917185579
 30
0.0
 42
-0.4142135623730951
  0
VERTEX
  5
2B94
  8
0
  6
CONTINUOUS
 10
-383.38386914028479
 20
430.75841080496531
 30
0.0
  0
VERTEX
  5
2B95
  8
0
  6
CONTINUOUS
 10
-383.38386914028467
 20
431.39504453635692
 30
0.0
 42
-0.4633830812107383
  0
SEQEND
  5
2B96
  8
0
  6
CONTINUOUS
  0
POLYLINE
  5
2732
  8
0
  6
CONTINUOUS
 66
     1
 10
0.0
 20
0.0
 30
0.0
 70
     1
  0
VERTEX
  5
2B97
  8
0
  6
CONTINUOUS
 10
-365.59102397775308
 20
407.50794035082492
 30
0.0
 42
0.4241263572826678
  0
VERTEX
  5
2B98
  8
0
  6
CONTINUOUS
 10
-365.84947685508388
 20
407.7578205476255
 30
0.0
  0
VERTEX
  5
2B99
  8
0
  6
CONTINUOUS
 10
-366.75805753480012
 20
407.72716667853967
 30
0.0
  0
VERTEX
  5
2B9A
  8
0
  6
CONTINUOUS
 10
-367.67506872048239
 20
407.72716667853967
 30
0.0
 42
0.4142135623730284
  0
VERTEX
  5
2B9B
  8
0
  6
CONTINUOUS
 10
-367.92509109184709
 20
407.47714430717502
 30
0.0
  0
VERTEX
  5
2B9C
  8
0
  6
CONTINUOUS
 10
-367.925296648894
 20
405.01458946080447
 30
0.0
 42
0.4142135623731617
  0
VERTEX
  5
2B9D
  8
0
  6
CONTINUOUS
 10
-367.67527427752941
 20
404.76456708943971
 30
0.0
  0
VERTEX
  5
2B9E
  8
0
  6
CONTINUOUS
 10
-366.75826309184703
 20
404.76456708943959
 30
0.0
  0
VERTEX
  5
2B9F
  8
0
  6
CONTINUOUS
 10
-365.8496824121309
 20
404.73391322035371
 30
0.0
 42
0.4241263572826767
  0
VERTEX
  5
2BA0
  8
0
  6
CONTINUOUS
 10
-365.59122953479999
 20
404.98379341715048
 30
0.0
  0
SEQEND
  5
2BA1
  8
0
  6
CONTINUOUS
  0
POLYLINE
  5
2733
  8
0
  6
CONTINUOUS
 66
     1
 10
0.0
 20
0.0
 30
0.0
 70
     1
  0
VERTEX
  5
2BA2
  8
0
  6
CONTINUOUS
 10
-365.59102397775308
 20
411.18234611712489
 30
0.0
 42
0.4241263572826678
  0
VERTEX
  5
2BA3
  8
0
  6
CONTINUOUS
 10
-365.84947685508388
 20
411.43222631392553
 30
0.0
  0
VERTEX
  5
2BA4
  8
0
  6
CONTINUOUS
 10
-366.75805753480012
 20
411.4015724448397
 30
0.0
  0
VERTEX
  5
2BA5
  8
0
  6
CONTINUOUS
 10
-367.67506872048239
 20
411.4015724448397
 30
0.0
 42
0.4142135623730951
  0
VERTEX
  5
2BA6
  8
0
  6
CONTINUOUS
 10
-367.92509109184698
 20
411.15155007347511
 30
0.0
  0
VERTEX
  5
2BA7
  8
0
  6
CONTINUOUS
 10
-367.92509109184709
 20
408.6889952271045
 30
0.0
 42
0.4142135623730951
  0
VERTEX
  5
2BA8
  8
0
  6
CONTINUOUS
 10
-367.67506872048239
 20
408.43897285573979
 30
0.0
  0
VERTEX
  5
2BA9
  8
0
  6
CONTINUOUS
 10
-366.75805753480012
 20
408.43897285573962
 30
0.0
  0
VERTEX
  5
2BAA
  8
0
  6
CONTINUOUS
 10
-365.84947685508388
 20
408.4083189866538
 30
0.0
 42
0.4241263572826767
  0
VERTEX
  5
2BAB
  8
0
  6
CONTINUOUS
 10
-365.59102397775303
 20
408.65819918345051
 30
0.0
  0
SEQEND
  5
2BAC
  8
0
  6
CONTINUOUS
  0
LINE
  5
273A
  8
0
  6
CONTINUOUS
 10
-411.99449085907008
 20
419.4397485235973
 30
0.0
 11
-411.40394024117012
 21
419.4397485235973
 31
0.0
  0
LINE
  5
273B
  8
0
  6
CONTINUOUS
 10
-411.40394024117012
 20
418.78316640179742
 30
0.0
 11
-411.99449085907008
 21
418.78316640179742
 31
0.0
  0
POLYLINE
  5
2740
  8
0
  6
CONTINUOUS
 66
     1
 10
0.0
 20
0.0
 30
0.0
 70
     1
  0
VERTEX
  5
2BAD
  8
0
  6
CONTINUOUS
 10
-417.0703245675092
 20
424.87972713610031
 30
0.0
 42
-0.9999999882829797
  0
VERTEX
  5
2BAE
  8
0
  6
CONTINUOUS
 10
-417.07032456751119
 20
425.2597611405746
 30
0.0
  0
VERTEX
  5
2BAF
  8
0
  6
CONTINUOUS
 10
-416.92344616254047
 20
425.40663954554532
 30
0.0
 42
-0.999999988280095
  0
VERTEX
  5
2BB0
  8
0
  6
CONTINUOUS
 10
-416.54341215806642
 20
425.40663954554378
 30
0.0
  0
VERTEX
  5
2BB1
  8
0
  6
CONTINUOUS
 10
-414.13931208001839
 20
423.00253946749348
 30
0.0
 42
-0.9999999882829797
  0
VERTEX
  5
2BB2
  8
0
  6
CONTINUOUS
 10
-414.13931208001662
 20
422.62250546301931
 30
0.0
  0
VERTEX
  5
2BB3
  8
0
  6
CONTINUOUS
 10
-414.28619048498518
 20
422.47562705805262
 30
0.0
 42
-0.999999988280095
  0
VERTEX
  5
2BB4
  8
0
  6
CONTINUOUS
 10
-414.66622448945969
 20
422.4756270580541
 30
0.0
  0
SEQEND
  5
2BB5
  8
0
  6
CONTINUOUS
  0
POLYLINE
  5
2741
  8
0
  6
CONTINUOUS
 66
     1
 10
0.0
 20
0.0
 30
0.0
 70
     1
  0
VERTEX
  5
2BB6
  8
0
  6
CONTINUOUS
 10
-414.13931208001839
 20
419.5005992770889
 30
0.0
  0
VERTEX
  5
2BB7
  8
0
  6
CONTINUOUS
 10
-416.54341215806619
 20
417.09649919903723
 30
0.0
 42
-0.999999988280095
  0
VERTEX
  5
2BB8
  8
0
  6
CONTINUOUS
 10
-416.92344616254059
 20
417.0964991990387
 30
0.0
  0
VERTEX
  5
2BB9
  8
0
  6
CONTINUOUS
 10
-417.07032456751119
 20
417.24337760400402
 30
0.0
 42
-0.9999999882829797
  0
VERTEX
  5
2BBA
  8
0
  6
CONTINUOUS
 10
-417.0703245675092
 20
417.62341160847831
 30
0.0
  0
VERTEX
  5
2BBB
  8
0
  6
CONTINUOUS
 10
-414.66622448945958
 20
420.02751168652998
 30
0.0
 42
-0.999999988280095
  0
VERTEX
  5
2BBC
  8
0
  6
CONTINUOUS
 10
-414.28619048498541
 20
420.02751168652838
 30
0.0
  0
VERTEX
  5
2BBD
  8
0
  6
CONTINUOUS
 10
-414.13931208001839
 20
419.88063328156318
 30
0.0
 42
-0.9999999882829797
  0
SEQEND
  5
2BBE
  8
0
  6
CONTINUOUS
  0
POLYLINE
  5
2742
  8
0
  6
CONTINUOUS
 66
     1
 10
0.0
 20
0.0
 30
0.0
 70
     1
  0
VERTEX
  5
2BBF
  8
0
  6
CONTINUOUS
 10
-420.65679836065311
 20
419.55161390445249
 30
0.0
  0
VERTEX
  5
2BC0
  8
0
  6
CONTINUOUS
 10
-420.65679836065311
 20
422.95152484012999
 30
0.0
 42
-0.9999999882804281
  0
VERTEX
  5
2BC1
  8
0
  6
CONTINUOUS
 10
-420.38807373900778
 20
423.22024946177459
 30
0.0
  0
VERTEX
  5
2BC2
  8
0
  6
CONTINUOUS
 10
-419.74431492860651
 20
423.2202494617747
 30
0.0
 42
-0.999999988280428
  0
VERTEX
  5
2BC3
  8
0
  6
CONTINUOUS
 10
-419.47559030696181
 20
422.95152484012959
 30
0.0
  0
VERTEX
  5
2BC4
  8
0
  6
CONTINUOUS
 10
-419.47559030696181
 20
419.55161390445249
 30
0.0
 42
-0.9999999882804278
  0
VERTEX
  5
2BC5
  8
0
  6
CONTINUOUS
 10
-419.7443149286072
 20
419.28288928280392
 30
0.0
  0
VERTEX
  5
2BC6
  8
0
  6
CONTINUOUS
 10
-420.38807373900829
 20
419.28288928280381
 30
0.0
 42
-0.999999988280428
  0
SEQEND
  5
2BC7
  8
0
  6
CONTINUOUS
  0
POLYLINE
  5
2743
  8
0
  6
CONTINUOUS
 66
     1
 10
0.0
 20
0.0
 30
0.0
 70
     1
  0
VERTEX
  5
2BC8
  8
0
  6
CONTINUOUS
 10
-418.15066860673818
 20
413.3768490143475
 30
0.0
 42
0.4142135623730951
  0
VERTEX
  5
2BC9
  8
0
  6
CONTINUOUS
 10
-417.90064623537347
 20
413.62687138571209
 30
0.0
  0
VERTEX
  5
2BCA
  8
0
  6
CONTINUOUS
 10
-417.90064623537347
 20
414.36726171340962
 30
0.0
 42
0.4054988976350947
  0
VERTEX
  5
2BCB
  8
0
  6
CONTINUOUS
 10
-418.14320776422608
 20
414.61717274160128
 30
0.0
  0
VERTEX
  5
2BCC
  8
0
  6
CONTINUOUS
 10
-419.6046710045847
 20
414.6608032574361
 30
0.0
 42
-0.9851876673895548
  0
VERTEX
  5
2BCD
  8
0
  6
CONTINUOUS
 10
-419.86932632485889
 20
414.9334775084605
 30
0.0
  0
VERTEX
  5
2BCE
  8
0
  6
CONTINUOUS
 10
-419.86932632485889
 20
415.07680448218821
 30
0.0
 42
-0.9999999882803713
  0
VERTEX
  5
2BCF
  8
0
  6
CONTINUOUS
 10
-419.60060170321361
 20
415.3455291038328
 30
0.0
  0
VERTEX
  5
2BD0
  8
0
  6
CONTINUOUS
 10
-412.24462833828181
 20
415.34552910383292
 30
0.0
 42
0.4142135623730284
  0
VERTEX
  5
2BD1
  8
0
  6
CONTINUOUS
 10
-411.99460596691722
 20
415.59555147519762
 30
0.0
  0
VERTEX
  5
2BD2
  8
0
  6
CONTINUOUS
 10
-411.99460596691699
 20
426.907587269381
 30
0.0
 42
0.4142135623730951
  0
VERTEX
  5
2BD3
  8
0
  6
CONTINUOUS
 10
-412.24462833828181
 20
427.15760964074559
 30
0.0
  0
VERTEX
  5
2BD4
  8
0
  6
CONTINUOUS
 10
-421.58798404297971
 20
427.15760964074559
 30
0.0
 42
0.4142135623730951
  0
VERTEX
  5
2BD5
  8
0
  6
CONTINUOUS
 10
-421.83800641434442
 20
426.907587269381
 30
0.0
  0
VERTEX
  5
2BD6
  8
0
  6
CONTINUOUS
 10
-421.83800641434448
 20
413.62687138571209
 30
0.0
 42
0.4142135623730951
  0
VERTEX
  5
2BD7
  8
0
  6
CONTINUOUS
 10
-421.58798404297971
 20
413.3768490143475
 30
0.0
  0
SEQEND
  5
2BD8
  8
0
  6
CONTINUOUS
  0
POLYLINE
  5
2744
  8
0
  6
CONTINUOUS
 66
     1
 10
0.0
 20
0.0
 30
0.0
 70
     1
  0
VERTEX
  5
2BD9
  8
0
  6
CONTINUOUS
 10
-406.63637350218193
 20
424.87972713610009
 30
0.0
 42
-0.9999999882829797
  0
VERTEX
  5
2BDA
  8
0
  6
CONTINUOUS
 10
-406.63637350218391
 20
425.25976114057448
 30
0.0
  0
VERTEX
  5
2BDB
  8
0
  6
CONTINUOUS
 10
-406.48949509721319
 20
425.4066395455452
 30
0.0
 42
-0.999999988280095
  0
VERTEX
  5
2BDC
  8
0
  6
CONTINUOUS
 10
-406.10946109273908
 20
425.40663954554373
 30
0.0
  0
VERTEX
  5
2BDD
  8
0
  6
CONTINUOUS
 10
-403.70536101469111
 20
423.00253946749342
 30
0.0
 42
-0.9999999882829797
  0
VERTEX
  5
2BDE
  8
0
  6
CONTINUOUS
 10
-403.70536101468929
 20
422.62250546301919
 30
0.0
  0
VERTEX
  5
2BDF
  8
0
  6
CONTINUOUS
 10
-403.85223941965802
 20
422.4756270580524
 30
0.0
 42
-0.999999988280095
  0
VERTEX
  5
2BE0
  8
0
  6
CONTINUOUS
 10
-404.23227342413242
 20
422.47562705805399
 30
0.0
  0
SEQEND
  5
2BE1
  8
0
  6
CONTINUOUS
  0
POLYLINE
  5
2745
  8
0
  6
CONTINUOUS
 66
     1
 10
0.0
 20
0.0
 30
0.0
 70
     1
  0
VERTEX
  5
2BE2
  8
0
  6
CONTINUOUS
 10
-403.70536101469111
 20
419.50059927708878
 30
0.0
  0
VERTEX
  5
2BE3
  8
0
  6
CONTINUOUS
 10
-406.10946109273891
 20
417.09649919903711
 30
0.0
 42
-0.999999988280095
  0
VERTEX
  5
2BE4
  8
0
  6
CONTINUOUS
 10
-406.48949509721331
 20
417.09649919903859
 30
0.0
  0
VERTEX
  5
2BE5
  8
0
  6
CONTINUOUS
 10
-406.63637350218391
 20
417.24337760400391
 30
0.0
 42
-0.9999999882829797
  0
VERTEX
  5
2BE6
  8
0
  6
CONTINUOUS
 10
-406.63637350218193
 20
417.62341160847808
 30
0.0
  0
VERTEX
  5
2BE7
  8
0
  6
CONTINUOUS
 10
-404.2322734241323
 20
420.02751168652992
 30
0.0
 42
-0.999999988280095
  0
VERTEX
  5
2BE8
  8
0
  6
CONTINUOUS
 10
-403.85223941965808
 20
420.02751168652838
 30
0.0
  0
VERTEX
  5
2BE9
  8
0
  6
CONTINUOUS
 10
-403.70536101469111
 20
419.88063328156312
 30
0.0
 42
-0.9999999882829797
  0
SEQEND
  5
2BEA
  8
0
  6
CONTINUOUS
  0
POLYLINE
  5
2746
  8
0
  6
CONTINUOUS
 66
     1
 10
0.0
 20
0.0
 30
0.0
 70
     1
  0
VERTEX
  5
2BEB
  8
0
  6
CONTINUOUS
 10
-410.22284729532589
 20
419.55161390445238
 30
0.0
  0
VERTEX
  5
2BEC
  8
0
  6
CONTINUOUS
 10
-410.22284729532589
 20
422.95152484012988
 30
0.0
 42
-0.9999999882804281
  0
VERTEX
  5
2BED
  8
0
  6
CONTINUOUS
 10
-409.95412267368062
 20
423.22024946177447
 30
0.0
  0
VERTEX
  5
2BEE
  8
0
  6
CONTINUOUS
 10
-409.31036386327929
 20
423.22024946177459
 30
0.0
 42
-0.999999988280428
  0
VERTEX
  5
2BEF
  8
0
  6
CONTINUOUS
 10
-409.04163924163458
 20
422.95152484012948
 30
0.0
  0
VERTEX
  5
2BF0
  8
0
  6
CONTINUOUS
 10
-409.04163924163458
 20
419.55161390445238
 30
0.0
 42
-0.9999999882804278
  0
VERTEX
  5
2BF1
  8
0
  6
CONTINUOUS
 10
-409.31036386327997
 20
419.28288928280381
 30
0.0
  0
VERTEX
  5
2BF2
  8
0
  6
CONTINUOUS
 10
-409.95412267368101
 20
419.28288928280369
 30
0.0
 42
-0.999999988280428
  0
SEQEND
  5
2BF3
  8
0
  6
CONTINUOUS
  0
POLYLINE
  5
2747
  8
0
  6
CONTINUOUS
 66
     1
 10
0.0
 20
0.0
 30
0.0
 70
     1
  0
VERTEX
  5
2BF4
  8
0
  6
CONTINUOUS
 10
-407.7167175414109
 20
413.37684901434739
 30
0.0
 42
0.4142135623730951
  0
VERTEX
  5
2BF5
  8
0
  6
CONTINUOUS
 10
-407.46669517004631
 20
413.62687138571198
 30
0.0
  0
VERTEX
  5
2BF6
  8
0
  6
CONTINUOUS
 10
-407.46669517004631
 20
414.3672617134095
 30
0.0
 42
0.4054988976350947
  0
VERTEX
  5
2BF7
  8
0
  6
CONTINUOUS
 10
-407.70925669889891
 20
414.61717274160122
 30
0.0
  0
VERTEX
  5
2BF8
  8
0
  6
CONTINUOUS
 10
-409.17071993925742
 20
414.66080325743599
 30
0.0
 42
-0.9851876673895548
  0
VERTEX
  5
2BF9
  8
0
  6
CONTINUOUS
 10
-409.43537525953161
 20
414.93347750846038
 30
0.0
  0
VERTEX
  5
2BFA
  8
0
  6
CONTINUOUS
 10
-409.43537525953161
 20
415.07680448218798
 30
0.0
 42
-0.9999999882803713
  0
VERTEX
  5
2BFB
  8
0
  6
CONTINUOUS
 10
-409.16665063788628
 20
415.34552910383269
 30
0.0
  0
VERTEX
  5
2BFC
  8
0
  6
CONTINUOUS
 10
-401.81067727295448
 20
415.34552910383269
 30
0.0
 42
0.4142135623730284
  0
VERTEX
  5
2BFD
  8
0
  6
CONTINUOUS
 10
-401.56065490158988
 20
415.5955514751974
 30
0.0
  0
VERTEX
  5
2BFE
  8
0
  6
CONTINUOUS
 10
-401.56065490158971
 20
426.90758726938088
 30
0.0
 42
0.4142135623730951
  0
VERTEX
  5
2BFF
  8
0
  6
CONTINUOUS
 10
-401.81067727295448
 20
427.15760964074548
 30
0.0
  0
VERTEX
  5
2C00
  8
0
  6
CONTINUOUS
 10
-411.15403297765238
 20
427.15760964074548
 30
0.0
 42
0.4142135623730951
  0
VERTEX
  5
2C01
  8
0
  6
CONTINUOUS
 10
-411.40405534901709
 20
426.90758726938088
 30
0.0
  0
VERTEX
  5
2C02
  8
0
  6
CONTINUOUS
 10
-411.4040553490172
 20
413.62687138571198
 30
0.0
 42
0.4142135623730951
  0
VERTEX
  5
2C03
  8
0
  6
CONTINUOUS
 10
-411.15403297765238
 20
413.37684901434739
 30
0.0
  0
SEQEND
  5
2C04
  8
0
  6
CONTINUOUS
  0
LINE
  5
27B1
  8
0
  6
CONTINUOUS
 10
-385.65015811120708
 20
419.4397485235973
 30
0.0
 11
-385.05960749330711
 21
419.4397485235973
 31
0.0
  0
LINE
  5
27B2
  8
0
  6
CONTINUOUS
 10
-385.05960749330711
 20
418.78316640179742
 30
0.0
 11
-385.65015811120708
 21
418.78316640179742
 31
0.0
  0
POLYLINE
  5
27B5
  8
0
  6
CONTINUOUS
 66
     1
 10
0.0
 20
0.0
 30
0.0
 70
     1
  0
VERTEX
  5
2C05
  8
0
  6
CONTINUOUS
 10
-390.72599181964608
 20
424.87972713610031
 30
0.0
 42
-0.9999999882829797
  0
VERTEX
  5
2C06
  8
0
  6
CONTINUOUS
 10
-390.72599181964819
 20
425.2597611405746
 30
0.0
  0
VERTEX
  5
2C07
  8
0
  6
CONTINUOUS
 10
-390.57911341467752
 20
425.40663954554532
 30
0.0
 42
-0.999999988280095
  0
VERTEX
  5
2C08
  8
0
  6
CONTINUOUS
 10
-390.1990794102033
 20
425.40663954554378
 30
0.0
  0
VERTEX
  5
2C09
  8
0
  6
CONTINUOUS
 10
-387.79497933215538
 20
423.00253946749348
 30
0.0
 42
-0.9999999882829797
  0
VERTEX
  5
2C0A
  8
0
  6
CONTINUOUS
 10
-387.79497933215362
 20
422.62250546301931
 30
0.0
  0
VERTEX
  5
2C0B
  8
0
  6
CONTINUOUS
 10
-387.94185773712229
 20
422.47562705805262
 30
0.0
 42
-0.999999988280095
  0
VERTEX
  5
2C0C
  8
0
  6
CONTINUOUS
 10
-388.32189174159657
 20
422.4756270580541
 30
0.0
  0
SEQEND
  5
2C0D
  8
0
  6
CONTINUOUS
  0
POLYLINE
  5
27B6
  8
0
  6
CONTINUOUS
 66
     1
 10
0.0
 20
0.0
 30
0.0
 70
     1
  0
VERTEX
  5
2C0E
  8
0
  6
CONTINUOUS
 10
-387.79497933215538
 20
419.5005992770889
 30
0.0
  0
VERTEX
  5
2C0F
  8
0
  6
CONTINUOUS
 10
-390.19907941020318
 20
417.09649919903723
 30
0.0
 42
-0.999999988280095
  0
VERTEX
  5
2C10
  8
0
  6
CONTINUOUS
 10
-390.57911341467758
 20
417.0964991990387
 30
0.0
  0
VERTEX
  5
2C11
  8
0
  6
CONTINUOUS
 10
-390.72599181964819
 20
417.24337760400402
 30
0.0
 42
-0.9999999882829797
  0
VERTEX
  5
2C12
  8
0
  6
CONTINUOUS
 10
-390.72599181964608
 20
417.62341160847831
 30
0.0
  0
VERTEX
  5
2C13
  8
0
  6
CONTINUOUS
 10
-388.32189174159652
 20
420.02751168652998
 30
0.0
 42
-0.999999988280095
  0
VERTEX
  5
2C14
  8
0
  6
CONTINUOUS
 10
-387.94185773712229
 20
420.02751168652838
 30
0.0
  0
VERTEX
  5
2C15
  8
0
  6
CONTINUOUS
 10
-387.79497933215538
 20
419.88063328156318
 30
0.0
 42
-0.9999999882829797
  0
SEQEND
  5
2C16
  8
0
  6
CONTINUOUS
  0
POLYLINE
  5
27B7
  8
0
  6
CONTINUOUS
 66
     1
 10
0.0
 20
0.0
 30
0.0
 70
     1
  0
VERTEX
  5
2C17
  8
0
  6
CONTINUOUS
 10
-394.31246561279022
 20
419.55161390445249
 30
0.0
  0
VERTEX
  5
2C18
  8
0
  6
CONTINUOUS
 10
-394.31246561279022
 20
422.95152484012999
 30
0.0
 42
-0.9999999882804281
  0
VERTEX
  5
2C19
  8
0
  6
CONTINUOUS
 10
-394.04374099114477
 20
423.22024946177459
 30
0.0
  0
VERTEX
  5
2C1A
  8
0
  6
CONTINUOUS
 10
-393.39998218074351
 20
423.2202494617747
 30
0.0
 42
-0.999999988280428
  0
VERTEX
  5
2C1B
  8
0
  6
CONTINUOUS
 10
-393.13125755909891
 20
422.95152484012959
 30
0.0
  0
VERTEX
  5
2C1C
  8
0
  6
CONTINUOUS
 10
-393.13125755909891
 20
419.55161390445249
 30
0.0
 42
-0.9999999882804278
  0
VERTEX
  5
2C1D
  8
0
  6
CONTINUOUS
 10
-393.39998218074419
 20
419.28288928280392
 30
0.0
  0
VERTEX
  5
2C1E
  8
0
  6
CONTINUOUS
 10
-394.04374099114528
 20
419.28288928280381
 30
0.0
 42
-0.999999988280428
  0
SEQEND
  5
2C1F
  8
0
  6
CONTINUOUS
  0
POLYLINE
  5
27B8
  8
0
  6
CONTINUOUS
 66
     1
 10
0.0
 20
0.0
 30
0.0
 70
     1
  0
VERTEX
  5
2C20
  8
0
  6
CONTINUOUS
 10
-391.80633585887512
 20
413.3768490143475
 30
0.0
 42
0.4142135623730951
  0
VERTEX
  5
2C21
  8
0
  6
CONTINUOUS
 10
-391.55631348751052
 20
413.62687138571209
 30
0.0
  0
VERTEX
  5
2C22
  8
0
  6
CONTINUOUS
 10
-391.55631348751052
 20
414.36726171340962
 30
0.0
 42
0.4054988976350947
  0
VERTEX
  5
2C23
  8
0
  6
CONTINUOUS
 10
-391.79887501636313
 20
414.61717274160128
 30
0.0
  0
VERTEX
  5
2C24
  8
0
  6
CONTINUOUS
 10
-393.2603382567217
 20
414.6608032574361
 30
0.0
 42
-0.9851876673895548
  0
VERTEX
  5
2C25
  8
0
  6
CONTINUOUS
 10
-393.52499357699588
 20
414.9334775084605
 30
0.0
  0
VERTEX
  5
2C26
  8
0
  6
CONTINUOUS
 10
-393.52499357699588
 20
415.07680448218821
 30
0.0
 42
-0.9999999882803713
  0
VERTEX
  5
2C27
  8
0
  6
CONTINUOUS
 10
-393.25626895535061
 20
415.3455291038328
 30
0.0
  0
VERTEX
  5
2C28
  8
0
  6
CONTINUOUS
 10
-385.90029559041881
 20
415.34552910383292
 30
0.0
 42
0.4142135623730284
  0
VERTEX
  5
2C29
  8
0
  6
CONTINUOUS
 10
-385.65027321905421
 20
415.59555147519762
 30
0.0
  0
VERTEX
  5
2C2A
  8
0
  6
CONTINUOUS
 10
-385.65027321905399
 20
426.907587269381
 30
0.0
 42
0.4142135623730951
  0
VERTEX
  5
2C2B
  8
0
  6
CONTINUOUS
 10
-385.90029559041881
 20
427.15760964074559
 30
0.0
  0
VERTEX
  5
2C2C
  8
0
  6
CONTINUOUS
 10
-395.24365129511659
 20
427.15760964074559
 30
0.0
 42
0.4142135623730951
  0
VERTEX
  5
2C2D
  8
0
  6
CONTINUOUS
 10
-395.4936736664813
 20
426.907587269381
 30
0.0
  0
VERTEX
  5
2C2E
  8
0
  6
CONTINUOUS
 10
-395.49367366648153
 20
413.62687138571209
 30
0.0
 42
0.4142135623730951
  0
VERTEX
  5
2C2F
  8
0
  6
CONTINUOUS
 10
-395.24365129511659
 20
413.3768490143475
 30
0.0
  0
SEQEND
  5
2C30
  8
0
  6
CONTINUOUS
  0
POLYLINE
  5
27B9
  8
0
  6
CONTINUOUS
 66
     1
 10
0.0
 20
0.0
 30
0.0
 70
     1
  0
VERTEX
  5
2C31
  8
0
  6
CONTINUOUS
 10
-380.29204075431892
 20
424.87972713610009
 30
0.0
 42
-0.9999999882829797
  0
VERTEX
  5
2C32
  8
0
  6
CONTINUOUS
 10
-380.29204075432091
 20
425.25976114057448
 30
0.0
  0
VERTEX
  5
2C33
  8
0
  6
CONTINUOUS
 10
-380.14516234935019
 20
425.4066395455452
 30
0.0
 42
-0.999999988280095
  0
VERTEX
  5
2C34
  8
0
  6
CONTINUOUS
 10
-379.76512834487602
 20
425.40663954554373
 30
0.0
  0
VERTEX
  5
2C35
  8
0
  6
CONTINUOUS
 10
-377.3610282668281
 20
423.00253946749342
 30
0.0
 42
-0.9999999882829797
  0
VERTEX
  5
2C36
  8
0
  6
CONTINUOUS
 10
-377.36102826682628
 20
422.62250546301919
 30
0.0
  0
VERTEX
  5
2C37
  8
0
  6
CONTINUOUS
 10
-377.50790667179501
 20
422.4756270580524
 30
0.0
 42
-0.999999988280095
  0
VERTEX
  5
2C38
  8
0
  6
CONTINUOUS
 10
-377.88794067626941
 20
422.47562705805399
 30
0.0
  0
SEQEND
  5
2C39
  8
0
  6
CONTINUOUS
  0
POLYLINE
  5
27BA
  8
0
  6
CONTINUOUS
 66
     1
 10
0.0
 20
0.0
 30
0.0
 70
     1
  0
VERTEX
  5
2C3A
  8
0
  6
CONTINUOUS
 10
-377.3610282668281
 20
419.50059927708878
 30
0.0
  0
VERTEX
  5
2C3B
  8
0
  6
CONTINUOUS
 10
-379.7651283448759
 20
417.09649919903711
 30
0.0
 42
-0.999999988280095
  0
VERTEX
  5
2C3C
  8
0
  6
CONTINUOUS
 10
-380.1451623493503
 20
417.09649919903859
 30
0.0
  0
VERTEX
  5
2C3D
  8
0
  6
CONTINUOUS
 10
-380.29204075432091
 20
417.24337760400391
 30
0.0
 42
-0.9999999882829797
  0
VERTEX
  5
2C3E
  8
0
  6
CONTINUOUS
 10
-380.29204075431892
 20
417.62341160847808
 30
0.0
  0
VERTEX
  5
2C3F
  8
0
  6
CONTINUOUS
 10
-377.88794067626918
 20
420.02751168652992
 30
0.0
 42
-0.999999988280095
  0
VERTEX
  5
2C40
  8
0
  6
CONTINUOUS
 10
-377.50790667179513
 20
420.02751168652838
 30
0.0
  0
VERTEX
  5
2C41
  8
0
  6
CONTINUOUS
 10
-377.3610282668281
 20
419.88063328156312
 30
0.0
 42
-0.9999999882829797
  0
SEQEND
  5
2C42
  8
0
  6
CONTINUOUS
  0
POLYLINE
  5
27BB
  8
0
  6
CONTINUOUS
 66
     1
 10
0.0
 20
0.0
 30
0.0
 70
     1
  0
VERTEX
  5
2C43
  8
0
  6
CONTINUOUS
 10
-383.87851454746288
 20
419.55161390445238
 30
0.0
  0
VERTEX
  5
2C44
  8
0
  6
CONTINUOUS
 10
-383.87851454746288
 20
422.95152484012988
 30
0.0
 42
-0.9999999882804281
  0
VERTEX
  5
2C45
  8
0
  6
CONTINUOUS
 10
-383.60978992581761
 20
423.22024946177447
 30
0.0
  0
VERTEX
  5
2C46
  8
0
  6
CONTINUOUS
 10
-382.96603111541617
 20
423.22024946177459
 30
0.0
 42
-0.999999988280428
  0
VERTEX
  5
2C47
  8
0
  6
CONTINUOUS
 10
-382.69730649377158
 20
422.95152484012948
 30
0.0
  0
VERTEX
  5
2C48
  8
0
  6
CONTINUOUS
 10
-382.69730649377158
 20
419.55161390445238
 30
0.0
 42
-0.9999999882804278
  0
VERTEX
  5
2C49
  8
0
  6
CONTINUOUS
 10
-382.96603111541691
 20
419.28288928280381
 30
0.0
  0
VERTEX
  5
2C4A
  8
0
  6
CONTINUOUS
 10
-383.60978992581801
 20
419.28288928280369
 30
0.0
 42
-0.999999988280428
  0
SEQEND
  5
2C4B
  8
0
  6
CONTINUOUS
  0
POLYLINE
  5
27BC
  8
0
  6
CONTINUOUS
 66
     1
 10
0.0
 20
0.0
 30
0.0
 70
     1
  0
VERTEX
  5
2C4C
  8
0
  6
CONTINUOUS
 10
-381.37238479354778
 20
413.37684901434739
 30
0.0
 42
0.4142135623730951
  0
VERTEX
  5
2C4D
  8
0
  6
CONTINUOUS
 10
-381.1223624221833
 20
413.62687138571198
 30
0.0
  0
VERTEX
  5
2C4E
  8
0
  6
CONTINUOUS
 10
-381.12236242218319
 20
414.3672617134095
 30
0.0
 42
0.4054988976350947
  0
VERTEX
  5
2C4F
  8
0
  6
CONTINUOUS
 10
-381.36492395103579
 20
414.61717274160122
 30
0.0
  0
VERTEX
  5
2C50
  8
0
  6
CONTINUOUS
 10
-382.82638719139442
 20
414.66080325743599
 30
0.0
 42
-0.9851876673895548
  0
VERTEX
  5
2C51
  8
0
  6
CONTINUOUS
 10
-383.0910425116686
 20
414.93347750846038
 30
0.0
  0
VERTEX
  5
2C52
  8
0
  6
CONTINUOUS
 10
-383.0910425116686
 20
415.07680448218798
 30
0.0
 42
-0.9999999882803713
  0
VERTEX
  5
2C53
  8
0
  6
CONTINUOUS
 10
-382.82231789002333
 20
415.34552910383269
 30
0.0
  0
VERTEX
  5
2C54
  8
0
  6
CONTINUOUS
 10
-375.46634452509147
 20
415.34552910383269
 30
0.0
 42
0.4142135623730284
  0
VERTEX
  5
2C55
  8
0
  6
CONTINUOUS
 10
-375.21632215372688
 20
415.5955514751974
 30
0.0
  0
VERTEX
  5
2C56
  8
0
  6
CONTINUOUS
 10
-375.21632215372671
 20
426.90758726938088
 30
0.0
 42
0.4142135623730951
  0
VERTEX
  5
2C57
  8
0
  6
CONTINUOUS
 10
-375.46634452509147
 20
427.15760964074548
 30
0.0
  0
VERTEX
  5
2C58
  8
0
  6
CONTINUOUS
 10
-384.80970022978943
 20
427.15760964074548
 30
0.0
 42
0.4142135623730951
  0
VERTEX
  5
2C59
  8
0
  6
CONTINUOUS
 10
-385.05972260115402
 20
426.90758726938088
 30
0.0
  0
VERTEX
  5
2C5A
  8
0
  6
CONTINUOUS
 10
-385.05972260115419
 20
413.62687138571198
 30
0.0
 42
0.4142135623730951
  0
VERTEX
  5
2C5B
  8
0
  6
CONTINUOUS
 10
-384.80970022978943
 20
413.37684901434739
 30
0.0
  0
SEQEND
  5
2C5C
  8
0
  6
CONTINUOUS
  0
LINE
  5
27BF
  8
0
  6
CONTINUOUS
 10
-359.49953274230398
 20
419.4397485235973
 30
0.0
 11
-358.90898212440402
 21
419.4397485235973
 31
0.0
  0
LINE
  5
27C0
  8
0
  6
CONTINUOUS
 10
-358.90898212440402
 20
418.78316640179742
 30
0.0
 11
-359.49953274230398
 21
418.78316640179742
 31
0.0
  0
LINE
  5
27C1
  8
0
  6
CONTINUOUS
 10
-352.81679177164727
 20
414.75497731253267
 30
0.0
 11
-352.81679177164727
 21
415.34552910383269
 31
0.0
  0
LINE
  5
27C2
  8
0
  6
CONTINUOUS
 10
-352.02593904094732
 20
415.34552910383269
 30
0.0
 11
-352.02593904094732
 21
414.75497731253267
 31
0.0
  0
POLYLINE
  5
27C3
  8
0
  6
CONTINUOUS
 66
     1
 10
0.0
 20
0.0
 30
0.0
 70
     1
  0
VERTEX
  5
2C5D
  8
0
  6
CONTINUOUS
 10
-364.57536645074299
 20
424.87972713610031
 30
0.0
 42
-0.9999999882829797
  0
VERTEX
  5
2C5E
  8
0
  6
CONTINUOUS
 10
-364.57536645074509
 20
425.2597611405746
 30
0.0
  0
VERTEX
  5
2C5F
  8
0
  6
CONTINUOUS
 10
-364.42848804577437
 20
425.40663954554532
 30
0.0
 42
-0.999999988280095
  0
VERTEX
  5
2C60
  8
0
  6
CONTINUOUS
 10
-364.0484540413002
 20
425.40663954554378
 30
0.0
  0
VERTEX
  5
2C61
  8
0
  6
CONTINUOUS
 10
-361.64435396325229
 20
423.00253946749348
 30
0.0
 42
-0.9999999882829797
  0
VERTEX
  5
2C62
  8
0
  6
CONTINUOUS
 10
-361.64435396325052
 20
422.62250546301931
 30
0.0
  0
VERTEX
  5
2C63
  8
0
  6
CONTINUOUS
 10
-361.79123236821908
 20
422.47562705805262
 30
0.0
 42
-0.999999988280095
  0
VERTEX
  5
2C64
  8
0
  6
CONTINUOUS
 10
-362.17126637269348
 20
422.4756270580541
 30
0.0
  0
SEQEND
  5
2C65
  8
0
  6
CONTINUOUS
  0
POLYLINE
  5
27C4
  8
0
  6
CONTINUOUS
 66
     1
 10
0.0
 20
0.0
 30
0.0
 70
     1
  0
VERTEX
  5
2C66
  8
0
  6
CONTINUOUS
 10
-361.64435396325229
 20
419.5005992770889
 30
0.0
  0
VERTEX
  5
2C67
  8
0
  6
CONTINUOUS
 10
-364.04845404130009
 20
417.09649919903723
 30
0.0
 42
-0.999999988280095
  0
VERTEX
  5
2C68
  8
0
  6
CONTINUOUS
 10
-364.42848804577449
 20
417.0964991990387
 30
0.0
  0
VERTEX
  5
2C69
  8
0
  6
CONTINUOUS
 10
-364.57536645074509
 20
417.24337760400402
 30
0.0
 42
-0.9999999882829797
  0
VERTEX
  5
2C6A
  8
0
  6
CONTINUOUS
 10
-364.57536645074299
 20
417.62341160847831
 30
0.0
  0
VERTEX
  5
2C6B
  8
0
  6
CONTINUOUS
 10
-362.17126637269342
 20
420.02751168652998
 30
0.0
 42
-0.999999988280095
  0
VERTEX
  5
2C6C
  8
0
  6
CONTINUOUS
 10
-361.79123236821931
 20
420.02751168652838
 30
0.0
  0
VERTEX
  5
2C6D
  8
0
  6
CONTINUOUS
 10
-361.64435396325229
 20
419.88063328156318
 30
0.0
 42
-0.9999999882829797
  0
SEQEND
  5
2C6E
  8
0
  6
CONTINUOUS
  0
POLYLINE
  5
27C5
  8
0
  6
CONTINUOUS
 66
     1
 10
0.0
 20
0.0
 30
0.0
 70
     1
  0
VERTEX
  5
2C6F
  8
0
  6
CONTINUOUS
 10
-368.16184024388713
 20
419.55161390445249
 30
0.0
  0
VERTEX
  5
2C70
  8
0
  6
CONTINUOUS
 10
-368.16184024388713
 20
422.95152484012999
 30
0.0
 42
-0.9999999882804281
  0
VERTEX
  5
2C71
  8
0
  6
CONTINUOUS
 10
-367.89311562224179
 20
423.22024946177459
 30
0.0
  0
VERTEX
  5
2C72
  8
0
  6
CONTINUOUS
 10
-367.24935681184041
 20
423.2202494617747
 30
0.0
 42
-0.999999988280428
  0
VERTEX
  5
2C73
  8
0
  6
CONTINUOUS
 10
-366.98063219019582
 20
422.95152484012959
 30
0.0
  0
VERTEX
  5
2C74
  8
0
  6
CONTINUOUS
 10
-366.98063219019582
 20
419.55161390445249
 30
0.0
 42
-0.9999999882804278
  0
VERTEX
  5
2C75
  8
0
  6
CONTINUOUS
 10
-367.2493568118411
 20
419.28288928280392
 30
0.0
  0
VERTEX
  5
2C76
  8
0
  6
CONTINUOUS
 10
-367.89311562224219
 20
419.28288928280381
 30
0.0
 42
-0.999999988280428
  0
SEQEND
  5
2C77
  8
0
  6
CONTINUOUS
  0
POLYLINE
  5
27C6
  8
0
  6
CONTINUOUS
 66
     1
 10
0.0
 20
0.0
 30
0.0
 70
     1
  0
VERTEX
  5
2C78
  8
0
  6
CONTINUOUS
 10
-365.65571048997202
 20
413.3768490143475
 30
0.0
 42
0.4142135623730951
  0
VERTEX
  5
2C79
  8
0
  6
CONTINUOUS
 10
-365.40568811860737
 20
413.62687138571209
 30
0.0
  0
VERTEX
  5
2C7A
  8
0
  6
CONTINUOUS
 10
-365.40568811860737
 20
414.36726171340962
 30
0.0
 42
0.4054988976350947
  0
VERTEX
  5
2C7B
  8
0
  6
CONTINUOUS
 10
-365.64824964745998
 20
414.61717274160128
 30
0.0
  0
VERTEX
  5
2C7C
  8
0
  6
CONTINUOUS
 10
-367.1097128878186
 20
414.6608032574361
 30
0.0
 42
-0.9851876673895548
  0
VERTEX
  5
2C7D
  8
0
  6
CONTINUOUS
 10
-367.37436820809279
 20
414.9334775084605
 30
0.0
  0
VERTEX
  5
2C7E
  8
0
  6
CONTINUOUS
 10
-367.37436820809279
 20
415.07680448218821
 30
0.0
 42
-0.9999999882803713
  0
VERTEX
  5
2C7F
  8
0
  6
CONTINUOUS
 10
-367.10564358644751
 20
415.3455291038328
 30
0.0
  0
VERTEX
  5
2C80
  8
0
  6
CONTINUOUS
 10
-359.74967022151571
 20
415.34552910383292
 30
0.0
 42
0.4142135623730284
  0
VERTEX
  5
2C81
  8
0
  6
CONTINUOUS
 10
-359.49964785015101
 20
415.59555147519762
 30
0.0
  0
VERTEX
  5
2C82
  8
0
  6
CONTINUOUS
 10
-359.49964785015089
 20
426.907587269381
 30
0.0
 42
0.4142135623730951
  0
VERTEX
  5
2C83
  8
0
  6
CONTINUOUS
 10
-359.74967022151571
 20
427.15760964074559
 30
0.0
  0
VERTEX
  5
2C84
  8
0
  6
CONTINUOUS
 10
-369.09302592621361
 20
427.15760964074559
 30
0.0
 42
0.4142135623730951
  0
VERTEX
  5
2C85
  8
0
  6
CONTINUOUS
 10
-369.34304829757821
 20
426.907587269381
 30
0.0
  0
VERTEX
  5
2C86
  8
0
  6
CONTINUOUS
 10
-369.34304829757838
 20
413.62687138571209
 30
0.0
 42
0.4142135623730951
  0
VERTEX
  5
2C87
  8
0
  6
CONTINUOUS
 10
-369.09302592621361
 20
413.3768490143475
 30
0.0
  0
SEQEND
  5
2C88
  8
0
  6
CONTINUOUS
  0
POLYLINE
  5
27C7
  8
0
  6
CONTINUOUS
 66
     1
 10
0.0
 20
0.0
 30
0.0
 70
     1
  0
VERTEX
  5
2C89
  8
0
  6
CONTINUOUS
 10
-354.14141538541583
 20
424.87972713610009
 30
0.0
 42
-0.9999999882829797
  0
VERTEX
  5
2C8A
  8
0
  6
CONTINUOUS
 10
-354.14141538541782
 20
425.25976114057448
 30
0.0
  0
VERTEX
  5
2C8B
  8
0
  6
CONTINUOUS
 10
-353.99453698044709
 20
425.4066395455452
 30
0.0
 42
-0.999999988280095
  0
VERTEX
  5
2C8C
  8
0
  6
CONTINUOUS
 10
-353.61450297597293
 20
425.40663954554373
 30
0.0
  0
VERTEX
  5
2C8D
  8
0
  6
CONTINUOUS
 10
-351.21040289792501
 20
423.00253946749342
 30
0.0
 42
-0.9999999882829797
  0
VERTEX
  5
2C8E
  8
0
  6
CONTINUOUS
 10
-351.21040289792319
 20
422.62250546301919
 30
0.0
  0
VERTEX
  5
2C8F
  8
0
  6
CONTINUOUS
 10
-351.35728130289192
 20
422.4756270580524
 30
0.0
 42
-0.999999988280095
  0
VERTEX
  5
2C90
  8
0
  6
CONTINUOUS
 10
-351.73731530736632
 20
422.47562705805399
 30
0.0
  0
SEQEND
  5
2C91
  8
0
  6
CONTINUOUS
  0
POLYLINE
  5
27C8
  8
0
  6
CONTINUOUS
 66
     1
 10
0.0
 20
0.0
 30
0.0
 70
     1
  0
VERTEX
  5
2C92
  8
0
  6
CONTINUOUS
 10
-351.21040289792501
 20
419.50059927708878
 30
0.0
  0
VERTEX
  5
2C93
  8
0
  6
CONTINUOUS
 10
-353.61450297597281
 20
417.09649919903711
 30
0.0
 42
-0.999999988280095
  0
VERTEX
  5
2C94
  8
0
  6
CONTINUOUS
 10
-353.99453698044721
 20
417.09649919903859
 30
0.0
  0
VERTEX
  5
2C95
  8
0
  6
CONTINUOUS
 10
-354.14141538541782
 20
417.24337760400391
 30
0.0
 42
-0.9999999882829797
  0
VERTEX
  5
2C96
  8
0
  6
CONTINUOUS
 10
-354.14141538541583
 20
417.62341160847808
 30
0.0
  0
VERTEX
  5
2C97
  8
0
  6
CONTINUOUS
 10
-351.73731530736609
 20
420.02751168652992
 30
0.0
 42
-0.999999988280095
  0
VERTEX
  5
2C98
  8
0
  6
CONTINUOUS
 10
-351.35728130289198
 20
420.02751168652838
 30
0.0
  0
VERTEX
  5
2C99
  8
0
  6
CONTINUOUS
 10
-351.21040289792501
 20
419.88063328156312
 30
0.0
 42
-0.9999999882829797
  0
SEQEND
  5
2C9A
  8
0
  6
CONTINUOUS
  0
POLYLINE
  5
27C9
  8
0
  6
CONTINUOUS
 66
     1
 10
0.0
 20
0.0
 30
0.0
 70
     1
  0
VERTEX
  5
2C9B
  8
0
  6
CONTINUOUS
 10
-357.72788917855979
 20
419.55161390445238
 30
0.0
  0
VERTEX
  5
2C9C
  8
0
  6
CONTINUOUS
 10
-357.72788917855979
 20
422.95152484012988
 30
0.0
 42
-0.9999999882804281
  0
VERTEX
  5
2C9D
  8
0
  6
CONTINUOUS
 10
-357.45916455691452
 20
423.22024946177447
 30
0.0
  0
VERTEX
  5
2C9E
  8
0
  6
CONTINUOUS
 10
-356.81540574651319
 20
423.22024946177459
 30
0.0
 42
-0.999999988280428
  0
VERTEX
  5
2C9F
  8
0
  6
CONTINUOUS
 10
-356.54668112486848
 20
422.95152484012948
 30
0.0
  0
VERTEX
  5
2CA0
  8
0
  6
CONTINUOUS
 10
-356.54668112486848
 20
419.55161390445238
 30
0.0
 42
-0.9999999882804278
  0
VERTEX
  5
2CA1
  8
0
  6
CONTINUOUS
 10
-356.81540574651382
 20
419.28288928280381
 30
0.0
  0
VERTEX
  5
2CA2
  8
0
  6
CONTINUOUS
 10
-357.45916455691491
 20
419.28288928280369
 30
0.0
 42
-0.999999988280428
  0
SEQEND
  5
2CA3
  8
0
  6
CONTINUOUS
  0
POLYLINE
  5
27CA
  8
0
  6
CONTINUOUS
 66
     1
 10
0.0
 20
0.0
 30
0.0
 70
     1
  0
VERTEX
  5
2CA4
  8
0
  6
CONTINUOUS
 10
-355.22175942464469
 20
413.37684901434739
 30
0.0
 42
0.4142135623730951
  0
VERTEX
  5
2CA5
  8
0
  6
CONTINUOUS
 10
-354.97173705328021
 20
413.62687138571198
 30
0.0
  0
VERTEX
  5
2CA6
  8
0
  6
CONTINUOUS
 10
-354.97173705328009
 20
414.3672617134095
 30
0.0
 42
0.4054988976350947
  0
VERTEX
  5
2CA7
  8
0
  6
CONTINUOUS
 10
-355.21429858213281
 20
414.61717274160122
 30
0.0
  0
VERTEX
  5
2CA8
  8
0
  6
CONTINUOUS
 10
-356.67576182249132
 20
414.66080325743599
 30
0.0
 42
-0.9851876673895548
  0
VERTEX
  5
2CA9
  8
0
  6
CONTINUOUS
 10
-356.94041714276551
 20
414.93347750846038
 30
0.0
  0
VERTEX
  5
2CAA
  8
0
  6
CONTINUOUS
 10
-356.94041714276551
 20
415.07680448218798
 30
0.0
 42
-0.9999999882803713
  0
VERTEX
  5
2CAB
  8
0
  6
CONTINUOUS
 10
-356.67169252112018
 20
415.34552910383269
 30
0.0
  0
VERTEX
  5
2CAC
  8
0
  6
CONTINUOUS
 10
-349.31571915618849
 20
415.34552910383269
 30
0.0
 42
0.4142135623730284
  0
VERTEX
  5
2CAD
  8
0
  6
CONTINUOUS
 10
-349.06569678482379
 20
415.5955514751974
 30
0.0
  0
VERTEX
  5
2CAE
  8
0
  6
CONTINUOUS
 10
-349.06569678482361
 20
426.90758726938088
 30
0.0
 42
0.4142135623730951
  0
VERTEX
  5
2CAF
  8
0
  6
CONTINUOUS
 10
-349.31571915618849
 20
427.15760964074548
 30
0.0
  0
VERTEX
  5
2CB0
  8
0
  6
CONTINUOUS
 10
-358.65907486088628
 20
427.15760964074548
 30
0.0
 42
0.4142135623730951
  0
VERTEX
  5
2CB1
  8
0
  6
CONTINUOUS
 10
-358.90909723225087
 20
426.90758726938088
 30
0.0
  0
VERTEX
  5
2CB2
  8
0
  6
CONTINUOUS
 10
-358.9090972322511
 20
413.62687138571198
 30
0.0
 42
0.4142135623730951
  0
VERTEX
  5
2CB3
  8
0
  6
CONTINUOUS
 10
-358.65907486088628
 20
413.37684901434739
 30
0.0
  0
SEQEND
  5
2CB4
  8
0
  6
CONTINUOUS
  0
POLYLINE
  5
27D2
  8
0
  6
CONTINUOUS
 66
     1
 10
0.0
 20
0.0
 30
0.0
 70
     1
  0
VERTEX
  5
2CB5
  8
0
  6
CONTINUOUS
 10
-359.60088287534808
 20
414.50495494116802
 30
0.0
 42
0.4142135623730951
  0
VERTEX
  5
2CB6
  8
0
  6
CONTINUOUS
 10
-359.85090524671273
 20
414.75497731253267
 30
0.0
  0
VERTEX
  5
2CB7
  8
0
  6
CONTINUOUS
 10
-363.27050256214892
 20
414.75497731253267
 30
0.0
 42
0.4142135623730951
  0
VERTEX
  5
2CB8
  8
0
  6
CONTINUOUS
 10
-363.52052493351351
 20
414.50495494116802
 30
0.0
  0
VERTEX
  5
2CB9
  8
0
  6
CONTINUOUS
 10
-363.52052493351351
 20
412.7557824710907
 30
0.0
 42
-0.9999999882804281
  0
VERTEX
  5
2CBA
  8
0
  6
CONTINUOUS
 10
-363.78924955515822
 20
412.48705784944542
 30
0.0
  0
VERTEX
  5
2CBB
  8
0
  6
CONTINUOUS
 10
-364.72220726013552
 20
412.48705784944542
 30
0.0
 42
0.4142135623730951
  0
VERTEX
  5
2CBC
  8
0
  6
CONTINUOUS
 10
-364.97222963150011
 20
412.23703547808088
 30
0.0
  0
VERTEX
  5
2CBD
  8
0
  6
CONTINUOUS
 10
-364.97222963150011
 20
411.3058497957536
 30
0.0
 42
-0.2339845462446278
  0
VERTEX
  5
2CBE
  8
0
  6
CONTINUOUS
 10
-364.8737956270258
 20
411.10702285289528
 30
0.0
  0
VERTEX
  5
2CBF
  8
0
  6
CONTINUOUS
 10
-364.8737956270258
 20
390.24293177216629
 30
0.0
 42
-0.2339845462446278
  0
VERTEX
  5
2CC0
  8
0
  6
CONTINUOUS
 10
-364.97222963150011
 20
390.04410482930808
 30
0.0
  0
VERTEX
  5
2CC1
  8
0
  6
CONTINUOUS
 10
-364.97222963150011
 20
389.11291914698472
 30
0.0
 42
0.4142135623730951
  0
VERTEX
  5
2CC2
  8
0
  6
CONTINUOUS
 10
-364.72220726013552
 20
388.86289677562007
 30
0.0
  0
VERTEX
  5
2CC3
  8
0
  6
CONTINUOUS
 10
-363.78924955515822
 20
388.86289677562007
 30
0.0
 42
-0.999999988280428
  0
VERTEX
  5
2CC4
  8
0
  6
CONTINUOUS
 10
-363.52052493351351
 20
388.59417215397491
 30
0.0
  0
VERTEX
  5
2CC5
  8
0
  6
CONTINUOUS
 10
-363.52052493351351
 20
386.84499968389753
 30
0.0
 42
0.4142135623730951
  0
VERTEX
  5
2CC6
  8
0
  6
CONTINUOUS
 10
-363.27050256214892
 20
386.59497731253282
 30
0.0
  0
VERTEX
  5
2CC7
  8
0
  6
CONTINUOUS
 10
-359.85090524671273
 20
386.59497731253282
 30
0.0
 42
0.4142135623730951
  0
VERTEX
  5
2CC8
  8
0
  6
CONTINUOUS
 10
-359.60088287534791
 20
386.84499968389753
 30
0.0
  0
VERTEX
  5
2CC9
  8
0
  6
CONTINUOUS
 10
-359.60088287534791
 20
388.59417215397531
 30
0.0
 42
-0.9999999882804278
  0
VERTEX
  5
2CCA
  8
0
  6
CONTINUOUS
 10
-359.33215825370252
 20
388.86289677562002
 30
0.0
  0
VERTEX
  5
2CCB
  8
0
  6
CONTINUOUS
 10
-357.82237728250669
 20
388.86289677562007
 30
0.0
 42
0.4142135623730951
  0
VERTEX
  5
2CCC
  8
0
  6
CONTINUOUS
 10
-357.5723549111421
 20
389.11291914698472
 30
0.0
  0
VERTEX
  5
2CCD
  8
0
  6
CONTINUOUS
 10
-357.5723549111421
 20
412.23703547808088
 30
0.0
 42
0.4142135623730951
  0
VERTEX
  5
2CCE
  8
0
  6
CONTINUOUS
 10
-357.82237728250669
 20
412.48705784944542
 30
0.0
  0
VERTEX
  5
2CCF
  8
0
  6
CONTINUOUS
 10
-359.3321582537032
 20
412.48705784944542
 30
0.0
 42
-0.999999988280428
  0
VERTEX
  5
2CD0
  8
0
  6
CONTINUOUS
 10
-359.60088287534791
 20
412.7557824710907
 30
0.0
  0
SEQEND
  5
2CD1
  8
0
  6
CONTINUOUS
  0
POLYLINE
  5
27D3
  8
0
  6
CONTINUOUS
 66
     1
 10
0.0
 20
0.0
 30
0.0
 70
     1
  0
VERTEX
  5
2CD2
  8
0
  6
CONTINUOUS
 10
-361.66456262059359
 20
387.41766746018391
 30
0.0
  0
VERTEX
  5
2CD3
  8
0
  6
CONTINUOUS
 10
-361.45684518826852
 20
387.41766746018391
 30
0.0
 42
0.9999999882804281
  0
VERTEX
  5
2CD4
  8
0
  6
CONTINUOUS
 10
-361.18812056662313
 20
387.68639208182861
 30
0.0
  0
VERTEX
  5
2CD5
  8
0
  6
CONTINUOUS
 10
-361.18812056662313
 20
387.89410951415391
 30
0.0
 42
0.999999988280428
  0
VERTEX
  5
2CD6
  8
0
  6
CONTINUOUS
 10
-361.45684518826778
 20
388.16283413579907
 30
0.0
  0
VERTEX
  5
2CD7
  8
0
  6
CONTINUOUS
 10
-361.6645626205929
 20
388.1628341357989
 30
0.0
 42
0.9999999882804278
  0
VERTEX
  5
2CD8
  8
0
  6
CONTINUOUS
 10
-361.93328724223818
 20
387.89410951415431
 30
0.0
  0
VERTEX
  5
2CD9
  8
0
  6
CONTINUOUS
 10
-361.93328724223818
 20
387.68639208182861
 30
0.0
 42
0.999999988280428
  0
SEQEND
  5
2CDA
  8
0
  6
CONTINUOUS
  0
POLYLINE
  5
27D4
  8
0
  6
CONTINUOUS
 66
     1
 10
0.0
 20
0.0
 30
0.0
 70
     1
  0
VERTEX
  5
2CDB
  8
0
  6
CONTINUOUS
 10
-361.66456262059359
 20
413.18712048926642
 30
0.0
  0
VERTEX
  5
2CDC
  8
0
  6
CONTINUOUS
 10
-361.45684518826852
 20
413.18712048926659
 30
0.0
 42
0.9999999882804281
  0
VERTEX
  5
2CDD
  8
0
  6
CONTINUOUS
 10
-361.18812056662313
 20
413.4558451109113
 30
0.0
  0
VERTEX
  5
2CDE
  8
0
  6
CONTINUOUS
 10
-361.18812056662313
 20
413.66356254323642
 30
0.0
 42
0.999999988280428
  0
VERTEX
  5
2CDF
  8
0
  6
CONTINUOUS
 10
-361.45684518826778
 20
413.9322871648817
 30
0.0
  0
VERTEX
  5
2CE0
  8
0
  6
CONTINUOUS
 10
-361.6645626205929
 20
413.9322871648817
 30
0.0
 42
0.9999999882804278
  0
VERTEX
  5
2CE1
  8
0
  6
CONTINUOUS
 10
-361.93328724223818
 20
413.66356254323699
 30
0.0
  0
VERTEX
  5
2CE2
  8
0
  6
CONTINUOUS
 10
-361.93328724223818
 20
413.4558451109113
 30
0.0
 42
0.999999988280428
  0
SEQEND
  5
2CE3
  8
0
  6
CONTINUOUS
  0
POLYLINE
  5
27D5
  8
0
  6
CONTINUOUS
 66
     1
 10
0.0
 20
0.0
 30
0.0
 70
     1
  0
VERTEX
  5
2CE4
  8
0
  6
CONTINUOUS
 10
-350.46154437721458
 20
386.84499968389753
 30
0.0
  0
VERTEX
  5
2CE5
  8
0
  6
CONTINUOUS
 10
-350.46154437721458
 20
388.59417215397542
 30
0.0
 42
-0.9999999882804278
  0
VERTEX
  5
2CE6
  8
0
  6
CONTINUOUS
 10
-350.1928197555693
 20
388.86289677562007
 30
0.0
  0
VERTEX
  5
2CE7
  8
0
  6
CONTINUOUS
 10
-349.04291350473147
 20
388.86289677562019
 30
0.0
 42
0.4142135623730951
  0
VERTEX
  5
2CE8
  8
0
  6
CONTINUOUS
 10
-348.79289113336682
 20
389.11291914698478
 30
0.0
  0
VERTEX
  5
2CE9
  8
0
  6
CONTINUOUS
 10
-348.79289113336682
 20
412.23703547808088
 30
0.0
 42
0.4142135623730951
  0
VERTEX
  5
2CEA
  8
0
  6
CONTINUOUS
 10
-349.04291350473147
 20
412.48705784944559
 30
0.0
  0
VERTEX
  5
2CEB
  8
0
  6
CONTINUOUS
 10
-350.19281975556589
 20
412.48705784944559
 30
0.0
 42
-0.999999988280428
  0
VERTEX
  5
2CEC
  8
0
  6
CONTINUOUS
 10
-350.46154437721458
 20
412.7557824710907
 30
0.0
  0
VERTEX
  5
2CED
  8
0
  6
CONTINUOUS
 10
-350.46154437721458
 20
414.50495494116808
 30
0.0
 42
0.4142135623730951
  0
VERTEX
  5
2CEE
  8
0
  6
CONTINUOUS
 10
-350.71156674857917
 20
414.75497731253267
 30
0.0
  0
VERTEX
  5
2CEF
  8
0
  6
CONTINUOUS
 10
-354.13116406401548
 20
414.75497731253267
 30
0.0
 42
0.4142135623730951
  0
VERTEX
  5
2CF0
  8
0
  6
CONTINUOUS
 10
-354.38118643538007
 20
414.50495494116808
 30
0.0
  0
VERTEX
  5
2CF1
  8
0
  6
CONTINUOUS
 10
-354.38118643538007
 20
412.7557824710907
 30
0.0
 42
-0.9999999882804281
  0
VERTEX
  5
2CF2
  8
0
  6
CONTINUOUS
 10
-354.64991105702501
 20
412.48705784944559
 30
0.0
  0
VERTEX
  5
2CF3
  8
0
  6
CONTINUOUS
 10
-356.73257793426183
 20
412.48705784944559
 30
0.0
 42
0.4142135623730951
  0
VERTEX
  5
2CF4
  8
0
  6
CONTINUOUS
 10
-356.98260030562642
 20
412.23703547808088
 30
0.0
  0
VERTEX
  5
2CF5
  8
0
  6
CONTINUOUS
 10
-356.98260030562642
 20
389.11291914698478
 30
0.0
 42
0.4142135623730951
  0
VERTEX
  5
2CF6
  8
0
  6
CONTINUOUS
 10
-356.73257793426183
 20
388.86289677562019
 30
0.0
  0
VERTEX
  5
2CF7
  8
0
  6
CONTINUOUS
 10
-354.64991105702541
 20
388.86289677562007
 30
0.0
 42
-0.999999988280428
  0
VERTEX
  5
2CF8
  8
0
  6
CONTINUOUS
 10
-354.3811864353803
 20
388.59417215397542
 30
0.0
  0
VERTEX
  5
2CF9
  8
0
  6
CONTINUOUS
 10
-354.3811864353803
 20
386.84499968389753
 30
0.0
 42
0.4142135623730951
  0
VERTEX
  5
2CFA
  8
0
  6
CONTINUOUS
 10
-354.13116406401548
 20
386.59497731253288
 30
0.0
  0
VERTEX
  5
2CFB
  8
0
  6
CONTINUOUS
 10
-350.71156674857917
 20
386.59497731253288
 30
0.0
 42
0.4142135623730951
  0
SEQEND
  5
2CFC
  8
0
  6
CONTINUOUS
  0
POLYLINE
  5
27D6
  8
0
  6
CONTINUOUS
 66
     1
 10
0.0
 20
0.0
 30
0.0
 70
     1
  0
VERTEX
  5
2CFD
  8
0
  6
CONTINUOUS
 10
-352.3175066901353
 20
387.41766746018391
 30
0.0
 42
0.9999999882804281
  0
VERTEX
  5
2CFE
  8
0
  6
CONTINUOUS
 10
-352.04878206848991
 20
387.68639208182861
 30
0.0
  0
VERTEX
  5
2CFF
  8
0
  6
CONTINUOUS
 10
-352.04878206848991
 20
387.89410951415391
 30
0.0
 42
0.999999988280428
  0
VERTEX
  5
2D00
  8
0
  6
CONTINUOUS
 10
-352.31750669013451
 20
388.16283413579907
 30
0.0
  0
VERTEX
  5
2D01
  8
0
  6
CONTINUOUS
 10
-352.52522412245969
 20
388.16283413579902
 30
0.0
 42
0.9999999882804278
  0
VERTEX
  5
2D02
  8
0
  6
CONTINUOUS
 10
-352.79394874410502
 20
387.89410951415431
 30
0.0
  0
VERTEX
  5
2D03
  8
0
  6
CONTINUOUS
 10
-352.79394874410502
 20
387.68639208182918
 30
0.0
 42
0.999999988280428
  0
VERTEX
  5
2D04
  8
0
  6
CONTINUOUS
 10
-352.52522412245969
 20
387.41766746018391
 30
0.0
  0
SEQEND
  5
2D05
  8
0
  6
CONTINUOUS
  0
POLYLINE
  5
27D7
  8
0
  6
CONTINUOUS
 66
     1
 10
0.0
 20
0.0
 30
0.0
 70
     1
  0
VERTEX
  5
2D06
  8
0
  6
CONTINUOUS
 10
-352.79394874410502
 20
413.45584511091181
 30
0.0
 42
0.999999988280428
  0
VERTEX
  5
2D07
  8
0
  6
CONTINUOUS
 10
-352.52522412245628
 20
413.18712048926648
 30
0.0
  0
VERTEX
  5
2D08
  8
0
  6
CONTINUOUS
 10
-352.3175066901353
 20
413.18712048926659
 30
0.0
 42
0.9999999882804281
  0
VERTEX
  5
2D09
  8
0
  6
CONTINUOUS
 10
-352.04878206848991
 20
413.4558451109113
 30
0.0
  0
VERTEX
  5
2D0A
  8
0
  6
CONTINUOUS
 10
-352.04878206848991
 20
413.66356254323659
 30
0.0
 42
0.999999988280428
  0
VERTEX
  5
2D0B
  8
0
  6
CONTINUOUS
 10
-352.31750669013451
 20
413.9322871648817
 30
0.0
  0
VERTEX
  5
2D0C
  8
0
  6
CONTINUOUS
 10
-352.52522412245969
 20
413.9322871648817
 30
0.0
 42
0.9999999882804278
  0
VERTEX
  5
2D0D
  8
0
  6
CONTINUOUS
 10
-352.79394874410502
 20
413.66356254323659
 30
0.0
  0
SEQEND
  5
2D0E
  8
0
  6
CONTINUOUS
  0
POLYLINE
  5
2806
  8
0
  6
CONTINUOUS
 66
     1
 10
0.0
 20
0.0
 30
0.0
 70
     1
  0
VERTEX
  5
2D0F
  8
0
  6
CONTINUOUS
 10
-412.09584099211418
 20
414.50495494116802
 30
0.0
 42
0.4142135623730951
  0
VERTEX
  5
2D10
  8
0
  6
CONTINUOUS
 10
-412.34586336347883
 20
414.75497731253267
 30
0.0
  0
VERTEX
  5
2D11
  8
0
  6
CONTINUOUS
 10
-415.76546067891502
 20
414.75497731253267
 30
0.0
 42
0.4142135623730951
  0
VERTEX
  5
2D12
  8
0
  6
CONTINUOUS
 10
-416.01548305027961
 20
414.50495494116802
 30
0.0
  0
VERTEX
  5
2D13
  8
0
  6
CONTINUOUS
 10
-416.01548305027961
 20
412.7557824710907
 30
0.0
 42
-0.9999999882804281
  0
VERTEX
  5
2D14
  8
0
  6
CONTINUOUS
 10
-416.28420767192421
 20
412.48705784944542
 30
0.0
  0
VERTEX
  5
2D15
  8
0
  6
CONTINUOUS
 10
-417.21716537690162
 20
412.48705784944542
 30
0.0
 42
0.4142135623730951
  0
VERTEX
  5
2D16
  8
0
  6
CONTINUOUS
 10
-417.46718774826621
 20
412.23703547808088
 30
0.0
  0
VERTEX
  5
2D17
  8
0
  6
CONTINUOUS
 10
-417.46718774826621
 20
411.3058497957536
 30
0.0
 42
-0.2339845462446278
  0
VERTEX
  5
2D18
  8
0
  6
CONTINUOUS
 10
-417.3687537437919
 20
411.10702285289528
 30
0.0
  0
VERTEX
  5
2D19
  8
0
  6
CONTINUOUS
 10
-417.3687537437919
 20
390.24293177216629
 30
0.0
 42
-0.2339845462446278
  0
VERTEX
  5
2D1A
  8
0
  6
CONTINUOUS
 10
-417.46718774826621
 20
390.04410482930808
 30
0.0
  0
VERTEX
  5
2D1B
  8
0
  6
CONTINUOUS
 10
-417.46718774826621
 20
389.11291914698472
 30
0.0
 42
0.4142135623730951
  0
VERTEX
  5
2D1C
  8
0
  6
CONTINUOUS
 10
-417.21716537690162
 20
388.86289677562007
 30
0.0
  0
VERTEX
  5
2D1D
  8
0
  6
CONTINUOUS
 10
-416.28420767192421
 20
388.86289677562007
 30
0.0
 42
-0.999999988280428
  0
VERTEX
  5
2D1E
  8
0
  6
CONTINUOUS
 10
-416.01548305027961
 20
388.59417215397491
 30
0.0
  0
VERTEX
  5
2D1F
  8
0
  6
CONTINUOUS
 10
-416.01548305027961
 20
386.84499968389753
 30
0.0
 42
0.4142135623730951
  0
VERTEX
  5
2D20
  8
0
  6
CONTINUOUS
 10
-415.76546067891502
 20
386.59497731253282
 30
0.0
  0
VERTEX
  5
2D21
  8
0
  6
CONTINUOUS
 10
-412.34586336347883
 20
386.59497731253282
 30
0.0
 42
0.4142135623730951
  0
VERTEX
  5
2D22
  8
0
  6
CONTINUOUS
 10
-412.09584099211401
 20
386.84499968389753
 30
0.0
  0
VERTEX
  5
2D23
  8
0
  6
CONTINUOUS
 10
-412.09584099211401
 20
388.59417215397531
 30
0.0
 42
-0.9999999882804278
  0
VERTEX
  5
2D24
  8
0
  6
CONTINUOUS
 10
-411.82711637046867
 20
388.86289677562002
 30
0.0
  0
VERTEX
  5
2D25
  8
0
  6
CONTINUOUS
 10
-410.31733539927279
 20
388.86289677562007
 30
0.0
 42
0.4142135623730951
  0
VERTEX
  5
2D26
  8
0
  6
CONTINUOUS
 10
-410.0673130279082
 20
389.11291914698472
 30
0.0
  0
VERTEX
  5
2D27
  8
0
  6
CONTINUOUS
 10
-410.0673130279082
 20
412.23703547808088
 30
0.0
 42
0.4142135623730951
  0
VERTEX
  5
2D28
  8
0
  6
CONTINUOUS
 10
-410.31733539927279
 20
412.48705784944542
 30
0.0
  0
VERTEX
  5
2D29
  8
0
  6
CONTINUOUS
 10
-411.8271163704693
 20
412.48705784944542
 30
0.0
 42
-0.999999988280428
  0
VERTEX
  5
2D2A
  8
0
  6
CONTINUOUS
 10
-412.09584099211401
 20
412.7557824710907
 30
0.0
  0
SEQEND
  5
2D2B
  8
0
  6
CONTINUOUS
  0
POLYLINE
  5
2807
  8
0
  6
CONTINUOUS
 66
     1
 10
0.0
 20
0.0
 30
0.0
 70
     1
  0
VERTEX
  5
2D2C
  8
0
  6
CONTINUOUS
 10
-414.15952073735968
 20
387.41766746018391
 30
0.0
  0
VERTEX
  5
2D2D
  8
0
  6
CONTINUOUS
 10
-413.95180330503462
 20
387.41766746018391
 30
0.0
 42
0.9999999882804281
  0
VERTEX
  5
2D2E
  8
0
  6
CONTINUOUS
 10
-413.68307868338923
 20
387.68639208182861
 30
0.0
  0
VERTEX
  5
2D2F
  8
0
  6
CONTINUOUS
 10
-413.68307868338923
 20
387.89410951415391
 30
0.0
 42
0.999999988280428
  0
VERTEX
  5
2D30
  8
0
  6
CONTINUOUS
 10
-413.95180330503388
 20
388.16283413579907
 30
0.0
  0
VERTEX
  5
2D31
  8
0
  6
CONTINUOUS
 10
-414.159520737359
 20
388.1628341357989
 30
0.0
 42
0.9999999882804278
  0
VERTEX
  5
2D32
  8
0
  6
CONTINUOUS
 10
-414.42824535900439
 20
387.89410951415431
 30
0.0
  0
VERTEX
  5
2D33
  8
0
  6
CONTINUOUS
 10
-414.42824535900439
 20
387.68639208182861
 30
0.0
 42
0.999999988280428
  0
SEQEND
  5
2D34
  8
0
  6
CONTINUOUS
  0
POLYLINE
  5
2808
  8
0
  6
CONTINUOUS
 66
     1
 10
0.0
 20
0.0
 30
0.0
 70
     1
  0
VERTEX
  5
2D35
  8
0
  6
CONTINUOUS
 10
-414.15952073735968
 20
413.18712048926642
 30
0.0
  0
VERTEX
  5
2D36
  8
0
  6
CONTINUOUS
 10
-413.95180330503462
 20
413.18712048926659
 30
0.0
 42
0.9999999882804281
  0
VERTEX
  5
2D37
  8
0
  6
CONTINUOUS
 10
-413.68307868338923
 20
413.4558451109113
 30
0.0
  0
VERTEX
  5
2D38
  8
0
  6
CONTINUOUS
 10
-413.68307868338923
 20
413.66356254323642
 30
0.0
 42
0.999999988280428
  0
VERTEX
  5
2D39
  8
0
  6
CONTINUOUS
 10
-413.95180330503388
 20
413.9322871648817
 30
0.0
  0
VERTEX
  5
2D3A
  8
0
  6
CONTINUOUS
 10
-414.159520737359
 20
413.9322871648817
 30
0.0
 42
0.9999999882804278
  0
VERTEX
  5
2D3B
  8
0
  6
CONTINUOUS
 10
-414.42824535900439
 20
413.66356254323699
 30
0.0
  0
VERTEX
  5
2D3C
  8
0
  6
CONTINUOUS
 10
-414.42824535900439
 20
413.4558451109113
 30
0.0
 42
0.999999988280428
  0
SEQEND
  5
2D3D
  8
0
  6
CONTINUOUS
  0
POLYLINE
  5
2809
  8
0
  6
CONTINUOUS
 66
     1
 10
0.0
 20
0.0
 30
0.0
 70
     1
  0
VERTEX
  5
2D3E
  8
0
  6
CONTINUOUS
 10
-402.95650249398079
 20
386.84499968389753
 30
0.0
  0
VERTEX
  5
2D3F
  8
0
  6
CONTINUOUS
 10
-402.95650249398079
 20
388.59417215397542
 30
0.0
 42
-0.9999999882804278
  0
VERTEX
  5
2D40
  8
0
  6
CONTINUOUS
 10
-402.6877778723354
 20
388.86289677562007
 30
0.0
  0
VERTEX
  5
2D41
  8
0
  6
CONTINUOUS
 10
-401.53787162149757
 20
388.86289677562019
 30
0.0
 42
0.4142135623730951
  0
VERTEX
  5
2D42
  8
0
  6
CONTINUOUS
 10
-401.28784925013298
 20
389.11291914698478
 30
0.0
  0
VERTEX
  5
2D43
  8
0
  6
CONTINUOUS
 10
-401.28784925013298
 20
412.23703547808088
 30
0.0
 42
0.4142135623730951
  0
VERTEX
  5
2D44
  8
0
  6
CONTINUOUS
 10
-401.53787162149757
 20
412.48705784944559
 30
0.0
  0
VERTEX
  5
2D45
  8
0
  6
CONTINUOUS
 10
-402.68777787233199
 20
412.48705784944559
 30
0.0
 42
-0.999999988280428
  0
VERTEX
  5
2D46
  8
0
  6
CONTINUOUS
 10
-402.95650249398079
 20
412.7557824710907
 30
0.0
  0
VERTEX
  5
2D47
  8
0
  6
CONTINUOUS
 10
-402.95650249398068
 20
414.50495494116808
 30
0.0
 42
0.4142135623730951
  0
VERTEX
  5
2D48
  8
0
  6
CONTINUOUS
 10
-403.20652486534527
 20
414.75497731253267
 30
0.0
  0
VERTEX
  5
2D49
  8
0
  6
CONTINUOUS
 10
-406.62612218078158
 20
414.75497731253267
 30
0.0
 42
0.4142135623730951
  0
VERTEX
  5
2D4A
  8
0
  6
CONTINUOUS
 10
-406.87614455214617
 20
414.50495494116808
 30
0.0
  0
VERTEX
  5
2D4B
  8
0
  6
CONTINUOUS
 10
-406.87614455214617
 20
412.7557824710907
 30
0.0
 42
-0.9999999882804281
  0
VERTEX
  5
2D4C
  8
0
  6
CONTINUOUS
 10
-407.14486917379111
 20
412.48705784944559
 30
0.0
  0
VERTEX
  5
2D4D
  8
0
  6
CONTINUOUS
 10
-409.22753605102793
 20
412.48705784944559
 30
0.0
 42
0.4142135623730951
  0
VERTEX
  5
2D4E
  8
0
  6
CONTINUOUS
 10
-409.47755842239252
 20
412.23703547808088
 30
0.0
  0
VERTEX
  5
2D4F
  8
0
  6
CONTINUOUS
 10
-409.47755842239252
 20
389.11291914698478
 30
0.0
 42
0.4142135623730951
  0
VERTEX
  5
2D50
  8
0
  6
CONTINUOUS
 10
-409.22753605102793
 20
388.86289677562019
 30
0.0
  0
VERTEX
  5
2D51
  8
0
  6
CONTINUOUS
 10
-407.14486917379162
 20
388.86289677562007
 30
0.0
 42
-0.999999988280428
  0
VERTEX
  5
2D52
  8
0
  6
CONTINUOUS
 10
-406.8761445521464
 20
388.59417215397542
 30
0.0
  0
VERTEX
  5
2D53
  8
0
  6
CONTINUOUS
 10
-406.8761445521464
 20
386.84499968389753
 30
0.0
 42
0.4142135623730951
  0
VERTEX
  5
2D54
  8
0
  6
CONTINUOUS
 10
-406.62612218078158
 20
386.59497731253288
 30
0.0
  0
VERTEX
  5
2D55
  8
0
  6
CONTINUOUS
 10
-403.20652486534527
 20
386.59497731253288
 30
0.0
 42
0.4142135623730951
  0
SEQEND
  5
2D56
  8
0
  6
CONTINUOUS
  0
POLYLINE
  5
280A
  8
0
  6
CONTINUOUS
 66
     1
 10
0.0
 20
0.0
 30
0.0
 70
     1
  0
VERTEX
  5
2D57
  8
0
  6
CONTINUOUS
 10
-404.8124648069014
 20
387.41766746018391
 30
0.0
 42
0.9999999882804281
  0
VERTEX
  5
2D58
  8
0
  6
CONTINUOUS
 10
-404.54374018525601
 20
387.68639208182861
 30
0.0
  0
VERTEX
  5
2D59
  8
0
  6
CONTINUOUS
 10
-404.54374018525601
 20
387.89410951415391
 30
0.0
 42
0.999999988280428
  0
VERTEX
  5
2D5A
  8
0
  6
CONTINUOUS
 10
-404.81246480690061
 20
388.16283413579907
 30
0.0
  0
VERTEX
  5
2D5B
  8
0
  6
CONTINUOUS
 10
-405.02018223922579
 20
388.16283413579902
 30
0.0
 42
0.9999999882804278
  0
VERTEX
  5
2D5C
  8
0
  6
CONTINUOUS
 10
-405.28890686087118
 20
387.89410951415431
 30
0.0
  0
VERTEX
  5
2D5D
  8
0
  6
CONTINUOUS
 10
-405.28890686087118
 20
387.68639208182918
 30
0.0
 42
0.999999988280428
  0
VERTEX
  5
2D5E
  8
0
  6
CONTINUOUS
 10
-405.02018223922579
 20
387.41766746018391
 30
0.0
  0
SEQEND
  5
2D5F
  8
0
  6
CONTINUOUS
  0
POLYLINE
  5
280B
  8
0
  6
CONTINUOUS
 66
     1
 10
0.0
 20
0.0
 30
0.0
 70
     1
  0
VERTEX
  5
2D60
  8
0
  6
CONTINUOUS
 10
-405.28890686087118
 20
413.45584511091181
 30
0.0
 42
0.999999988280428
  0
VERTEX
  5
2D61
  8
0
  6
CONTINUOUS
 10
-405.02018223922238
 20
413.18712048926648
 30
0.0
  0
VERTEX
  5
2D62
  8
0
  6
CONTINUOUS
 10
-404.8124648069014
 20
413.18712048926659
 30
0.0
 42
0.9999999882804281
  0
VERTEX
  5
2D63
  8
0
  6
CONTINUOUS
 10
-404.54374018525601
 20
413.4558451109113
 30
0.0
  0
VERTEX
  5
2D64
  8
0
  6
CONTINUOUS
 10
-404.54374018525601
 20
413.66356254323659
 30
0.0
 42
0.999999988280428
  0
VERTEX
  5
2D65
  8
0
  6
CONTINUOUS
 10
-404.81246480690061
 20
413.9322871648817
 30
0.0
  0
VERTEX
  5
2D66
  8
0
  6
CONTINUOUS
 10
-405.02018223922579
 20
413.9322871648817
 30
0.0
 42
0.9999999882804278
  0
VERTEX
  5
2D67
  8
0
  6
CONTINUOUS
 10
-405.28890686087118
 20
413.66356254323659
 30
0.0
  0
SEQEND
  5
2D68
  8
0
  6
CONTINUOUS
  0
POLYLINE
  5
280F
  8
ERASE
 66
     1
 10
0.0
 20
0.0
 30
0.0
 70
     1
  0
VERTEX
  5
2D69
  8
ERASE
 10
-450.33797095541189
 20
434.00497731253279
 30
0.0
  0
VERTEX
  5
2D6A
  8
ERASE
 10
-426.33797095541189
 20
434.00497731253279
 30
0.0
  0
VERTEX
  5
2D6B
  8
ERASE
 10
-426.33797095541189
 20
386.0049773125329
 30
0.0
  0
VERTEX
  5
2D6C
  8
ERASE
 10
-450.33797095541189
 20
386.0049773125329
 30
0.0
  0
SEQEND
  5
2D6D
  8
ERASE
  0
LINE
  5
2811
  8
0
  6
CONTINUOUS
 10
-437.63461256434908
 20
419.4397485235973
 30
0.0
 11
-437.04406194644901
 21
419.4397485235973
 31
0.0
  0
LINE
  5
2812
  8
0
  6
CONTINUOUS
 10
-437.04406194644901
 20
418.78316640179742
 30
0.0
 11
-437.63461256434908
 21
418.78316640179742
 31
0.0
  0
POLYLINE
  5
2815
  8
0
  6
CONTINUOUS
 66
     1
 10
0.0
 20
0.0
 30
0.0
 70
     1
  0
VERTEX
  5
2D6E
  8
0
  6
CONTINUOUS
 10
-442.71044627278809
 20
424.87972713610031
 30
0.0
 42
-0.9999999882829797
  0
VERTEX
  5
2D6F
  8
0
  6
CONTINUOUS
 10
-442.71044627279019
 20
425.2597611405746
 30
0.0
  0
VERTEX
  5
2D70
  8
0
  6
CONTINUOUS
 10
-442.56356786781947
 20
425.40663954554532
 30
0.0
 42
-0.999999988280095
  0
VERTEX
  5
2D71
  8
0
  6
CONTINUOUS
 10
-442.1835338633453
 20
425.40663954554378
 30
0.0
  0
VERTEX
  5
2D72
  8
0
  6
CONTINUOUS
 10
-439.77943378529739
 20
423.00253946749348
 30
0.0
 42
-0.9999999882829797
  0
VERTEX
  5
2D73
  8
0
  6
CONTINUOUS
 10
-439.77943378529551
 20
422.62250546301931
 30
0.0
  0
VERTEX
  5
2D74
  8
0
  6
CONTINUOUS
 10
-439.92631219026418
 20
422.47562705805262
 30
0.0
 42
-0.999999988280095
  0
VERTEX
  5
2D75
  8
0
  6
CONTINUOUS
 10
-440.30634619473858
 20
422.4756270580541
 30
0.0
  0
SEQEND
  5
2D76
  8
0
  6
CONTINUOUS
  0
POLYLINE
  5
2816
  8
0
  6
CONTINUOUS
 66
     1
 10
0.0
 20
0.0
 30
0.0
 70
     1
  0
VERTEX
  5
2D77
  8
0
  6
CONTINUOUS
 10
-439.77943378529739
 20
419.5005992770889
 30
0.0
  0
VERTEX
  5
2D78
  8
0
  6
CONTINUOUS
 10
-442.18353386334508
 20
417.09649919903723
 30
0.0
 42
-0.999999988280095
  0
VERTEX
  5
2D79
  8
0
  6
CONTINUOUS
 10
-442.56356786781959
 20
417.0964991990387
 30
0.0
  0
VERTEX
  5
2D7A
  8
0
  6
CONTINUOUS
 10
-442.71044627279019
 20
417.24337760400402
 30
0.0
 42
-0.9999999882829797
  0
VERTEX
  5
2D7B
  8
0
  6
CONTINUOUS
 10
-442.71044627278809
 20
417.62341160847831
 30
0.0
  0
VERTEX
  5
2D7C
  8
0
  6
CONTINUOUS
 10
-440.30634619473852
 20
420.02751168652998
 30
0.0
 42
-0.999999988280095
  0
VERTEX
  5
2D7D
  8
0
  6
CONTINUOUS
 10
-439.9263121902643
 20
420.02751168652838
 30
0.0
  0
VERTEX
  5
2D7E
  8
0
  6
CONTINUOUS
 10
-439.77943378529739
 20
419.88063328156318
 30
0.0
 42
-0.9999999882829797
  0
SEQEND
  5
2D7F
  8
0
  6
CONTINUOUS
  0
POLYLINE
  5
2817
  8
0
  6
CONTINUOUS
 66
     1
 10
0.0
 20
0.0
 30
0.0
 70
     1
  0
VERTEX
  5
2D80
  8
0
  6
CONTINUOUS
 10
-446.29692006593223
 20
419.55161390445249
 30
0.0
  0
VERTEX
  5
2D81
  8
0
  6
CONTINUOUS
 10
-446.29692006593223
 20
422.95152484012999
 30
0.0
 42
-0.9999999882804281
  0
VERTEX
  5
2D82
  8
0
  6
CONTINUOUS
 10
-446.02819544428678
 20
423.22024946177459
 30
0.0
  0
VERTEX
  5
2D83
  8
0
  6
CONTINUOUS
 10
-445.38443663388551
 20
423.2202494617747
 30
0.0
 42
-0.999999988280428
  0
VERTEX
  5
2D84
  8
0
  6
CONTINUOUS
 10
-445.11571201224092
 20
422.95152484012959
 30
0.0
  0
VERTEX
  5
2D85
  8
0
  6
CONTINUOUS
 10
-445.11571201224092
 20
419.55161390445249
 30
0.0
 42
-0.9999999882804278
  0
VERTEX
  5
2D86
  8
0
  6
CONTINUOUS
 10
-445.3844366338862
 20
419.28288928280392
 30
0.0
  0
VERTEX
  5
2D87
  8
0
  6
CONTINUOUS
 10
-446.02819544428729
 20
419.28288928280381
 30
0.0
 42
-0.999999988280428
  0
SEQEND
  5
2D88
  8
0
  6
CONTINUOUS
  0
POLYLINE
  5
2818
  8
0
  6
CONTINUOUS
 66
     1
 10
0.0
 20
0.0
 30
0.0
 70
     1
  0
VERTEX
  5
2D89
  8
0
  6
CONTINUOUS
 10
-443.79079031201712
 20
413.3768490143475
 30
0.0
 42
0.4142135623730951
  0
VERTEX
  5
2D8A
  8
0
  6
CONTINUOUS
 10
-443.54076794065247
 20
413.62687138571209
 30
0.0
  0
VERTEX
  5
2D8B
  8
0
  6
CONTINUOUS
 10
-443.54076794065242
 20
414.36726171340962
 30
0.0
 42
0.4054988976350947
  0
VERTEX
  5
2D8C
  8
0
  6
CONTINUOUS
 10
-443.78332946950508
 20
414.61717274160128
 30
0.0
  0
VERTEX
  5
2D8D
  8
0
  6
CONTINUOUS
 10
-445.2447927098637
 20
414.6608032574361
 30
0.0
 42
-0.9851876673895548
  0
VERTEX
  5
2D8E
  8
0
  6
CONTINUOUS
 10
-445.50944803013789
 20
414.9334775084605
 30
0.0
  0
VERTEX
  5
2D8F
  8
0
  6
CONTINUOUS
 10
-445.50944803013789
 20
415.07680448218821
 30
0.0
 42
-0.9999999882803713
  0
VERTEX
  5
2D90
  8
0
  6
CONTINUOUS
 10
-445.2407234084925
 20
415.3455291038328
 30
0.0
  0
VERTEX
  5
2D91
  8
0
  6
CONTINUOUS
 10
-437.8847500435607
 20
415.34552910383292
 30
0.0
 42
0.4142135623730284
  0
VERTEX
  5
2D92
  8
0
  6
CONTINUOUS
 10
-437.63472767219611
 20
415.59555147519762
 30
0.0
  0
VERTEX
  5
2D93
  8
0
  6
CONTINUOUS
 10
-437.63472767219599
 20
426.907587269381
 30
0.0
 42
0.4142135623730951
  0
VERTEX
  5
2D94
  8
0
  6
CONTINUOUS
 10
-437.8847500435607
 20
427.15760964074559
 30
0.0
  0
VERTEX
  5
2D95
  8
0
  6
CONTINUOUS
 10
-447.2281057482586
 20
427.15760964074559
 30
0.0
 42
0.4142135623730951
  0
VERTEX
  5
2D96
  8
0
  6
CONTINUOUS
 10
-447.47812811962331
 20
426.907587269381
 30
0.0
  0
VERTEX
  5
2D97
  8
0
  6
CONTINUOUS
 10
-447.47812811962348
 20
413.62687138571209
 30
0.0
 42
0.4142135623730951
  0
VERTEX
  5
2D98
  8
0
  6
CONTINUOUS
 10
-447.2281057482586
 20
413.3768490143475
 30
0.0
  0
SEQEND
  5
2D99
  8
0
  6
CONTINUOUS
  0
POLYLINE
  5
2819
  8
0
  6
CONTINUOUS
 66
     1
 10
0.0
 20
0.0
 30
0.0
 70
     1
  0
VERTEX
  5
2D9A
  8
0
  6
CONTINUOUS
 10
-432.27649520746081
 20
424.87972713610009
 30
0.0
 42
-0.9999999882829797
  0
VERTEX
  5
2D9B
  8
0
  6
CONTINUOUS
 10
-432.27649520746292
 20
425.25976114057448
 30
0.0
  0
VERTEX
  5
2D9C
  8
0
  6
CONTINUOUS
 10
-432.12961680249219
 20
425.4066395455452
 30
0.0
 42
-0.999999988280095
  0
VERTEX
  5
2D9D
  8
0
  6
CONTINUOUS
 10
-431.74958279801803
 20
425.40663954554373
 30
0.0
  0
VERTEX
  5
2D9E
  8
0
  6
CONTINUOUS
 10
-429.34548271997011
 20
423.00253946749342
 30
0.0
 42
-0.9999999882829797
  0
VERTEX
  5
2D9F
  8
0
  6
CONTINUOUS
 10
-429.34548271996817
 20
422.62250546301919
 30
0.0
  0
VERTEX
  5
2DA0
  8
0
  6
CONTINUOUS
 10
-429.49236112493702
 20
422.4756270580524
 30
0.0
 42
-0.999999988280095
  0
VERTEX
  5
2DA1
  8
0
  6
CONTINUOUS
 10
-429.8723951294113
 20
422.47562705805399
 30
0.0
  0
SEQEND
  5
2DA2
  8
0
  6
CONTINUOUS
  0
POLYLINE
  5
281A
  8
0
  6
CONTINUOUS
 66
     1
 10
0.0
 20
0.0
 30
0.0
 70
     1
  0
VERTEX
  5
2DA3
  8
0
  6
CONTINUOUS
 10
-429.34548271997011
 20
419.50059927708878
 30
0.0
  0
VERTEX
  5
2DA4
  8
0
  6
CONTINUOUS
 10
-431.74958279801791
 20
417.09649919903711
 30
0.0
 42
-0.999999988280095
  0
VERTEX
  5
2DA5
  8
0
  6
CONTINUOUS
 10
-432.12961680249231
 20
417.09649919903859
 30
0.0
  0
VERTEX
  5
2DA6
  8
0
  6
CONTINUOUS
 10
-432.27649520746292
 20
417.24337760400391
 30
0.0
 42
-0.9999999882829797
  0
VERTEX
  5
2DA7
  8
0
  6
CONTINUOUS
 10
-432.27649520746081
 20
417.62341160847808
 30
0.0
  0
VERTEX
  5
2DA8
  8
0
  6
CONTINUOUS
 10
-429.87239512941119
 20
420.02751168652992
 30
0.0
 42
-0.999999988280095
  0
VERTEX
  5
2DA9
  8
0
  6
CONTINUOUS
 10
-429.49236112493702
 20
420.02751168652838
 30
0.0
  0
VERTEX
  5
2DAA
  8
0
  6
CONTINUOUS
 10
-429.34548271997011
 20
419.88063328156312
 30
0.0
 42
-0.9999999882829797
  0
SEQEND
  5
2DAB
  8
0
  6
CONTINUOUS
  0
POLYLINE
  5
281B
  8
0
  6
CONTINUOUS
 66
     1
 10
0.0
 20
0.0
 30
0.0
 70
     1
  0
VERTEX
  5
2DAC
  8
0
  6
CONTINUOUS
 10
-435.86296900060489
 20
419.55161390445238
 30
0.0
  0
VERTEX
  5
2DAD
  8
0
  6
CONTINUOUS
 10
-435.86296900060489
 20
422.95152484012988
 30
0.0
 42
-0.9999999882804281
  0
VERTEX
  5
2DAE
  8
0
  6
CONTINUOUS
 10
-435.5942443789595
 20
423.22024946177447
 30
0.0
  0
VERTEX
  5
2DAF
  8
0
  6
CONTINUOUS
 10
-434.95048556855818
 20
423.22024946177459
 30
0.0
 42
-0.999999988280428
  0
VERTEX
  5
2DB0
  8
0
  6
CONTINUOUS
 10
-434.68176094691358
 20
422.95152484012948
 30
0.0
  0
VERTEX
  5
2DB1
  8
0
  6
CONTINUOUS
 10
-434.68176094691358
 20
419.55161390445238
 30
0.0
 42
-0.9999999882804278
  0
VERTEX
  5
2DB2
  8
0
  6
CONTINUOUS
 10
-434.95048556855892
 20
419.28288928280381
 30
0.0
  0
VERTEX
  5
2DB3
  8
0
  6
CONTINUOUS
 10
-435.59424437896001
 20
419.28288928280369
 30
0.0
 42
-0.999999988280428
  0
SEQEND
  5
2DB4
  8
0
  6
CONTINUOUS
  0
POLYLINE
  5
281C
  8
0
  6
CONTINUOUS
 66
     1
 10
0.0
 20
0.0
 30
0.0
 70
     1
  0
VERTEX
  5
2DB5
  8
0
  6
CONTINUOUS
 10
-433.35683924668979
 20
413.37684901434739
 30
0.0
 42
0.4142135623730951
  0
VERTEX
  5
2DB6
  8
0
  6
CONTINUOUS
 10
-433.10681687532519
 20
413.62687138571198
 30
0.0
  0
VERTEX
  5
2DB7
  8
0
  6
CONTINUOUS
 10
-433.10681687532519
 20
414.3672617134095
 30
0.0
 42
0.4054988976350947
  0
VERTEX
  5
2DB8
  8
0
  6
CONTINUOUS
 10
-433.3493784041778
 20
414.61717274160122
 30
0.0
  0
VERTEX
  5
2DB9
  8
0
  6
CONTINUOUS
 10
-434.81084164453642
 20
414.66080325743599
 30
0.0
 42
-0.9851876673895548
  0
VERTEX
  5
2DBA
  8
0
  6
CONTINUOUS
 10
-435.07549696481061
 20
414.93347750846038
 30
0.0
  0
VERTEX
  5
2DBB
  8
0
  6
CONTINUOUS
 10
-435.07549696481061
 20
415.07680448218798
 30
0.0
 42
-0.9999999882803713
  0
VERTEX
  5
2DBC
  8
0
  6
CONTINUOUS
 10
-434.80677234316522
 20
415.34552910383269
 30
0.0
  0
VERTEX
  5
2DBD
  8
0
  6
CONTINUOUS
 10
-427.45079897823348
 20
415.34552910383269
 30
0.0
 42
0.4142135623730284
  0
VERTEX
  5
2DBE
  8
0
  6
CONTINUOUS
 10
-427.20077660686883
 20
415.5955514751974
 30
0.0
  0
VERTEX
  5
2DBF
  8
0
  6
CONTINUOUS
 10
-427.20077660686871
 20
426.90758726938088
 30
0.0
 42
0.4142135623730951
  0
VERTEX
  5
2DC0
  8
0
  6
CONTINUOUS
 10
-427.45079897823348
 20
427.15760964074548
 30
0.0
  0
VERTEX
  5
2DC1
  8
0
  6
CONTINUOUS
 10
-436.79415468293132
 20
427.15760964074548
 30
0.0
 42
0.4142135623730951
  0
VERTEX
  5
2DC2
  8
0
  6
CONTINUOUS
 10
-437.04417705429597
 20
426.90758726938088
 30
0.0
  0
VERTEX
  5
2DC3
  8
0
  6
CONTINUOUS
 10
-437.0441770542962
 20
413.62687138571198
 30
0.0
 42
0.4142135623730951
  0
VERTEX
  5
2DC4
  8
0
  6
CONTINUOUS
 10
-436.79415468293132
 20
413.37684901434739
 30
0.0
  0
SEQEND
  5
2DC5
  8
0
  6
CONTINUOUS
  0
POLYLINE
  5
281F
  8
0
  6
CONTINUOUS
 66
     1
 10
0.0
 20
0.0
 30
0.0
 70
     1
  0
VERTEX
  5
2DC6
  8
0
  6
CONTINUOUS
 10
-437.73596269739312
 20
414.50495494116802
 30
0.0
 42
0.4142135623730951
  0
VERTEX
  5
2DC7
  8
0
  6
CONTINUOUS
 10
-437.98598506875771
 20
414.75497731253267
 30
0.0
  0
VERTEX
  5
2DC8
  8
0
  6
CONTINUOUS
 10
-441.40558238419402
 20
414.75497731253267
 30
0.0
 42
0.4142135623730951
  0
VERTEX
  5
2DC9
  8
0
  6
CONTINUOUS
 10
-441.65560475555861
 20
414.50495494116802
 30
0.0
  0
VERTEX
  5
2DCA
  8
0
  6
CONTINUOUS
 10
-441.65560475555861
 20
412.7557824710907
 30
0.0
 42
-0.9999999882804281
  0
VERTEX
  5
2DCB
  8
0
  6
CONTINUOUS
 10
-441.92432937720332
 20
412.48705784944542
 30
0.0
  0
VERTEX
  5
2DCC
  8
0
  6
CONTINUOUS
 10
-442.85728708218051
 20
412.48705784944542
 30
0.0
 42
0.4142135623730951
  0
VERTEX
  5
2DCD
  8
0
  6
CONTINUOUS
 10
-443.1073094535451
 20
412.23703547808088
 30
0.0
  0
VERTEX
  5
2DCE
  8
0
  6
CONTINUOUS
 10
-443.1073094535451
 20
411.3058497957536
 30
0.0
 42
-0.2339845462446278
  0
VERTEX
  5
2DCF
  8
0
  6
CONTINUOUS
 10
-443.0088754490709
 20
411.10702285289528
 30
0.0
  0
VERTEX
  5
2DD0
  8
0
  6
CONTINUOUS
 10
-443.0088754490709
 20
390.24293177216629
 30
0.0
 42
-0.2339845462446278
  0
VERTEX
  5
2DD1
  8
0
  6
CONTINUOUS
 10
-443.1073094535451
 20
390.04410482930808
 30
0.0
  0
VERTEX
  5
2DD2
  8
0
  6
CONTINUOUS
 10
-443.1073094535451
 20
389.11291914698472
 30
0.0
 42
0.4142135623730951
  0
VERTEX
  5
2DD3
  8
0
  6
CONTINUOUS
 10
-442.85728708218051
 20
388.86289677562007
 30
0.0
  0
VERTEX
  5
2DD4
  8
0
  6
CONTINUOUS
 10
-441.92432937720332
 20
388.86289677562007
 30
0.0
 42
-0.999999988280428
  0
VERTEX
  5
2DD5
  8
0
  6
CONTINUOUS
 10
-441.65560475555861
 20
388.59417215397491
 30
0.0
  0
VERTEX
  5
2DD6
  8
0
  6
CONTINUOUS
 10
-441.65560475555861
 20
386.84499968389753
 30
0.0
 42
0.4142135623730951
  0
VERTEX
  5
2DD7
  8
0
  6
CONTINUOUS
 10
-441.40558238419402
 20
386.59497731253282
 30
0.0
  0
VERTEX
  5
2DD8
  8
0
  6
CONTINUOUS
 10
-437.98598506875771
 20
386.59497731253282
 30
0.0
 42
0.4142135623730951
  0
VERTEX
  5
2DD9
  8
0
  6
CONTINUOUS
 10
-437.73596269739289
 20
386.84499968389753
 30
0.0
  0
VERTEX
  5
2DDA
  8
0
  6
CONTINUOUS
 10
-437.73596269739289
 20
388.59417215397531
 30
0.0
 42
-0.9999999882804278
  0
VERTEX
  5
2DDB
  8
0
  6
CONTINUOUS
 10
-437.46723807574762
 20
388.86289677562002
 30
0.0
  0
VERTEX
  5
2DDC
  8
0
  6
CONTINUOUS
 10
-435.95745710455168
 20
388.86289677562007
 30
0.0
 42
0.4142135623730951
  0
VERTEX
  5
2DDD
  8
0
  6
CONTINUOUS
 10
-435.7074347331872
 20
389.11291914698472
 30
0.0
  0
VERTEX
  5
2DDE
  8
0
  6
CONTINUOUS
 10
-435.7074347331872
 20
412.23703547808088
 30
0.0
 42
0.4142135623730951
  0
VERTEX
  5
2DDF
  8
0
  6
CONTINUOUS
 10
-435.95745710455168
 20
412.48705784944542
 30
0.0
  0
VERTEX
  5
2DE0
  8
0
  6
CONTINUOUS
 10
-437.46723807574818
 20
412.48705784944542
 30
0.0
 42
-0.999999988280428
  0
VERTEX
  5
2DE1
  8
0
  6
CONTINUOUS
 10
-437.73596269739289
 20
412.7557824710907
 30
0.0
  0
SEQEND
  5
2DE2
  8
0
  6
CONTINUOUS
  0
POLYLINE
  5
2820
  8
0
  6
CONTINUOUS
 66
     1
 10
0.0
 20
0.0
 30
0.0
 70
     1
  0
VERTEX
  5
2DE3
  8
0
  6
CONTINUOUS
 10
-439.79964244263869
 20
387.41766746018391
 30
0.0
  0
VERTEX
  5
2DE4
  8
0
  6
CONTINUOUS
 10
-439.5919250103135
 20
387.41766746018391
 30
0.0
 42
0.9999999882804281
  0
VERTEX
  5
2DE5
  8
0
  6
CONTINUOUS
 10
-439.32320038866823
 20
387.68639208182861
 30
0.0
  0
VERTEX
  5
2DE6
  8
0
  6
CONTINUOUS
 10
-439.32320038866823
 20
387.89410951415391
 30
0.0
 42
0.999999988280428
  0
VERTEX
  5
2DE7
  8
0
  6
CONTINUOUS
 10
-439.59192501031282
 20
388.16283413579907
 30
0.0
  0
VERTEX
  5
2DE8
  8
0
  6
CONTINUOUS
 10
-439.799642442638
 20
388.1628341357989
 30
0.0
 42
0.9999999882804278
  0
VERTEX
  5
2DE9
  8
0
  6
CONTINUOUS
 10
-440.06836706428328
 20
387.89410951415431
 30
0.0
  0
VERTEX
  5
2DEA
  8
0
  6
CONTINUOUS
 10
-440.06836706428328
 20
387.68639208182861
 30
0.0
 42
0.999999988280428
  0
SEQEND
  5
2DEB
  8
0
  6
CONTINUOUS
  0
POLYLINE
  5
2821
  8
0
  6
CONTINUOUS
 66
     1
 10
0.0
 20
0.0
 30
0.0
 70
     1
  0
VERTEX
  5
2DEC
  8
0
  6
CONTINUOUS
 10
-439.79964244263869
 20
413.18712048926642
 30
0.0
  0
VERTEX
  5
2DED
  8
0
  6
CONTINUOUS
 10
-439.5919250103135
 20
413.18712048926659
 30
0.0
 42
0.9999999882804281
  0
VERTEX
  5
2DEE
  8
0
  6
CONTINUOUS
 10
-439.32320038866823
 20
413.4558451109113
 30
0.0
  0
VERTEX
  5
2DEF
  8
0
  6
CONTINUOUS
 10
-439.32320038866823
 20
413.66356254323642
 30
0.0
 42
0.999999988280428
  0
VERTEX
  5
2DF0
  8
0
  6
CONTINUOUS
 10
-439.59192501031282
 20
413.9322871648817
 30
0.0
  0
VERTEX
  5
2DF1
  8
0
  6
CONTINUOUS
 10
-439.799642442638
 20
413.9322871648817
 30
0.0
 42
0.9999999882804278
  0
VERTEX
  5
2DF2
  8
0
  6
CONTINUOUS
 10
-440.06836706428328
 20
413.66356254323699
 30
0.0
  0
VERTEX
  5
2DF3
  8
0
  6
CONTINUOUS
 10
-440.06836706428328
 20
413.4558451109113
 30
0.0
 42
0.999999988280428
  0
SEQEND
  5
2DF4
  8
0
  6
CONTINUOUS
  0
POLYLINE
  5
2822
  8
0
  6
CONTINUOUS
 66
     1
 10
0.0
 20
0.0
 30
0.0
 70
     1
  0
VERTEX
  5
2DF5
  8
0
  6
CONTINUOUS
 10
-428.59662419925968
 20
386.84499968389753
 30
0.0
  0
VERTEX
  5
2DF6
  8
0
  6
CONTINUOUS
 10
-428.59662419925968
 20
388.59417215397542
 30
0.0
 42
-0.9999999882804278
  0
VERTEX
  5
2DF7
  8
0
  6
CONTINUOUS
 10
-428.3278995776144
 20
388.86289677562007
 30
0.0
  0
VERTEX
  5
2DF8
  8
0
  6
CONTINUOUS
 10
-427.17799332677652
 20
388.86289677562019
 30
0.0
 42
0.4142135623730951
  0
VERTEX
  5
2DF9
  8
0
  6
CONTINUOUS
 10
-426.92797095541192
 20
389.11291914698478
 30
0.0
  0
VERTEX
  5
2DFA
  8
0
  6
CONTINUOUS
 10
-426.92797095541192
 20
412.23703547808088
 30
0.0
 42
0.4142135623730951
  0
VERTEX
  5
2DFB
  8
0
  6
CONTINUOUS
 10
-427.17799332677652
 20
412.48705784944559
 30
0.0
  0
VERTEX
  5
2DFC
  8
0
  6
CONTINUOUS
 10
-428.32789957761088
 20
412.48705784944559
 30
0.0
 42
-0.999999988280428
  0
VERTEX
  5
2DFD
  8
0
  6
CONTINUOUS
 10
-428.59662419925968
 20
412.7557824710907
 30
0.0
  0
VERTEX
  5
2DFE
  8
0
  6
CONTINUOUS
 10
-428.59662419925962
 20
414.50495494116808
 30
0.0
 42
0.4142135623730951
  0
VERTEX
  5
2DFF
  8
0
  6
CONTINUOUS
 10
-428.84664657062427
 20
414.75497731253267
 30
0.0
  0
VERTEX
  5
2E00
  8
0
  6
CONTINUOUS
 10
-432.26624388606052
 20
414.75497731253267
 30
0.0
 42
0.4142135623730951
  0
VERTEX
  5
2E01
  8
0
  6
CONTINUOUS
 10
-432.51626625742517
 20
414.50495494116808
 30
0.0
  0
VERTEX
  5
2E02
  8
0
  6
CONTINUOUS
 10
-432.51626625742517
 20
412.7557824710907
 30
0.0
 42
-0.9999999882804281
  0
VERTEX
  5
2E03
  8
0
  6
CONTINUOUS
 10
-432.78499087906999
 20
412.48705784944559
 30
0.0
  0
VERTEX
  5
2E04
  8
0
  6
CONTINUOUS
 10
-434.86765775630681
 20
412.48705784944559
 30
0.0
 42
0.4142135623730951
  0
VERTEX
  5
2E05
  8
0
  6
CONTINUOUS
 10
-435.11768012767141
 20
412.23703547808088
 30
0.0
  0
VERTEX
  5
2E06
  8
0
  6
CONTINUOUS
 10
-435.11768012767141
 20
389.11291914698478
 30
0.0
 42
0.4142135623730951
  0
VERTEX
  5
2E07
  8
0
  6
CONTINUOUS
 10
-434.86765775630681
 20
388.86289677562019
 30
0.0
  0
VERTEX
  5
2E08
  8
0
  6
CONTINUOUS
 10
-432.78499087907051
 20
388.86289677562007
 30
0.0
 42
-0.999999988280428
  0
VERTEX
  5
2E09
  8
0
  6
CONTINUOUS
 10
-432.51626625742529
 20
388.59417215397542
 30
0.0
  0
VERTEX
  5
2E0A
  8
0
  6
CONTINUOUS
 10
-432.51626625742529
 20
386.84499968389753
 30
0.0
 42
0.4142135623730951
  0
VERTEX
  5
2E0B
  8
0
  6
CONTINUOUS
 10
-432.26624388606052
 20
386.59497731253288
 30
0.0
  0
VERTEX
  5
2E0C
  8
0
  6
CONTINUOUS
 10
-428.84664657062427
 20
386.59497731253288
 30
0.0
 42
0.4142135623730951
  0
SEQEND
  5
2E0D
  8
0
  6
CONTINUOUS
  0
POLYLINE
  5
2823
  8
0
  6
CONTINUOUS
 66
     1
 10
0.0
 20
0.0
 30
0.0
 70
     1
  0
VERTEX
  5
2E0E
  8
0
  6
CONTINUOUS
 10
-430.45258651218029
 20
387.41766746018391
 30
0.0
 42
0.9999999882804281
  0
VERTEX
  5
2E0F
  8
0
  6
CONTINUOUS
 10
-430.18386189053501
 20
387.68639208182861
 30
0.0
  0
VERTEX
  5
2E10
  8
0
  6
CONTINUOUS
 10
-430.18386189053501
 20
387.89410951415391
 30
0.0
 42
0.999999988280428
  0
VERTEX
  5
2E11
  8
0
  6
CONTINUOUS
 10
-430.45258651217961
 20
388.16283413579907
 30
0.0
  0
VERTEX
  5
2E12
  8
0
  6
CONTINUOUS
 10
-430.66030394450479
 20
388.16283413579902
 30
0.0
 42
0.9999999882804278
  0
VERTEX
  5
2E13
  8
0
  6
CONTINUOUS
 10
-430.92902856615012
 20
387.89410951415431
 30
0.0
  0
VERTEX
  5
2E14
  8
0
  6
CONTINUOUS
 10
-430.92902856615012
 20
387.68639208182918
 30
0.0
 42
0.999999988280428
  0
VERTEX
  5
2E15
  8
0
  6
CONTINUOUS
 10
-430.66030394450479
 20
387.41766746018391
 30
0.0
  0
SEQEND
  5
2E16
  8
0
  6
CONTINUOUS
  0
POLYLINE
  5
2824
  8
0
  6
CONTINUOUS
 66
     1
 10
0.0
 20
0.0
 30
0.0
 70
     1
  0
VERTEX
  5
2E17
  8
0
  6
CONTINUOUS
 10
-430.92902856615012
 20
413.45584511091181
 30
0.0
 42
0.999999988280428
  0
VERTEX
  5
2E18
  8
0
  6
CONTINUOUS
 10
-430.66030394450138
 20
413.18712048926648
 30
0.0
  0
VERTEX
  5
2E19
  8
0
  6
CONTINUOUS
 10
-430.45258651218029
 20
413.18712048926659
 30
0.0
 42
0.9999999882804281
  0
VERTEX
  5
2E1A
  8
0
  6
CONTINUOUS
 10
-430.18386189053501
 20
413.4558451109113
 30
0.0
  0
VERTEX
  5
2E1B
  8
0
  6
CONTINUOUS
 10
-430.18386189053501
 20
413.66356254323659
 30
0.0
 42
0.999999988280428
  0
VERTEX
  5
2E1C
  8
0
  6
CONTINUOUS
 10
-430.45258651217961
 20
413.9322871648817
 30
0.0
  0
VERTEX
  5
2E1D
  8
0
  6
CONTINUOUS
 10
-430.66030394450479
 20
413.9322871648817
 30
0.0
 42
0.9999999882804278
  0
VERTEX
  5
2E1E
  8
0
  6
CONTINUOUS
 10
-430.92902856615012
 20
413.66356254323659
 30
0.0
  0
SEQEND
  5
2E1F
  8
0
  6
CONTINUOUS
  0
POLYLINE
  5
282F
  8
0
  6
CONTINUOUS
 66
     1
 10
0.0
 20
0.0
 30
0.0
 70
     1
  0
VERTEX
  5
2E20
  8
0
  6
CONTINUOUS
 10
-395.4815696459554
 20
428.70002323854152
 30
0.0
  0
VERTEX
  5
2E21
  8
0
  6
CONTINUOUS
 10
-393.4467625627517
 20
428.36138106074242
 30
0.0
 42
-0.9207651933220823
  0
VERTEX
  5
2E22
  8
0
  6
CONTINUOUS
 10
-393.4927333686266
 20
427.80513016070279
 30
0.0
  0
VERTEX
  5
2E23
  8
0
  6
CONTINUOUS
 10
-395.50291323439859
 20
427.80513016070279
 30
0.0
 42
-0.4142135623730951
  0
VERTEX
  5
2E24
  8
0
  6
CONTINUOUS
 10
-395.63292486750822
 20
427.93514179381242
 30
0.0
  0
VERTEX
  5
2E25
  8
0
  6
CONTINUOUS
 10
-395.63292486750811
 20
428.57177552520392
 30
0.0
 42
-0.4633830812107383
  0
SEQEND
  5
2E26
  8
0
  6
CONTINUOUS
  0
POLYLINE
  5
2831
  8
0
  6
CONTINUOUS
 66
     1
 10
0.0
 20
0.0
 30
0.0
 70
     1
  0
VERTEX
  5
2E27
  8
0
  6
CONTINUOUS
 10
-393.3581149053133
 20
429.22420535246891
 30
0.0
  0
VERTEX
  5
2E28
  8
0
  6
CONTINUOUS
 10
-395.392921988517
 20
429.56284753026802
 30
0.0
 42
-0.9207651933220823
  0
VERTEX
  5
2E29
  8
0
  6
CONTINUOUS
 10
-395.3469511826421
 20
430.11909843030759
 30
0.0
  0
VERTEX
  5
2E2A
  8
0
  6
CONTINUOUS
 10
-393.33677131687011
 20
430.11909843030759
 30
0.0
 42
-0.4142135623730951
  0
VERTEX
  5
2E2B
  8
0
  6
CONTINUOUS
 10
-393.20675968376042
 20
429.98908679719801
 30
0.0
  0
VERTEX
  5
2E2C
  8
0
  6
CONTINUOUS
 10
-393.20675968376059
 20
429.35245306580651
 30
0.0
 42
-0.4633830812107383
  0
SEQEND
  5
2E2D
  8
0
  6
CONTINUOUS
  0
LINE
  5
2832
  8
0
  6
CONTINUOUS
 10
-376.6909050959776
 20
427.15760964074548
 30
0.0
 11
-376.6909050959776
 21
427.80513016070267
 31
0.0
  0
LINE
  5
2834
  8
0
  6
CONTINUOUS
 10
-391.71340561830323
 20
412.23703547808088
 30
0.0
 11
-391.12285500040321
 21
412.23703547808088
 31
0.0
  0
LINE
  5
2835
  8
0
  6
CONTINUOUS
 10
-391.12285500040321
 20
411.58045335628083
 30
0.0
 11
-391.71340561830323
 21
411.58045335628083
 31
0.0
  0
LINE
  5
283D
  8
0
  6
CONTINUOUS
 10
-361.95613026978077
 20
414.75497731253267
 30
0.0
 11
-361.95613026978077
 21
415.34552910383269
 31
0.0
  0
LINE
  5
283E
  8
0
  6
CONTINUOUS
 10
-361.16527753908082
 20
415.34552910383269
 30
0.0
 11
-361.16527753908082
 21
414.75497731253267
 31
0.0
  0
LINE
  5
2841
  8
0
  6
CONTINUOUS
 10
-378.96741714055042
 20
414.75497731253267
 30
0.0
 11
-378.96741714055042
 21
415.34552910383269
 31
0.0
  0
LINE
  5
2842
  8
0
  6
CONTINUOUS
 10
-378.17656440985041
 20
415.34552910383269
 30
0.0
 11
-378.17656440985041
 21
414.75497731253267
 31
0.0
  0
LINE
  5
2845
  8
0
  6
CONTINUOUS
 10
-388.10675563868392
 20
414.75497731253267
 30
0.0
 11
-388.10675563868392
 21
415.34552910383269
 31
0.0
  0
LINE
  5
2846
  8
0
  6
CONTINUOUS
 10
-387.31590290798391
 20
415.34552910383269
 30
0.0
 11
-387.31590290798391
 21
414.75497731253267
 31
0.0
  0
LINE
  5
2849
  8
0
  6
CONTINUOUS
 10
-405.31174988841349
 20
414.75497731253267
 30
0.0
 11
-405.31174988841349
 21
415.34552910383269
 31
0.0
  0
LINE
  5
284A
  8
0
  6
CONTINUOUS
 10
-404.52089715771342
 20
415.34552910383269
 30
0.0
 11
-404.52089715771342
 21
414.75497731253267
 31
0.0
  0
LINE
  5
284D
  8
0
  6
CONTINUOUS
 10
-414.45108838654693
 20
414.75497731253267
 30
0.0
 11
-414.45108838654693
 21
415.34552910383269
 31
0.0
  0
LINE
  5
284E
  8
0
  6
CONTINUOUS
 10
-413.6602356558468
 20
415.34552910383269
 30
0.0
 11
-413.6602356558468
 21
414.75497731253267
 31
0.0
  0
LINE
  5
2851
  8
0
  6
CONTINUOUS
 10
-430.95187159369237
 20
414.75497731253267
 30
0.0
 11
-430.95187159369237
 21
415.34552910383269
 31
0.0
  0
LINE
  5
2852
  8
0
  6
CONTINUOUS
 10
-430.16101886299242
 20
415.34552910383269
 30
0.0
 11
-430.16101886299242
 21
414.75497731253267
 31
0.0
  0
LINE
  5
2855
  8
0
  6
CONTINUOUS
 10
-440.09121009182581
 20
414.75497731253267
 30
0.0
 11
-440.09121009182581
 21
415.34552910383269
 31
0.0
  0
LINE
  5
2856
  8
0
  6
CONTINUOUS
 10
-439.30035736112592
 20
415.34552910383269
 30
0.0
 11
-439.30035736112592
 21
414.75497731253267
 31
0.0
  0
LINE
  5
285B
  8
0
  6
CONTINUOUS
 10
-379.25642603462347
 20
427.15760964074548
 30
0.0
 11
-379.25642603462347
 21
427.80513016070267
 31
0.0
  0
LINE
  5
285C
  8
0
  6
CONTINUOUS
 10
-379.69536731062351
 20
427.15760964074548
 30
0.0
 11
-379.69536731062351
 21
427.80513016070267
 31
0.0
  0
LINE
  5
285F
  8
0
  6
CONTINUOUS
 10
-385.90029559041881
 20
427.15068705404559
 30
0.0
 11
-385.90029559041881
 21
427.80513016070279
 31
0.0
  0
LINE
  5
2860
  8
0
  6
CONTINUOUS
 10
-386.3392368664189
 20
427.15068705404559
 30
0.0
 11
-386.3392368664189
 21
427.80513016070279
 31
0.0
  0
LINE
  5
2863
  8
0
  6
CONTINUOUS
 10
-382.2608882492695
 20
427.15760964074542
 30
0.0
 11
-382.2608882492695
 21
427.80513016070262
 31
0.0
  0
LINE
  5
2864
  8
0
  6
CONTINUOUS
 10
-382.69982952526948
 20
427.15760964074542
 30
0.0
 11
-382.69982952526948
 21
427.80513016070262
 31
0.0
  0
LINE
  5
2867
  8
0
  6
CONTINUOUS
 10
-388.26942823422058
 20
427.15760964074559
 30
0.0
 11
-388.26942823422058
 21
427.80513016070279
 31
0.0
  0
LINE
  5
2868
  8
0
  6
CONTINUOUS
 10
-388.70836951022068
 20
427.15760964074559
 30
0.0
 11
-388.70836951022068
 21
427.80513016070279
 31
0.0
  0
LINE
  5
286B
  8
0
  6
CONTINUOUS
 10
-391.27389044886661
 20
427.15760964074559
 30
0.0
 11
-391.27389044886661
 21
427.80513016070279
 31
0.0
  0
LINE
  5
286C
  8
0
  6
CONTINUOUS
 10
-391.71283172486659
 20
427.15760964074559
 30
0.0
 11
-391.71283172486659
 21
427.80513016070279
 31
0.0
  0
LINE
  5
286F
  8
0
  6
CONTINUOUS
 10
-394.27835266351258
 20
427.15760964074559
 30
0.0
 11
-394.27835266351258
 21
427.80513016070279
 31
0.0
  0
LINE
  5
2870
  8
0
  6
CONTINUOUS
 10
-394.71729393951261
 20
427.15760964074559
 30
0.0
 11
-394.71729393951261
 21
427.80513016070279
 31
0.0
  0
LINE
  5
2879
  8
0
  6
CONTINUOUS
 10
-382.69982952526948
 20
431.43464040423419
 30
0.0
 11
-382.69982952526948
 21
432.31221785660159
 31
0.0
  0
LINE
  5
287A
  8
0
  6
CONTINUOUS
 10
-382.2608882492695
 20
431.36158972986919
 30
0.0
 11
-382.2608882492695
 21
432.23916718223671
 31
0.0
  0
LINE
  5
287B
  8
0
  6
CONTINUOUS
 10
-382.69982952526948
 20
430.11909843030742
 30
0.0
 11
-382.69982952526948
 21
430.62839917185579
 31
0.0
  0
LINE
  5
287C
  8
0
  6
CONTINUOUS
 10
-382.2608882492695
 20
430.11909843030742
 30
0.0
 11
-382.2608882492695
 21
430.62839917185579
 31
0.0
  0
LINE
  5
287D
  8
0
  6
CONTINUOUS
 10
-382.69982952526948
 20
428.5728288760854
 30
0.0
 11
-382.69982952526948
 21
429.45040632845291
 31
0.0
  0
LINE
  5
287E
  8
0
  6
CONTINUOUS
 10
-382.2608882492695
 20
428.49977820172052
 30
0.0
 11
-382.2608882492695
 21
429.37735565408792
 31
0.0
  0
LINE
  5
287F
  8
0
  6
CONTINUOUS
 10
-379.69536731062351
 20
431.43551630163699
 30
0.0
 11
-379.69536731062351
 21
432.3130937540044
 31
0.0
  0
LINE
  5
2880
  8
0
  6
CONTINUOUS
 10
-379.25642603462347
 20
431.362465627272
 30
0.0
 11
-379.25642603462347
 21
432.24004307963952
 31
0.0
  0
LINE
  5
2881
  8
0
  6
CONTINUOUS
 10
-379.69536731062351
 20
430.11909843030747
 30
0.0
 11
-379.69536731062351
 21
430.62839917185579
 31
0.0
  0
LINE
  5
2882
  8
0
  6
CONTINUOUS
 10
-379.25642603462347
 20
430.11909843030747
 30
0.0
 11
-379.25642603462347
 21
430.62839917185579
 31
0.0
  0
LINE
  5
2883
  8
0
  6
CONTINUOUS
 10
-379.69536731062351
 20
428.57282887608551
 30
0.0
 11
-379.69536731062351
 21
429.45040632845303
 31
0.0
  0
LINE
  5
2884
  8
0
  6
CONTINUOUS
 10
-379.25642603462347
 20
428.49977820172057
 30
0.0
 11
-379.25642603462347
 21
429.37735565408798
 31
0.0
  0
LINE
  5
2885
  8
0
  6
CONTINUOUS
 10
-386.3392368664189
 20
430.11904097365812
 30
0.0
 11
-386.3392368664189
 21
430.11909843030759
 31
0.0
  0
LINE
  5
2886
  8
0
  6
CONTINUOUS
 10
-386.3392368664189
 20
428.67856341537771
 30
0.0
 11
-386.3392368664189
 21
429.55614086774523
 31
0.0
  0
LINE
  5
2887
  8
0
  6
CONTINUOUS
 10
-385.90029559041881
 20
428.60551274101277
 30
0.0
 11
-385.90029559041881
 21
429.48309019338029
 31
0.0
  0
LINE
  5
2888
  8
0
  6
CONTINUOUS
 10
-388.70836951022068
 20
428.57282887608562
 30
0.0
 11
-388.70836951022068
 21
429.45040632845308
 31
0.0
  0
LINE
  5
2889
  8
0
  6
CONTINUOUS
 10
-388.26942823422058
 20
428.49977820172069
 30
0.0
 11
-388.26942823422058
 21
429.37735565408821
 31
0.0
  0
LINE
  5
288A
  8
0
  6
CONTINUOUS
 10
-391.71283172486659
 20
428.57282887608562
 30
0.0
 11
-391.71283172486659
 21
429.45040632845308
 31
0.0
  0
LINE
  5
288B
  8
0
  6
CONTINUOUS
 10
-391.27389044886661
 20
428.49977820172069
 30
0.0
 11
-391.27389044886661
 21
429.37735565408821
 31
0.0
  0
LINE
  5
288C
  8
0
  6
CONTINUOUS
 10
-394.71729393951261
 20
428.57282887608562
 30
0.0
 11
-394.71729393951261
 21
429.45040632845308
 31
0.0
  0
LINE
  5
288D
  8
0
  6
CONTINUOUS
 10
-394.27835266351258
 20
428.49977820172069
 30
0.0
 11
-394.27835266351258
 21
429.37735565408821
 31
0.0
  0
LINE
  5
288E
  8
0
  6
CONTINUOUS
 10
-376.6909050959776
 20
431.43551630163699
 30
0.0
 11
-376.6909050959776
 21
432.3130937540044
 31
0.0
  0
LINE
  5
288F
  8
0
  6
CONTINUOUS
 10
-376.2519638199775
 20
431.362465627272
 30
0.0
 11
-376.2519638199775
 21
432.24004307963952
 31
0.0
  0
LINE
  5
2890
  8
0
  6
CONTINUOUS
 10
-376.6909050959776
 20
430.11909843030747
 30
0.0
 11
-376.6909050959776
 21
430.62839917185579
 31
0.0
  0
LINE
  5
2891
  8
0
  6
CONTINUOUS
 10
-376.2519638199775
 20
430.11909843030747
 30
0.0
 11
-376.2519638199775
 21
430.62839917185579
 31
0.0
  0
LINE
  5
2892
  8
0
  6
CONTINUOUS
 10
-376.6909050959776
 20
428.57282887608551
 30
0.0
 11
-376.6909050959776
 21
429.45040632845303
 31
0.0
  0
LINE
  5
2893
  8
0
  6
CONTINUOUS
 10
-376.2519638199775
 20
428.49977820172057
 30
0.0
 11
-376.2519638199775
 21
429.37735565408798
 31
0.0
  0
LINE
  5
2894
  8
0
  6
CONTINUOUS
 10
-393.22657109025812
 20
402.6174652326028
 30
0.0
 11
-393.22657109025812
 21
403.20801702390293
 31
0.0
  0
LINE
  5
2895
  8
0
  6
CONTINUOUS
 10
-392.43571835955811
 20
403.20801702390293
 30
0.0
 11
-392.43571835955811
 21
402.6174652326028
 31
0.0
  0
LINE
  5
2898
  8
0
  6
CONTINUOUS
 10
-368.317786184515
 20
390.53233749150371
 30
0.0
 11
-368.317786184515
 21
391.12253674313268
 31
0.0
  0
LINE
  5
2899
  8
0
  6
CONTINUOUS
 10
-368.75672746051509
 20
390.53233749150371
 30
0.0
 11
-368.75672746051509
 21
391.12253674313268
 31
0.0
  0
ENDSEC
  0
EOF
